<svg xmlns="http://www.w3.org/2000/svg" viewBox="0 0 170 170.6"><style>.st8{fill:#191009}.st29{fill:#3e3d42}.st31{fill:#4e4741}.st32{fill:#e3e1e2}</style><g id="Objects"><path class="st8" d="M85 116.7c-28.1 0-50.9 24-50.9 53.6h101.8c0-29.6-22.8-53.6-50.9-53.6zM66 53.3c0-5.4-4.4-9.7-9.7-9.7s-9.7 4.4-9.7 9.7S51 63 56.3 63s9.7-4.3 9.7-9.7zM123.3 53.3c0-5.4-4.4-9.7-9.7-9.7-5.4 0-9.7 4.4-9.7 9.7s4.4 9.7 9.7 9.7c5.4 0 9.7-4.3 9.7-9.7z"/><path class="st29" d="M118.4 54.9c0-3.6-2.9-6.5-6.5-6.5s-6.5 2.9-6.5 6.5 2.9 6.5 6.5 6.5 6.5-2.9 6.5-6.5zM63.9 54.9c0-3.6-2.9-6.5-6.5-6.5s-6.5 2.9-6.5 6.5 2.9 6.5 6.5 6.5 6.5-2.9 6.5-6.5z"/><path d="M126.6 89.1c0-23-18.6-41.6-41.6-41.6S43.4 66.1 43.4 89.1 62 130.7 85 130.7c22.9.1 41.6-18.6 41.6-41.6z" fill="#fcfcfc"/><path class="st8" d="M82.3 87.2c2.9-7-3.9-15.8-12.8-14.2-8.9 1.6-18.6 20.9-12.9 26.7 5.7 5.9 21.7-2.8 25.7-12.5z"/><path class="st31" d="M75.7 85.5c0-2-1.6-3.7-3.7-3.7-2 0-3.7 1.6-3.7 3.7s1.6 3.7 3.7 3.7c2.1-.1 3.7-1.7 3.7-3.7z"/><path class="st32" d="M73.8 85.5c0-1-.8-1.8-1.8-1.8s-1.8.8-1.8 1.8.8 1.8 1.8 1.8c1-.1 1.8-.9 1.8-1.8z"/><path class="st8" d="M87.4 87.2c-2.9-7 3.9-15.8 12.8-14.2 8.9 1.6 18.6 20.9 12.9 26.7-5.6 5.9-21.6-2.8-25.7-12.5z"/><path class="st31" d="M94 85.5c0-2 1.6-3.7 3.7-3.7 2 0 3.7 1.6 3.7 3.7s-1.6 3.7-3.7 3.7c-2-.1-3.7-1.7-3.7-3.7z"/><path class="st32" d="M95.9 85.5c0-1 .8-1.8 1.8-1.8s1.8.8 1.8 1.8-.8 1.8-1.8 1.8c-1-.1-1.8-.9-1.8-1.8z"/><path class="st8" d="M87.6 102.4c3.1 0 4.1 2 2.2 4.5l-1.2 1.6c-1.9 2.5-5.1 2.5-7 0l-1.2-1.6c-1.9-2.5-1-4.5 2.2-4.5h5z"/><path class="st8" d="M75.4 112.7s5.4 1.7 9.5-2.4c3.6 2.8 5.8 3.7 9.7 1.4-4 4.4-8.4 3-9.8 2.7-3.1.7-8.6.6-9.4-1.7z"/><path d="M121.2 75.7c-.4-.6-.9-1.1-1.5-1.5-1.5-1-3.8-1.5-7.1-1.5-2.9 0-6 .4-8.8.7-.6.1-1.3.2-1.9.2-7.6.8-11.8 2.5-13.6 5.4-.6 1-.9 2-1 3.1-1.7-.6-3.4-.3-4.7.2-.1-1.2-.3-2.3-1-3.3-1.8-2.9-6-4.6-13.6-5.4-.6-.1-1.2-.1-1.9-.2-2.8-.3-5.9-.7-8.8-.7-.6 0-1.3 0-1.8.1-3.5.2-5.6 1.1-6.7 2.9-.6.9-.8 2.1-.7 3.4.1 1 .4 2 .9 3.2 4.4 10.1 10 15.1 17.6 15.4h1c5.1 0 11.3-1.8 13.1-6.9v-.1c.7-1.9 1.3-3.7 1.7-5.4.3-.2.7-.5 1.2-.7.9-.4 2.1-.6 3.4 0 .2.1.4.2.6.4.3 1.8 1 3.7 1.7 5.8l.1.1c1.8 5.1 7.9 6.9 13.1 6.9h1c7.6-.4 13.2-5.3 17.6-15.4.5-1.1.8-2.2.9-3.1.1-1.5-.1-2.6-.8-3.6M91.6 90.1l-.1-.1c-.8-2.3-1.5-4.4-1.8-6.1-.1-1.3 0-2.4.6-3.3 1.4-2.2 5.2-3.6 11.9-4.3.6-.1 1.2-.1 1.9-.2 2.7-.3 5.8-.7 8.5-.7 3.6 0 5.8.6 6.6 1.8.6.9.5 2.4-.4 4.3-4.1 9.3-8.9 13.7-15.6 14h-.9c-1.3-.1-8.9-.4-10.7-5.4m-13.2 0c-1.8 5.1-9.4 5.3-10.8 5.3h-.9c-6.7-.3-11.5-4.7-15.6-14-.8-2-1-3.4-.4-4.3.8-1.2 3-1.8 6.6-1.8 2.8 0 5.8.4 8.5.7.7.1 1.3.2 1.9.2 6.6.7 10.5 2.1 11.9 4.3 1.4 2.2.2 5.6-1.2 9.5v.1z" fill="#26232c"/></g></svg>