<svg xmlns="http://www.w3.org/2000/svg" viewBox="0 0 170 170.6"><style>.st7{fill:#fff}.st10{fill:#26232c}.st34{fill:#a95d21}.st35{fill:#f5c799}</style><g id="Objects"><path class="st34" d="M85.4 125.4c-24.4 0-44.1 20.8-44.1 46.4h88.2c0-25.6-19.7-46.4-44.1-46.4zM146 85.1c0 8.2-6.7 14.9-14.9 14.9s-14.9-6.7-14.9-14.9 6.7-14.9 14.9-14.9S146 76.9 146 85.1z"/><path class="st35" d="M140.8 85.1c0 5.4-4.3 9.7-9.7 9.7-5.3 0-9.7-4.3-9.7-9.7 0-5.4 4.3-9.7 9.7-9.7 5.4 0 9.7 4.4 9.7 9.7z"/><path class="st34" d="M54.6 85.1c0 8.2-6.7 14.9-14.9 14.9s-14.9-6.7-14.9-14.9 6.7-14.9 14.9-14.9c8.3 0 14.9 6.7 14.9 14.9z"/><path class="st35" d="M49.5 85.1c0 5.4-4.3 9.7-9.7 9.7-5.4 0-9.7-4.3-9.7-9.7 0-5.4 4.3-9.7 9.7-9.7 5.3 0 9.7 4.4 9.7 9.7z"/><circle transform="rotate(-7.591 85.384 92.272)" class="st34" cx="85.4" cy="92.3" r="41.9"/><g><path class="st35" d="M122.3 89.2c0-10.4-8.4-18.8-18.8-18.8-8.8 0-16.1 6-18.2 14.1-2.1-8.1-9.4-14.1-18.2-14.1-10.4 0-18.8 8.4-18.8 18.8S56.7 108 67.1 108v9.7c0 10.4 8.4 18.8 18.8 18.8s18.8-8.4 18.8-18.8V108c9.9-.7 17.6-8.9 17.6-18.8z"/><path class="st10" d="M78.5 91c0 2.1-1.7 3.9-3.9 3.9-2.1 0-3.9-1.7-3.9-3.9 0-2.1 1.7-3.9 3.9-3.9s3.9 1.8 3.9 3.9zM100.1 91c0 2.1-1.7 3.9-3.9 3.9-2.1 0-3.9-1.7-3.9-3.9 0-2.1 1.7-3.9 3.9-3.9 2.1 0 3.9 1.8 3.9 3.9z"/><path class="st7" d="M77.2 89.7c0 .7-.6 1.3-1.3 1.3-.7 0-1.3-.6-1.3-1.3 0-.7.6-1.3 1.3-1.3.8 0 1.3.6 1.3 1.3zM98.8 89.7c0 .7-.6 1.3-1.3 1.3-.7 0-1.3-.6-1.3-1.3 0-.7.6-1.3 1.3-1.3.7 0 1.3.6 1.3 1.3z"/></g><path class="st34" d="M89.3 104c3.8 0 5 2.5 2.7 5.5l-1.5 1.9c-2.4 3-6.2 3-8.6 0l-1.5-1.9c-2.4-3-1.2-5.5 2.7-5.5h6.2z"/><g><path class="st10" d="M85.4 108.3c0 1.1-.9 2.1-2.1 2.1-1.1 0-2.1-.9-2.1-2.1 0-1.1.9-2.1 2.1-2.1 1.2.1 2.1 1 2.1 2.1zM91.5 108.3c0 1.1-.9 2.1-2.1 2.1-1.1 0-2.1-.9-2.1-2.1 0-1.1.9-2.1 2.1-2.1 1.2.1 2.1 1 2.1 2.1z"/></g><g><path class="st10" d="M86.1 114.4s-3.4-1.6-6.6 0c-3.2 1.6-6.2 4.4-8.1.6 0 0-.1 6.1 7.4 5.3 7.4-.8 7.6-5 7.3-5.9z"/><path class="st10" d="M86.3 114.4s3.4-1.6 6.6 0c3.2 1.6 6.2 4.4 8.1.6 0 0 .1 6.1-7.4 5.3-7.4-.8-7.6-5-7.3-5.9z"/></g><g><path d="M120.9 80.8c0-.2-.1-.4-.3-.4-.2 0-.3-.1-.5-.1-2.2-.3-4.4-.7-6.7-.8l-5.4-.3c-3.5-.2-6.9-.1-10.3.4-2.1.3-4.2.6-6.2 1.3-1 .3-2 .7-3 1-1.6.5-3.2.7-4.9.4-1-.2-2-.5-2.9-.8-1.7-.6-3.5-1.1-5.3-1.5-3.5-.6-7.1-.9-10.4-.9-2.7 0-5.1.1-7.5.4-2 .2-4 .5-5.9.8l-1.2.3c-.2.1-.4.2-.4.4 0 1.2-.1 2.3-.1 3.5 0 .2 0 .4.1.5 0 .1.1.3.2.3.2.1.3.1.4.2.7.5 1 1.1 1.2 1.8.2.5.3 1 .4 1.6.1.3.2.6.3 1 .3 1.5.7 3.1 1 4.6.3 1.5.8 2.9 1.5 4.2.8 1.5 1.9 2.6 3.5 3.3 1 .4 1.9.6 3 .8 1.8.3 3.6.3 5.5.2 1.9-.1 3.7-.4 5.5-1 1.3-.4 2.6-1 3.6-1.9 1.6-1.4 2.9-3 3.9-4.9 1-1.9 1.7-3.9 2.3-5.9.2-.6.4-1.2.6-1.7.3-.8.9-1.4 1.8-1.5.3 0 .6-.1.9 0 .7 0 1.3.2 1.8.7.2.2.4.5.5.8.2.6.5 1.1.7 1.7.8 2.5 1.8 4.9 3.2 7.2 1.1 1.9 2.6 3.4 4.5 4.5 1.4.7 2.8 1.2 4.3 1.5 2.3.4 4.6.6 6.9.5 1.4-.1 2.8-.2 4.1-.6 1.4-.4 2.6-1.1 3.5-2.2.6-.7 1-1.6 1.4-2.4.8-1.8 1.2-3.8 1.7-5.7.2-.9.4-1.9.7-2.8.1-.5.3-1 .4-1.5.1-.5.2-.9.5-1.3s.6-.8 1.1-1c.2-.1.3-.2.4-.4 0-.2.1-.3.1-.5v-2.1c-.4-.7-.4-1.2-.5-1.7M52.7 83c-.8 0-1.4-.2-1.4-.3 0-.2.6-.3 1.4-.3.8 0 1.4.2 1.4.3 0 .1-.6.3-1.4.3m26.4 7.3c-.5 2-1.3 3.9-2.3 5.8-.6 1-1.2 1.9-2.1 2.7-1.1 1-2.4 1.7-3.9 2-2.9.8-5.9 1-8.9.5-.6-.1-1.2-.2-1.7-.4-1.2-.3-2.1-1-2.8-2-.8-1.1-1.2-2.4-1.5-3.7-.4-1.7-.6-3.5-.8-5.2-.1-1-.1-2 0-3 .1-.5.1-1 .2-1.5.4-1.8 1.5-2.9 3.3-3.4 1.6-.4 3.2-.7 4.9-.8 1.2-.1 2.5-.2 3.3-.2 2.8 0 5.2.2 7.5.8 1 .2 1.9.4 2.8.9.4.2.8.5 1.2.8.6.5.9 1.2 1.1 2 .3 1.6.1 3.2-.3 4.7m36.6-.7c-.1 2.5-.5 4.9-1.4 7.2-.4.9-.8 1.8-1.6 2.5-.8.8-1.8 1.2-2.9 1.5-1.3.4-2.7.5-4.1.5-2.1 0-4.1-.2-6.2-.7-2-.4-3.6-1.5-4.9-3.1-1.6-2.1-2.7-4.4-3.3-6.9-.3-1.2-.5-2.4-.5-3.6 0-.5.1-1.1.2-1.6.2-1.3 1-2.1 2.2-2.6 1.2-.5 2.4-.8 3.7-1 1.4-.3 2.8-.5 4.2-.6 1.1-.1 2.2-.1 3-.1 3 .1 5.6.4 8.1 1.1.5.1.9.3 1.4.6.4.2.7.5 1 .9.2.5.5.9.6 1.4.2.6.3 1.2.3 1.8.2.8.2 1.7.2 2.7M118 83c-.8 0-1.4-.2-1.4-.3 0-.2.6-.3 1.4-.3.8 0 1.4.2 1.4.3 0 .1-.6.3-1.4.3"/></g></g></svg>