<svg xmlns="http://www.w3.org/2000/svg" viewBox="0 0 170 170.6"><style>.st5{fill:#fbbdb0}.st6{fill:#d76c79}.st7{fill:#fff}.st8{fill:#191009}.st9{fill:#3c3c3b}.st10{fill:#26232c}</style><g id="Objects"><path class="st5" d="M83.4 109.5c-28.1 0-50.9 27.2-50.9 60.8h101.8c0-33.6-22.7-60.8-50.9-60.8zM9.3 51.7S37 39.1 46.2 53.4c9.2 14.3 12.2 19.1 12.2 19.1s-29.5 9.7-38.7-4.6C10.5 53.7 9.3 51.7 9.3 51.7z"/><path class="st6" d="M18 55.4s17.9-8.1 23.8 1.1c5.9 9.2 7.9 12.3 7.9 12.3s-19.1 6.3-25-3C18.8 56.7 18 55.4 18 55.4z"/><path class="st5" d="M160.7 54.4s-26.9-14.2-36.9-.5-13.4 18.3-13.4 18.3 28.9 11.5 38.9-2.2c10.1-13.8 11.4-15.6 11.4-15.6z"/><path class="st6" d="M151.8 57.5s-17.4-9.2-23.8-.3c-6.5 8.8-8.6 11.8-8.6 11.8s18.7 7.4 25.1-1.4c6.4-8.9 7.3-10.1 7.3-10.1z"/><path class="st5" d="M121.7 75.1c.2-1.2.3-2.3.3-3.6 0-15.6-17.3-28.3-38.6-28.3S44.8 55.9 44.8 71.5c0 1.2.1 2.4.3 3.6-4.5 5.3-7.1 11.5-7.1 18.2 0 18.6 20.3 33.7 45.4 33.7 25.1 0 45.4-15.1 45.4-33.7.1-6.7-2.6-12.9-7.1-18.2z"/><path class="st7" d="M105.5 72.4s-11.3-3.3-11.1 8.2c0 0 11.1 4.1 11.1-8.2"/><path class="st8" d="M96.2 76c0 1.5 1.2 2.7 2.8 2.7 1.5 0 2.7-1.2 2.7-2.7 0-1.5-1.2-2.8-2.7-2.8-1.6 0-2.8 1.3-2.8 2.8z"/><path class="st7" d="M97.7 75.7c0 .4.3.6.6.6.4 0 .6-.3.6-.6 0-.4-.3-.6-.6-.6s-.6.3-.6.6z"/><g><path class="st7" d="M61.4 72.4s11.3-3.3 11.1 8.2c0 0-11.1 4.1-11.1-8.2"/><path class="st8" d="M70.7 76c0 1.5-1.2 2.7-2.7 2.7-1.5 0-2.8-1.2-2.8-2.7 0-1.5 1.2-2.8 2.8-2.8 1.4 0 2.7 1.3 2.7 2.8z"/><path class="st7" d="M69.2 75.7c0 .4-.3.6-.6.6-.4 0-.6-.3-.6-.6 0-.4.3-.6.6-.6s.6.3.6.6z"/></g><g><path class="st6" d="M83.4 108.8c-8.1 0-14.5-4.2-14.5-9.6 0-5.4 6.4-9.6 14.5-9.6s14.5 4.2 14.5 9.6c0 5.4-6.3 9.6-14.5 9.6z"/><path class="st9" d="M79.9 98.7c0 1.5-1.2 2.7-2.7 2.7-1.5 0-2.7-1.2-2.7-2.7 0-1.5 1.2-2.7 2.7-2.7 1.5 0 2.7 1.2 2.7 2.7zM91.8 98.7c0 1.5-1.2 2.7-2.7 2.7-1.5 0-2.7-1.2-2.7-2.7 0-1.5 1.2-2.7 2.7-2.7 1.5 0 2.7 1.2 2.7 2.7z"/></g><g><path class="st10" d="M83.3 105.3s-5.2-2.5-10.2 0c-5 2.5-9.6 6.8-12.4.9 0 0-.1 9.3 11.3 8.2 11.4-1.1 11.8-7.6 11.3-9.1z"/><path class="st10" d="M83.6 105.3s5.2-2.5 10.2 0c5 2.5 9.6 6.8 12.4.9 0 0 .1 9.3-11.3 8.2-11.5-1.1-11.8-7.6-11.3-9.1z"/></g><g><path d="M98.4 123.8C96.3 123.1 86 129 86 129c-.6-.7-1.5-1.1-2.6-1.1-1 0-1.9.4-2.5 1.1 0 0-10.3-6.2-12.3-5.1-2 1.2-2 13.4 0 14.6 2 1.2 12.5-4.9 12.5-4.9.6.6 1.4.9 2.4.9.9 0 1.7-.3 2.4-.9 0 0 10.8 6.3 12.5 4.9 1.6-1.4 2-14 0-14.7z"/></g><g><path d="M118.1 66.6c0-.2-.1-.4-.3-.4-.2 0-.3-.1-.5-.1-2.2-.3-4.3-.7-6.5-.8-1.8-.1-3.5-.2-5.3-.3-3.4-.2-6.7-.1-10.1.3-2 .3-4.1.6-6 1.3-1 .3-2 .7-3 1-1.6.5-3.2.7-4.8.4-1-.2-1.9-.5-2.9-.8-1.7-.6-3.4-1.1-5.2-1.4-3.4-.6-6.9-.9-10.1-.9-2.6 0-5 .1-7.4.4-1.9.2-3.9.5-5.8.8l-1.2.3c-.2.1-.4.2-.4.4 0 1.1-.1 2.3-.1 3.4 0 .2 0 .3.1.5 0 .1.1.2.2.3.1.1.3.1.4.2.6.4.9 1.1 1.2 1.8.2.5.3 1 .4 1.5l.3.9c.3 1.5.6 3 1 4.5.3 1.4.8 2.8 1.4 4.1.8 1.4 1.8 2.6 3.4 3.2.9.4 1.9.6 2.9.8 1.8.3 3.6.3 5.3.2 1.8-.1 3.6-.4 5.3-.9 1.3-.4 2.5-.9 3.5-1.8 1.6-1.4 2.9-3 3.8-4.8 1-1.8 1.7-3.8 2.3-5.8.2-.6.3-1.1.5-1.7.3-.8.9-1.3 1.8-1.5.3 0 .6-.1.9 0 .7 0 1.3.2 1.7.7.2.2.4.5.5.8.2.5.5 1.1.6 1.7.8 2.4 1.8 4.8 3.1 7 1.1 1.8 2.5 3.3 4.4 4.4 1.3.7 2.8 1.2 4.2 1.5 2.2.4 4.5.5 6.7.4 1.4-.1 2.7-.2 4-.6 1.3-.4 2.5-1.1 3.4-2.2.6-.7 1-1.5 1.3-2.4.7-1.8 1.2-3.7 1.6-5.6.2-.9.4-1.8.7-2.8.1-.5.3-1 .4-1.4.1-.4.2-.9.5-1.3s.6-.8 1-.9c.2-.1.3-.2.4-.4 0-.2.1-.3.1-.5v-2c.4-.5.3-1 .3-1.5m-66.5 2.2c-.7 0-1.3-.1-1.3-.3 0-.2.6-.3 1.3-.3.7 0 1.3.1 1.3.3 0 .1-.6.3-1.3.3M77.3 76c-.5 2-1.2 3.9-2.3 5.6-.6 1-1.2 1.9-2 2.6-1.1 1-2.4 1.6-3.8 2-2.9.7-5.8.9-8.7.5-.6-.1-1.1-.2-1.7-.4-1.2-.3-2-1-2.7-2-.7-1.1-1.2-2.3-1.5-3.6-.4-1.7-.6-3.4-.8-5.1-.1-1-.1-2 0-3 .1-.5.1-1 .2-1.5.4-1.7 1.5-2.8 3.2-3.3 1.6-.4 3.2-.7 4.8-.8 1.2-.1 2.4-.1 3.2-.2 2.8 0 5.1.2 7.3.7.9.2 1.9.4 2.7.9.4.2.8.5 1.2.8.6.5.9 1.2 1 1.9.4 1.8.3 3.3-.1 4.9m35.7-.8c-.1 2.4-.5 4.7-1.3 7-.3.9-.8 1.8-1.5 2.4-.8.8-1.8 1.2-2.8 1.5-1.3.4-2.6.4-4 .5-2 0-4-.2-6-.7-2-.4-3.5-1.4-4.8-3-1.6-2-2.6-4.3-3.2-6.8-.3-1.1-.5-2.3-.5-3.5 0-.5.1-1 .2-1.5.2-1.3 1-2.1 2.2-2.5 1.2-.5 2.4-.8 3.6-1 1.4-.3 2.7-.5 4.1-.6 1.1-.1 2.2-.1 2.9-.1 2.9.1 5.5.4 7.9 1.1.5.1.9.3 1.3.5s.7.5.9.9c.2.4.5.9.6 1.4.2.5.3 1.1.3 1.7 0 .9.1 1.8.1 2.7m2.3-6.4c-.7 0-1.3-.1-1.3-.3 0-.2.6-.3 1.3-.3.7 0 1.3.1 1.3.3 0 .1-.6.3-1.3.3"/></g></g></svg>