<svg xmlns="http://www.w3.org/2000/svg" viewBox="0 0 170 170.6"><style>.st7{fill:#fff}.st8{fill:#191009}.st48{fill:#f7eada}.st49{fill:#a7654f}</style><g id="Objects"><path class="st48" d="M130.6 114.3c0-33.1-21.1-60-47.1-60s-47.1 26.8-47.1 60c0 33.1 21.1 60 47.1 60 26.1 0 47.1-26.9 47.1-60z"/><path class="st49" d="M114 72.9c0-15.9-26-18.7-26-18.7h-9S53 57 53 72.9c0 15.9-.3 35 7.5 48.9 7.8 14 6.7 33.6 22.9 34.7 16.2-1.1 15.1-20.7 22.9-34.7 8-14 7.7-33 7.7-48.9z"/><path class="st7" d="M102.6 45.1s21.9-5 20.2-21.8c7.3 14.8-3.6 26.3-12.9 33M64.4 45.1s-21.9-5-20.2-21.8c-7.3 14.8 3.6 26.3 12.9 33"/><path class="st49" d="M107.3 61.2s11-13.8 28.8-10.1c-2.2 9.1-8.1 17.5-22.4 20.8"/><path class="st48" d="M110.1 64.6s11.4-10.1 20.5-8.2c-1.1 4.7-10.3 13-17.7 14.8"/><path class="st49" d="M59.6 61.2s-11-13.8-28.8-10.1c2.2 9.1 8.1 17.5 22.4 20.8"/><path class="st48" d="M56.7 64.6s-11.4-10.1-20.5-8.2c1.1 4.7 10.3 13 17.7 14.8"/><path class="st7" d="M91.9 110.2c0-14 .4-27.3 12.2-38.8 11.7-11.5 8.3-20.3 1.4-26.4-6.9-6.1-16.9-5-22-5-5 0-15.1-1-22 5-6.7 6-10.2 14.9 1.5 26.4 11.7 11.5 12.2 24.8 12.2 38.8 0 10.8-7 17.1-11.3 21.9-4.3 4.9-1.9 14.5 3.1 14.5h33.2c5 0 7.5-9.6 3.1-14.5S91.9 121 91.9 110.2z"/><path class="st7" d="M110.3 82.1s-12.4-3.6-12.1 9c0 0 12.1 4.4 12.1-9"/><path class="st8" d="M100.2 86c0 1.7 1.3 3 3 3s3-1.3 3-3-1.3-3-3-3-3 1.3-3 3z"/><path class="st7" d="M101.8 85.7c0 .4.3.7.7.7.4 0 .7-.3.7-.7 0-.4-.3-.7-.7-.7-.4 0-.7.3-.7.7zM56.4 82.1s12.4-3.6 12.1 9c0 0-12.1 4.4-12.1-9"/><path class="st8" d="M66.5 86c0 1.7-1.3 3-3 3s-3-1.3-3-3 1.3-3 3-3c1.6 0 3 1.3 3 3z"/><path class="st7" d="M64.9 85.7c0 .4-.3.7-.7.7-.4 0-.7-.3-.7-.7 0-.4.3-.7.7-.7.4 0 .7.3.7.7z"/><g><path d="M97.9 156.4c-2.1-.7-12.4 5.2-12.4 5.2-.6-.7-1.5-1.1-2.6-1.1-1 0-1.9.4-2.5 1.1 0 0-10.3-6.2-12.3-5.1-2 1.2-2 13.4 0 14.6 2 1.2 12.5-4.9 12.5-4.9.6.6 1.4.9 2.4.9.9 0 1.7-.3 2.4-.9 0 0 10.8 6.3 12.5 4.9 1.6-1.4 2.1-14 0-14.7z"/></g><g><path d="M62.9 74.3c-7.2 0-13 5.8-13 13s5.8 13 13 13 13-5.8 13-13c0-7.1-5.8-13-13-13zm0 23.9c-6 0-10.8-4.8-10.8-10.8 0-6 4.8-10.8 10.8-10.8s10.8 4.8 10.8 10.8c0 5.9-4.8 10.8-10.8 10.8z"/><path d="M45.5 86.1h6.4v2.6h-6.4z"/><path d="M45.5 87.4h2.4v51.9h-2.4z"/></g></g></svg>