<svg width="60" height="32" viewBox="0 0 60 32" fill="none" xmlns="http://www.w3.org/2000/svg">
<circle cx="45" cy="16" r="15" fill="white"/>
<path d="M42.8096 4.95791C40.9415 5.31293 39.1816 6.15571 37.7397 7.39364C33.5467 10.9932 32.5525 16.8094 35.2634 21.8537C36.1959 23.5887 37.6625 24.9964 39.4193 25.8824C41.2472 26.8024 43.1492 27.25 45.0049 27.25C47.4966 27.25 49.9049 26.4412 51.9088 24.876L50.0223 22.4557C47.5429 24.3882 44.2083 24.7309 41.1237 23.2954C39.6787 22.6224 38.4869 21.474 37.7829 20.0447C35.8284 16.0808 36.8844 11.5829 40.5216 9.13169C41.1916 8.68097 41.9358 8.3383 42.7138 8.12838C47.654 6.78239 52.1805 9.98065 53.0358 14.4662H48.7409C48.5433 13.9846 48.25 13.5339 47.8578 13.1419C46.2801 11.5643 43.7204 11.5643 42.1395 13.1419C40.5618 14.7194 40.5618 17.2786 42.1395 18.8592C43.7173 20.4398 46.2801 20.4367 47.8578 18.8592C48.25 18.4671 48.5433 18.0164 48.7409 17.5348H56.1327C56.1975 17.5348 56.25 17.4824 56.25 17.4175V16.0005C56.25 9.0823 49.9698 3.59957 42.8096 4.95791Z" fill="#73B8BB"/>
<g filter="url(#filter0_d)">
<circle cx="30" cy="16" r="15" fill="white"/>
</g>
<path d="M27.8096 4.95791C25.9415 5.31293 24.1816 6.15571 22.7397 7.39364C18.5467 10.9932 17.5525 16.8094 20.2634 21.8537C21.1959 23.5887 22.6625 24.9964 24.4193 25.8824C26.2472 26.8024 28.1492 27.25 30.0049 27.25C32.4966 27.25 34.9049 26.4412 36.9088 24.876L35.0223 22.4557C32.5429 24.3882 29.2083 24.7309 26.1237 23.2954C24.6787 22.6224 23.4869 21.474 22.7829 20.0447C20.8284 16.0808 21.8844 11.5829 25.5216 9.13169C26.1916 8.68097 26.9358 8.3383 27.7138 8.12838C32.654 6.78239 37.1805 9.98065 38.0358 14.4662H33.7409C33.5433 13.9846 33.25 13.5339 32.8578 13.1419C31.2801 11.5643 28.7204 11.5643 27.1395 13.1419C25.5618 14.7194 25.5618 17.2786 27.1395 18.8592C28.7173 20.4398 31.2801 20.4367 32.8578 18.8592C33.25 18.4671 33.5433 18.0164 33.7409 17.5348H41.1327C41.1975 17.5348 41.25 17.4824 41.25 17.4175V16.0005C41.25 9.0823 34.9698 3.59957 27.8096 4.95791Z" fill="#C4C4C4"/>
<g filter="url(#filter1_d)">
<circle cx="30" cy="16" r="15" fill="white"/>
</g>
<path d="M27.8096 4.95791C25.9415 5.31293 24.1816 6.15571 22.7397 7.39364C18.5467 10.9932 17.5525 16.8094 20.2634 21.8537C21.1959 23.5887 22.6625 24.9964 24.4193 25.8824C26.2472 26.8024 28.1492 27.25 30.0049 27.25C32.4966 27.25 34.9049 26.4412 36.9088 24.876L35.0223 22.4557C32.5429 24.3882 29.2083 24.7309 26.1237 23.2954C24.6787 22.6224 23.4869 21.474 22.7829 20.0447C20.8284 16.0808 21.8844 11.5829 25.5216 9.13169C26.1916 8.68097 26.9358 8.3383 27.7138 8.12838C32.654 6.78239 37.1805 9.98065 38.0358 14.4662H33.7409C33.5433 13.9846 33.25 13.5339 32.8578 13.1419C31.2801 11.5643 28.7204 11.5643 27.1395 13.1419C25.5618 14.7194 25.5618 17.2786 27.1395 18.8592C28.7173 20.4398 31.2801 20.4367 32.8578 18.8592C33.25 18.4671 33.5433 18.0164 33.7409 17.5348H41.1327C41.1975 17.5348 41.25 17.4824 41.25 17.4175V16.0005C41.25 9.0823 34.9698 3.59957 27.8096 4.95791Z" fill="#C4C4C4"/>
<g filter="url(#filter2_d)">
<circle cx="15" cy="16" r="15" fill="white"/>
</g>
<path d="M12.8096 4.95791C10.9415 5.31293 9.1816 6.15571 7.73967 7.39364C3.54668 10.9932 2.55246 16.8094 5.2634 21.8537C6.19586 23.5887 7.66248 24.9964 9.41934 25.8824C11.2472 26.8024 13.1492 27.25 15.0049 27.25C17.4966 27.25 19.9049 26.4412 21.9088 24.876L20.0223 22.4557C17.5429 24.3882 14.2083 24.7309 11.1237 23.2954C9.6787 22.6224 8.48688 21.474 7.7829 20.0447C5.82843 16.0808 6.8844 11.5829 10.5216 9.13169C11.1916 8.68097 11.9358 8.3383 12.7138 8.12838C17.654 6.78239 22.1805 9.98065 23.0358 14.4662H18.7409C18.5433 13.9846 18.25 13.5339 17.8578 13.1419C16.2801 11.5643 13.7204 11.5643 12.1395 13.1419C10.5618 14.7194 10.5618 17.2786 12.1395 18.8592C13.7173 20.4398 16.2801 20.4367 17.8578 18.8592C18.25 18.4671 18.5433 18.0164 18.7409 17.5348H26.1327C26.1975 17.5348 26.25 17.4824 26.25 17.4175V16.0005C26.25 9.0823 19.9698 3.59957 12.8096 4.95791Z" fill="#E6B77E"/>
<defs>
<filter id="filter0_d" x="15" y="0.5" width="31.5" height="31" filterUnits="userSpaceOnUse" color-interpolation-filters="sRGB">
<feFlood flood-opacity="0" result="BackgroundImageFix"/>
<feColorMatrix in="SourceAlpha" type="matrix" values="0 0 0 0 0 0 0 0 0 0 0 0 0 0 0 0 0 0 127 0"/>
<feOffset dx="1"/>
<feGaussianBlur stdDeviation="0.25"/>
<feColorMatrix type="matrix" values="0 0 0 0 0 0 0 0 0 0 0 0 0 0 0 0 0 0 0.1 0"/>
<feBlend mode="normal" in2="BackgroundImageFix" result="effect1_dropShadow"/>
<feBlend mode="normal" in="SourceGraphic" in2="effect1_dropShadow" result="shape"/>
</filter>
<filter id="filter1_d" x="15" y="0.5" width="31.5" height="31" filterUnits="userSpaceOnUse" color-interpolation-filters="sRGB">
<feFlood flood-opacity="0" result="BackgroundImageFix"/>
<feColorMatrix in="SourceAlpha" type="matrix" values="0 0 0 0 0 0 0 0 0 0 0 0 0 0 0 0 0 0 127 0"/>
<feOffset dx="1"/>
<feGaussianBlur stdDeviation="0.25"/>
<feColorMatrix type="matrix" values="0 0 0 0 0 0 0 0 0 0 0 0 0 0 0 0 0 0 0.1 0"/>
<feBlend mode="normal" in2="BackgroundImageFix" result="effect1_dropShadow"/>
<feBlend mode="normal" in="SourceGraphic" in2="effect1_dropShadow" result="shape"/>
</filter>
<filter id="filter2_d" x="0" y="0.5" width="31.5" height="31" filterUnits="userSpaceOnUse" color-interpolation-filters="sRGB">
<feFlood flood-opacity="0" result="BackgroundImageFix"/>
<feColorMatrix in="SourceAlpha" type="matrix" values="0 0 0 0 0 0 0 0 0 0 0 0 0 0 0 0 0 0 127 0"/>
<feOffset dx="1"/>
<feGaussianBlur stdDeviation="0.25"/>
<feColorMatrix type="matrix" values="0 0 0 0 0 0 0 0 0 0 0 0 0 0 0 0 0 0 0.1 0"/>
<feBlend mode="normal" in2="BackgroundImageFix" result="effect1_dropShadow"/>
<feBlend mode="normal" in="SourceGraphic" in2="effect1_dropShadow" result="shape"/>
</filter>
</defs>
</svg>
