<svg width="60" height="32" fill="none" xmlns="http://www.w3.org/2000/svg"><circle cx="45" cy="16" r="15" fill="#fff"/><path d="M49.499 19.655l-12.159 5.29c-.792.316-1.58-.465-1.272-1.26l5.314-12.35" fill="#FFB636"/><path d="M36.069 23.684l.422-.981.108-.166c2.1-3.2 4.232-6.38 6.435-9.509l2.471 2.533c-1.864 1.28-7.918 7.536-9.186 9.196a.964.964 0 01-.25-1.073z" fill="#FFD469"/><path d="M46.793 14.14c2.256 2.256 3.49 4.679 2.755 5.412-.733.734-3.156-.5-5.411-2.755-2.256-2.255-3.49-4.678-2.755-5.412.733-.733 3.156.5 5.411 2.755z" fill="#A06C33"/><path d="M41.368 18.63a.397.397 0 11-.793 0 .397.397 0 01.793 0z" fill="#F7F9AA"/><path d="M53.998 14.459a.57.57 0 11-1.139 0 .57.57 0 011.14 0zm-3.804 7.585a.57.57 0 100 1.14.57.57 0 000-1.14z" fill="#FFB636"/><path d="M48.673 9.586c-.049.33-.262.623-.586.801a1.573 1.573 0 01-.758.187c-.087 0-.174-.006-.26-.019a.859.859 0 00-.53.08c-.064.036-.174.113-.192.235-.018.121.065.228.117.28a.853.853 0 00.468.227c.005 0 .01 0 .015.002.789.116 1.352.74 1.255 1.391-.048.331-.262.623-.585.801a1.572 1.572 0 01-.76.188c-.086 0-.173-.007-.259-.02a.858.858 0 00-.529.08c-.064.036-.175.114-.193.235-.029.195.21.453.6.51a.388.388 0 01-.113.768c-.788-.116-1.351-.74-1.255-1.392.049-.33.262-.622.586-.8a1.625 1.625 0 011.018-.169.86.86 0 00.53-.08c.064-.035.174-.113.192-.234.029-.192-.203-.444-.582-.507l-.018-.002a1.625 1.625 0 01-.926-.455c-.258-.265-.378-.606-.33-.937.05-.33.263-.622.587-.8a1.625 1.625 0 011.018-.169.86.86 0 00.53-.08c.063-.035.174-.113.192-.234.018-.122-.065-.228-.117-.281a.859.859 0 00-.483-.23.388.388 0 01.113-.768c.363.054.692.216.926.456.258.264.378.606.33.936z" fill="#BEA4FF"/><path d="M38.675 12.51a.646.646 0 11-1.291 0 .646.646 0 011.291 0zm11.54-.747a.746.746 0 100 1.492.746.746 0 000-1.492zm-6.66 9.36a.746.746 0 100 1.491.746.746 0 000-1.492zm9.892-3.415a.445.445 0 00-.191-.6 8.638 8.638 0 01-.311-.174c-1.058-.606-3.257-1.868-5.848.223a.445.445 0 00.56.693c2.116-1.709 3.824-.729 4.845-.144.124.072.24.139.345.193a.446.446 0 00.6-.191z" fill="#FF6E83"/><path d="M51.551 8.976a.397.397 0 11-.794 0 .397.397 0 01.794 0zM37.384 7.12a.397.397 0 100 .794.397.397 0 000-.794zm6.224 5.18c.045-.088.1-.188.159-.294.297-.539.704-1.276.729-2.135.03-1.032-.508-1.97-1.598-2.786a.428.428 0 10-.513.685c.867.649 1.277 1.328 1.256 2.076-.019.652-.354 1.259-.623 1.746-.062.113-.12.22-.172.32a.428.428 0 00.762.388z" fill="#59CAFC"/><g filter="url(#filter0_d)"><circle cx="30" cy="16" r="15" fill="#fff"/></g><path d="M34.499 19.655l-12.159 5.29c-.792.316-1.58-.465-1.271-1.26l5.313-12.35" fill="#FFB636"/><path d="M21.069 23.684l.422-.981.108-.166c2.1-3.2 4.232-6.38 6.435-9.509l2.472 2.533c-1.865 1.28-7.919 7.536-9.187 9.196a.964.964 0 01-.25-1.073z" fill="#FFD469"/><path d="M31.793 14.14c2.256 2.256 3.49 4.679 2.755 5.412-.733.734-3.156-.5-5.411-2.755-2.256-2.255-3.49-4.678-2.756-5.412.734-.733 3.157.5 5.412 2.755z" fill="#A06C33"/><path d="M26.368 18.63a.397.397 0 11-.793 0 .397.397 0 01.793 0z" fill="#F7F9AA"/><path d="M38.998 14.459a.57.57 0 11-1.139 0 .57.57 0 011.14 0zm-3.804 7.585a.57.57 0 100 1.14.57.57 0 000-1.14z" fill="#FFB636"/><path d="M33.673 9.586c-.049.33-.262.623-.586.801a1.573 1.573 0 01-.758.187c-.087 0-.174-.006-.26-.019a.859.859 0 00-.53.08c-.064.036-.174.113-.192.235-.018.121.065.228.117.28a.853.853 0 00.468.227c.005 0 .01 0 .016.002.788.116 1.35.74 1.255 1.391-.05.331-.263.623-.587.801a1.572 1.572 0 01-.758.188c-.087 0-.174-.007-.26-.02a.858.858 0 00-.529.08c-.064.036-.175.114-.193.235-.029.195.21.453.6.51a.388.388 0 01-.113.768c-.788-.116-1.351-.74-1.255-1.392.049-.33.262-.622.586-.8a1.625 1.625 0 011.018-.169.86.86 0 00.53-.08c.064-.035.174-.113.192-.234.029-.192-.203-.444-.582-.507l-.018-.002a1.625 1.625 0 01-.926-.455c-.258-.265-.378-.606-.33-.937.05-.33.263-.622.587-.8a1.625 1.625 0 011.018-.169.86.86 0 00.53-.08c.063-.035.174-.113.192-.234.018-.122-.065-.228-.117-.281a.859.859 0 00-.483-.23.388.388 0 01.113-.768c.363.054.692.216.926.456.258.264.378.606.33.936z" fill="#BEA4FF"/><path d="M23.675 12.51a.646.646 0 11-1.291 0 .646.646 0 011.291 0zm11.54-.747a.746.746 0 100 1.492.746.746 0 000-1.492zm-6.66 9.36a.746.746 0 100 1.491.746.746 0 000-1.492zm9.892-3.415a.445.445 0 00-.191-.6 8.638 8.638 0 01-.311-.174c-1.058-.606-3.257-1.868-5.848.223a.445.445 0 00.56.693c2.116-1.709 3.824-.729 4.845-.144.124.072.24.139.345.193a.446.446 0 00.6-.191z" fill="#FF6E83"/><path d="M36.551 8.976a.397.397 0 11-.794 0 .397.397 0 01.794 0zM22.384 7.12a.397.397 0 100 .794.397.397 0 000-.794zm6.224 5.18c.045-.088.1-.188.159-.294.297-.539.704-1.276.729-2.135.03-1.032-.508-1.97-1.598-2.786a.428.428 0 10-.512.685c.866.649 1.276 1.328 1.255 2.076-.019.652-.354 1.259-.623 1.746-.062.113-.12.22-.172.32a.428.428 0 00.762.388z" fill="#59CAFC"/><g filter="url(#filter1_d)"><circle cx="15" cy="16" r="15" fill="#fff"/></g><path d="M19.5 19.655l-12.159 5.29c-.792.316-1.58-.465-1.271-1.26l5.313-12.35" fill="#FFB636"/><path d="M6.07 23.684l.422-.981.108-.166c2.1-3.2 4.232-6.38 6.435-9.509l2.472 2.533c-1.865 1.28-7.919 7.536-9.187 9.196a.964.964 0 01-.25-1.073z" fill="#FFD469"/><path d="M16.794 14.14c2.256 2.256 3.49 4.679 2.755 5.412-.733.734-3.156-.5-5.411-2.755-2.256-2.255-3.49-4.678-2.756-5.412.734-.733 3.157.5 5.412 2.755z" fill="#A06C33"/><path d="M11.37 18.63a.397.397 0 11-.794 0 .397.397 0 01.793 0z" fill="#F7F9AA"/><path d="M24 14.459a.57.57 0 11-1.14 0 .57.57 0 011.14 0zm-3.805 7.585a.57.57 0 100 1.14.57.57 0 000-1.14z" fill="#FFB636"/><path d="M18.674 9.586c-.049.33-.262.623-.586.801a1.573 1.573 0 01-.758.187c-.087 0-.174-.006-.26-.019a.859.859 0 00-.53.08c-.064.036-.174.113-.192.235-.018.121.065.228.117.28a.853.853 0 00.468.227c.005 0 .01 0 .015.002.789.116 1.352.74 1.255 1.391-.048.331-.262.623-.585.801a1.572 1.572 0 01-.76.188 1.76 1.76 0 01-.259-.02.859.859 0 00-.53.08c-.063.036-.174.114-.192.235-.029.195.21.453.6.51a.388.388 0 01-.113.768c-.788-.116-1.351-.74-1.255-1.392.049-.33.262-.622.586-.8a1.625 1.625 0 011.018-.169.86.86 0 00.53-.08c.064-.035.174-.113.192-.234.029-.192-.203-.444-.582-.507l-.018-.002a1.625 1.625 0 01-.926-.455c-.258-.265-.378-.606-.33-.937.05-.33.263-.622.587-.8a1.625 1.625 0 011.018-.169.86.86 0 00.53-.08c.064-.035.174-.113.192-.234.018-.122-.065-.228-.117-.281a.858.858 0 00-.483-.23.388.388 0 01.113-.768c.363.054.692.216.926.456.258.264.378.606.33.936z" fill="#BEA4FF"/><path d="M8.676 12.51a.646.646 0 11-1.291 0 .646.646 0 011.291 0zm11.54-.747a.746.746 0 100 1.492.746.746 0 000-1.492zm-6.661 9.36a.746.746 0 100 1.49.746.746 0 000-1.49zm9.893-3.415a.445.445 0 00-.191-.6 8.72 8.72 0 01-.312-.174c-1.057-.606-3.256-1.868-5.847.223a.445.445 0 10.56.693c2.116-1.709 3.824-.729 4.845-.144.124.072.24.139.345.193a.445.445 0 00.6-.191z" fill="#FF6E83"/><path d="M21.552 8.976a.397.397 0 11-.794 0 .397.397 0 01.794 0zM7.385 7.12a.397.397 0 100 .794.397.397 0 000-.794zm6.224 5.18c.045-.088.1-.188.159-.294.297-.539.704-1.276.729-2.135.03-1.032-.508-1.97-1.598-2.786a.428.428 0 10-.512.685c.865.649 1.276 1.328 1.255 2.076-.019.652-.354 1.259-.623 1.746-.062.113-.12.22-.172.32a.428.428 0 00.762.388z" fill="#59CAFC"/><defs><filter id="filter0_d" x="15" y=".5" width="31.5" height="31" filterUnits="userSpaceOnUse" color-interpolation-filters="sRGB"><feFlood flood-opacity="0" result="BackgroundImageFix"/><feColorMatrix in="SourceAlpha" values="0 0 0 0 0 0 0 0 0 0 0 0 0 0 0 0 0 0 127 0"/><feOffset dx="1"/><feGaussianBlur stdDeviation=".25"/><feColorMatrix values="0 0 0 0 0 0 0 0 0 0 0 0 0 0 0 0 0 0 0.1 0"/><feBlend in2="BackgroundImageFix" result="effect1_dropShadow"/><feBlend in="SourceGraphic" in2="effect1_dropShadow" result="shape"/></filter><filter id="filter1_d" x="0" y=".5" width="31.5" height="31" filterUnits="userSpaceOnUse" color-interpolation-filters="sRGB"><feFlood flood-opacity="0" result="BackgroundImageFix"/><feColorMatrix in="SourceAlpha" values="0 0 0 0 0 0 0 0 0 0 0 0 0 0 0 0 0 0 127 0"/><feOffset dx="1"/><feGaussianBlur stdDeviation=".25"/><feColorMatrix values="0 0 0 0 0 0 0 0 0 0 0 0 0 0 0 0 0 0 0.1 0"/><feBlend in2="BackgroundImageFix" result="effect1_dropShadow"/><feBlend in="SourceGraphic" in2="effect1_dropShadow" result="shape"/></filter></defs></svg>