<svg xmlns="http://www.w3.org/2000/svg" viewBox="0 0 170 170.6"><style>.st5{fill:#fbbdb0}.st6{fill:#d76c79}.st7{fill:#fff}.st8{fill:#191009}.st9{fill:#3c3c3b}</style><g id="Objects"><path class="st5" d="M83.4 109.5c-28.1 0-50.9 27.2-50.9 60.8h101.8c0-33.6-22.7-60.8-50.9-60.8zM9.3 51.7S37 39.1 46.2 53.4c9.2 14.3 12.2 19.1 12.2 19.1s-29.5 9.7-38.7-4.6C10.5 53.7 9.3 51.7 9.3 51.7z"/><path class="st6" d="M18 55.4s17.9-8.1 23.8 1.1c5.9 9.2 7.9 12.3 7.9 12.3s-19.1 6.3-25-3C18.8 56.7 18 55.4 18 55.4z"/><path class="st5" d="M160.7 54.4s-26.9-14.2-36.9-.5-13.4 18.3-13.4 18.3 28.9 11.5 38.9-2.2c10.1-13.8 11.4-15.6 11.4-15.6z"/><path class="st6" d="M151.8 57.5s-17.4-9.2-23.8-.3c-6.5 8.8-8.6 11.8-8.6 11.8s18.7 7.4 25.1-1.4c6.4-8.9 7.3-10.1 7.3-10.1z"/><path class="st5" d="M121.7 75.1c.2-1.2.3-2.3.3-3.6 0-15.6-17.3-28.3-38.6-28.3S44.8 55.9 44.8 71.5c0 1.2.1 2.4.3 3.6-4.5 5.3-7.1 11.5-7.1 18.2 0 18.6 20.3 33.7 45.4 33.7 25.1 0 45.4-15.1 45.4-33.7.1-6.7-2.6-12.9-7.1-18.2z"/><g><path class="st7" d="M105.5 72.4s-11.3-3.3-11.1 8.2c0 0 11.1 4.1 11.1-8.2"/><path class="st8" d="M96.2 76c0 1.5 1.2 2.7 2.8 2.7 1.5 0 2.7-1.2 2.7-2.7 0-1.5-1.2-2.8-2.7-2.8-1.6 0-2.8 1.3-2.8 2.8z"/><path class="st7" d="M97.7 75.7c0 .4.3.6.6.6.4 0 .6-.3.6-.6 0-.4-.3-.6-.6-.6s-.6.3-.6.6z"/></g><g><path class="st7" d="M61.4 72.4s11.3-3.3 11.1 8.2c0 0-11.1 4.1-11.1-8.2"/><path class="st8" d="M70.7 76c0 1.5-1.2 2.7-2.7 2.7-1.5 0-2.8-1.2-2.8-2.7 0-1.5 1.2-2.8 2.8-2.8 1.4 0 2.7 1.3 2.7 2.8z"/><path class="st7" d="M69.2 75.7c0 .4-.3.6-.6.6-.4 0-.6-.3-.6-.6 0-.4.3-.6.6-.6s.6.3.6.6z"/></g><g><path class="st6" d="M83.4 108.8c-8.1 0-14.5-4.2-14.5-9.6 0-5.4 6.4-9.6 14.5-9.6s14.5 4.2 14.5 9.6c0 5.4-6.3 9.6-14.5 9.6z"/><path class="st9" d="M79.9 98.7c0 1.5-1.2 2.7-2.7 2.7-1.5 0-2.7-1.2-2.7-2.7 0-1.5 1.2-2.7 2.7-2.7 1.5 0 2.7 1.2 2.7 2.7zM91.8 98.7c0 1.5-1.2 2.7-2.7 2.7-1.5 0-2.7-1.2-2.7-2.7 0-1.5 1.2-2.7 2.7-2.7 1.5 0 2.7 1.2 2.7 2.7z"/></g><path d="M121.2 68.4c-.4-.6-.9-1.1-1.5-1.5-1.5-1-3.8-1.5-7.1-1.5-2.9 0-6 .4-8.8.7-.6.1-1.3.2-1.9.2-7.6.8-11.8 2.5-13.6 5.4-.6 1-.9 2-1 3.1-1.7-.6-3.4-.3-4.7.2-.1-1.2-.3-2.3-1-3.3-1.8-2.9-6-4.6-13.6-5.4-.6-.1-1.2-.1-1.9-.2-2.8-.3-5.9-.7-8.8-.7-.6 0-1.3 0-1.8.1-3.5.2-5.6 1.1-6.7 2.9-.6.9-.8 2.1-.7 3.4.1 1 .4 2 .9 3.2 4.4 10.1 10 15.1 17.6 15.4h1c5.1 0 11.3-1.8 13.1-6.9v-.1c.7-1.9 1.3-3.7 1.7-5.4.3-.2.7-.5 1.2-.7.9-.4 2.1-.6 3.4 0 .2.1.4.2.6.4.3 1.8 1 3.7 1.7 5.8l.1.1c1.8 5.1 7.9 6.9 13.1 6.9h1c7.6-.4 13.2-5.3 17.6-15.4.5-1.1.8-2.2.9-3.1.1-1.4-.1-2.6-.8-3.6M91.6 82.8l-.1-.1c-.8-2.3-1.5-4.4-1.8-6.1-.1-1.3 0-2.4.6-3.3 1.4-2.2 5.2-3.6 11.9-4.3.6-.1 1.2-.1 1.9-.2 2.7-.3 5.8-.7 8.5-.7 3.6 0 5.8.6 6.6 1.8.6.9.5 2.4-.4 4.3-4.1 9.3-8.9 13.7-15.6 14h-.9c-1.3-.1-8.9-.3-10.7-5.4m-13.2 0c-1.8 5.1-9.4 5.3-10.8 5.3h-.9c-6.7-.3-11.5-4.7-15.6-14-.8-2-1-3.4-.4-4.3.8-1.2 3-1.8 6.6-1.8 2.8 0 5.8.4 8.5.7.7.1 1.3.2 1.9.2 6.6.7 10.5 2.1 11.9 4.3 1.4 2.2.2 5.6-1.2 9.5v.1z" fill="#26232c"/></g></svg>