<svg xmlns="http://www.w3.org/2000/svg" viewBox="0 0 170 170.6"><style>.st7{fill:#fff}.st8{fill:#191009}.st43{fill:#883e10}</style><g id="Objects"><path class="st8" d="M84.9 112.5c-24.9 0-45.2 26-45.2 58.1H130c0-22.1-9.6-41.2-23.6-51.1-6.4-4.5-13.7-7-21.5-7z"/><path fill="#f5f5f5" d="M64.2 116.2l20.7 54.4 22.3-53.2"/><path fill="#434345" d="M65 117.4l19.9 53.2 21.4-51.2 13.3 3.5-12.1 15.6 7.1 3-29.7 29.1-22.4-22.2 5.5-6.9-13.6-16.7z"/><g><path d="M97.7 51.8H82.8 67.9c-4.5 0-15.1 6.5-15.1 16.7 0 10.1 1.8 24.1 9 33.4 7.2 9.2-2.7 23 21 23s13.8-13.8 21-23c7.2-9.2 9-23.2 9-33.4 0-10.1-10.6-16.7-15.1-16.7z" fill="#a5541c"/><path d="M80.4 55.7s-.3 21.6-6.3 31c-6 9.3-18.3 33.1-6.9 36.4 11.4 3.3 12.6-8.7 16.5-8.7 3.9 0 6.2 10.2 18 7.8 9.8-2 3.5-20.8-6.9-35-9.4-12.9-8.2-31.4-8.2-31.4h-6.2z" fill="#fefefe"/><path d="M112.1 69.2c0-.2-.1-.3-.3-.3-.1 0-.2-.1-.4-.1-1.8-.3-3.6-.6-5.4-.7-1.4-.1-2.9-.2-4.3-.2-2.8-.1-5.5-.1-8.3.3-1.7.2-3.4.5-5 1-.8.3-1.6.6-2.4.8-1.3.4-2.6.6-3.9.3l-2.4-.6c-1.4-.5-2.8-.9-4.3-1.2-2.8-.5-5.7-.8-8.3-.7-2.2 0-4.1.1-6.1.3l-4.8.6c-.3 0-.7.1-1 .2-.2 0-.3.2-.3.4 0 .9-.1 1.9-.1 2.8 0 .1 0 .3.1.4 0 .1.1.2.2.3.1.1.2.1.4.2.5.4.8.9 1 1.5.1.4.2.8.4 1.2.1.3.2.5.2.8.3 1.2.5 2.5.8 3.7.3 1.2.6 2.3 1.2 3.4.6 1.2 1.5 2.1 2.8 2.6.8.3 1.6.5 2.4.6 1.5.2 2.9.3 4.4.2 1.5-.1 3-.3 4.4-.8 1.1-.3 2.1-.8 2.9-1.5 1.3-1.1 2.4-2.4 3.2-3.9.8-1.5 1.4-3.1 1.9-4.7.1-.5.3-.9.5-1.4.3-.7.7-1.1 1.5-1.2h.7c.5 0 1.1.1 1.4.6.2.2.3.4.4.6.2.4.4.9.5 1.4.6 2 1.5 3.9 2.5 5.8.9 1.5 2.1 2.7 3.6 3.6 1.1.6 2.3 1 3.5 1.2 1.8.4 3.7.4 5.5.4 1.1 0 2.2-.2 3.3-.5 1.1-.3 2.1-.9 2.8-1.8.5-.6.8-1.3 1.1-2 .6-1.5 1-3 1.3-4.6.2-.8.4-1.5.5-2.3l.3-1.2c.1-.4.2-.7.4-1.1.2-.3.5-.6.9-.8.2-.1.3-.2.3-.3 0-.1.1-.3.1-.4v-1.7c0-.4 0-.8-.1-1.2M57.4 71c-.6 0-1.1-.1-1.1-.3s.5-.3 1.1-.3c.6 0 1.1.1 1.1.3s-.5.3-1.1.3m21.2 5.9c-.4 1.6-1 3.2-1.9 4.6-.5.8-1 1.5-1.7 2.2-.9.8-1.9 1.3-3.1 1.6-2.4.6-4.7.8-7.1.4-.5-.1-.9-.2-1.4-.3-1-.2-1.7-.8-2.2-1.6-.6-.9-1-1.9-1.2-3-.3-1.4-.5-2.8-.7-4.2-.1-.8-.1-1.6 0-2.4.1-.4.1-.8.2-1.2.3-1.4 1.2-2.3 2.6-2.7 1.3-.3 2.6-.5 3.9-.6 1-.1 2-.1 2.6-.2 2.3 0 4.2.2 6 .6.8.2 1.5.3 2.2.7.3.2.7.4 1 .7.5.4.8 1 .9 1.6.3 1.2.2 2.5-.1 3.8m29.3-.6c0 2-.4 3.9-1.1 5.8-.3.8-.7 1.4-1.3 2-.6.6-1.5 1-2.3 1.2-1.1.3-2.2.4-3.3.4-1.7 0-3.3-.2-5-.5-1.6-.3-2.9-1.2-3.9-2.5-1.3-1.6-2.2-3.5-2.6-5.6-.2-.9-.4-1.9-.4-2.9 0-.4.1-.8.1-1.3.2-1 .8-1.7 1.8-2.1 1-.4 2-.6 3-.8 1.1-.2 2.3-.4 3.4-.5.9-.1 1.8-.1 2.4-.1 2.4.1 4.5.3 6.5.9.4.1.7.3 1.1.4.3.2.6.4.8.7.2.4.4.7.5 1.1.2.5.2.9.2 1.4.1.9.1 1.6.1 2.4m1.9-5.3c-.6 0-1.1-.1-1.1-.3s.5-.3 1.1-.3c.6 0 1.1.1 1.1.3s-.5.3-1.1.3"/><path class="st7" d="M105 72.8s-10.5-3-10.3 7.6c0 0 10.3 3.7 10.3-7.6"/><path class="st8" d="M96.4 76.1c0 1.4 1.1 2.5 2.5 2.5s2.5-1.1 2.5-2.5-1.1-2.6-2.5-2.6-2.5 1.2-2.5 2.6z"/><path class="st7" d="M97.8 75.8c0 .3.3.6.6.6s.6-.3.6-.6-.3-.6-.6-.6c-.4 0-.6.3-.6.6zM64.1 72.8s10.5-3 10.3 7.6c0 0-10.3 3.7-10.3-7.6"/><path class="st8" d="M72.7 76.1c0 1.4-1.1 2.5-2.5 2.5s-2.5-1.1-2.5-2.5 1.1-2.6 2.5-2.6 2.5 1.2 2.5 2.6z"/><path class="st7" d="M71.4 75.8c0 .3-.3.6-.6.6s-.6-.3-.6-.6.3-.6.6-.6.6.3.6.6z"/><path class="st43" d="M64.3 52.9s-28.1 8.7-26.7 31.6c1.4 22.9 7.1 34.7 14.8 34.9 7.7.1 11.5-6.7 9.5-27.5s2.4-39 2.4-39zM101.9 52.9s28.1 8.7 26.7 31.6c-1.4 22.9-7.1 34.7-14.8 34.9-7.7.1-8.2-6.9-6.2-27.7 2-20.8-5.7-38.8-5.7-38.8z"/><path class="st8" d="M87.4 105.4c3.5 0 4.6 2.2 2.4 5l-1.4 1.8c-2.1 2.7-5.7 2.7-7.8 0l-1.4-1.8c-2.1-2.7-1.1-5 2.4-5h5.8z"/><g><path class="st8" d="M84.6 114.3s-5.3-.7-6.8 3.1c-1.6 3.7-5.6 7.7-8.1 6.3-3.5-2-2-6.3 1.3-7.3-2.3-2.3-8.6 3.5-3.8 8 5.1 4.8 15-.3 17.4-5.5v-4.6zM84.6 114.3s5.3-.7 6.8 3.1c1.6 3.7 5.6 7.7 8.1 6.3 3.5-2 2-6.3-1.3-7.3 2.3-2.3 8.6 3.5 3.8 8-5.1 4.8-15-.3-17.4-5.5v-4.6z"/></g></g><g><path d="M114.5 46.3c-1.2-13.1-14-5-14-5V29.1c0-13-14.4-5.7-15.8-5.7-1.5 0-15.8-7.3-15.8 5.7v12.2s-12.8-8.2-14 5c-1.2 13.1 11.9 13.2 11.9 13.2h35.8c-.1.1 13-.1 11.9-13.2z"/><path class="st7" d="M100.5 41.4s-1.6 4.9-15.8 4.9c-14.2 0-15.8-4.9-15.8-4.9s-3.2 3.6-1.1 7c2.6 4.1 9.6 5.3 16.9 5.3 7.3 0 14.3-1.2 16.9-5.3 2.1-3.4-1.1-7-1.1-7z"/></g></g></svg>