<svg xmlns="http://www.w3.org/2000/svg" viewBox="0 0 170 170.6"><style>.st7{fill:#fff}.st8{fill:#191009}.st14{fill:#ed7d1a}.st15{fill:#f5fefb}.st16{fill:#f6f3cf}.st17{fill:#251f21}.st21{fill:#a84720}</style><g id="Objects"><path class="st14" d="M84.9 116.7c-21.9 0-39.7 24-39.7 53.6h79.4c0-29.6-17.8-53.6-39.7-53.6z"/><path class="st15" d="M74.3 132c3.2 6.6 12.7 13.9 20.7 0-.5-6-6.4-7.5-10.1-7.5-7.3 0-10.6 7.5-10.6 7.5z"/><path class="st16" d="M133.6 112.4c-.6-.4-1.4-.8-2.3-1.2.2.2.5.3.7.4.6.3 1.1.5 1.6.8z"/><path class="st16" d="M133.6 112.4c-.5-.3-1-.6-1.6-.8 1 .6 1.6.8 1.6.8zM38.3 111.2c-.9.4-1.7.8-2.3 1.2.5-.3 1-.6 1.6-.8.3-.1.5-.3.7-.4z"/><path class="st16" d="M36.1 112.4l1.6-.8c-.6.3-1.2.5-1.6.8z"/><path class="st17" d="M99.4 68.2c7.5-30.5 32.4-41.2 32.4-41.2s17.7 46.3-16.2 57.4L99.4 68.2z"/><path class="st14" d="M103 71c9.7-29 25.2-34.1 25.2-34.1s13.4 27.7-16.1 44.6L103 71z"/><path class="st17" d="M70.2 68.2C62.7 37.6 37.9 27 37.9 27S20.1 73.3 54 84.3l16.2-16.1z"/><path class="st14" d="M66.6 71c-9.7-29-25.2-34.1-25.2-34.1s-13.5 27.7 16 44.6L66.6 71z"/><path class="st15" d="M95 132c-1-2.3-2.7-4.3-4.9-5.5 1.8-2.9 7.9-10.8 21.5-15.3 10.1-3.4 18.7-1.2 22 1.2 0 0-10.2 13-38.6 19.6zM74.6 132c1-2.3 2.7-4.3 4.9-5.5-1.8-2.9-7.9-10.8-21.5-15.3-10.1-3.4-18.7-1.2-22 1.2 0 0 10.2 13 38.6 19.6z"/><path class="st14" d="M122 99.1c0-.5.1-.9.1-1.4 0-20.6-16.7-37.3-37.3-37.3-20.6 0-37.3 16.7-37.3 37.3 0 .5.1 1 .1 1.4-1.7 7-7.2 11-9.9 12.5 4.3-1.9 11.4-2.7 20.4-.3 10.5 2.7 19.7 11.5 21.5 15.3 1.6-.9 3.4-1.4 5.3-1.4s3.7.5 5.3 1.4c1.8-3.8 11-12.6 21.5-15.3 9-2.3 16.2-1.5 20.4.3-2.9-1.6-8.3-5.5-10.1-12.5z"/><path class="st14" d="M132 111.6c1 .6 1.6.8 1.6.8-.5-.3-1-.5-1.6-.8zM37.6 111.6c-.6.3-1.1.5-1.6.8 0 0 .7-.2 1.6-.8z"/><path d="M58.1 111.3c3.6 1.2 6.6 2.6 9.2 4.1v-.1c-2.8-1.7-6-3.2-9.2-4z" fill="none"/><path d="M84.8 60.3z" fill="#e96332"/><path d="M79.5 126.5s0 .1 0 0c0 .1 0 0 0 0z" fill="#07171b"/><path class="st21" d="M84.9 60.3c-.1 0-.1 0 0 0-.1 0-.1 0 0 0z"/><g><path class="st21" d="M84.9 92.9V60.3v32.6c-.1 0-.1 0 0 0z"/></g><g><path class="st21" d="M84.8 125.1l.1-19.9V92.9h-.1v32.2z"/></g><g><path class="st21" d="M79.5 126.5s0 .1 0 0c1.6-.8 3.4-1.4 5.3-1.4-1.9 0-3.7.6-5.3 1.4z"/></g><g><path class="st21" d="M84.8 125.1z"/></g><path class="st8" d="M87.8 119.2c3.7 0 4.9 2.4 2.6 5.3l-1.5 1.9c-2.3 2.9-6 2.9-8.3 0l-1.5-1.9c-2.3-2.9-1.1-5.3 2.6-5.3h6.1z"/><path class="st8" d="M73.4 131.4s6.4 2 11.2-2.9c4.2 3.4 6.9 4.3 11.5 1.6-4.7 5.2-10 3.6-11.6 3.2-3.7 1-10.1.8-11.1-1.9z"/><g><path class="st7" d="M63.3 92s12.4-3.6 12.1 9c.1.1-12.1 4.5-12.1-9"/><path class="st8" d="M73.2 96c0 1.7-1.3 3-3 3s-3-1.3-3-3 1.3-3 3-3c1.7-.1 3 1.3 3 3z"/><path class="st7" d="M72.2 94.8c0 .4-.3.7-.7.7-.4 0-.7-.3-.7-.7 0-.4.3-.7.7-.7.4 0 .7.3.7.7z"/><g><path class="st7" d="M105.9 92s-12.4-3.6-12.1 9c0 .1 12.1 4.5 12.1-9"/><path class="st8" d="M95.8 96c0 1.7 1.3 3 3 3s3-1.3 3-3-1.3-3-3-3c-1.7-.1-3 1.3-3 3z"/><path class="st7" d="M96.7 94.5c0 .4.3.7.7.7.4 0 .7-.3.7-.7 0-.4-.3-.7-.7-.7-.4 0-.7.4-.7.7z"/></g></g><path class="st8" d="M119.4 90c0-.4-1.5-.8-1.5-.8s-1.8-.4-3.8-1.2c-1.9-.8-5.8-2.2-7.6-2.4-1.8-.2-6.1-.5-8.6-.2s-4.9.9-5.7 1.3c-.8.4-1.6 1-2 1.3-.4.3-.7.6-1.1.5-.3 0-1.1-.5-1.1-.5h-6.2s-.7.5-1.1.5c-.3 0-.7-.2-1.1-.5-.4-.3-1.2-.8-2-1.3-.8-.4-3.3-1-5.7-1.3-2.4-.3-6.8-.1-8.6.2-1.8.2-5.7 1.7-7.6 2.4-1.9.8-3.8 1.2-3.8 1.2s-1.5.4-1.5.8.3 3.8.3 3.8 1.6.4 2.4.7c.9.3 1.3.9 2 2.2.7 1.6 2.4 6 3.6 7.7 1.1 1.7 3.7 2.7 7.1 3.5 6.2.5 8.4-.9 10.4-2s3.2-3.6 3.9-4.8c.7-1.2 1.9-6.1 2-6.5.1-.4-.2-.8-.4-1.2-.2-.3-.4-1-.3-1.5.1-.5.3-1 1.3-1.3.6-.2 1.6-.3 2.2-.4.6 0 1.5.1 2.2.4 1 .3 1.3.9 1.3 1.3.1.5-.1 1.1-.3 1.5-.2.3-.5.8-.4 1.2.1.4 1.3 5.3 2 6.5.7 1.2 1.9 3.8 3.9 4.8 2 1.1 4.2 2.4 10.4 2 3.3-.8 5.9-1.8 7.1-3.5 1.1-1.7 2.9-6.1 3.6-7.7.7-1.3 1.1-1.8 2-2.2.9-.3 2.5-.7 2.5-.7s.2-3.4.2-3.8m-64.5 2.6c-.2 0-2.2-.7-2.2-.7v-.2s1.8-.6 2-.6c.2 0 .8.4.9.7 0 .3-.6.8-.7.8m23.1 9.1c-1.5 2.2-2.8 4.3-8.9 4.6-2.5 0-5.7 0-8.1-2.2-.9-.9-2.4-3.2-2.8-5.3-.4-2.1-.6-5.2-.4-6.1 0 0 .3-1.9 1.1-2.7.8-.8 1.5-1.4 3.5-1.9 1.9-.4 6.1-.8 9.5-.6 0 0 3.1.3 4.3.9 1.2.6 3.1 2.1 3.4 4.5.1 2.4.2 5.9-1.6 8.8m33.9-2.9c-.4 2.1-2 4.3-2.9 5.3-2.4 2.2-5.6 2.2-8.1 2.2-6.2-.3-7.4-2.4-8.9-4.6-1.8-2.8-1.7-6.4-1.4-8.8.3-2.4 2.2-3.9 3.4-4.5 1.2-.6 4.3-.9 4.3-.9 3.4-.3 7.5.1 9.5.6 1.9.4 2.7 1 3.4 1.9.8.8 1.1 2.7 1.1 2.7.2.9 0 3.9-.4 6.1m5.5-6.9s-2.1.7-2.2.7c-.2 0-.7-.5-.6-.8.1-.3.7-.7.9-.7.2 0 2 .6 2 .6v.2z"/></g></svg>