<svg width="60" height="32" viewBox="0 0 60 32" fill="none" xmlns="http://www.w3.org/2000/svg"><path d="M45 31c8.284 0 15-6.716 15-15 0-8.284-6.716-15-15-15-8.284 0-15 6.716-15 15 0 8.284 6.716 15 15 15z" fill="#73B8BB"/><mask id="a" mask-type="alpha" maskUnits="userSpaceOnUse" x="30" y="1" width="30" height="30"><path d="M45 31c8.284 0 15-6.716 15-15 0-8.284-6.716-15-15-15-8.284 0-15 6.716-15 15 0 8.284 6.716 15 15 15z" fill="#73B8BB"/></mask><g mask="url(#a)"><path d="M44.737 20.263c-4.93 0-8.93 4.772-8.93 10.667h17.86c0-5.895-4-10.667-8.93-10.667zM31.72 10.123s4.859-2.21 6.473.298c1.596 2.509 2.14 3.35 2.14 3.35s-5.175 1.703-6.79-.806c-1.596-2.509-1.824-2.842-1.824-2.842z" fill="#FBBDB0"/><path d="M33.246 10.772s3.14-1.421 4.175.193c1.035 1.614 1.386 2.158 1.386 2.158s-3.35 1.105-4.386-.526c-1.035-1.615-1.175-1.825-1.175-1.825z" fill="#D76C79"/><path d="M58.28 10.579s-4.719-2.491-6.473-.088c-1.755 2.404-2.35 3.21-2.35 3.21s5.07 2.018 6.824-.385c1.772-2.404 2-2.737 2-2.737z" fill="#FBBDB0"/><path d="M56.72 11.14s-3.053-1.614-4.176-.052a122.225 122.225 0 0 0-1.509 2.07s3.28 1.298 4.404-.246l1.28-1.772z" fill="#D76C79"/><path d="M51.439 14.228a3.68 3.68 0 0 0 .052-.632c0-2.736-3.035-4.964-6.772-4.964s-6.772 2.228-6.772 4.964c0 .211.018.421.053.632-.79.912-1.263 2.018-1.263 3.193 0 3.263 3.561 5.912 7.965 5.912 4.403 0 7.965-2.649 7.965-5.912.035-1.175-.421-2.28-1.228-3.193z" fill="#FBBDB0"/><path d="M48.596 13.737s-1.982-.58-1.947 1.438c0 .018 1.947.72 1.947-1.438z" fill="#fff"/><path d="M46.965 14.368c0 .264.21.474.491.474.263 0 .474-.21.474-.474a.487.487 0 0 0-.474-.49c-.263.017-.491.227-.491.49z" fill="#191009"/><path d="M47.228 14.333c0 .07.053.106.105.106.07 0 .106-.053.106-.106 0-.07-.053-.105-.106-.105-.052-.018-.105.035-.105.105zM40.86 13.737s1.982-.58 1.947 1.438c0 .018-1.947.72-1.947-1.438z" fill="#fff"/><path d="M42.491 14.368c0 .264-.21.474-.473.474a.487.487 0 0 1-.492-.474.49.49 0 0 1 .492-.49.499.499 0 0 1 .473.49z" fill="#191009"/><path d="M42.228 14.333c0 .07-.053.106-.105.106-.07 0-.105-.053-.105-.106 0-.07.052-.105.105-.105.053-.018.105.035.105.105z" fill="#fff"/><path d="M44.737 20.14c-1.421 0-2.544-.736-2.544-1.684 0-.947 1.123-1.684 2.544-1.684 1.42 0 2.544.737 2.544 1.684 0 .948-1.123 1.684-2.544 1.684z" fill="#D76C79"/><path d="M44.123 18.35c0 .264-.21.475-.474.475a.472.472 0 0 1-.474-.474c0-.263.211-.474.474-.474.246 0 .474.21.474.474zM46.21 18.35c0 .264-.21.475-.473.475a.472.472 0 0 1-.474-.474c0-.263.21-.474.474-.474.245 0 .474.21.474.474z" fill="#3C3C3B"/><path d="M51.368 13.053a.94.94 0 0 0-.263-.264c-.263-.175-.666-.263-1.245-.263-.51 0-1.053.07-1.544.123a2.144 2.144 0 0 1-.334.035c-1.333.14-2.07.439-2.386.948a1.24 1.24 0 0 0-.175.543c-.298-.105-.596-.052-.825.035-.017-.21-.052-.403-.175-.578-.316-.51-1.053-.807-2.386-.948-.105-.017-.21-.017-.333-.035-.491-.052-1.035-.123-1.544-.123-.105 0-.228 0-.316.018-.614.035-.982.193-1.175.509-.106.157-.14.368-.123.596.017.176.07.351.158.562.772 1.771 1.754 2.649 3.087 2.701h.176c.895 0 1.982-.316 2.298-1.21v-.018c.123-.333.228-.649.298-.947.053-.035.123-.088.21-.123a.705.705 0 0 1 .597 0c.035.018.07.035.106.07.052.316.175.65.298 1.018l.017.017c.316.895 1.386 1.21 2.299 1.21h.175c1.334-.07 2.316-.929 3.088-2.7a1.86 1.86 0 0 0 .158-.545c0-.263-.035-.473-.14-.631zm-5.21 2.508l-.018-.017c-.14-.404-.263-.772-.315-1.07-.018-.228 0-.421.105-.58.245-.385.912-.63 2.087-.754.106-.017.211-.017.334-.035.474-.052 1.017-.123 1.491-.123.632 0 1.018.106 1.158.316.105.158.088.421-.07.755-.72 1.631-1.562 2.403-2.737 2.456h-.158c-.228 0-1.561-.053-1.877-.948zm-2.316 0c-.316.895-1.649.93-1.895.93h-.158c-1.175-.052-2.017-.824-2.736-2.456-.14-.35-.176-.596-.07-.754.14-.21.526-.316 1.157-.316.492 0 1.018.07 1.492.123.122.017.228.035.333.035 1.158.123 1.842.368 2.088.754.245.386.035.983-.21 1.667v.017z" fill="#26232C"/></g><path d="M30 31c8.284 0 15-6.662 15-14.88S38.284 1.24 30 1.24c-8.284 0-15 6.662-15 14.88S21.716 31 30 31z" fill="#F8C647" filter="url(#b)"/><mask id="c" mask-type="alpha" maskUnits="userSpaceOnUse" x="15" y="1" width="30" height="30"><path d="M30 30.912c8.284 0 15-6.696 15-14.956S38.284 1 30 1c-8.284 0-15 6.696-15 14.956s6.716 14.956 15 14.956z" fill="#F8C647"/></mask><g mask="url(#c)"><path d="M29.983 20.854c-4.369 0-7.93 4.548-7.93 10.163h15.842c0-3.866-1.684-7.207-4.14-8.939a6.472 6.472 0 0 0-3.772-1.224z" fill="#A5541C"/><path d="M32.246 10.236h-2.614-2.615c-.789 0-2.649 1.137-2.649 2.921 0 1.767.316 4.216 1.58 5.843 1.262 1.609-.474 4.023 3.684 4.023 4.157 0 2.42-2.414 3.684-4.023 1.263-1.61 1.579-4.059 1.579-5.843 0-1.767-1.86-2.921-2.65-2.921z" fill="#A5541C"/><path d="M29.193 10.918s-.053 3.779-1.106 5.423c-1.052 1.627-3.21 5.79-1.21 6.367s2.21-1.522 2.895-1.522c.684 0 1.087 1.784 3.158 1.364 1.719-.35.614-3.638-1.21-6.122-1.65-2.256-1.44-5.492-1.44-5.492h-1.087v-.018z" fill="#FEFEFE"/><path d="M33.509 13.91s-1.842-.526-1.807 1.329c.017 0 1.807.647 1.807-1.33z" fill="#fff"/><path d="M32 14.487c0 .245.193.437.439.437a.434.434 0 0 0 .438-.437.449.449 0 0 0-.438-.455.46.46 0 0 0-.439.455z" fill="#191009"/><path d="M32.246 14.434c0 .053.052.105.105.105s.105-.052.105-.105c0-.052-.053-.105-.105-.105-.053 0-.105.053-.105.105zM26.35 13.91s1.843-.526 1.808 1.329c0 0-1.807.647-1.807-1.33z" fill="#fff"/><path d="M27.86 14.487a.434.434 0 0 1-.439.437.434.434 0 0 1-.439-.437c0-.245.193-.455.439-.455a.46.46 0 0 1 .439.455z" fill="#191009"/><path d="M27.614 14.434c0 .053-.053.105-.105.105-.053 0-.105-.052-.105-.105 0-.052.052-.105.105-.105.07 0 .105.053.105.105z" fill="#fff"/><path d="M26.386 10.428s-4.93 1.522-4.684 5.528c.245 4.006 1.245 6.07 2.596 6.105 1.351.017 2.018-1.172 1.667-4.81-.369-3.64.421-6.823.421-6.823zM32.965 10.428s4.93 1.522 4.684 5.528c-.246 4.006-1.246 6.07-2.596 6.105-1.351.017-1.439-1.207-1.088-4.846.368-3.638-1-6.787-1-6.787z" fill="#883E10"/><path d="M30.439 19.612c.614 0 .807.385.42.874l-.245.315c-.368.473-1 .473-1.368 0L29 20.486c-.368-.472-.193-.874.421-.874h1.018z" fill="#191009"/><path opacity=".5" d="M24.632 12.947L26 17.6l.579.018-1.474-4.863-.473.192zM31.614 12.457l1.456 5.056.544.035-1.456-5.143-.544.052zM24.14 13.052c.018.21-.14.367-.245.56-.018.035-.035.052-.053.07v.262l.895 3.184c.193.087.21.157.404.245.122.052.245.087.35.14l-1.35-4.46zM30.509 12.667l1.386 4.251.526.28-1.368-4.706-.544.175z" fill="#E6E6E6"/><path d="M36.579 14.277c-.053-.053-.123-.053-.158-.193s-.404-1.102-.807-1.312c-.404-.21-1.158-.594-3.018-.717-1.438-.035-2.298-.07-2.561-.07h-.07c-.246.018-1.123.035-2.562.07-1.86.123-2.631.507-3.017.717-.404.228-.755 1.172-.807 1.312-.035.14-.123.123-.158.193-.053.052 0 .402.14.612.158 1.224.667 1.924 1 2.309.316.367 1.21.56 1.825.525 1.368-.228 1.596-.648 2.193-1.225.596-.577 1.07-2.169 1.123-2.344.052-.14.21-.192.28-.192.07.017.228.07.281.192.07.175.544 1.767 1.123 2.344.596.577.824.997 2.193 1.225.614.017 1.509-.158 1.824-.525.316-.367.843-1.067 1-2.31.176-.209.228-.541.176-.611zm-7.299.245c-.105.454-.473 1.399-.877 1.854-.42.454-.684.857-1.719 1.084-.596.07-1.491.018-1.895-.472-.42-.49-.824-1.26-.824-1.994 0-.735.052-1.015.052-1.015s.246-.84.895-1.102c.65-.262 1.684-.455 2.807-.367 1.123.07 1.491.262 1.58.507.07.21.087 1.032-.018 1.505zm5.948 2.449c-.421.49-1.298.56-1.895.472-1.035-.228-1.316-.63-1.72-1.085-.42-.455-.771-1.382-.876-1.854-.106-.455-.088-1.294 0-1.54.087-.244.473-.42 1.579-.507 1.122-.07 2.157.105 2.807.368.649.262.894 1.102.894 1.102s.053.262.053 1.014c-.017.77-.421 1.54-.842 2.03z" fill="#351905"/><path d="M32.632 22.708c-.369-.122-2.176.91-2.176.91a.57.57 0 0 0-.438-.193.57.57 0 0 0-.439.193s-1.807-1.085-2.158-.892c-.35.21-.35 2.343 0 2.553.351.21 2.193-.857 2.193-.857a.57.57 0 0 0 .421.158.63.63 0 0 0 .421-.158s1.895 1.102 2.193.857c.263-.262.334-2.449-.017-2.571z" fill="#000"/></g><path d="M15 31c8.285 0 15-6.716 15-15 0-8.284-6.715-15-15-15C6.716 1 0 7.716 0 16c0 8.284 6.716 15 15 15z" fill="#6980A2" filter="url(#d)"/><mask id="e" mask-type="alpha" maskUnits="userSpaceOnUse" x="0" y="1" width="31" height="30"><path d="M15 31c8.285 0 15-6.716 15-15 0-8.284-6.715-15-15-15C6.716 1 0 7.716 0 16c0 8.284 6.716 15 15 15z" fill="#6980A2"/></mask><g mask="url(#e)"><path d="M14.983 21.682c-3.842 0-6.965 4.241-6.965 9.471h13.93c0-5.23-3.123-9.47-6.965-9.47z" fill="#ED7D1A"/><path d="M13.123 24.386c.562 1.166 2.228 2.456 3.632 0-.088-1.06-1.123-1.325-1.772-1.325-1.28 0-1.86 1.325-1.86 1.325z" fill="#F5FEFB"/><path d="M23.527 20.922a2.806 2.806 0 0 0-.404-.211c.036.035.088.053.123.07.106.053.21.088.28.142z" fill="#F6F3CF"/><path d="M23.527 20.922a1.399 1.399 0 0 0-.28-.14c.175.105.28.14.28.14zM6.825 20.71c-.158.071-.298.142-.404.212.088-.053.176-.105.28-.14.036-.018.071-.036.124-.071z" fill="#F6F3CF"/><path d="M6.421 20.922l.28-.14c-.104.052-.192.087-.28.14z" fill="#F6F3CF"/><path d="M17.527 13.113c1.316-5.39 5.684-7.28 5.684-7.28s3.106 8.18-2.842 10.125l-2.842-2.845z" fill="#251F21"/><path d="M18.176 13.607c1.702-5.124 4.421-6.025 4.421-6.025s2.351 4.894-2.824 7.88l-1.597-1.855z" fill="#ED7D1A"/><path d="M12.404 13.113c-1.316-5.39-5.684-7.28-5.684-7.28s-3.106 8.18 2.86 10.125l2.824-2.845z" fill="#251F21"/><path d="M11.772 13.607c-1.702-5.124-4.42-6.025-4.42-6.025S5 12.476 10.175 15.462l1.596-1.855z" fill="#ED7D1A"/><path d="M16.755 24.386a2.012 2.012 0 0 0-.86-.972c.316-.512 1.386-1.908 3.772-2.703 1.772-.601 3.281-.212 3.86.212 0 0-1.772 2.297-6.772 3.463zM13.194 24.386c.175-.406.473-.76.86-.972-.317-.512-1.387-1.908-3.773-2.703-1.772-.601-3.28-.212-3.86.212 0 0 1.772 2.297 6.772 3.463z" fill="#F5FEFB"/><path d="M21.51 18.573c0-.089.017-.16.017-.248 0-3.657-2.93-6.608-6.544-6.608-3.632 0-6.562 2.95-6.562 6.59 0 .089.018.177.018.248-.299 1.237-1.264 1.944-1.737 2.209.754-.336 2-.477 3.579-.053 1.842.477 3.456 2.032 3.772 2.703a1.877 1.877 0 0 1 1.86 0c.315-.671 1.93-2.226 3.771-2.703 1.58-.407 2.843-.265 3.58.053-.492-.265-1.457-.954-1.755-2.191zM23.246 20.781c.176.106.28.142.28.142-.087-.053-.174-.089-.28-.142zM6.702 20.781c-.105.053-.193.088-.28.142 0 0 .105-.036.28-.142z" fill="#ED7D1A"/><path d="M14.966 23.167s.017 0 0 0c.017 0 .017 0 0 0l.017-3.517v-2.173h-.017V23.167zM14.053 23.414s0 .018 0 0c.28-.141.597-.247.93-.247-.35 0-.667.106-.93.247z" fill="#A84720"/><path d="M14.966 23.167c0 .018.017 0 0 0 .017 0 0 0 0 0z" fill="#A84720"/><path d="M15.51 22.124c.648 0 .859.424.455.937l-.263.335c-.403.513-1.052.513-1.456 0l-.263-.335c-.404-.513-.193-.937.456-.937h1.07z" fill="#191009"/><path d="M12.965 24.28s1.123.353 1.965-.513c.737.601 1.21.76 2.018.283-.825.919-1.755.636-2.035.566-.632.194-1.772.141-1.948-.336z" fill="#191009"/><path d="M11.21 17.336s2.176-.636 2.124 1.59c0 0-2.123.777-2.123-1.59z" fill="#fff"/><path d="M12.93 18.025c0 .3-.228.53-.527.53a.519.519 0 0 1-.526-.53c0-.3.228-.53.526-.53.299 0 .527.23.527.53z" fill="#191009"/><path d="M12.755 17.813a.12.12 0 0 1-.123.123.12.12 0 0 1-.123-.123.12.12 0 0 1 .123-.124.12.12 0 0 1 .123.124zM18.685 17.336s-2.176-.636-2.123 1.59c-.018 0 2.123.777 2.123-1.59z" fill="#fff"/><path d="M16.895 18.025c0 .3.228.53.526.53.299 0 .527-.23.527-.53 0-.3-.228-.53-.527-.53a.53.53 0 0 0-.526.53z" fill="#191009"/><path d="M17.053 17.76c0 .07.052.123.122.123a.12.12 0 0 0 .123-.123.12.12 0 0 0-.122-.124c-.07 0-.123.07-.123.123z" fill="#fff"/><path d="M17.562 25.587c-.368-.123-2.176.92-2.176.92a.568.568 0 0 0-.438-.195.568.568 0 0 0-.439.194s-1.807-1.095-2.158-.9c-.35.211-.35 2.367 0 2.579.351.212 2.193-.866 2.193-.866.106.106.246.16.421.16a.626.626 0 0 0 .421-.16s1.895 1.113 2.194.866c.263-.247.35-2.474-.018-2.598z" fill="#000"/><path opacity=".5" d="M9.614 16.205l1.351 4.7.58.018-1.475-4.913-.456.195zM16.597 15.71l1.456 5.124.544.018-1.474-5.195-.526.053zM9.123 16.328c.018.213-.14.372-.246.566-.017.035-.035.053-.052.07v.266l.894 3.215c.193.089.211.16.404.248.123.053.246.088.35.141l-1.35-4.506zM15.492 15.922l1.386 4.311.526.283-1.368-4.77-.544.176z" fill="#E6E6E6"/><path d="M21.562 17.565c-.053-.053-.123-.053-.158-.194-.035-.141-.403-1.113-.807-1.325-.403-.212-1.158-.601-3.018-.725a82.155 82.155 0 0 1-2.561-.088h-.07c-.246.018-1.123.035-2.562.07-1.86.124-2.631.513-3.017.725-.404.23-.755 1.184-.807 1.325-.035.142-.123.124-.158.195-.053.053 0 .406.14.618.158 1.237.667 1.944 1 2.333.316.37 1.21.565 1.825.53 1.368-.23 1.596-.654 2.193-1.237.596-.583 1.07-2.191 1.123-2.368.052-.141.21-.194.28-.194.07.017.229.07.281.194.07.177.544 1.785 1.123 2.368.596.583.825 1.007 2.193 1.237.614.017 1.509-.16 1.825-.53.315-.371.842-1.078 1-2.333.175-.194.21-.548.175-.6zm-7.298.23c-.106.46-.474 1.414-.878 1.873-.42.46-.684.866-1.719 1.096-.596.07-1.491.017-1.895-.477-.42-.495-.824-1.273-.824-2.015 0-.742.052-1.025.052-1.025s.246-.848.895-1.113c.65-.265 1.684-.46 2.807-.37 1.123.07 1.492.264 1.58.512.07.23.087 1.06-.018 1.52zm5.947 2.491c-.42.495-1.298.566-1.895.478-1.035-.23-1.315-.636-1.719-1.096-.421-.46-.772-1.396-.877-1.873-.105-.46-.088-1.308 0-1.555.087-.247.473-.424 1.579-.512 1.123-.071 2.158.106 2.807.37.65.266.895 1.114.895 1.114s.052.265.052 1.025c-.017.76-.42 1.555-.842 2.05z" fill="#351905"/></g><defs><filter id="b" x="15" y=".74" width="31.5" height="30.76" filterUnits="userSpaceOnUse" color-interpolation-filters="sRGB"><feFlood flood-opacity="0" result="BackgroundImageFix"/><feColorMatrix in="SourceAlpha" type="matrix" values="0 0 0 0 0 0 0 0 0 0 0 0 0 0 0 0 0 0 127 0"/><feOffset dx="1"/><feGaussianBlur stdDeviation=".25"/><feColorMatrix type="matrix" values="0 0 0 0 0 0 0 0 0 0 0 0 0 0 0 0 0 0 0.15 0"/><feBlend mode="normal" in2="BackgroundImageFix" result="effect1_dropShadow"/><feBlend mode="normal" in="SourceGraphic" in2="effect1_dropShadow" result="shape"/></filter><filter id="d" x="0" y=".5" width="31.501" height="31" filterUnits="userSpaceOnUse" color-interpolation-filters="sRGB"><feFlood flood-opacity="0" result="BackgroundImageFix"/><feColorMatrix in="SourceAlpha" type="matrix" values="0 0 0 0 0 0 0 0 0 0 0 0 0 0 0 0 0 0 127 0"/><feOffset dx="1"/><feGaussianBlur stdDeviation=".25"/><feColorMatrix type="matrix" values="0 0 0 0 0 0 0 0 0 0 0 0 0 0 0 0 0 0 0.15 0"/><feBlend mode="normal" in2="BackgroundImageFix" result="effect1_dropShadow"/><feBlend mode="normal" in="SourceGraphic" in2="effect1_dropShadow" result="shape"/></filter></defs></svg>