<svg xmlns="http://www.w3.org/2000/svg" viewBox="0 0 170 170.6"><style>.st7{fill:#fff}.st8{fill:#191009}.st11{fill:#d39c5b}.st13{fill:#be7447}</style><g id="Objects"><path class="st11" d="M120.1 170.3c.4-2.8.6-15.7.6-18.7 0-25.9-16-46.8-35.8-46.8-19.8 0-35.8 21-35.8 46.8 0 3 .2 15.8.6 18.7h70.4z"/><path d="M68.2 117s-10.2 23.4-4.1 32.3c6.1 8.9 20.6 21 20.6 21s22.7-15.1 23-26.7c.3-11.5-6.5-30.1-6.5-30.1" fill="#e2c59b"/><path class="st13" d="M63 113.7c7.2 5.5 7.4 8.8 8.4 17.9 2.2 17.2 9.5 16.7 13.5 16.7v-32.5s-18.1-14.4-26.8-19.9c-1 3.9-2.3 12.3 4.9 17.8zM111.8 95.8c-8.7 5.5-26.8 19.9-26.8 19.9v32.5c4 0 11.4.5 13.5-16.7 1-9.1 1.1-12.4 8.4-17.9 7.2-5.4 5.8-13.8 4.9-17.8zM105.1 71s13-11.7 28.9-4.7c-3.9 8.6-11 15.9-25 16.6"/><path class="st8" d="M106.2 74.9s13.5-8 21.7-4.4c-2 4.4-12.2 11.1-19.4 11.4"/><path class="st13" d="M64.2 70.2s-13-11.7-28.9-4.7c3.9 8.6 11 15.9 25 16.6"/><path class="st8" d="M63.1 74.1s-13.5-8-21.7-4.4c2 4.4 12.2 11.1 19.4 11.4"/><path class="st11" d="M109.2 68.6l-7.3-3.7-17 6.9-17-6.9-7.3 3.7s.5 18.6-2.8 28c7.6 2.3 15.8 16.7 20.2 31.6h13.8c4.4-14.9 12.6-29.4 20.2-31.6-3.2-9.4-2.8-28-2.8-28z"/><path class="st8" d="M88.2 126.3c3.9 0 5.2 2.5 2.7 5.6l-1.6 2c-2.4 3.1-6.4 3.1-8.9 0l-1.6-2c-2.4-3.1-1.2-5.6 2.7-5.6h6.7z"/><path class="st7" d="M110.9 100.4s-11.9-3.5-11.7 8.7c.1-.1 11.7 4.2 11.7-8.7"/><path class="st8" d="M101.2 104.1c0 1.6 1.3 2.9 2.9 2.9 1.6 0 2.9-1.3 2.9-2.9 0-1.6-1.3-2.9-2.9-2.9-1.6 0-2.9 1.3-2.9 2.9z"/><path class="st7" d="M102.7 103.8c0 .4.3.7.7.7.4 0 .7-.3.7-.7 0-.4-.3-.7-.7-.7-.4.1-.7.4-.7.7z"/><g><path class="st7" d="M59 100.4s11.9-3.5 11.7 8.7c-.1-.1-11.7 4.2-11.7-8.7"/><path class="st8" d="M68.7 104.1c0 1.6-1.3 2.9-2.9 2.9-1.6 0-2.9-1.3-2.9-2.9 0-1.6 1.3-2.9 2.9-2.9 1.6 0 2.9 1.3 2.9 2.9z"/><path class="st7" d="M67.2 103.8c0 .4-.3.7-.7.7-.4 0-.7-.3-.7-.7 0-.4.3-.7.7-.7.4.1.7.4.7.7z"/></g><g><path d="M99.9 150.8c-2.1-.7-12.4 5.2-12.4 5.2-.6-.7-1.5-1.1-2.6-1.1-1 0-1.9.4-2.5 1.1 0 0-10.3-6.2-12.3-5.1-2 1.2-2 13.4 0 14.6 2 1.2 12.5-4.9 12.5-4.9.6.6 1.4.9 2.4.9.9 0 1.7-.3 2.4-.9 0 0 10.8 6.3 12.5 4.9 1.6-1.4 2-14 0-14.7z"/></g><g><path class="st8" d="M84.9 136.2s-4.5-.6-5.9 2.7c-1.4 3.2-4.8 6.7-6.9 5.5-3-1.7-1.7-5.5 1.1-6.3-2-2-7.4 3-3.3 6.9 4.3 4.1 12.9-.2 15-4.8v-4zM84.9 136.2s4.5-.6 5.9 2.7c1.4 3.2 4.8 6.7 6.9 5.5 3-1.7 1.7-5.5-1.1-6.3 2-2 7.4 3 3.3 6.9-4.4 4.1-12.9-.2-15-4.8v-4z"/></g><g><path d="M66.4 93.8c-7.2 0-13 5.8-13 13s5.8 13 13 13 13-5.8 13-13-5.8-13-13-13zm0 23.8c-6 0-10.8-4.8-10.8-10.8 0-6 4.8-10.8 10.8-10.8s10.8 4.8 10.8 10.8c0 6-4.9 10.8-10.8 10.8z"/><path d="M49 105.5h6.4v2.6H49z"/><path d="M49 106.8h2.4v51.9H49z"/></g><path class="st11" d="M108.7 70.6s3.9-13.9 10.3-16c6.3-2.1 14.5-2.1 28-.7 13.5 1.3 32.2-4.5 42.7-21.2s1.4-10.8-1.3-6.1c-2.7 4.7-15.7 18.3-26.3 20.6-10.6 2.3-21.8.7-23-3.6-1.2-4.3 13.4-23.6 20-27.6 6.6-3.9 8.1-11.2-1-3.9C149 19.4 140.2 29 131 45.2c-3.8 1.8-12.8 4.3-16.4 2-3.6-2.3.9-24 8.4-31.5s14.2-11.7 20.8-11c6.6.7 5.5-5.3-3.1-3.4-8.5 1.9-27.4 1.4-33.2 32-1.5 8 .8 20.2.8 20.2l-6.9 12.6 7.3 4.5zM61.3 70.7s-3.9-13.9-10.3-16c-6.3-2.1-14.5-2.1-28-.7-13.5 1.3-32.2-4.5-42.6-21.3-10.5-16.7-1.4-10.8 1.3-6.1C-15.6 31.3-2.6 44.9 8 47.2c10.6 2.3 21.8.7 23-3.6C32.1 39.2 17.6 20 10.9 16c-6.6-3.9-8.1-11.2 1-3.9C21 19.4 29.8 29 39 45.2c3.8 1.8 12.8 4.3 16.4 2 3.6-2.3-.9-24-8.4-31.5C39.6 8.2 32.8 4 26.2 4.7c-6.6.7-5.5-5.3 3.1-3.4 8.5 1.9 27.4 1.4 33.2 32 1.5 8-.8 20.2-.8 20.2L68.6 66l-7.3 4.7z"/></g></svg>