<svg xmlns="http://www.w3.org/2000/svg" viewBox="0 0 170 170.6"><style>.st8{fill:#191009}.st28{fill:#434345}.st29{fill:#3e3d42}.st31{fill:#4e4741}.st32{fill:#e3e1e2}</style><g id="Objects"><path class="st8" d="M85 116.7c-28.1 0-50.9 24-50.9 53.6h101.8c0-29.6-22.8-53.6-50.9-53.6z"/><path class="st28" d="M62.6 121.3l22.4 49 24.1-47.2 15 3.2-13.6 14.5 7.9 2.7L85 170.3l-25.3-20.5 6.3-6.3-15.4-15.4z"/><path class="st8" d="M66 53.3c0-5.4-4.4-9.7-9.7-9.7s-9.7 4.4-9.7 9.7S51 63 56.3 63s9.7-4.3 9.7-9.7zM123.3 53.3c0-5.4-4.4-9.7-9.7-9.7-5.4 0-9.7 4.4-9.7 9.7s4.4 9.7 9.7 9.7c5.4 0 9.7-4.3 9.7-9.7z"/><path class="st29" d="M118.4 54.9c0-3.6-2.9-6.5-6.5-6.5s-6.5 2.9-6.5 6.5 2.9 6.5 6.5 6.5 6.5-2.9 6.5-6.5zM63.9 54.9c0-3.6-2.9-6.5-6.5-6.5s-6.5 2.9-6.5 6.5 2.9 6.5 6.5 6.5 6.5-2.9 6.5-6.5z"/><path d="M126.6 89.1c0-23-18.6-41.6-41.6-41.6S43.4 66.1 43.4 89.1 62 130.7 85 130.7c22.9.1 41.6-18.6 41.6-41.6z" fill="#fcfcfc"/><path class="st8" d="M82.3 87.2c2.9-7-3.9-15.8-12.8-14.2-8.9 1.6-18.6 20.9-12.9 26.7 5.7 5.9 21.7-2.8 25.7-12.5z"/><path class="st31" d="M75.7 85.5c0-2-1.6-3.7-3.7-3.7-2 0-3.7 1.6-3.7 3.7s1.6 3.7 3.7 3.7c2.1-.1 3.7-1.7 3.7-3.7z"/><path class="st32" d="M73.8 85.5c0-1-.8-1.8-1.8-1.8s-1.8.8-1.8 1.8.8 1.8 1.8 1.8c1-.1 1.8-.9 1.8-1.8z"/><path class="st8" d="M87.4 87.2c-2.9-7 3.9-15.8 12.8-14.2 8.9 1.6 18.6 20.9 12.9 26.7-5.6 5.9-21.6-2.8-25.7-12.5z"/><path class="st31" d="M94 85.5c0-2 1.6-3.7 3.7-3.7 2 0 3.7 1.6 3.7 3.7s-1.6 3.7-3.7 3.7c-2-.1-3.7-1.7-3.7-3.7z"/><path class="st32" d="M95.9 85.5c0-1 .8-1.8 1.8-1.8s1.8.8 1.8 1.8-.8 1.8-1.8 1.8c-1-.1-1.8-.9-1.8-1.8z"/><path class="st8" d="M87.6 102.4c3.1 0 4.1 2 2.2 4.5l-1.2 1.6c-1.9 2.5-5.1 2.5-7 0l-1.2-1.6c-1.9-2.5-1-4.5 2.2-4.5h5z"/><path class="st8" d="M75.4 112.7s5.4 1.7 9.5-2.4c3.6 2.8 5.8 3.7 9.7 1.4-4 4.4-8.4 3-9.8 2.7-3.1.7-8.6.6-9.4-1.7z"/><path class="st28" d="M87.7 142.1c0-1.5-1.2-2.7-2.7-2.7-1.5 0-2.7 1.2-2.7 2.7 0 1.5 1.2 2.7 2.7 2.7 1.5.1 2.7-1.2 2.7-2.7zM87.7 151.6c0-1.5-1.2-2.7-2.7-2.7-1.5 0-2.7 1.2-2.7 2.7 0 1.5 1.2 2.7 2.7 2.7 1.5 0 2.7-1.2 2.7-2.7z"/></g></svg>