<svg width="60" height="32" viewBox="0 0 60 32" fill="none" xmlns="http://www.w3.org/2000/svg">
<circle cx="45" cy="16" r="15" fill="white"/>
<path d="M49.499 19.6548L37.3402 24.9453C36.5477 25.2607 35.76 24.4799 36.0685 23.6847L41.3818 11.3345" fill="#FFB636"/>
<path d="M36.0685 23.6844L36.4907 22.7029C36.5269 22.6477 36.563 22.5924 36.5993 22.5372C38.6996 19.3376 40.8306 16.1576 43.0344 13.0283L45.5055 15.5612C43.641 16.8412 37.5871 23.0974 36.319 24.7568C36.043 24.5029 35.9089 24.0958 36.0685 23.6844V23.6844Z" fill="#FFD469"/>
<path d="M46.7934 14.1404C49.0486 16.3957 50.2822 18.8186 49.5485 19.5523C48.8149 20.2859 46.3919 19.0524 44.1366 16.7972C41.8813 14.5419 40.6478 12.1189 41.3815 11.3853C42.1151 10.6516 44.5381 11.8851 46.7934 14.1404V14.1404Z" fill="#A06C33"/>
<path d="M41.3682 18.6302C41.3682 18.8494 41.1905 19.027 40.9713 19.027C40.7522 19.027 40.5745 18.8494 40.5745 18.6302C40.5745 18.411 40.7521 18.2333 40.9713 18.2333C41.1905 18.2333 41.3682 18.411 41.3682 18.6302Z" fill="#F7F9AA"/>
<path d="M53.9983 14.4586C53.9983 14.7733 53.7433 15.0283 53.4287 15.0283C53.114 15.0283 52.859 14.7733 52.859 14.4586C52.859 14.144 53.114 13.889 53.4287 13.889C53.7433 13.889 53.9983 14.144 53.9983 14.4586V14.4586ZM50.1942 22.0442C49.8795 22.0442 49.6245 22.2992 49.6245 22.6138C49.6245 22.9284 49.8795 23.1835 50.1942 23.1835C50.5088 23.1835 50.7638 22.9284 50.7638 22.6138C50.7638 22.2992 50.5088 22.0442 50.1942 22.0442Z" fill="#FFB636"/>
<path d="M48.6733 9.58611C48.6244 9.91663 48.4109 10.2086 48.0873 10.3871C47.864 10.5103 47.6013 10.5744 47.3287 10.5744C47.2418 10.5743 47.1551 10.5679 47.0692 10.5552C46.8764 10.5267 46.6834 10.5558 46.5398 10.635C46.4754 10.6705 46.3648 10.7482 46.3468 10.8698C46.3289 10.9913 46.4123 11.0977 46.4636 11.1503C46.5751 11.2646 46.7452 11.3465 46.9321 11.3771C46.9372 11.3776 46.9423 11.3778 46.9475 11.3786C47.7357 11.4951 48.2987 12.1195 48.2025 12.7704C48.1536 13.101 47.9401 13.3929 47.6165 13.5714C47.3932 13.6947 47.1305 13.7587 46.8579 13.7587C46.7711 13.7587 46.6843 13.7523 46.5984 13.7395C46.4056 13.711 46.2126 13.7401 46.069 13.8194C46.0046 13.8549 45.8939 13.9326 45.876 14.0541C45.8472 14.2491 46.0866 14.5066 46.4765 14.5642C46.6886 14.5956 46.8351 14.7929 46.8038 15.0051C46.7752 15.1979 46.6095 15.3366 46.4202 15.3366C46.4013 15.3366 46.3822 15.3352 46.3629 15.3323C45.5747 15.2158 45.0117 14.5914 45.1079 13.9405C45.1567 13.61 45.3703 13.318 45.6938 13.1395C45.9875 12.9775 46.3491 12.9177 46.712 12.9714C46.9048 12.9999 47.0977 12.9708 47.2414 12.8916C47.3058 12.856 47.4164 12.7784 47.4344 12.6568C47.4627 12.465 47.231 12.2131 46.8524 12.1501C46.8462 12.1495 46.8399 12.149 46.8337 12.148C46.4709 12.0944 46.142 11.9326 45.9078 11.6925C45.6497 11.4281 45.5298 11.0868 45.5787 10.7562C45.6275 10.4257 45.8411 10.1337 46.1646 9.95521C46.4583 9.79318 46.8199 9.73345 47.1827 9.78709C47.3755 9.81553 47.5685 9.7865 47.7122 9.70727C47.7765 9.67176 47.8872 9.59406 47.9051 9.47254C47.9231 9.35101 47.8397 9.24462 47.7884 9.192C47.6738 9.0746 47.4975 8.99089 47.3046 8.96241C47.0925 8.93105 46.946 8.73369 46.9773 8.52156C47.0087 8.30943 47.2061 8.16307 47.4182 8.19425C47.781 8.24792 48.1099 8.40966 48.3441 8.64976C48.6022 8.91428 48.7222 9.25556 48.6733 9.58611V9.58611Z" fill="#BEA4FF"/>
<path d="M38.6751 12.5091C38.6751 12.8656 38.3861 13.1547 38.0296 13.1547C37.6731 13.1547 37.384 12.8656 37.384 12.5091C37.384 12.1526 37.6731 11.8636 38.0296 11.8636C38.3861 11.8636 38.6751 12.1526 38.6751 12.5091ZM50.2143 11.7633C49.8024 11.7633 49.4685 12.0972 49.4685 12.5091C49.4685 12.921 49.8024 13.2549 50.2143 13.2549C50.6262 13.2549 50.9601 12.921 50.9601 12.5091C50.9601 12.0972 50.6262 11.7633 50.2143 11.7633ZM43.5541 21.1225C43.1422 21.1225 42.8083 21.4564 42.8083 21.8683C42.8083 22.2802 43.1422 22.6141 43.5541 22.6141C43.966 22.6141 44.2998 22.2802 44.2998 21.8683C44.2998 21.4564 43.966 21.1225 43.5541 21.1225ZM53.4471 17.7077C53.5599 17.4893 53.4743 17.2208 53.2559 17.1081C53.1688 17.0631 53.0649 17.0035 52.9446 16.9344C51.8873 16.3279 49.6876 15.0659 47.0973 17.1572C46.9061 17.3116 46.8762 17.5918 47.0306 17.7831C47.185 17.9743 47.4652 18.0042 47.6565 17.8498C49.7727 16.1412 51.481 17.121 52.5016 17.7065C52.6257 17.7777 52.7429 17.8449 52.8474 17.8989C52.8994 17.9257 52.9561 17.9421 53.0143 17.947C53.0725 17.9519 53.1312 17.9453 53.1869 17.9275C53.2426 17.9098 53.2942 17.8812 53.3389 17.8435C53.3835 17.8058 53.4203 17.7597 53.4471 17.7077V17.7077Z" fill="#FF6E83"/>
<path d="M51.5513 8.97566C51.5513 9.19489 51.3735 9.37258 51.1543 9.37258C50.9351 9.37258 50.7574 9.19489 50.7574 8.97566C50.7574 8.75643 50.9351 8.57874 51.1543 8.57874C51.3736 8.5787 51.5513 8.75643 51.5513 8.97566ZM37.3842 7.12025C37.165 7.12025 36.9873 7.29794 36.9873 7.51717C36.9873 7.73639 37.165 7.91409 37.3842 7.91409C37.6035 7.91409 37.7812 7.73639 37.7812 7.51717C37.7812 7.29794 37.6035 7.12025 37.3842 7.12025ZM43.6081 12.3004C43.653 12.2123 43.7084 12.1121 43.767 12.006C44.0643 11.4673 44.4715 10.7297 44.496 9.87062C44.5254 8.83851 43.9879 7.90144 42.8984 7.08542C42.7092 6.94375 42.4411 6.9823 42.2996 7.17137C42.1579 7.36048 42.1964 7.62857 42.3855 7.77016C43.2516 8.4188 43.6622 9.09789 43.6408 9.84622C43.6222 10.4979 43.2872 11.1049 43.018 11.5925C42.956 11.7049 42.8973 11.8111 42.8461 11.9115C42.7387 12.1219 42.8223 12.3795 43.0327 12.4869C43.0928 12.5177 43.1593 12.5338 43.2268 12.5338C43.3057 12.5338 43.3831 12.512 43.4504 12.4708C43.5177 12.4297 43.5723 12.3706 43.6081 12.3004V12.3004Z" fill="#59CAFC"/>
<g filter="url(#filter0_d)">
<circle cx="30" cy="16" r="15" fill="white"/>
</g>
<path d="M34.499 19.6548L22.3402 24.9453C21.5477 25.2607 20.76 24.4799 21.0685 23.6847L26.3818 11.3345" fill="#FFB636"/>
<path d="M21.0685 23.6844L21.4907 22.7029C21.5269 22.6477 21.563 22.5924 21.5993 22.5372C23.6996 19.3376 25.8306 16.1576 28.0344 13.0283L30.5055 15.5612C28.641 16.8412 22.5871 23.0974 21.319 24.7568C21.043 24.5029 20.9089 24.0958 21.0685 23.6844V23.6844Z" fill="#FFD469"/>
<path d="M31.7934 14.1404C34.0486 16.3957 35.2822 18.8186 34.5485 19.5523C33.8149 20.2859 31.3919 19.0524 29.1366 16.7972C26.8813 14.5419 25.6478 12.1189 26.3815 11.3853C27.1151 10.6516 29.5381 11.8851 31.7934 14.1404V14.1404Z" fill="#A06C33"/>
<path d="M26.3682 18.6302C26.3682 18.8494 26.1905 19.027 25.9713 19.027C25.7522 19.027 25.5745 18.8494 25.5745 18.6302C25.5745 18.411 25.7521 18.2333 25.9713 18.2333C26.1905 18.2333 26.3682 18.411 26.3682 18.6302Z" fill="#F7F9AA"/>
<path d="M38.9983 14.4586C38.9983 14.7733 38.7433 15.0283 38.4287 15.0283C38.114 15.0283 37.859 14.7733 37.859 14.4586C37.859 14.144 38.114 13.889 38.4287 13.889C38.7433 13.889 38.9983 14.144 38.9983 14.4586V14.4586ZM35.1942 22.0442C34.8795 22.0442 34.6245 22.2992 34.6245 22.6138C34.6245 22.9284 34.8795 23.1835 35.1942 23.1835C35.5088 23.1835 35.7638 22.9284 35.7638 22.6138C35.7638 22.2992 35.5088 22.0442 35.1942 22.0442Z" fill="#FFB636"/>
<path d="M33.6733 9.58611C33.6244 9.91663 33.4109 10.2086 33.0873 10.3871C32.864 10.5103 32.6013 10.5744 32.3287 10.5744C32.2418 10.5743 32.1551 10.5679 32.0692 10.5552C31.8764 10.5267 31.6834 10.5558 31.5398 10.635C31.4754 10.6705 31.3648 10.7482 31.3468 10.8698C31.3289 10.9913 31.4123 11.0977 31.4636 11.1503C31.5751 11.2646 31.7452 11.3465 31.9321 11.3771C31.9372 11.3776 31.9423 11.3778 31.9475 11.3786C32.7357 11.4951 33.2987 12.1195 33.2025 12.7704C33.1536 13.101 32.9401 13.3929 32.6165 13.5714C32.3932 13.6947 32.1305 13.7587 31.8579 13.7587C31.7711 13.7587 31.6843 13.7523 31.5984 13.7395C31.4056 13.711 31.2126 13.7401 31.069 13.8194C31.0046 13.8549 30.8939 13.9326 30.876 14.0541C30.8472 14.2491 31.0866 14.5066 31.4765 14.5642C31.6886 14.5956 31.8351 14.7929 31.8038 15.0051C31.7752 15.1979 31.6095 15.3366 31.4202 15.3366C31.4013 15.3366 31.3822 15.3352 31.3629 15.3323C30.5747 15.2158 30.0117 14.5914 30.1079 13.9405C30.1567 13.61 30.3703 13.318 30.6938 13.1395C30.9875 12.9775 31.3491 12.9177 31.712 12.9714C31.9048 12.9999 32.0977 12.9708 32.2414 12.8916C32.3058 12.856 32.4164 12.7784 32.4344 12.6568C32.4627 12.465 32.231 12.2131 31.8524 12.1501C31.8462 12.1495 31.8399 12.149 31.8337 12.148C31.4709 12.0944 31.142 11.9326 30.9078 11.6925C30.6497 11.4281 30.5298 11.0868 30.5787 10.7562C30.6275 10.4257 30.8411 10.1337 31.1646 9.95521C31.4583 9.79318 31.8199 9.73345 32.1827 9.78709C32.3755 9.81553 32.5685 9.7865 32.7122 9.70727C32.7765 9.67176 32.8872 9.59406 32.9051 9.47254C32.9231 9.35101 32.8397 9.24462 32.7884 9.192C32.6738 9.0746 32.4975 8.99089 32.3046 8.96241C32.0925 8.93105 31.946 8.73369 31.9773 8.52156C32.0087 8.30943 32.2061 8.16307 32.4182 8.19425C32.781 8.24792 33.1099 8.40966 33.3441 8.64976C33.6022 8.91428 33.7222 9.25556 33.6733 9.58611V9.58611Z" fill="#BEA4FF"/>
<path d="M23.6751 12.5091C23.6751 12.8656 23.3861 13.1547 23.0296 13.1547C22.6731 13.1547 22.384 12.8656 22.384 12.5091C22.384 12.1526 22.6731 11.8636 23.0296 11.8636C23.3861 11.8636 23.6751 12.1526 23.6751 12.5091ZM35.2143 11.7633C34.8024 11.7633 34.4685 12.0972 34.4685 12.5091C34.4685 12.921 34.8024 13.2549 35.2143 13.2549C35.6262 13.2549 35.9601 12.921 35.9601 12.5091C35.9601 12.0972 35.6262 11.7633 35.2143 11.7633ZM28.5541 21.1225C28.1422 21.1225 27.8083 21.4564 27.8083 21.8683C27.8083 22.2802 28.1422 22.6141 28.5541 22.6141C28.966 22.6141 29.2998 22.2802 29.2998 21.8683C29.2998 21.4564 28.966 21.1225 28.5541 21.1225ZM38.4471 17.7077C38.5599 17.4893 38.4743 17.2208 38.2559 17.1081C38.1688 17.0631 38.0649 17.0035 37.9446 16.9344C36.8873 16.3279 34.6876 15.0659 32.0973 17.1572C31.9061 17.3116 31.8762 17.5918 32.0306 17.7831C32.185 17.9743 32.4652 18.0042 32.6565 17.8498C34.7727 16.1412 36.481 17.121 37.5016 17.7065C37.6257 17.7777 37.7429 17.8449 37.8474 17.8989C37.8994 17.9257 37.9561 17.9421 38.0143 17.947C38.0725 17.9519 38.1312 17.9453 38.1869 17.9275C38.2426 17.9098 38.2942 17.8812 38.3389 17.8435C38.3835 17.8058 38.4203 17.7597 38.4471 17.7077V17.7077Z" fill="#FF6E83"/>
<path d="M36.5513 8.97566C36.5513 9.19489 36.3735 9.37258 36.1543 9.37258C35.9351 9.37258 35.7574 9.19489 35.7574 8.97566C35.7574 8.75643 35.9351 8.57874 36.1543 8.57874C36.3736 8.5787 36.5513 8.75643 36.5513 8.97566ZM22.3842 7.12025C22.165 7.12025 21.9873 7.29794 21.9873 7.51717C21.9873 7.73639 22.165 7.91409 22.3842 7.91409C22.6035 7.91409 22.7812 7.73639 22.7812 7.51717C22.7812 7.29794 22.6035 7.12025 22.3842 7.12025ZM28.6081 12.3004C28.653 12.2123 28.7084 12.1121 28.767 12.006C29.0643 11.4673 29.4715 10.7297 29.496 9.87062C29.5254 8.83851 28.9879 7.90144 27.8984 7.08542C27.7092 6.94375 27.4411 6.9823 27.2996 7.17137C27.1579 7.36048 27.1964 7.62857 27.3855 7.77016C28.2516 8.4188 28.6622 9.09789 28.6408 9.84622C28.6222 10.4979 28.2872 11.1049 28.018 11.5925C27.956 11.7049 27.8973 11.8111 27.8461 11.9115C27.7387 12.1219 27.8223 12.3795 28.0327 12.4869C28.0928 12.5177 28.1593 12.5338 28.2268 12.5338C28.3057 12.5338 28.3831 12.512 28.4504 12.4708C28.5177 12.4297 28.5723 12.3706 28.6081 12.3004V12.3004Z" fill="#59CAFC"/>
<g filter="url(#filter1_d)">
<circle cx="15" cy="16" r="15" fill="white"/>
</g>
<path d="M19.5 19.6548L7.3412 24.9453C6.54863 25.2607 5.76099 24.4799 6.06952 23.6847L11.3828 11.3345" fill="#FFB636"/>
<path d="M6.06943 23.6844L6.4917 22.7029C6.52791 22.6477 6.56401 22.5924 6.60026 22.5372C8.70053 19.3376 10.8316 16.1576 13.0354 13.0283L15.5065 15.5612C13.642 16.8412 7.58809 23.0974 6.32002 24.7568C6.04398 24.5029 5.90983 24.0958 6.06943 23.6844V23.6844Z" fill="#FFD469"/>
<path d="M16.7944 14.1404C19.0496 16.3957 20.2831 18.8186 19.5495 19.5523C18.8159 20.2859 16.3929 19.0524 14.1376 16.7972C11.8823 14.5419 10.6488 12.1189 11.3824 11.3853C12.1161 10.6516 14.5391 11.8851 16.7944 14.1404V14.1404Z" fill="#A06C33"/>
<path d="M11.3692 18.6302C11.3692 18.8494 11.1915 19.027 10.9723 19.027C10.7532 19.027 10.5754 18.8494 10.5754 18.6302C10.5754 18.411 10.7531 18.2333 10.9723 18.2333C11.1915 18.2333 11.3692 18.411 11.3692 18.6302Z" fill="#F7F9AA"/>
<path d="M23.9993 14.4586C23.9993 14.7733 23.7443 15.0283 23.4296 15.0283C23.115 15.0283 22.86 14.7733 22.86 14.4586C22.86 14.144 23.115 13.889 23.4296 13.889C23.7443 13.889 23.9993 14.144 23.9993 14.4586V14.4586ZM20.1951 22.0442C19.8805 22.0442 19.6255 22.2992 19.6255 22.6138C19.6255 22.9284 19.8805 23.1835 20.1951 23.1835C20.5098 23.1835 20.7648 22.9284 20.7648 22.6138C20.7648 22.2992 20.5097 22.0442 20.1951 22.0442Z" fill="#FFB636"/>
<path d="M18.6742 9.58611C18.6254 9.91663 18.4118 10.2086 18.0883 10.3871C17.865 10.5103 17.6023 10.5744 17.3297 10.5744C17.2428 10.5743 17.1561 10.5679 17.0702 10.5552C16.8774 10.5267 16.6844 10.5558 16.5408 10.635C16.4764 10.6705 16.3657 10.7482 16.3478 10.8698C16.3298 10.9913 16.4133 11.0977 16.4646 11.1503C16.576 11.2646 16.7462 11.3465 16.933 11.3771C16.9382 11.3776 16.9433 11.3778 16.9484 11.3786C17.7367 11.4951 18.2997 12.1195 18.2035 12.7704C18.1546 13.101 17.941 13.3929 17.6175 13.5714C17.3941 13.6947 17.1315 13.7587 16.8589 13.7587C16.772 13.7587 16.6853 13.7523 16.5994 13.7395C16.4066 13.711 16.2136 13.7401 16.0699 13.8194C16.0055 13.8549 15.8949 13.9326 15.8769 14.0541C15.8481 14.2491 16.0876 14.5066 16.4775 14.5642C16.6896 14.5956 16.8361 14.7929 16.8047 15.0051C16.7762 15.1979 16.6105 15.3366 16.4212 15.3366C16.4022 15.3366 16.3831 15.3352 16.3639 15.3323C15.5756 15.2158 15.0126 14.5914 15.1089 13.9405C15.1577 13.61 15.3713 13.318 15.6948 13.1395C15.9885 12.9775 16.3501 12.9177 16.713 12.9714C16.9058 12.9999 17.0987 12.9708 17.2424 12.8916C17.3068 12.856 17.4174 12.7784 17.4354 12.6568C17.4637 12.465 17.232 12.2131 16.8533 12.1501C16.8471 12.1495 16.8409 12.149 16.8347 12.148C16.4718 12.0944 16.143 11.9326 15.9087 11.6925C15.6507 11.4281 15.5307 11.0868 15.5796 10.7562C15.6285 10.4257 15.8421 10.1337 16.1656 9.95521C16.4593 9.79318 16.8209 9.73345 17.1837 9.78709C17.3764 9.81553 17.5695 9.7865 17.7131 9.70727C17.7775 9.67176 17.8881 9.59406 17.9061 9.47254C17.9241 9.35101 17.8406 9.24462 17.7893 9.192C17.6748 9.0746 17.4985 8.99089 17.3056 8.96241C17.0935 8.93105 16.947 8.73369 16.9783 8.52156C17.0096 8.30943 17.2071 8.16307 17.4192 8.19425C17.782 8.24792 18.1109 8.40966 18.3451 8.64976C18.6032 8.91428 18.7231 9.25556 18.6742 9.58611V9.58611Z" fill="#BEA4FF"/>
<path d="M8.67609 12.5091C8.67609 12.8656 8.38707 13.1547 8.03055 13.1547C7.67403 13.1547 7.38501 12.8656 7.38501 12.5091C7.38501 12.1526 7.67403 11.8636 8.03055 11.8636C8.38707 11.8636 8.67609 12.1526 8.67609 12.5091ZM20.2153 11.7633C19.8034 11.7633 19.4695 12.0972 19.4695 12.5091C19.4695 12.921 19.8034 13.2549 20.2153 13.2549C20.6271 13.2549 20.961 12.921 20.961 12.5091C20.961 12.0972 20.6272 11.7633 20.2153 11.7633ZM13.555 21.1225C13.1431 21.1225 12.8093 21.4564 12.8093 21.8683C12.8093 22.2802 13.1432 22.6141 13.555 22.6141C13.9669 22.6141 14.3008 22.2802 14.3008 21.8683C14.3008 21.4564 13.9669 21.1225 13.555 21.1225ZM23.4481 17.7077C23.5609 17.4893 23.4753 17.2208 23.2569 17.1081C23.1698 17.0631 23.0659 17.0035 22.9455 16.9344C21.8883 16.3279 19.6885 15.0659 17.0983 17.1572C16.907 17.3116 16.8772 17.5918 17.0316 17.7831C17.186 17.9743 17.4662 18.0042 17.6575 17.8498C19.7737 16.1412 21.482 17.121 22.5026 17.7065C22.6267 17.7777 22.7439 17.8449 22.8484 17.8989C22.9003 17.9257 22.957 17.9421 23.0153 17.947C23.0735 17.9519 23.1322 17.9453 23.1879 17.9275C23.2435 17.9098 23.2952 17.8812 23.3398 17.8435C23.3845 17.8058 23.4213 17.7597 23.4481 17.7077V17.7077Z" fill="#FF6E83"/>
<path d="M21.5522 8.97566C21.5522 9.19489 21.3745 9.37258 21.1553 9.37258C20.9361 9.37258 20.7584 9.19489 20.7584 8.97566C20.7584 8.75643 20.9361 8.57874 21.1553 8.57874C21.3745 8.5787 21.5522 8.75643 21.5522 8.97566ZM7.3852 7.12025C7.16598 7.12025 6.98828 7.29794 6.98828 7.51717C6.98828 7.73639 7.16598 7.91409 7.3852 7.91409C7.60443 7.91409 7.78216 7.73639 7.78216 7.51717C7.78216 7.29794 7.60443 7.12025 7.3852 7.12025ZM13.6091 12.3004C13.654 12.2123 13.7093 12.1121 13.7679 12.006C14.0653 11.4673 14.4724 10.7297 14.4969 9.87062C14.5264 8.83851 13.9888 7.90144 12.8993 7.08542C12.7102 6.94375 12.4421 6.9823 12.3005 7.17137C12.1589 7.36048 12.1974 7.62857 12.3865 7.77016C13.2525 8.4188 13.6631 9.09789 13.6418 9.84622C13.6232 10.4979 13.2882 11.1049 13.019 11.5925C12.9569 11.7049 12.8983 11.8111 12.8471 11.9115C12.7397 12.1219 12.8233 12.3795 13.0337 12.4869C13.0937 12.5177 13.1603 12.5338 13.2278 12.5338C13.3067 12.5338 13.3841 12.512 13.4514 12.4708C13.5187 12.4297 13.5732 12.3706 13.6091 12.3004V12.3004Z" fill="#59CAFC"/>
<defs>
<filter id="filter0_d" x="15" y="0.5" width="31.5" height="31" filterUnits="userSpaceOnUse" color-interpolation-filters="sRGB">
<feFlood flood-opacity="0" result="BackgroundImageFix"/>
<feColorMatrix in="SourceAlpha" type="matrix" values="0 0 0 0 0 0 0 0 0 0 0 0 0 0 0 0 0 0 127 0"/>
<feOffset dx="1"/>
<feGaussianBlur stdDeviation="0.25"/>
<feColorMatrix type="matrix" values="0 0 0 0 0 0 0 0 0 0 0 0 0 0 0 0 0 0 0.1 0"/>
<feBlend mode="normal" in2="BackgroundImageFix" result="effect1_dropShadow"/>
<feBlend mode="normal" in="SourceGraphic" in2="effect1_dropShadow" result="shape"/>
</filter>
<filter id="filter1_d" x="0" y="0.5" width="31.5" height="31" filterUnits="userSpaceOnUse" color-interpolation-filters="sRGB">
<feFlood flood-opacity="0" result="BackgroundImageFix"/>
<feColorMatrix in="SourceAlpha" type="matrix" values="0 0 0 0 0 0 0 0 0 0 0 0 0 0 0 0 0 0 127 0"/>
<feOffset dx="1"/>
<feGaussianBlur stdDeviation="0.25"/>
<feColorMatrix type="matrix" values="0 0 0 0 0 0 0 0 0 0 0 0 0 0 0 0 0 0 0.1 0"/>
<feBlend mode="normal" in2="BackgroundImageFix" result="effect1_dropShadow"/>
<feBlend mode="normal" in="SourceGraphic" in2="effect1_dropShadow" result="shape"/>
</filter>
</defs>
</svg>
