<svg xmlns="http://www.w3.org/2000/svg" viewBox="0 0 170 170.6"><style>.st7{fill:#fff}.st8{fill:#191009}.st14{fill:#ed7d1a}.st33{fill:#982508}</style><g id="Objects"><path class="st14" d="M97.8 57c4-11.2 21.2-15.5 21.2-15.5s7.3 21.4-.6 30.9"/><path class="st33" d="M115.5 48.2s-8.3 1.8-12.4 9.2c-4.2 7.4 13 10.1 13 10.1s3.9-11.2-.6-19.3"/><path class="st14" d="M69.4 58.5c-4.6-11-22-14.3-22-14.3S41.3 66 49.6 75.1"/><path class="st33" d="M51.3 50.6s8.4 1.4 12.9 8.5C68.8 66.3 51.8 70 51.8 70s-4.6-11-.5-19.4"/><path class="st14" d="M84.3 119.7c-26 0-47.1 22.7-47.1 50.6h94.2c0-28-21.1-50.6-47.1-50.6z"/><path class="st14" d="M45 88.2c0 22.3 18 40.3 40.3 40.3 22.3 0 40.3-18 40.3-40.3 0-22.3-17.1-32.8-39.4-32.8C64 55.4 45 66 45 88.2z"/><path d="M100.8 128.6c-2.1-.7-12.4 5.2-12.4 5.2-.6-.7-1.5-1.1-2.6-1.1-1 0-1.9.4-2.5 1.1 0 0-10.3-6.2-12.3-5.1-2 1.2-2 13.4 0 14.6 2 1.2 12.5-4.9 12.5-4.9.6.6 1.4.9 2.4.9.9 0 1.7-.3 2.4-.9 0 0 10.8 6.3 12.5 4.9 1.6-1.4 2-14 0-14.7z"/><path class="st8" d="M87.8 147.5c0-1.3-1.1-2.4-2.4-2.4-1.3 0-2.4 1.1-2.4 2.4s1.1 2.4 2.4 2.4c1.3 0 2.4-1 2.4-2.4z"/><path class="st7" d="M64.8 78.2s12.4-3.6 12.1 9c0 0-12.1 4.4-12.1-9"/><path class="st8" d="M74.2 82.8c0 1.7-1.3 3-3 3s-3-1.3-3-3 1.3-3 3-3 3 1.4 3 3z"/><path class="st7" d="M73.3 81.4c0 .4-.3.7-.7.7-.4 0-.7-.3-.7-.7 0-.4.3-.7.7-.7.4 0 .7.3.7.7zM107.4 78.2s-12.4-3.6-12.1 9c-.1 0 12.1 4.4 12.1-9"/><path class="st8" d="M97.9 82.8c0 1.7 1.3 3 3 3s3-1.3 3-3-1.3-3-3-3c-1.6 0-3 1.4-3 3z"/><path class="st7" d="M98.8 81.4c0 .4.3.7.7.7.4 0 .7-.3.7-.7 0-.4-.3-.7-.7-.7-.4 0-.7.3-.7.7z"/><g><path class="st8" d="M101.7 102.9c-.2 0-.4-.1-.4-.3-.1-.2 0-.5.2-.6.8-.4 20.9-9.3 28.4-6.2.2.1.4.4.3.6-.1.2-.4.3-.6.3-7.1-3-27.5 6-27.7 6.1-.1 0-.1.1-.2.1zM106.3 106.3c-.2 0-.4-.2-.5-.4 0-.3.2-.5.4-.5 2.4-.2 23.9-2.4 26.3-1.2.2.1.3.4.2.6-.1.2-.4.3-.6.2-1.6-.8-16.3.4-25.8 1.3.1 0 0 0 0 0zM126.5 115.1c-.1 0-.3-.1-.3-.2-2.3-2.6-13-3.5-16.9-3.6-.3 0-.5-.2-.5-.5s.2-.4.5-.5c.6 0 14.6.6 17.6 3.9.2.2.2.5 0 .7-.2.2-.3.2-.4.2zM69 102.9c.2 0 .4-.1.4-.3.1-.2 0-.5-.2-.6-.9-.4-20.9-9.3-28.4-6.2-.2.1-.4.4-.2.6.1.2.4.3.6.3 7.2-3 27.5 6 27.7 6.1 0 0 0 .1.1.1zM64.4 106.3c.2 0 .4-.2.5-.4 0-.3-.2-.5-.4-.5-2.4-.2-23.9-2.4-26.3-1.2-.2.1-.3.4-.2.6.1.2.4.3.6.2 1.6-.8 16.3.4 25.8 1.3-.1 0-.1 0 0 0zM44.2 115.1c.1 0 .3-.1.4-.2 2.3-2.6 13-3.5 16.9-3.6.3 0 .5-.2.5-.5s-.2-.4-.5-.5c-.6 0-14.6.6-17.6 3.9-.2.2-.2.5 0 .7.1.2.2.2.3.2z"/></g><path class="st7" d="M97.3 98.6c-5.5 0-10.1 2.9-11.9 7-2.2-3.2-6.3-5.4-11-5.4-7 0-12.7 4.8-12.7 10.7 0 5.9 5.7 10.7 12.7 10.7 5.5 0 10.1-2.9 11.9-7 2.2 3.2 6.3 5.4 11 5.4 7 0 12.7-4.8 12.7-10.7 0-5.9-5.7-10.7-12.7-10.7z"/><path class="st8" d="M89.1 96.3c3.5 0 4.7 2.3 2.5 5.1l-1.4 1.8c-2.2 2.8-5.8 2.8-8 0l-1.4-1.8c-2.2-2.8-1.1-5.1 2.5-5.1h5.8zM119.8 76.2c0-.4-1.5-.8-1.5-.8s-1.8-.4-3.8-1.2c-1.9-.8-5.8-2.2-7.6-2.4-1.8-.2-6.1-.5-8.6-.2s-4.9.9-5.7 1.3c-.8.4-1.6 1-2 1.3-.4.3-.7.6-1.1.5-.3 0-1.1-.5-1.1-.5h-6.2s-.7.5-1.1.5c-.3 0-.7-.2-1.1-.5-.4-.3-1.2-.8-2-1.3-.8-.4-3.3-1-5.7-1.3-2.4-.3-6.8-.1-8.6.2-1.8.2-5.7 1.7-7.6 2.4-1.9.8-3.8 1.2-3.8 1.2s-1.5.4-1.5.8.3 3.8.3 3.8 1.6.4 2.4.7c.9.3 1.3.9 2 2.2.7 1.6 2.4 6 3.6 7.7 1.1 1.7 3.7 2.7 7.1 3.5 6.2.5 8.4-.9 10.4-2s3.2-3.6 3.9-4.8c.7-1.2 1.9-6.1 2-6.5.1-.4-.2-.8-.4-1.2-.2-.3-.4-1-.3-1.5.1-.5.3-1 1.3-1.3.6-.2 1.6-.3 2.2-.4.6 0 1.5.1 2.2.4 1 .3 1.3.9 1.3 1.3.1.5-.1 1.1-.3 1.5-.2.3-.5.8-.4 1.2.1.4 1.3 5.3 2 6.5.7 1.2 1.9 3.8 3.9 4.8 2 1.1 4.2 2.4 10.4 2 3.3-.8 5.9-1.8 7.1-3.5 1.1-1.7 2.9-6.1 3.6-7.7.7-1.3 1.1-1.8 2-2.2.9-.3 2.5-.7 2.5-.7s.2-3.4.2-3.8m-64.5 2.6c-.2 0-2.2-.7-2.2-.7v-.2s1.8-.6 2-.6c.2 0 .8.4.9.7 0 .3-.5.8-.7.8m23.1 9.1c-1.5 2.2-2.8 4.3-8.9 4.6-2.5 0-5.7 0-8.1-2.2-.9-.9-2.4-3.2-2.8-5.3-.4-2.1-.6-5.2-.4-6.1 0 0 .3-1.9 1.1-2.7.8-.8 1.5-1.4 3.5-1.9 1.9-.4 6.1-.8 9.5-.6 0 0 3.1.3 4.3.9 1.2.6 3.1 2.1 3.4 4.5.1 2.3.2 5.9-1.6 8.8m33.9-3c-.4 2.1-2 4.3-2.9 5.3-2.4 2.2-5.6 2.2-8.1 2.2-6.2-.3-7.4-2.4-8.9-4.6-1.8-2.8-1.7-6.4-1.4-8.8.3-2.4 2.2-3.9 3.4-4.5 1.2-.6 4.3-.9 4.3-.9 3.4-.3 7.5.1 9.5.6 1.9.4 2.7 1 3.4 1.9.8.8 1.1 2.7 1.1 2.7.2 1 0 4-.4 6.1m5.5-6.8s-2.1.7-2.2.7c-.2 0-.7-.5-.6-.8.1-.3.7-.7.9-.7.2 0 2 .6 2 .6v.2z"/></g></svg>