<svg xmlns="http://www.w3.org/2000/svg" xmlns:xlink="http://www.w3.org/1999/xlink" viewBox="0 0 170 170.6"><style>.st7{fill:#fff}.st8{fill:#191009}.st11{fill:#d39c5b}.st22{opacity:.5}.st41{fill:#a5541c}.st43{fill:#883e10}</style><g id="Objects"><path class="st11" d="M-81.3 70.6s3.9-13.9 10.3-16c6.3-2.1 14.5-2.1 28-.7 13.5 1.3 32.2-4.5 42.7-21.2C10.1 15.9 1 21.8-1.7 26.5S-17.4 44.8-28 47.1c-10.6 2.3-21.8.7-23-3.6-1.2-4.3 13.4-23.6 20-27.6 6.6-3.9 8.1-11.2-1-3.9-9.1 7.3-17.9 16.9-27.1 33.1-3.8 1.8-12.8 4.3-16.4 2-3.6-2.3.9-24 8.4-31.5s14.2-11.7 20.8-11c6.6.7 5.5-5.3-3.1-3.4-8.5 1.9-27.4 1.4-33.2 32-1.5 8 .8 20.2.8 20.2L-88.7 66l7.4 4.6zM251.3 70.7s-3.9-13.9-10.3-16c-6.3-2.1-14.5-2.1-28-.7-13.5 1.3-32.2-4.5-42.7-21.2s-1.4-10.8 1.3-6.1c2.7 4.7 15.7 18.3 26.3 20.6 10.6 2.3 21.8.7 23-3.6 1.2-4.3-13.4-23.6-20.1-27.6-6.6-3.9-8.1-11.2 1-3.9 9.1 7.3 17.9 16.9 27.1 33.1 3.8 1.8 12.8 4.3 16.4 2 3.6-2.3-.9-24-8.4-31.5s-14.2-11.7-20.8-11c-6.6.7-5.5-5.3 3.1-3.4 8.5 1.9 27.4 1.4 33.2 32 1.5 8-.8 20.2-.8 20.2l6.9 12.6-7.2 4.5z"/><path class="st41" d="M84.9 112.2c-24.9 0-45.2 26-45.2 58.1H130c0-22.1-9.6-41.2-23.6-51.1-6.4-4.5-13.7-7-21.5-7z"/><path class="st41" d="M97.7 51.5H82.8 67.9c-4.5 0-15.1 6.5-15.1 16.7 0 10.1 1.8 24.1 9 33.4 7.2 9.2-2.7 23 21 23s13.8-13.8 21-23c7.2-9.2 9-23.2 9-33.4 0-10.1-10.6-16.7-15.1-16.7z"/><path d="M80.4 55.4s-.3 21.6-6.3 31c-6 9.3-18.3 33.1-6.9 36.4 11.4 3.3 12.6-8.7 16.5-8.7 3.9 0 6.2 10.2 18 7.8 9.8-2 3.5-20.8-6.9-35-9.4-12.9-8.2-31.4-8.2-31.4h-6.2z" fill="#fefefe"/><path class="st7" d="M105 72.5s-10.5-3-10.3 7.6c0 0 10.3 3.7 10.3-7.6"/><path class="st8" d="M96.4 75.8c0 1.4 1.1 2.5 2.5 2.5s2.5-1.1 2.5-2.5-1.1-2.6-2.5-2.6-2.5 1.2-2.5 2.6z"/><path class="st7" d="M97.8 75.5c0 .3.3.6.6.6s.6-.3.6-.6-.3-.6-.6-.6c-.4 0-.6.3-.6.6zM64.1 72.5s10.5-3 10.3 7.6c0 0-10.3 3.7-10.3-7.6"/><path class="st8" d="M72.7 75.8c0 1.4-1.1 2.5-2.5 2.5s-2.5-1.1-2.5-2.5 1.1-2.6 2.5-2.6 2.5 1.2 2.5 2.6z"/><path class="st7" d="M71.4 75.5c0 .3-.3.6-.6.6s-.6-.3-.6-.6.3-.6.6-.6.6.3.6.6z"/><path class="st43" d="M64.3 52.6s-28.1 8.7-26.7 31.6c1.4 22.9 7.1 34.7 14.8 34.9 7.7.1 11.5-6.7 9.5-27.5s2.4-39 2.4-39zM101.9 52.6s28.1 8.7 26.7 31.6c-1.4 22.9-7.1 34.7-14.8 34.9-7.7.1-8.2-6.9-6.2-27.7 2-20.8-5.7-38.8-5.7-38.8z"/><path class="st8" d="M87.4 105.1c3.5 0 4.6 2.2 2.4 5l-1.4 1.8c-2.1 2.7-5.7 2.7-7.8 0l-1.4-1.8c-2.1-2.7-1.1-5 2.4-5h5.8z"/><g><g class="st22"><defs><path id="SVGID_9_" d="M54.4 65.9h11v27.8h-11z"/></defs><clipPath id="SVGID_2_"><use xlink:href="#SVGID_9_" overflow="visible"/></clipPath><path clip-path="url(#SVGID_2_)" fill="#e6e6e6" d="M54.4 67l7.7 26.6 3.3.1L57 65.9z"/></g><g class="st22"><defs><path id="SVGID_11_" d="M94.2 63.9h11.4v29.4H94.2z"/></defs><clipPath id="SVGID_4_"><use xlink:href="#SVGID_11_" overflow="visible"/></clipPath><path clip-path="url(#SVGID_4_)" fill="#e6e6e6" d="M94.2 64.2l8.3 28.9 3.1.2-8.4-29.4z"/></g><g class="st22"><defs><path id="SVGID_13_" d="M49.9 67.6h9.4v25.5h-9.4z"/></defs><clipPath id="SVGID_6_"><use xlink:href="#SVGID_13_" overflow="visible"/></clipPath><path d="M51.6 67.6c.1 1.2-.8 2.1-1.4 3.2-.1.2-.2.3-.3.4v1.5L55 90.9c1.1.5 1.2.9 2.3 1.4.7.3 1.4.5 2 .8l-7.7-25.5z" clip-path="url(#SVGID_6_)" fill="#e6e6e6"/></g><g class="st22"><defs><path id="SVGID_15_" d="M87.9 64.4h10.9v26.9H87.9z"/></defs><clipPath id="SVGID_8_"><use xlink:href="#SVGID_15_" overflow="visible"/></clipPath><path clip-path="url(#SVGID_8_)" fill="#e6e6e6" d="M87.9 65.4l7.9 24.3 3 1.6L91 64.4z"/></g><path d="M122.5 74.7c-.3-.3-.7-.3-.9-1.1-.2-.8-2.3-6.3-4.6-7.5-2.3-1.2-6.6-3.4-17.2-4.1-8.2-.2-13.1-.4-14.6-.4h-.4c-1.4.1-6.4.2-14.6.4-10.6.7-15 2.9-17.2 4.1-2.3 1.3-4.3 6.7-4.6 7.5-.2.8-.7.7-.9 1.1-.3.3 0 2.3.8 3.5.9 7 3.8 11 5.7 13.2 1.8 2.1 6.9 3.2 10.4 3 7.8-1.3 9.1-3.7 12.5-7C80.4 84.1 83 75 83.4 74c.3-.8 1.2-1.1 1.6-1.1.4.1 1.3.4 1.6 1.1.4 1 3.1 10.1 6.4 13.4 3.4 3.3 4.7 5.7 12.5 7 3.5.1 8.6-.9 10.4-3 1.8-2.1 4.8-6.1 5.7-13.2.9-1.3 1.1-3.2.9-3.5M80.9 76c-.6 2.6-2.7 8-5 10.6-2.4 2.6-3.9 4.9-9.8 6.2-3.4.4-8.5.1-10.8-2.7-2.4-2.8-4.7-7.2-4.7-11.4s.3-5.8.3-5.8 1.4-4.8 5.1-6.3c3.7-1.5 9.6-2.6 16-2.1 6.4.4 8.5 1.5 9 2.9.4 1.2.5 5.9-.1 8.6m33.9 14c-2.4 2.8-7.4 3.2-10.8 2.7-5.9-1.3-7.5-3.6-9.8-6.2-2.4-2.6-4.4-7.9-5-10.6-.6-2.6-.5-7.4 0-8.8.5-1.4 2.7-2.4 9-2.9 6.4-.4 12.3.6 16 2.1 3.7 1.5 5.1 6.3 5.1 6.3s.3 1.5.3 5.8c-.1 4.4-2.4 8.8-4.8 11.6" fill="#351905"/></g><g><path d="M99.9 122.8c-2.1-.7-12.4 5.2-12.4 5.2-.6-.7-1.5-1.1-2.5-1.1s-1.9.4-2.5 1.1c0 0-10.3-6.2-12.3-5.1-2 1.2-2 13.4 0 14.6 2 1.2 12.5-4.9 12.5-4.9.6.6 1.4.9 2.4.9.9 0 1.7-.3 2.4-.9 0 0 10.8 6.3 12.5 4.9 1.5-1.4 2-14-.1-14.7z"/></g></g></svg>