<svg xmlns="http://www.w3.org/2000/svg" viewBox="0 0 170 170.6"><style>.st7{fill:#fff}.st8{fill:#191009}.st37{fill:#940d0a}</style><g id="Objects"><path class="st7" d="M134 124.6c-1.2-3.7-2.7-7.2-4.6-10.4-2.3-3.7-3.9-7.8-5-11.9-2-6.9-2.5-13.5-2.7-17.4v-.5c0-.7-.1-1.3-.1-2v-1.3l-.1.1C119.9 62 103.8 47 84.2 47c-19.6 0-35.6 15-37.3 34.1v.3c-.1 1-.2 2-.2 3v.9c-.2 3.8-.8 9.7-2.4 15.9-1.2 4.4-2.8 8.9-5.3 12.9-1.8 3-3.2 6.3-4.4 9.8-4.5 13.6-4.5 28.8-4.5 28.8.1 6.1 1.3 12 3.4 17.5h101.3c2-5.5 3.2-11.4 3.4-17.6.1.1.1-14.6-4.2-28z"/><path d="M140.7 137.8s.1 0 .1.1c0 0 .1 0 .1.1 0-.1-.1-.1-.2-.2" fill="#b66916"/><path class="st37" d="M89.1 6.4c2.1 4.9 3 9.5 3.8 13.4.4 2 .8 3.2 1.3 5.1.4 2 .8 4.5.9 7 .2 5.1-.7 10.9-2.9 16s-5.6 9.7-10.4 12.6c-.9-5.6-1.2-10-1.5-14-.3-4-.6-7.5-.8-11.4-.1-1.9-.1-4 0-6.4 0-2.5.4-5.9 1.3-8.5 1.6-5.1 4.1-9.7 8.3-13.8"/><path d="M99.6 68.5c-6.9 0-12.8 4-15.3 9.7-2.5-5.7-8.4-9.6-15.3-9.6-9.2 0-16.7 7.1-16.7 15.8 0 8.7 7.5 15.8 16.7 15.8 6.9 0 12.8 1 15.3-4.6 2.5 5.7 8.4 4.7 15.3 4.7 9.2 0 16.7-7.1 16.7-15.8 0-8.9-7.5-16-16.7-16z" fill="#f6e9e5"/><path class="st37" d="M77.3 97.6s-24.1 61.4-5.2 65.8c18.9 4.4 10.1-50.1 9.7-53.5"/><path class="st37" d="M91.2 97.6s24.1 61.4 5.2 65.8c-18.9 4.4-10.1-50.1-9.7-53.5"/><path d="M91.6 97.7l-4.3-2.1c-.9-.4-2-.6-3.1-.6s-2.3.2-3.1.6l-4.3 2.1c-1.7.8-2.3 2.6-1.2 3.8l6.7 8.2c.5.6 1.2 1 1.9 1s1.4-.3 1.9-1l6.7-8.2c1.1-1.2.6-2.9-1.2-3.8z" fill="#fbdd58"/><path class="st7" d="M64 80.9s12.4-3.6 12.1 9c.1 0-12.1 4.4-12.1-9"/><path class="st8" d="M73.4 85.5c0 1.7-1.3 3-3 3s-3-1.3-3-3 1.3-3 3-3 3 1.4 3 3z"/><path class="st7" d="M72.4 84.1c0 .4-.3.7-.7.7-.4 0-.7-.3-.7-.7 0-.4.3-.7.7-.7.4 0 .7.4.7.7z"/><g><path class="st7" d="M106.6 80.9s-12.4-3.6-12.1 9c0 0 12.1 4.4 12.1-9"/><path class="st8" d="M96.5 85.5c0 1.7 1.3 3 3 3s3-1.3 3-3-1.3-3-3-3-3 1.4-3 3z"/><path class="st7" d="M97.6 84.7c0 .4.3.7.7.7.4 0 .7-.3.7-.7 0-.4-.3-.7-.7-.7-.4 0-.7.3-.7.7z"/></g><path d="M120.5 76c-.4-.6-.9-1.1-1.5-1.5-1.5-1-3.8-1.5-7.1-1.5-2.9 0-6 .4-8.8.7-.6.1-1.3.2-1.9.2-7.6.8-11.8 2.5-13.6 5.4-.6 1-.9 2-1 3.1-1.7-.6-3.4-.3-4.7.2-.1-1.2-.3-2.3-1-3.3-1.8-2.9-6-4.6-13.6-5.4-.6-.1-1.2-.1-1.9-.2-2.8-.3-5.9-.7-8.8-.7-.6 0-1.3 0-1.8.1-3.5.2-5.6 1.1-6.7 2.9-.6.9-.8 2.1-.7 3.4.1 1 .4 2 .9 3.2 4.4 10.1 10 15.1 17.6 15.4h1c5.1 0 11.3-1.8 13.1-6.9V91c.7-1.9 1.3-3.7 1.7-5.4.3-.2.7-.5 1.2-.7.9-.4 2.1-.6 3.4 0 .2.1.4.2.6.4.3 1.8 1 3.7 1.7 5.8l.1.1c1.8 5.1 7.9 6.9 13.1 6.9h1c7.6-.4 13.2-5.3 17.6-15.4.5-1.1.8-2.2.9-3.1 0-1.5-.2-2.7-.8-3.6M90.9 90.3l-.1-.1c-.8-2.3-1.5-4.4-1.8-6.1-.1-1.3 0-2.4.6-3.3 1.4-2.2 5.2-3.6 11.9-4.3.6-.1 1.2-.1 1.9-.2 2.7-.3 5.8-.7 8.5-.7 3.6 0 5.8.6 6.6 1.8.6.9.5 2.4-.4 4.3-4.1 9.3-8.9 13.7-15.6 14h-.9c-1.4-.1-8.9-.3-10.7-5.4m-13.2 0c-1.8 5.1-9.4 5.3-10.8 5.3H66c-6.7-.3-11.5-4.7-15.6-14-.8-2-1-3.4-.4-4.3.8-1.2 3-1.8 6.6-1.8 2.8 0 5.8.4 8.5.7.7.1 1.3.2 1.9.2 6.6.7 10.5 2.1 11.9 4.3 1.4 2.2.2 5.6-1.2 9.5v.1z" fill="#26232c"/></g></svg>