<svg width="512" height="512" viewBox="0 0 512 512" fill="none" xmlns="http://www.w3.org/2000/svg">
<rect width="512" height="512" fill="#F04350"/>
<path d="M224.477 90.194C196.138 95.5798 169.439 108.365 147.565 127.145C83.9556 181.752 68.8729 269.985 109.999 346.51C124.145 372.83 146.394 394.185 173.046 407.626C200.776 421.583 229.629 428.373 257.78 428.373C295.581 428.373 332.116 416.103 362.516 392.359L333.896 355.642C296.283 384.959 245.696 390.158 198.902 368.381C176.981 358.171 158.9 340.749 148.221 319.066C118.571 258.932 134.59 190.697 189.768 153.512C199.932 146.674 211.221 141.476 223.025 138.291C297.97 117.872 366.638 166.391 379.612 234.439H314.457C311.46 227.133 307.01 220.295 301.061 214.348C277.126 190.416 238.295 190.416 214.313 214.348C190.377 238.279 190.377 277.104 214.313 301.082C238.248 325.06 277.126 325.013 301.061 301.082C307.01 295.134 311.46 288.297 314.457 280.991H426.593C427.577 280.991 428.373 280.195 428.373 279.211V257.715C428.373 152.763 333.1 69.5876 224.477 90.194Z" fill="white"/>
</svg>
