<svg xmlns="http://www.w3.org/2000/svg" width="16" height="16" fill="currentColor" class="bi bi-cloud-arrow-up"><g fill="#457b9d"><path fill-rule="evenodd" d="M7.802 6.682a.28.28 0 01.396 0l1.12 1.12a.28.28 0 01-.397.396l-.641-.642V9.68a.28.28 0 01-.56 0V7.556l-.641.642a.28.28 0 11-.397-.396z"/><path d="M5.988 5.673A3.095 3.095 0 018 4.92c1.506 0 2.756 1.12 2.892 2.563.89.126 1.586.873 1.586 1.788 0 1.006-.838 1.807-1.854 1.807H5.638c-1.16 0-2.116-.915-2.116-2.061 0-.987.709-1.804 1.647-2.012.08-.483.39-.964.82-1.333zm.366.423c-.424.366-.646.806-.646 1.151v.25l-.249.028c-.782.086-1.377.728-1.377 1.493 0 .82.688 1.5 1.556 1.5h4.986c.723 0 1.294-.566 1.294-1.246s-.57-1.247-1.294-1.247h-.28v-.28c0-1.242-1.04-2.264-2.344-2.264a2.536 2.536 0 00-1.646.616z"/></g></svg>