<?xml version="1.0" encoding="UTF-8" standalone="no"?>
<svg
   xmlns:dc="http://purl.org/dc/elements/1.1/"
   xmlns:cc="http://creativecommons.org/ns#"
   xmlns:rdf="http://www.w3.org/1999/02/22-rdf-syntax-ns#"
   xmlns:svg="http://www.w3.org/2000/svg"
   xmlns="http://www.w3.org/2000/svg"
   xmlns:sodipodi="http://sodipodi.sourceforge.net/DTD/sodipodi-0.dtd"
   xmlns:inkscape="http://www.inkscape.org/namespaces/inkscape"
   inkscape:export-ydpi="200.31454"
   inkscape:export-xdpi="200.31454"
   inkscape:export-filename="/home/franco/git/teiqui/teiqui/app/assets/images/apple-touch-icon.png"
   inkscape:version="1.0 (4035a4fb49, 2020-05-01)"
   sodipodi:docname="favicon.svg"
   id="Layer_1"
   data-name="Layer 1"
   viewBox="0 0 72.866621 72.845433"
   version="1.1"
   width="72.866623"
   height="72.845436">
  <sodipodi:namedview
     inkscape:current-layer="Layer_1"
     inkscape:window-maximized="1"
     inkscape:window-y="0"
     inkscape:window-x="0"
     inkscape:cy="36.422718"
     inkscape:cx="36.433311"
     inkscape:zoom="4.8923012"
     showgrid="false"
     id="namedview7"
     inkscape:window-height="836"
     inkscape:window-width="1600"
     inkscape:pageshadow="2"
     inkscape:pageopacity="0"
     guidetolerance="10"
     gridtolerance="10"
     objecttolerance="10"
     borderopacity="1"
     bordercolor="#666666"
     pagecolor="#ffffff" />
  <metadata
     id="metadata23">
    <rdf:RDF>
      <cc:Work
         rdf:about="">
        <dc:format>image/svg+xml</dc:format>
        <dc:type
           rdf:resource="http://purl.org/dc/dcmitype/StillImage" />
        <dc:title>TeiquiLogo</dc:title>
      </cc:Work>
    </rdf:RDF>
  </metadata>
  <defs
     id="defs21" />
  <title
     id="title2">TeiquiLogo</title>
  <path
     style="fill:#5a59aa;fill-opacity:1"
     d="m 29.326624,0.6853659 a 35.54,35.54 0 0 0 -16.41,7.89 C -0.66337607,20.235366 -3.8833761,39.075366 4.9166239,55.405366 a 31.23,31.23 0 0 0 13.4600001,13 40.16,40.16 0 0 0 18.09,4.44 36.19,36.19 0 0 0 22.31,-7.64 l -6.11,-7.84 c -8,6.26 -18.83,7.37 -28.82,2.72 a 22.78,22.78 0 0 1 -10.78,-10.52 c -6.2900001,-12.84 -2.91,-27.41 8.87,-35.36 a 24,24 0 0 1 7.1,-3.25 26.58,26.58 0 0 1 33.42,20.53 h -13.92 a 12.93,12.93 0 0 0 -2.85,-4.29 13.13,13.13 0 1 0 2.85,14.22 h 23.94 a 0.38,0.38 0 0 0 0.39,-0.38 v -4.58 a 36.5,36.5 0 0 0 -43.54,-35.7700001 z"
     id="path16" />
</svg>
