<?xml version="1.0" encoding="UTF-8" standalone="no"?>
<svg
   xmlns:dc="http://purl.org/dc/elements/1.1/"
   xmlns:cc="http://creativecommons.org/ns#"
   xmlns:rdf="http://www.w3.org/1999/02/22-rdf-syntax-ns#"
   xmlns:svg="http://www.w3.org/2000/svg"
   xmlns="http://www.w3.org/2000/svg"
   xmlns:sodipodi="http://sodipodi.sourceforge.net/DTD/sodipodi-0.dtd"
   xmlns:inkscape="http://www.inkscape.org/namespaces/inkscape"
   width="193"
   height="192"
   viewBox="0 0 193 192"
   fill="none"
   version="1.1"
   id="svg6"
   sodipodi:docname="icon.svg"
   inkscape:version="1.0.2 (e86c870879, 2021-01-15)">
  <metadata
     id="metadata12">
    <rdf:RDF>
      <cc:Work
         rdf:about="">
        <dc:format>image/svg+xml</dc:format>
        <dc:type
           rdf:resource="http://purl.org/dc/dcmitype/StillImage" />
      </cc:Work>
    </rdf:RDF>
  </metadata>
  <defs
     id="defs10" />
  <sodipodi:namedview
     pagecolor="#ffffff"
     bordercolor="#666666"
     borderopacity="1"
     objecttolerance="10"
     gridtolerance="10"
     guidetolerance="10"
     inkscape:pageopacity="0"
     inkscape:pageshadow="2"
     inkscape:window-width="1600"
     inkscape:window-height="836"
     id="namedview8"
     showgrid="false"
     inkscape:zoom="2.625"
     inkscape:cx="96.5"
     inkscape:cy="96"
     inkscape:window-x="0"
     inkscape:window-y="0"
     inkscape:window-maximized="1"
     inkscape:current-layer="svg6" />
  <path
     d="M0.5 20C0.5 8.95431 9.4543 0 20.5 0H172.5C183.546 0 192.5 8.9543 192.5 20V172C192.5 183.046 183.546 192 172.5 192H20.5C9.45431 192 0.5 183.046 0.5 172V20Z"
     fill="white"
     id="path2" />
  <path
     d="M85.7203 37.1181C75.6745 39.0273 66.2099 43.5596 58.4556 50.2169C35.9066 69.5747 30.5599 100.853 45.1387 127.98C50.1533 137.31 58.0405 144.881 67.4885 149.645C77.3184 154.593 87.5468 157 97.5261 157C110.926 157 123.878 152.65 134.654 144.233L124.509 131.217C111.175 141.61 93.2422 143.453 76.6542 135.733C68.8833 132.114 62.4739 125.938 58.688 118.251C48.1774 96.9345 53.8561 72.7456 73.4163 59.5638C77.0195 57.1399 81.0212 55.2971 85.2055 54.1682C111.773 46.9298 136.115 64.1293 140.715 88.2518H117.618C116.555 85.6619 114.978 83.238 112.869 81.1296C104.384 72.646 90.6186 72.646 82.1171 81.1296C73.6322 89.6131 73.6322 103.376 82.1171 111.876C90.602 120.376 104.384 120.36 112.869 111.876C114.978 109.768 116.555 107.344 117.618 104.754H157.369C157.718 104.754 158 104.472 158 104.123V96.5029C158 59.2981 124.226 29.8133 85.7203 37.1181Z"
     fill="#5A59AA"
     id="path4"
     style="fill:#f04350;fill-opacity:1" />
</svg>
