<svg xmlns="http://www.w3.org/2000/svg" width="101" height="26" fill="none"><path d="M35.553 5.285H29.62V3.743H43.27v1.542h-5.934v15.332H35.55V5.285h.003zM55.475 14.809H44.861c.096 1.317.603 2.383 1.52 3.194.916.811 2.072 1.218 3.471 1.218.788 0 1.513-.14 2.172-.422a4.733 4.733 0 001.714-1.242l.965 1.108a5.457 5.457 0 01-2.11 1.541c-.844.354-1.773.53-2.786.53-1.303 0-2.456-.278-3.46-.832a5.994 5.994 0 01-2.351-2.302c-.564-.98-.845-2.09-.845-3.326 0-1.237.27-2.348.809-3.326a5.875 5.875 0 012.22-2.29c.94-.546 1.998-.821 3.172-.821 1.174 0 2.226.272 3.16.82a5.804 5.804 0 012.197 2.278c.53.974.796 2.084.796 3.339l-.03.533zm-9.2-4.33c-.83.779-1.3 1.797-1.41 3.048h8.996c-.114-1.254-.584-2.27-1.411-3.047-.83-.779-1.86-1.168-3.1-1.168-1.223 0-2.248.39-3.075 1.168zM58.974 4.803a1.18 1.18 0 01-.362-.868c0-.32.12-.602.362-.845.243-.242.54-.362.893-.362.354 0 .65.117.893.35.242.234.362.51.362.833 0 .353-.12.65-.362.892-.243.242-.54.362-.893.362-.356 0-.653-.12-.893-.362zm.024 3.134h1.714v12.68h-1.714V7.936zM77.063 7.938v17.355h-1.714v-7.062a5.27 5.27 0 01-2.037 1.868c-.83.425-1.756.637-2.786.637-1.204 0-2.289-.269-3.245-.808a5.83 5.83 0 01-2.255-2.278c-.549-.98-.821-2.105-.821-3.374 0-1.255.272-2.371.82-3.35a5.781 5.781 0 012.268-2.279c.965-.539 2.043-.808 3.233-.808 1.06 0 2.013.224 2.858.673a5.267 5.267 0 012.037 1.928V7.936h1.642v.003zm-3.994 10.667a4.36 4.36 0 001.69-1.749c.41-.754.614-1.613.614-2.58 0-.964-.207-1.82-.614-2.566a4.477 4.477 0 00-1.69-1.748c-.716-.42-1.516-.626-2.4-.626-.901 0-1.707.21-2.423.626-.716.419-1.28 1-1.69 1.748-.41.748-.614 1.602-.614 2.566 0 .964.207 1.823.614 2.58a4.38 4.38 0 001.69 1.749c.716.41 1.522.613 2.424.613.886 0 1.686-.203 2.4-.613zM93.27 7.938v12.679h-1.638v-2.315a4.68 4.68 0 01-1.858 1.797c-.788.425-1.69.637-2.702.637-1.657 0-2.963-.46-3.918-1.386-.956-.925-1.435-2.278-1.435-4.062v-7.35h1.713v7.182c0 1.335.33 2.347.989 3.036.659.691 1.6 1.036 2.822 1.036 1.336 0 2.388-.404 3.16-1.219.773-.811 1.16-1.94 1.16-3.386v-6.65h1.707zM98.046 4.803a1.18 1.18 0 01-.363-.868c0-.32.12-.602.362-.845.243-.242.54-.362.893-.362.354 0 .65.117.893.35.243.234.362.51.362.833 0 .353-.119.65-.362.892s-.54.362-.893.362-.65-.12-.892-.362zm.026 3.134h1.714v12.68h-1.714V7.936zM10.184.234c-2.1.399-4.078 1.346-5.7 2.738-4.713 4.046-5.83 10.584-2.783 16.255a10.858 10.858 0 004.672 4.529c2.055 1.034 4.193 1.537 6.279 1.537 2.801 0 5.508-.91 7.76-2.669l-2.12-2.72c-2.787 2.172-6.536 2.557-10.003.944a7.913 7.913 0 01-3.755-3.655c-2.198-4.456-1.01-9.512 3.078-12.267a8.308 8.308 0 012.464-1.128C15.63 2.285 20.718 5.88 21.68 10.922h-4.828a4.549 4.549 0 00-7.42-1.489 4.545 4.545 0 107.42 4.938h8.31a.132.132 0 00.131-.131v-1.593c0-7.777-7.06-13.94-15.109-12.413z" fill="#fff"/></svg>