<svg xmlns="http://www.w3.org/2000/svg" width="230.088" height="170.563" viewBox="0 0 230.088 170.563" fill="none" version="1.1"><mask id="a" mask-type="alpha" maskUnits="userSpaceOnUse" x="0" y="0" width="248" height="178"><ellipse cx="124" cy="89" rx="123.151" ry="89" fill="#c4c4c4"/></mask><g mask="url(#a)" transform="matrix(1.0843 0 0 1.0843 -20.62 -22.442)"><mask id="b" mask-type="alpha" maskUnits="userSpaceOnUse" x="19" y="20" width="213" height="160"><path fill="#c4c4c4" d="M19.017 20.698h212.2V179.26h-212.2z"/></mask><g mask="url(#b)"><path d="M100.079 54.916c5.935-5.236 17.772 28.657 17.677 31.195-.254 10.25-2.095 20.85-7.268 23.865-4.76.063-10.821-1.016-15.264-2.476-.222-3.966-1.904-18.152-1.84-24.213.095-5.617 5.553-27.356 6.695-28.371z" fill="#fd9b55"/><path d="M81.23 155.166c4.537-17.422 10.694-37.034 14.216-48.681 6.411-1.904 10.029-.54 15.487 2.031a17918.23 17918.23 0 0 0-6.537 61.914c-8.79-3.713-16.661-8.885-23.167-15.264z" fill="#fd9b55"/><path d="M106.109 99.948l21.326-2.412c2.158-.254 3.713-2.19 3.459-4.348l-5.871-52.013c-.254-2.158-2.19-3.713-4.348-3.46L99.35 40.129c-2.158.253-3.713 2.19-3.46 4.347l5.871 52.013c.254 2.158 2.19 3.682 4.348 3.46z" fill="gray"/><path d="M105.95 98.424l21.326-2.412c2.158-.253 3.713-2.19 3.459-4.347l-5.871-52.013c-.254-2.158-2.19-3.713-4.348-3.46l-21.325 2.412c-2.158.254-3.713 2.19-3.46 4.348l5.871 52.013c.254 2.126 2.19 3.681 4.348 3.46z" fill="#404040"/><path d="M107.188 40.794l3.681-.412c.254-.032.445-.286.445-.54-.032-.254-.286-.444-.54-.444l-3.681.412c-.254.032-.444.286-.444.54a.493.493 0 0 0 .539.444zM112.647 39.683c.031.254.285.445.539.445.254-.032.444-.286.444-.54-.031-.254-.285-.444-.539-.444a.493.493 0 0 0-.444.54zM114.773 94.299c.095.825.825 1.428 1.65 1.333.825-.096 1.428-.825 1.333-1.65-.096-.826-.825-1.429-1.651-1.333-.856.063-1.428.825-1.332 1.65z" fill="gray"/><path d="M123.984 41.283l-26.96 3.08 5.482 47.987 26.96-3.08z" fill="#f04350"/><path d="M123.972 41.326l-26.96 3.08 1.722 15.065 26.959-3.08zM105.006 63.353a1.832 1.832 0 1 0-2.854-2.298 1.832 1.832 0 0 0 2.854 2.298zM107.573 64.6a.479.479 0 0 1-.473-.414.472.472 0 0 1 .414-.532l15.549-1.774a.471.471 0 0 1 .532.414.472.472 0 0 1-.414.532L107.632 64.6h-.059zM107.839 67.023a.479.479 0 0 1-.473-.413.472.472 0 0 1 .414-.532l15.549-1.774a.471.471 0 0 1 .532.414.47.47 0 0 1-.414.532l-15.548 1.773h-.06zM107.308 62.176a.477.477 0 0 1-.473-.414.471.471 0 0 1 .414-.532l15.548-1.774a.47.47 0 0 1 .532.414.47.47 0 0 1-.414.532l-15.548 1.774h-.059zM105.002 87.183a.477.477 0 0 1-.473-.414.47.47 0 0 1 .413-.531l20.633-2.365a.47.47 0 0 1 .532.414.47.47 0 0 1-.413.532l-20.633 2.364h-.059zM105.327 89.903a.477.477 0 0 1-.473-.414.47.47 0 0 1 .413-.532l20.633-2.365a.47.47 0 0 1 .532.414.47.47 0 0 1-.414.532l-20.632 2.365h-.059zM123.772 68.227l-21.086 2.41 1.449 12.686 21.086-2.409z" fill="#fff"/><path d="M118.192 76.592l.288-3.99c.021-.288-.184-.538-.42-.511l-6.015.67-.234-.827c-.058-.206-.226-.34-.4-.32l-1.571.175c-.203.022-.345.242-.317.492l.034.3c.027.25.214.433.417.41l1.071-.119 1.795 6.335c-.238.21-.373.57-.33.96.065.582.502 1.01.975.958.474-.053.805-.567.741-1.148a1.187 1.187 0 0 0-.342-.723l3.211-.358a1.181 1.181 0 0 0-.174.78c.065.582.501 1.01.975.957.473-.052.805-.566.74-1.147-.046-.417-.284-.755-.589-.894l.034-.466c.021-.288-.184-.537-.42-.51l-4.111.457-.167-.59 4.489-.5c.172-.02.304-.182.32-.391z" fill="#ac2d37"/><path d="M106.014 106.548c1.809.254 7.013-8.282 3.586-18.215 4.633-3.999 6.982-15.265 3.332-16.724-2.539-1.016-15.677 19.865-15.55 21.992.19 3.871 8.695 10.409 8.632 12.947z" fill="#fd9b55"/><path d="M109.6 88.396a20.715 20.715 0 0 1 1.396 4.919c.254 1.714.318 3.46-.032 5.205a11.599 11.599 0 0 1-2.094 4.791 13.62 13.62 0 0 1-3.808 3.46c1.174-1.238 2.253-2.508 3.11-3.936a13.128 13.128 0 0 0 1.713-4.538c.318-1.586.35-3.237.254-4.887-.095-1.682-.349-3.332-.539-5.014z" fill="#d37c3a"/><path d="M128.545 104.39c-4.887-5.045-9.901-9.996-11.361-8.536-1.967 1.904 2.952 16.216 11.456 22.055 3.174 2.158 10.346-12.63-.095-13.519z" fill="#fd9b55"/><path d="M128.513 71.418c-6.537 18.819-1.047 43.635.318 44.619 5.395 3.84 18.787 5.49 20.088 3.586 4.823-6.886 7.077-18.755 2.919-25.451-1.396-2.253-14.566-5.014-17.486-4.443-1.237-5.236-.825-13.36-.222-16.724 1.365-7.521-3.776-6.823-5.617-1.587z" fill="#fd9b55"/><path opacity=".2" d="M112.773 23.467l-10.79 1.206c-1.015.127-1.745 1.015-1.618 2.03l.539 4.73c.127 1.015 1.016 1.745 2.031 1.618l3.523-.381 2.348 3.554 1.46-3.967 3.459-.38c1.016-.127 1.746-1.016 1.619-2.031l-.54-4.729c-.127-1.047-1.015-1.777-2.031-1.65z" fill="#000a49"/><path d="M112.773 20.706l-10.789 1.206c-1.016.127-1.746 1.016-1.619 2.031l.54 4.728c.127 1.016 1.015 1.746 2.031 1.619l3.522-.38 2.349 3.553 1.459-3.966 3.459-.381c1.016-.127 1.746-1.016 1.619-2.031l-.54-4.729a1.87 1.87 0 0 0-2.031-1.65z" fill="#fff"/><path opacity=".2" d="M105.728 56.979l-20.374 2.285c-1.333.158-2.539-.826-2.697-2.158l-.698-6.252c-.159-1.333.825-2.539 2.158-2.697l20.373-2.285c1.333-.16 2.539.825 2.698 2.158l.698 6.251c.159 1.333-.825 2.54-2.158 2.698z" fill="#000a49"/><path d="M105.728 54.25l-20.373 2.285c-1.333.158-2.54-.826-2.698-2.158l-.698-6.252c-.159-1.333.825-2.539 2.158-2.698l20.374-2.285c1.332-.158 2.538.825 2.697 2.158l.698 6.252c.159 1.333-.825 2.539-2.158 2.698z" fill="#ac2d37"/><path d="M87.576 51.044a2.1 2.1 0 0 0-1.84 2.317l4.157-.476a2.1 2.1 0 0 0-2.317-1.84zM87.513 50.568c.666-.063 1.11-.666 1.047-1.332-.064-.667-.666-1.111-1.333-1.048-.666.064-1.11.667-1.047 1.333a1.185 1.185 0 0 0 1.333 1.047zM91.86 48.886c-.222 0-.412-.158-.412-.38a.426.426 0 0 1 .38-.476l11.457-1.302a.426.426 0 0 1 .476.381.427.427 0 0 1-.381.476l-11.456 1.301h-.064zM100.746 49.616c-.222 0-.413-.158-.413-.38a.427.427 0 0 1 .381-.476l2.761-.318a.426.426 0 0 1 .476.38.426.426 0 0 1-.381.477l-2.761.317h-.063zM92.05 50.6c-.221 0-.412-.159-.412-.38a.426.426 0 0 1 .38-.477l7.078-.793a.426.426 0 0 1 .476.38.426.426 0 0 1-.381.477l-7.077.793h-.063zM92.273 52.314c-.222 0-.412-.159-.412-.381a.426.426 0 0 1 .38-.476l4.697-.54a.426.426 0 0 1 .476.381.426.426 0 0 1-.38.476l-4.698.54h-.063z" fill="#fff"/><path opacity=".2" d="M131.275 55.329l-13.075 1.46a2.63 2.63 0 0 0-2.317 2.887l.762 6.728.825 7.267 4.189-5.204 10.949-1.238a2.629 2.629 0 0 0 2.316-2.888l-.761-6.727c-.127-1.397-1.429-2.444-2.888-2.285z" fill="#000a49"/><path d="M131.275 52.6L118.2 54.06a2.629 2.629 0 0 0-2.316 2.887l.761 6.728.826 7.267 4.189-5.204 10.948-1.238a2.63 2.63 0 0 0 2.317-2.888l-.762-6.728c-.127-1.428-1.428-2.443-2.888-2.285z" fill="#fff"/><path d="M113.948 114.133c-6.062-3.967-18.343-7.68-23.738-4.824-.317.603-.095 2.983.254 3.555l22.055 5.997c.635-1.142 1.555-3.141 1.429-4.728z" fill="#1d3557"/><path d="M105.062 184.235c2.348-23.357 6.569-49.443 7.458-65.374-6.76-4.093-13.234-6.029-22.056-5.997-5.744 17.168-17.708 52.933-23.928 75.528 13.614.92 26.72-.508 38.526-4.157z" fill="#e2003b"/><path d="M112.52 118.861a33.099 33.099 0 0 0-2.476-1.396c-2.475 13.265-6.505 27.419-12.059 41.731-4.03 10.346-8.6 20.088-13.487 29.006 7.172-.635 14.058-1.968 20.596-3.967 2.316-23.357 6.537-49.443 7.426-65.374z" fill="#ac2d37"/><path d="M127.657 113.149s4.506 19.898 4.506 22.913c4.475 1.015 12.123-2.507 13.964-2.38 0 0 2.856-16.376 4.411-21.231z" fill="#fd9b55"/><path d="M149.395 123.209c-6.601-2.221-18.755-2.57-22.785 1.587-.096.666.761 2.888 1.237 3.332h21.612c.253-1.269.476-3.427-.064-4.919z" fill="#1d3557"/><path d="M161.518 192.645c-4.602-22.976-8.283-49.062-12.059-64.549-7.268-2.158-13.646-2.316-21.612 0-.254 17.93-.761 55.282.127 78.576 12.535-2.666 23.928-7.458 33.544-14.027z" fill="#e2003b"/><path d="M149.459 128.128c-.889-.254-1.778-.508-2.634-.698 1.586 13.36 2.031 27.926 1.11 43.127-.666 10.981-1.967 21.485-3.84 31.291 6.284-2.476 12.123-5.554 17.423-9.172-4.602-23.007-8.283-49.093-12.059-64.548zM109.887 23.711a2.896 2.896 0 0 0-2.002-.783c-1.561 0-2.831 1.199-2.831 2.673 0 .47.131.93.378 1.337l-.402 1.384 1.501-.372c.413.213.879.325 1.353.325h.001c1.56 0 2.858-1.199 2.858-2.673 0-.714-.322-1.385-.856-1.89zm-2.002 4.114c-.423 0-.838-.107-1.198-.31l-.086-.048-.89.22.237-.82-.056-.084a2.123 2.123 0 0 1-.359-1.182c0-1.225 1.055-2.222 2.353-2.222.629 0 1.219.231 1.663.652.444.42.717.977.715 1.571 0 1.226-1.082 2.223-2.379 2.223zm1.29-1.664c-.07-.034-.418-.195-.483-.217-.065-.023-.112-.034-.159.034a3.611 3.611 0 0 1-.225.262c-.04.045-.082.05-.153.017-.415-.196-.688-.35-.962-.795-.073-.118.072-.11.208-.365.023-.044.011-.083-.007-.116-.018-.034-.159-.363-.218-.497-.057-.13-.116-.111-.159-.114-.041-.002-.088-.002-.135-.002a.269.269 0 0 0-.189.083c-.065.067-.247.229-.247.557 0 .33.253.647.288.692.035.044.498.718 1.209 1.009.448.183.624.198.849.167.136-.02.418-.161.477-.318.058-.156.058-.29.04-.318-.016-.03-.063-.047-.134-.08z" fill="#ac2d37"/><path d="M126.57 57.41a2.086 2.086 0 0 0-2.522.55l.927.928a.268.268 0 1 1-.38.379l-.843-.843-2.15 4.41a.377.377 0 0 0 .503.504l2.243-1.094-.826-.826a.268.268 0 1 1 .38-.38l.957.957 1.712-.836a2.087 2.087 0 0 0-.001-3.749zm1.546-.586c.327-.683.158-1.49-.509-2.043-.844.7-.881 1.805-.133 2.55l.135.135c.745.748 1.852.711 2.55-.133-.552-.666-1.36-.836-2.043-.509z" fill="#f04350"/><path d="M195.41 97.599c-5.3-5.903-23.42 15.74-23.325 18.279.349 8.537 6.315 15.169 10.631 19.327 4.633 1.206 10.853.698 15.519.349 2.475-12.313 5.966-28.181-2.825-37.955z" fill="#f8b586"/><path d="M163.961 108.643c3.522.984 6.601 2.126 9.266 4.728 1.936 1.904 7.426-5.299 4.538-6.442a122.679 122.679 0 0 0-11.678-3.872c-3.078-.856-4.982.381-5.363 1.841-.349 1.301.603 3.015 3.237 3.745zM163.77 118.163c4.094.762 7.363 1.555 10.441 5.935 1.714 2.475 8.537-5.491 5.236-6.76-4.284-1.618-8.695-3.11-13.265-4.379-3.491-.984-5.712.254-5.839 1.84-.095 1.365.698 3.015 3.427 3.364zM165.103 99.757c3.49 1.047 6.569 2.253 9.171 4.919 1.904 1.936 6.283-.508 7.489-1.777 1.238-1.27.032-3.364-2.824-4.57a122.43 122.43 0 0 0-11.615-4.126c-3.078-.92-5.871-.856-6.379 1.333-.412 1.682 1.524 3.428 4.158 4.221zM190.523 93.347c-2.444-2.285-12.694-11.298-15.868-11.361-1.809-.032-2.919 1.206-2.57 2.824.285 1.428 1.46 2.73 2.475 3.903 1.968 2.317 4.792 4.253 6.601 6.347.952 1.143 3.142 4.285 4.474 5.014 2.095 1.143 7.458-4.347 4.888-6.727zM186.715 201.562c2.919-17.771 10.091-53.886 11.551-65.976-5.109-4.348-9.552-.667-15.582-.54-4.22 13.233-13.328 40.303-18.913 57.662 0 0 14.439 12.059 22.944 8.854z" fill="#f8b586"/><path d="M187.444 125.748l-20.151-7.426c-2.031-.762-3.079-3.015-2.317-5.046l18.089-49.125c.762-2.031 3.015-3.078 5.046-2.317l20.151 7.426c2.031.762 3.079 3.015 2.317 5.046L192.49 123.43c-.762 2.031-3.015 3.047-5.046 2.317z" fill="gray"/><path d="M187.952 124.288l-20.151-7.426c-2.031-.762-3.078-3.015-2.317-5.046l18.089-49.125c.762-2.031 3.015-3.078 5.046-2.317L208.77 67.8c2.031.762 3.079 3.015 2.317 5.046l-18.089 49.125c-.761 2.031-3.015 3.079-5.046 2.317z" fill="#404040"/><path d="M200.456 68.054l-3.459-1.27a.493.493 0 0 1 .349-.92l3.459 1.27c.254.095.381.38.286.634-.096.222-.381.381-.635.286zM195.41 65.674a.493.493 0 0 1-.92-.35.493.493 0 0 1 .635-.285c.253.095.38.381.285.635zM178.972 119.179a1.492 1.492 0 1 0-.002-2.984 1.492 1.492 0 0 0 .002 2.984z" fill="gray"/><path d="M209.18 74.374l-25.321-9.164-16.311 45.071 25.32 9.163z" fill="#f04350"/><path d="M205.726 83.939l-25.321-9.164-7.926 21.9 25.321 9.164z" fill="#fff"/><path d="M191.757 87.993a3.566 3.566 0 0 0-4.376-.575l.954 2.028a.459.459 0 1 1-.83.39l-.868-1.844-6.016 5.85a.644.644 0 0 0 .519 1.102l4.243-.461-.851-1.808a.457.457 0 0 1 .22-.61.461.461 0 0 1 .611.22l.985 2.094 3.24-.353a3.568 3.568 0 0 0 2.169-6.033zm2.828-.047c.922-.91 1.117-2.307.365-3.582-1.764.637-2.464 2.393-1.691 4.026l.138.294c.766 1.637 2.567 2.218 4.18 1.264-.502-1.392-1.703-2.133-2.992-2.002z" fill="#f04350"/><path d="M204.557 78.28c-.058 0-.117 0-.176-.03l-19.36-7.01a.492.492 0 0 1-.294-.616.491.491 0 0 1 .616-.294l19.361 7.011a.491.491 0 0 1 .293.616.44.44 0 0 1-.44.323zM203.648 80.803c-.059 0-.118 0-.176-.03l-19.361-7.01a.492.492 0 0 1-.293-.617.491.491 0 0 1 .616-.293l19.36 7.011a.492.492 0 0 1 .294.616.441.441 0 0 1-.44.323zM177.247 101.864a1.827 1.827 0 1 1-3.432-1.261 1.827 1.827 0 0 1 2.347-1.085c.938.381 1.437 1.408 1.085 2.346zM192.853 110.489c-.058 0-.117 0-.176-.03l-14.608-5.28a.491.491 0 0 1-.293-.616.491.491 0 0 1 .616-.293L193 109.55a.491.491 0 0 1 .293.616.44.44 0 0 1-.44.323zM192.032 112.747c-.059 0-.117 0-.176-.029l-14.608-5.28a.492.492 0 0 1-.294-.616.492.492 0 0 1 .616-.294l14.609 5.281a.492.492 0 0 1 .293.616.441.441 0 0 1-.44.322zM193.675 108.2c-.059 0-.117 0-.176-.029l-14.608-5.28a.492.492 0 0 1-.294-.616.491.491 0 0 1 .616-.293l14.609 5.28a.492.492 0 0 1 .293.616.441.441 0 0 1-.44.322z" fill="#fff"/><path d="M185.953 132.19c-1.841-.159-4.824-9.711.825-18.565-4.538-1.269-10.092-4.697-7.616-6.823 1.713-1.46 10.758.444 13.074 1.65 2.603 2.698 5.903 8.061 6.665 10.06.031 0-12.409 11.203-12.948 13.678z" fill="#f8b586"/><path d="M186.81 113.689c-.603 1.586-1.238 3.141-1.714 4.76-.476 1.587-.825 3.205-.92 4.823-.095 1.619.127 3.237.603 4.824.476 1.555 1.238 3.078 2.063 4.57-1.206-1.206-2.222-2.634-2.888-4.252a11.91 11.91 0 0 1-.889-5.142c.096-1.745.54-3.459 1.206-5.045a19.72 19.72 0 0 1 2.539-4.538z" fill="#ff9549"/><path d="M180.907 139.108c5.046-.635 14.344 2.063 16.502 3.11 1.619.635.635 7.426-.793 8.219l-18.248-3.141c-.158-1.333.413-6.062 2.539-8.188z" fill="#1d3557"/><path d="M155.869 210.829c6.727-22.5 17.263-48.491 22.5-63.565 5.617-.54 11.837.603 18.247 3.142-1.206 18.057-3.745 55.694-6.569 78.987-12.98-4.347-24.594-10.694-34.178-18.564z" fill="#457b9d"/><path d="M173.64 222.444c-6.474-3.333-12.44-7.236-17.771-11.647 6.727-22.5 17.263-48.491 22.5-63.565a32.887 32.887 0 0 1 3.078-.127c-7.14 24.944-8.442 59.979-7.807 75.339z" fill="#1d3557"/><path d="M181.224 145.55c-5.299 18.279-10.567 36.59-15.867 54.87a54.325 54.325 0 0 1-2.729-1.333 1361.409 1361.409 0 0 0 18.279-53.537z" fill="#1d3557"/><path opacity=".2" d="M176.369 69.419l-14.598-5.3c-.952-.349-1.999.159-2.348 1.11l-1.619 4.475c-.349.952.159 2 1.111 2.349l13.202 4.792 1.999 4.252 1.745-4.824.508-1.428 1.111-3.046c.349-.984-.127-2.063-1.111-2.38z" fill="#000a49"/><path d="M176.369 66.658l-14.598-5.3c-.952-.349-1.999.159-2.348 1.11l-1.619 4.475c-.349.952.159 2 1.111 2.349l13.202 4.792 1.999 4.252 1.745-4.824.508-1.428 1.111-3.046c.349-.984-.127-2.031-1.111-2.38z" fill="#fff"/><path d="M170.562 69.006a.951.951 0 0 0 .571 1.238.952.952 0 0 0 1.238-.571.952.952 0 0 0-.571-1.238.952.952 0 0 0-1.238.571zM166.754 67.61a.95.95 0 0 0 .571 1.238.952.952 0 0 0 1.238-.572.952.952 0 0 0-.572-1.237c-.507-.19-1.047.095-1.237.57zM162.945 66.213a.952.952 0 0 0 .572 1.238.95.95 0 0 0 1.237-.571.95.95 0 0 0-.571-1.238 1.007 1.007 0 0 0-1.238.571z" fill="#ac2d37"/><path opacity=".2" d="M223.972 107.373l-27.451-9.932c-2.824-1.016-4.252-4.126-3.237-6.919a5.39 5.39 0 0 1 6.918-3.237l27.451 9.933c2.824 1.016 4.252 4.126 3.237 6.918-1.016 2.793-4.126 4.253-6.918 3.237z" fill="#000a49"/><path d="M223.972 104.644l-27.45-9.933c-2.825-1.015-4.253-4.125-3.237-6.918 1.015-2.824 4.125-4.252 6.918-3.237l27.451 9.933c2.824 1.016 4.252 4.126 3.236 6.918-1.015 2.793-4.125 4.253-6.918 3.237z" fill="#fff"/><path d="M226.193 97.79c-.063 0-.095 0-.159-.032l-26.752-9.68c-.222-.094-.349-.317-.254-.539.095-.222.317-.349.54-.254l26.752 9.68c.222.095.349.317.254.539-.032.19-.191.286-.381.286zM225.463 99.852c-.063 0-.095 0-.159-.031l-16.153-5.871c-.222-.095-.349-.318-.254-.54.096-.222.318-.349.54-.254l16.153 5.871c.222.096.349.318.254.54-.032.159-.222.285-.381.285zM207.152 93.22c-.064 0-.095 0-.159-.032l-8.441-3.046c-.222-.096-.349-.318-.254-.54.095-.222.317-.349.539-.254l8.442 3.047c.222.095.349.317.254.54-.064.158-.223.285-.381.285zM217.434 99.25c-.063 0-.095 0-.159-.032l-19.453-7.045c-.222-.096-.349-.318-.254-.54.095-.222.317-.349.54-.254l19.453 7.045c.222.095.349.318.254.54-.032.158-.222.285-.381.285z" fill="#ac2d37"/><path opacity=".2" d="M228.192 76.686l-10.219-3.681c-.952-.35-1.999.159-2.348 1.11l-3.142 8.664c-.349.952.159 2 1.111 2.348l3.332 1.206.539 4.221 3.079-2.92 3.268 1.175c.952.349 2-.159 2.349-1.111l3.141-8.664c.318-.952-.158-1.999-1.11-2.348z" fill="#000a49"/><path d="M228.192 73.957l-10.218-3.681c-.952-.35-1.999.158-2.349 1.11l-3.141 8.664c-.349.952.158 2 1.11 2.348l3.333 1.206.539 4.22 3.078-2.919 3.269 1.174c.952.35 1.999-.158 2.348-1.11l3.142-8.664c.317-.952-.159-2-1.111-2.348z" fill="#ac2d37"/><path opacity=".2" d="M175.647 63.153a3.775 3.775 0 1 0-6.679-3.526 3.776 3.776 0 0 0 6.679 3.526z" fill="#000a49"/><path d="M175.631 60.402a3.777 3.777 0 1 0-6.682-3.524 3.777 3.777 0 0 0 6.682 3.524z" fill="#fff"/><path d="M172.18 58.946c-.952-.349-1.999.159-2.348 1.111l3.459 1.238c.349-.952-.159-2-1.111-2.349zM172.339 58.566a1.05 1.05 0 0 0 1.333-.635 1.05 1.05 0 0 0-.635-1.333 1.05 1.05 0 0 0-1.333.635 1.05 1.05 0 0 0 .635 1.333z" fill="#f04350"/><path d="M223.378 77.32l.156-.428c.343-.943-.181-2.003-1.169-2.363-.988-.36-2.071.114-2.415 1.057l-.156.427-1.344-.49-1.325 3.635c-.215.59.112 1.252.731 1.477l4.031 1.47c.619.225 1.295-.07 1.51-.66l1.325-3.635zm-2.532-1.408c.172-.471.714-.708 1.208-.528.494.18.756.71.584 1.182l-.156.427-1.792-.653zm1.655 2.42a.35.35 0 0 1-.219-.443.35.35 0 0 1 .453-.198.349.349 0 0 1 .219.443.35.35 0 0 1-.453.198zm-2.687-.98a.35.35 0 0 1-.22-.443.35.35 0 0 1 .453-.198.35.35 0 0 1 .219.443.349.349 0 0 1-.452.199z" fill="#fff"/><path d="M60.601 116.926c-4.855-6.252-30.941 4.252-29.767 6.505 5.744 10.917 9.679 14.376 17.137 16.978 4.665-.983 10.694-2.824 14.28-7.267-.254-2.539.159-13.868-1.65-16.216zM39.085 102.074c-2.888-1.714-14.82-8.315-17.93-7.712-1.777.35-2.57 1.81-1.904 3.332.603 1.333 2 2.349 3.237 3.269 2.412 1.841 5.585 3.11 7.807 4.792 1.174.889 3.966 3.491 5.458 3.935 2.285.698 6.347-5.807 3.332-7.616z" fill="#db7627"/><path d="M94.557 185.377c-8.314-15.962-26.276-43.032-32.337-53.599-6.696-.413-13.234 3.268-14.25 8.631 4.539 13.139 21.326 42.271 27.23 59.535 7.774-5.554 14.438-6.887 19.357-14.567z" fill="#db7627"/><path d="M55.587 131.714l-21.325 2.412c-2.158.254-4.094-1.301-4.348-3.459l-5.84-52.013c-.253-2.158 1.302-4.094 3.46-4.348l21.326-2.412c2.158-.254 4.093 1.301 4.347 3.46l5.871 52.012a3.972 3.972 0 0 1-3.49 4.348z" fill="gray"/><path d="M55.428 130.191l-21.326 2.412c-2.158.254-4.093-1.301-4.347-3.459L23.884 77.13c-.254-2.158 1.301-4.093 3.459-4.347l21.326-2.412c2.158-.254 4.093 1.301 4.347 3.459l5.871 52.013c.254 2.158-1.3 4.094-3.459 4.348z" fill="#404040"/><path d="M41.37 74.306l-3.681.412a.494.494 0 1 1-.095-.983l3.681-.413a.494.494 0 0 1 .54.444c0 .254-.191.508-.445.54zM35.785 74.433a.494.494 0 1 1-.984.095c-.032-.285.159-.508.444-.54.286-.031.508.191.54.445zM45.908 128.128c.095.825-.508 1.555-1.333 1.65-.825.095-1.555-.508-1.65-1.333-.095-.825.508-1.555 1.333-1.65.825-.063 1.555.508 1.65 1.333z" fill="gray"/><path d="M52.319 76.851l-26.876 3.048 5.426 47.839 26.876-3.049z" fill="#f04350"/><path d="M54.27 93.949l-26.876 3.048 2.637 23.246 26.876-3.048zM29.954 91.747a.476.476 0 0 1-.472-.412.47.47 0 0 1 .413-.53l20.567-2.328a.47.47 0 0 1 .53.412.47.47 0 0 1-.413.53l-20.566 2.328h-.06zM30.248 94.458a.476.476 0 0 1-.471-.412.47.47 0 0 1 .412-.53l20.567-2.328a.47.47 0 0 1 .53.412.47.47 0 0 1-.412.53l-20.567 2.328c-.03-.03-.03 0-.059 0zM36.613 122.303c.118 1.002-.619 1.915-1.62 2.033-1.003.118-1.916-.619-2.034-1.621-.118-1.001.619-1.915 1.62-2.033 1.003-.088 1.916.619 2.034 1.621zM38.499 122.509a.477.477 0 0 1-.472-.412.47.47 0 0 1 .413-.531l15.499-1.768a.47.47 0 0 1 .53.413.469.469 0 0 1-.413.53l-15.498 1.768h-.06z" fill="#fff"/><path d="M50.16 134.507c-1.745-.73-.285-9.203 7.363-17.454-1.206-4.062-1.65-15.201 2.634-15.36 2.063-.095 4.919 15.582 4.919 15.582s-.73 7.235-2.793 15.899c0 0-11.012-1.27-12.123 1.333z" fill="#db7627"/><path d="M57.618 117.148c-1.11 1.174-2.19 2.38-3.142 3.649a22.771 22.771 0 0 0-2.443 4.031c-.698 1.396-1.206 2.887-1.65 4.411-.413 1.523-.73 3.11-1.016 4.696a18.268 18.268 0 0 1 .095-4.918 16.746 16.746 0 0 1 1.492-4.729 17.317 17.317 0 0 1 2.792-4.094c1.143-1.206 2.444-2.253 3.872-3.046z" fill="#80491f"/><path d="M109.6 194.834c-14.852-20.31-30.148-44.143-40.843-57.471-8.314 1.555-14.852 4.665-21.897 10.98 7.712 17.803 23.77 54.869 34.972 77.369 11.52-9.012 20.977-19.517 27.768-30.878z" fill="#c1c9e7"/><path d="M68.789 137.363c-1.016.19-2 .412-2.983.634 7.52 12.377 14.439 26.499 20.246 41.922 4.19 11.139 7.521 22.151 9.997 32.814 5.268-5.649 9.806-11.647 13.582-17.899-14.851-20.31-30.148-44.143-40.842-57.471z" fill="#98a4d1"/><path d="M30.422 120.67c-1.111-.19-2.19-.031-2.73.603-.983 1.175-.57 3.65.699 4.57.57.413 1.174.54 1.809.603 1.237.159 2.697.064 3.586-1.015 2.03-2.476-1.778-4.507-3.364-4.761zM32.833 118.862c2.285-2.825-2.03-5.141-3.84-5.427-1.27-.222-2.507-.032-3.11.698-1.11 1.333-.666 4.157.794 5.205.634.444 1.364.603 2.062.698 1.397.158 3.079.063 4.094-1.174zM26.55 112.229c.635.444 1.333.603 2 .698 1.396.159 3.014.064 3.998-1.142 2.253-2.761-1.968-5.014-3.776-5.332-1.238-.222-2.444-.032-3.047.698-1.079 1.27-.635 4.031.825 5.078z" fill="#db7627"/><path opacity=".2" d="M43.496 64.024l-.54-4.729c-.126-1.015-1.015-1.745-2.03-1.618l-10.79 1.237c-1.016.127-1.745 1.016-1.619 2.032l.54 4.728c.127 1.015 1.016 1.745 2.031 1.618l3.523-.412 2.348 3.554 1.46-3.998 3.459-.381a1.866 1.866 0 0 0 1.618-2.031z" fill="#000a49"/><path d="M43.497 61.263l-.54-4.729c-.127-1.015-1.015-1.745-2.03-1.618l-10.79 1.238c-1.016.127-1.746 1.015-1.619 2.03l.54 4.73c.126 1.015 1.015 1.745 2.03 1.618l3.523-.413 2.348 3.554 1.46-3.998 3.46-.381c1.015-.095 1.713-1.015 1.618-2.031z" fill="#fff"/><path opacity=".2" d="M73.618 85.767l-36.813 4.19c-2.983.349-5.648-1.81-5.997-4.76-.35-2.984 1.808-5.65 4.76-5.998l36.812-4.19c2.983-.349 5.649 1.81 5.998 4.76.349 2.984-1.777 5.681-4.76 5.998z" fill="#000a49"/><path d="M73.771 83.229l-36.812 4.189c-2.983.349-5.649-1.81-5.998-4.76-.35-2.984 1.809-5.65 4.76-5.998l36.812-4.19c2.983-.348 5.65 1.81 5.998 4.76a5.398 5.398 0 0 1-4.76 5.999z" fill="#fff"/><path d="M44.258 79.383c-.223 0-.413-.158-.413-.38a.426.426 0 0 1 .38-.476l28.276-3.205a.426.426 0 0 1 .477.38.426.426 0 0 1-.381.476L44.32 79.383h-.063zM55.682 80.272c-.222 0-.412-.159-.412-.38a.426.426 0 0 1 .38-.477l17.074-1.936a.426.426 0 0 1 .476.381.426.426 0 0 1-.38.476l-17.074 1.936h-.064zM44.511 81.541c-.222 0-.412-.158-.412-.38a.426.426 0 0 1 .38-.476l8.918-1.016a.426.426 0 0 1 .476.38.426.426 0 0 1-.38.477l-8.918 1.015h-.064zM44.733 83.731c-.222 0-.412-.158-.412-.38a.426.426 0 0 1 .38-.477l20.565-2.316a.426.426 0 0 1 .476.38.426.426 0 0 1-.381.477L44.797 83.73h-.063zM39.57 80.71l-.042-.36c-.091-.794-.842-1.362-1.674-1.267-.832.095-1.435.819-1.344 1.613l.041.36-1.131.13.35 3.06c.057.498.525.853 1.046.793l3.395-.389c.521-.06.897-.51.84-1.008l-.35-3.06zm-2.305-.1c-.046-.397.256-.76.672-.807.416-.047.791.237.837.634l.04.36-1.508.173zm2.04 1.134a.278.278 0 0 1-.313-.237.278.278 0 0 1 .252-.303.279.279 0 0 1 .313.238.278.278 0 0 1-.252.302zm-2.263.26a.279.279 0 0 1-.314-.238.279.279 0 0 1 .252-.303.279.279 0 0 1 .314.238.279.279 0 0 1-.252.302z" fill="#ac2d37"/><path d="M44.394 103.82a3.164 3.164 0 0 0-3.826.835l1.406 1.406a.406.406 0 1 1-.576.576l-1.278-1.279-3.263 6.692a.573.573 0 0 0 .764.764l3.403-1.661-1.253-1.253a.405.405 0 0 1 0-.576.409.409 0 0 1 .575 0l1.452 1.452 2.599-1.269a3.165 3.165 0 0 0-.002-5.687zm2.346-.889c.497-1.037.24-2.262-.772-3.1-1.281 1.062-1.337 2.738-.201 3.869l.204.204c1.13 1.136 2.81 1.08 3.869-.202-.838-1.011-2.063-1.268-3.1-.771z" fill="#f04350"/><path d="M37.394 60.179c-.257.03-.484.143-.654.307l-1.248-.558a1.01 1.01 0 0 0-.053-.453l1.084-.833c.203.12.45.177.707.146.604-.07 1.038-.595.97-1.171-.068-.576-.612-.985-1.216-.914-.603.07-1.037.596-.97 1.172.01.077.028.152.053.223l-1.084.833a1.129 1.129 0 0 0-.707-.147c-.604.072-1.038.596-.97 1.172.068.576.612.985 1.216.914.257-.03.483-.143.653-.307l1.249.558a1.006 1.006 0 0 0 0 .23c.068.576.613.985 1.216.914.603-.071 1.037-.596.97-1.172-.068-.576-.613-.985-1.216-.914z" fill="#ac2d37"/></g></g></svg>