<svg width="742" height="553" viewBox="0 0 742 553" fill="none" xmlns="http://www.w3.org/2000/svg">
<mask id="mask0" mask-type="alpha" maskUnits="userSpaceOnUse" x="0" y="0" width="742" height="553">
<rect x="0.955566" width="740.064" height="553" fill="#C4C4C4"/>
</mask>
<g mask="url(#mask0)">
<path d="M283.668 119.34C304.364 101.078 345.647 219.281 345.315 228.135C344.43 263.884 338.01 300.851 319.97 311.365C303.368 311.586 282.229 307.823 266.734 302.732C265.959 288.897 260.093 239.425 260.315 218.285C260.647 198.695 279.683 122.881 283.668 119.34Z" fill="#FD9B55"/>
<path d="M217.925 468.97C233.752 408.208 255.224 339.809 267.509 299.19C289.866 292.55 302.483 297.309 321.519 306.274C316.318 354.529 305.25 459.009 298.72 522.205C268.062 509.256 240.614 491.216 217.925 468.97Z" fill="#FD9B55"/>
<path d="M304.696 276.391L379.072 267.979C386.598 267.094 392.021 260.342 391.136 252.816L370.66 71.416C369.775 63.8899 363.024 58.4667 355.497 59.3522L281.122 67.7636C273.596 68.6491 268.173 75.4004 269.058 82.9265L289.534 264.327C290.419 271.853 297.17 277.165 304.696 276.391Z" fill="#808080"/>
<path d="M304.143 271.078L378.518 262.667C386.044 261.781 391.468 255.03 390.582 247.504L370.107 66.1035C369.221 58.5775 362.47 53.1543 354.944 54.0397L280.569 62.4512C273.043 63.3366 267.619 70.0879 268.505 77.614L288.98 259.014C289.866 266.43 296.617 271.853 304.143 271.078Z" fill="#404040"/>
<path d="M308.46 70.0879L321.298 68.6491C322.184 68.5384 322.848 67.653 322.848 66.7676C322.737 65.8822 321.852 65.2181 320.966 65.2181L308.128 66.6569C307.242 66.7676 306.578 67.653 306.578 68.5384C306.689 69.5345 307.574 70.1986 308.46 70.0879Z" fill="#808080"/>
<path d="M327.496 66.2141C327.607 67.0995 328.492 67.7636 329.378 67.7636C330.263 67.6529 330.927 66.7675 330.927 65.8821C330.816 64.9966 329.931 64.3326 329.046 64.3326C328.05 64.4433 327.385 65.3287 327.496 66.2141Z" fill="#808080"/>
<path d="M334.911 256.69C335.243 259.568 337.789 261.67 340.667 261.338C343.544 261.006 345.647 258.461 345.315 255.583C344.983 252.706 342.437 250.603 339.56 250.935C336.571 251.156 334.579 253.812 334.911 256.69Z" fill="#808080"/>
<path d="M367.036 71.794L273.012 82.5356L292.131 249.894L386.155 239.153L367.036 71.794Z" fill="#F04350"/>
<path d="M366.994 71.942L272.97 82.6835L278.973 135.226L372.997 124.485L366.994 71.942Z" fill="white"/>
<path d="M300.849 148.764C303.062 146.014 302.627 141.99 299.877 139.777C297.127 137.563 293.103 137.999 290.889 140.749C288.676 143.499 289.111 147.523 291.862 149.736C294.612 151.95 298.636 151.514 300.849 148.764Z" fill="white"/>
<path d="M309.802 153.111C308.977 153.111 308.256 152.493 308.153 151.668C308.049 150.74 308.668 149.916 309.596 149.812L363.823 143.627C364.751 143.524 365.575 144.142 365.678 145.07C365.781 145.998 365.163 146.823 364.235 146.926L310.008 153.111C309.905 153.111 309.905 153.111 309.802 153.111Z" fill="white"/>
<path d="M310.73 161.565C309.906 161.565 309.184 160.946 309.081 160.122C308.978 159.194 309.596 158.369 310.524 158.266L364.751 152.08C365.679 151.977 366.503 152.596 366.607 153.524C366.71 154.452 366.091 155.276 365.163 155.379L310.936 161.565C310.936 161.565 310.833 161.565 310.73 161.565Z" fill="white"/>
<path d="M308.875 144.658C308.05 144.658 307.328 144.039 307.225 143.215C307.122 142.287 307.741 141.462 308.668 141.359L362.895 135.173C363.823 135.07 364.648 135.689 364.751 136.617C364.854 137.545 364.235 138.369 363.308 138.472L309.081 144.658C308.978 144.658 308.875 144.658 308.875 144.658Z" fill="white"/>
<path d="M300.833 231.874C300.009 231.874 299.287 231.256 299.184 230.431C299.081 229.503 299.699 228.678 300.627 228.575L372.586 220.328C373.514 220.225 374.339 220.843 374.442 221.771C374.545 222.699 373.926 223.524 372.998 223.627L301.039 231.874C301.039 231.874 300.936 231.874 300.833 231.874Z" fill="white"/>
<path d="M301.967 241.359C301.142 241.359 300.42 240.74 300.317 239.916C300.214 238.988 300.833 238.163 301.761 238.06L373.719 229.812C374.647 229.709 375.472 230.328 375.575 231.256C375.678 232.184 375.06 233.008 374.132 233.111L302.173 241.359C302.07 241.359 301.967 241.359 301.967 241.359Z" fill="white"/>
<path d="M366.297 165.764L292.757 174.165L297.812 218.412L371.352 210.01L366.297 165.764Z" fill="white"/>
<path d="M346.836 194.935L347.842 181.02C347.914 180.015 347.2 179.146 346.377 179.237L325.399 181.575L324.582 178.692C324.379 177.973 323.795 177.506 323.186 177.574L317.71 178.184C317.002 178.263 316.507 179.031 316.603 179.9L316.72 180.949C316.817 181.818 317.469 182.458 318.177 182.379L321.91 181.963L328.17 204.057C327.343 204.791 326.87 206.046 327.022 207.408C327.248 209.435 328.77 210.929 330.422 210.745C332.074 210.561 333.23 208.769 333.004 206.741C332.889 205.714 332.442 204.824 331.813 204.22L343.01 202.972C342.531 203.7 342.29 204.667 342.404 205.694C342.63 207.721 344.152 209.216 345.804 209.032C347.456 208.848 348.612 207.055 348.386 205.028C348.224 203.574 347.396 202.395 346.331 201.912L346.449 200.288C346.521 199.283 345.807 198.413 344.985 198.505L330.648 200.102L330.065 198.043L345.722 196.299C346.321 196.233 346.783 195.666 346.836 194.935Z" fill="#AC2D37"/>
<path d="M304.365 299.412C310.673 300.297 328.824 270.525 316.871 235.883C333.03 221.937 341.22 182.647 328.492 177.556C319.638 174.014 273.818 246.84 274.26 254.255C274.924 267.758 304.586 290.557 304.365 299.412Z" fill="#FD9B55"/>
<path d="M316.871 236.104C319.195 241.638 320.855 247.393 321.741 253.259C322.626 259.236 322.848 265.323 321.63 271.41C320.523 277.387 317.978 283.253 314.325 288.123C310.673 292.992 306.135 297.087 301.044 300.186C305.139 295.87 308.902 291.443 311.891 286.462C314.879 281.593 316.871 276.169 317.867 270.636C318.974 265.102 319.085 259.346 318.753 253.591C318.421 247.725 317.535 241.97 316.871 236.104Z" fill="#D37C3A"/>
<path d="M382.945 291.886C365.901 274.288 348.414 257.022 343.323 262.113C336.461 268.754 353.616 318.669 383.277 339.034C394.345 346.56 419.358 294.984 382.945 291.886Z" fill="#FD9B55"/>
<path d="M382.834 176.892C360.035 242.523 379.182 329.073 383.941 332.504C402.756 345.896 449.462 351.651 454 345.011C470.823 320.994 478.681 279.6 464.182 256.247C459.312 248.389 413.381 238.76 403.199 240.753C398.882 222.491 400.321 194.157 402.424 182.426C407.183 156.195 389.253 158.63 382.834 176.892Z" fill="#FD9B55"/>
<g opacity="0.2">
<path opacity="0.2" d="M327.938 9.65805L290.308 13.8638C286.766 14.3065 284.221 17.4055 284.664 20.9471L286.545 37.4381C286.988 40.9798 290.087 43.5254 293.628 43.0826L305.914 41.7545L314.104 54.1504L319.195 40.3157L331.259 38.9876C334.8 38.5449 337.346 35.4459 336.903 31.9042L335.022 15.4133C334.579 11.7609 331.48 9.21534 327.938 9.65805Z" fill="#000A49"/>
</g>
<path d="M327.939 0.0291055L290.308 4.23485C286.767 4.67756 284.221 7.77653 284.664 11.3182L286.545 27.8092C286.988 31.3508 290.087 33.8964 293.629 33.4537L305.914 32.1256L314.104 44.5215L319.195 30.6868L331.259 29.3586C334.801 28.9159 337.346 25.817 336.904 22.2753L335.022 5.78433C334.579 2.24266 331.48 -0.302927 327.939 0.0291055Z" fill="white"/>
<g opacity="0.2">
<path opacity="0.2" d="M303.368 126.533L232.313 134.502C227.665 135.056 223.459 131.625 222.906 126.976L220.471 105.173C219.918 100.524 223.349 96.3185 227.997 95.7651L299.052 87.7963C303.7 87.243 307.906 90.6739 308.46 95.3224L310.894 117.126C311.448 121.774 308.017 125.98 303.368 126.533Z" fill="#000A49"/>
</g>
<path d="M303.368 117.015L232.313 124.984C227.665 125.537 223.459 122.106 222.906 117.458L220.471 95.6545C219.918 91.006 223.349 86.8003 227.997 86.2469L299.052 78.2781C303.7 77.7247 307.906 81.1557 308.46 85.8042L310.894 107.608C311.448 112.256 308.017 116.462 303.368 117.015Z" fill="#AC2D37"/>
<path d="M240.061 105.837C236.076 106.28 233.199 109.932 233.641 113.916L248.14 112.256C247.697 108.272 244.045 105.394 240.061 105.837Z" fill="white"/>
<path d="M239.839 104.177C242.163 103.955 243.713 101.852 243.491 99.5282C243.27 97.204 241.167 95.6545 238.843 95.8759C236.519 96.0972 234.969 98.2001 235.191 100.524C235.412 102.849 237.626 104.509 239.839 104.177Z" fill="white"/>
<path d="M255.002 98.3108C254.227 98.3108 253.563 97.7574 253.563 96.9827C253.453 96.2079 254.006 95.4332 254.891 95.3225L294.846 90.7848C295.621 90.6741 296.396 91.2275 296.506 92.1129C296.617 92.8876 296.063 93.6624 295.178 93.773L255.224 98.3108C255.113 98.3108 255.113 98.3108 255.002 98.3108Z" fill="white"/>
<path d="M285.992 100.856C285.217 100.856 284.553 100.303 284.553 99.5283C284.442 98.7535 284.996 97.9788 285.881 97.8681L295.51 96.7613C296.285 96.6507 297.059 97.2041 297.17 98.0895C297.281 98.8642 296.727 99.639 295.842 99.7496L286.213 100.856C286.102 100.856 286.102 100.856 285.992 100.856Z" fill="white"/>
<path d="M255.666 104.287C254.891 104.287 254.227 103.734 254.227 102.959C254.117 102.184 254.67 101.41 255.556 101.299L280.237 98.5321C281.011 98.4214 281.786 98.9748 281.897 99.8602C282.007 100.635 281.454 101.41 280.569 101.52L255.888 104.287C255.777 104.287 255.777 104.287 255.666 104.287Z" fill="white"/>
<path d="M256.441 110.264C255.666 110.264 255.002 109.71 255.002 108.936C254.892 108.161 255.445 107.386 256.33 107.276L272.711 105.394C273.485 105.283 274.26 105.837 274.371 106.722C274.482 107.497 273.928 108.272 273.043 108.382L256.662 110.264C256.552 110.264 256.441 110.264 256.441 110.264Z" fill="white"/>
<g opacity="0.2">
<path opacity="0.2" d="M392.464 120.778L346.864 125.869C341.884 126.423 338.232 130.961 338.785 135.941L341.441 159.405L344.319 184.75L358.928 166.599L397.112 162.282C402.092 161.729 405.745 157.191 405.191 152.211L402.535 128.747C402.092 123.877 397.555 120.225 392.464 120.778Z" fill="#000A49"/>
</g>
<path d="M392.464 111.26L346.865 116.351C341.884 116.904 338.232 121.442 338.785 126.423L341.442 149.886L344.319 175.232L358.929 157.08L397.112 152.764C402.093 152.211 405.745 147.673 405.192 142.692L402.536 119.229C402.093 114.248 397.555 110.707 392.464 111.26Z" fill="white"/>
<path d="M332.034 325.864C310.895 312.029 268.062 299.08 249.247 309.041C248.141 311.144 248.915 319.444 250.133 321.437L327.054 342.355C329.267 338.37 332.477 331.398 332.034 325.864Z" fill="#1D3557"/>
<path d="M301.044 570.35C309.234 488.892 323.954 397.915 327.053 342.355C303.479 328.077 280.901 321.326 250.132 321.437C230.1 381.313 188.374 506.047 166.682 584.849C214.162 588.059 259.872 583.078 301.044 570.35Z" fill="#E2003B"/>
<path d="M327.053 342.355C324.176 340.584 321.298 338.924 318.421 337.485C309.788 383.748 295.732 433.11 276.363 483.026C262.307 519.107 246.37 553.085 229.325 584.185C254.338 581.971 278.355 577.323 301.155 570.35C309.234 488.892 323.954 397.915 327.053 342.355Z" fill="#AC2D37"/>
<path d="M379.846 322.433C379.846 322.433 395.563 391.827 395.563 402.342C411.168 405.883 437.841 393.598 444.261 394.041C444.261 394.041 454.222 336.931 459.645 319.998L379.846 322.433Z" fill="#FD9B55"/>
<path d="M455.66 357.517C432.639 349.77 390.25 348.553 376.194 363.051C375.862 365.376 378.85 373.123 380.51 374.672H455.882C456.767 370.245 457.542 362.719 455.66 357.517Z" fill="#1D3557"/>
<path d="M497.939 599.68C481.891 519.549 469.052 428.572 455.882 374.562C430.536 367.036 408.29 366.482 380.51 374.562C379.625 437.095 377.854 567.362 380.953 648.599C424.671 639.302 464.404 622.59 497.939 599.68Z" fill="#E2003B"/>
<path d="M455.881 374.673C452.783 373.787 449.684 372.902 446.695 372.238C452.229 418.833 453.779 469.634 450.569 522.648C448.245 560.943 443.707 597.577 437.177 631.776C459.091 623.143 479.456 612.408 497.939 599.791C481.891 519.549 469.052 428.572 455.881 374.673Z" fill="#AC2D37"/>
<path d="M317.872 10.5106C316.008 8.74671 313.527 7.77655 310.89 7.77655C305.447 7.77655 301.018 11.9596 301.018 17.1001C301.018 18.7423 301.472 20.3466 302.334 21.7619L300.934 26.5917L306.168 25.294C307.608 26.0373 309.231 26.4279 310.886 26.4279H310.89C316.329 26.4279 320.856 22.2449 320.856 17.1043C320.856 14.6139 319.735 12.2746 317.872 10.5106ZM310.89 24.8572C309.414 24.8572 307.969 24.4834 306.71 23.7778L306.412 23.6099L303.308 24.3784L304.135 21.5183L303.94 21.2244C303.117 19.9896 302.686 18.5659 302.686 17.1001C302.686 12.8289 306.368 9.35148 310.895 9.35148C313.087 9.35148 315.146 10.1578 316.693 11.6236C318.241 13.0893 319.192 15.0338 319.188 17.1043C319.188 21.3798 315.413 24.8572 310.89 24.8572ZM315.39 19.0531C315.146 18.9355 313.932 18.3727 313.705 18.2971C313.478 18.2173 313.314 18.1795 313.149 18.4147C312.985 18.6499 312.513 19.1707 312.366 19.3302C312.224 19.4856 312.077 19.5066 311.833 19.389C310.383 18.7045 309.432 18.1669 308.475 16.6172C308.222 16.2056 308.729 16.235 309.2 15.3446C309.28 15.1892 309.24 15.0548 309.178 14.9372C309.116 14.8196 308.622 13.6731 308.418 13.2069C308.218 12.7533 308.013 12.8163 307.862 12.8079C307.72 12.7995 307.555 12.7995 307.39 12.7995C307.226 12.7995 306.959 12.8583 306.732 13.0893C306.506 13.3245 305.87 13.8873 305.87 15.0338C305.87 16.1804 306.755 17.2891 306.875 17.4445C306.999 17.5999 308.613 19.9518 311.09 20.964C312.656 21.6023 313.269 21.6569 314.052 21.5477C314.528 21.4805 315.51 20.985 315.715 20.439C315.92 19.893 315.92 19.4268 315.857 19.3302C315.799 19.2252 315.635 19.1665 315.39 19.0531Z" fill="#AC2D37"/>
<path d="M376.054 128.038C372.968 126.533 369.35 127.423 367.259 129.959L370.492 133.191C370.86 133.56 370.86 134.151 370.492 134.514C370.31 134.695 370.07 134.789 369.83 134.789C369.59 134.789 369.35 134.695 369.168 134.514L366.229 131.575L358.728 146.956C358.559 147.307 358.547 147.735 358.728 148.109C359.045 148.759 359.835 149.029 360.485 148.712L368.308 144.895L365.427 142.014C365.058 141.651 365.058 141.054 365.427 140.691C365.796 140.328 366.387 140.328 366.75 140.691L370.088 144.028L376.06 141.113C377.465 140.428 378.665 139.28 379.403 137.769C381.166 134.157 379.667 129.801 376.054 128.038ZM381.447 125.995C382.588 123.612 381.997 120.795 379.672 118.869C376.727 121.311 376.599 125.163 379.21 127.763L379.678 128.231C382.278 130.843 386.137 130.714 388.572 127.769C386.646 125.444 383.83 124.853 381.447 125.995Z" fill="#F04350"/>
<path d="M616.143 268.201C597.66 247.615 534.463 323.097 534.795 331.951C536.012 361.723 556.82 384.855 571.872 399.353C588.031 403.559 609.723 401.788 625.993 400.571C634.626 357.628 646.8 302.289 616.143 268.201Z" fill="#F8B586"/>
<path d="M506.461 306.716C518.746 310.147 529.482 314.132 538.779 323.207C545.53 329.848 564.677 304.724 554.606 300.74C541.546 295.649 527.822 291.111 513.876 287.237C503.141 284.249 496.5 288.565 495.172 293.656C493.954 298.194 497.275 304.171 506.461 306.716Z" fill="#F8B586"/>
<path d="M505.797 339.92C520.075 342.576 531.474 345.343 542.21 360.616C548.187 369.249 571.982 341.469 560.472 337.042C545.53 331.398 530.146 326.196 514.209 321.769C502.034 318.338 494.287 322.654 493.844 328.188C493.512 332.947 496.279 338.702 505.797 339.92Z" fill="#F8B586"/>
<path d="M510.445 275.727C522.62 279.379 533.356 283.585 542.431 292.882C549.072 299.633 564.345 291.111 568.551 286.684C572.867 282.257 568.662 274.952 558.701 270.746C545.641 265.323 532.138 260.564 518.193 256.358C507.457 253.148 497.717 253.37 495.947 261.007C494.508 266.872 501.259 272.96 510.445 275.727Z" fill="#F8B586"/>
<path d="M599.099 253.37C590.576 245.401 554.828 213.969 543.76 213.747C537.451 213.637 533.577 217.953 534.795 223.598C535.791 228.578 539.886 233.116 543.428 237.211C550.29 245.29 560.14 252.042 566.449 259.346C569.769 263.331 577.406 274.288 582.054 276.834C589.359 280.818 608.063 261.671 599.099 253.37Z" fill="#F8B586"/>
<path d="M585.817 630.78C596 568.801 621.013 442.85 626.104 400.681C608.285 385.519 592.79 398.357 571.761 398.8C557.041 444.952 525.277 539.36 505.797 599.901C505.797 599.901 556.156 641.958 585.817 630.78Z" fill="#F8B586"/>
<path d="M588.363 366.372L518.082 340.473C510.999 337.817 507.347 329.959 510.003 322.875L573.089 151.547C575.745 144.463 583.603 140.811 590.687 143.467L660.967 169.366C668.05 172.022 671.703 179.88 669.046 186.963L605.96 358.292C603.304 365.375 595.446 368.917 588.363 366.372Z" fill="#808080"/>
<path d="M590.133 361.28L519.853 335.382C512.769 332.726 509.117 324.868 511.773 317.784L574.86 146.455C577.516 139.372 585.374 135.72 592.457 138.376L662.737 164.275C669.821 166.931 673.473 174.789 670.817 181.872L607.731 353.201C605.074 360.284 597.216 363.937 590.133 361.28Z" fill="#404040"/>
<path d="M633.74 165.16L621.676 160.733C620.791 160.401 620.348 159.405 620.68 158.519C621.012 157.634 622.008 157.191 622.894 157.523L634.958 161.95C635.843 162.282 636.286 163.278 635.954 164.164C635.622 164.939 634.626 165.492 633.74 165.16Z" fill="#808080"/>
<path d="M616.143 156.859C615.811 157.745 614.814 158.187 613.929 157.855C613.044 157.523 612.601 156.527 612.933 155.642C613.265 154.756 614.261 154.314 615.147 154.646C616.032 154.978 616.475 155.974 616.143 156.859Z" fill="#808080"/>
<path d="M558.811 343.461C561.684 343.461 564.013 341.132 564.013 338.26C564.013 335.387 561.684 333.058 558.811 333.058C555.939 333.058 553.61 335.387 553.61 338.26C553.61 341.132 555.939 343.461 558.811 343.461Z" fill="#808080"/>
<path d="M664.164 187.202L575.855 155.243L518.969 312.428L607.277 344.388L664.164 187.202Z" fill="#F04350"/>
<path d="M652.121 220.558L563.812 188.599L536.169 264.979L624.478 296.939L652.121 220.558Z" fill="white"/>
<path d="M603.403 234.698C599.31 230.489 592.972 229.824 588.14 232.692L591.468 239.766C591.847 240.573 591.505 241.524 590.701 241.895C590.304 242.082 589.863 242.093 589.477 241.954C589.091 241.815 588.759 241.525 588.572 241.128L585.545 234.696L564.565 255.098C564.088 255.565 563.822 256.246 563.897 256.954C564.029 258.183 565.145 259.075 566.373 258.942L581.172 257.332L578.206 251.028C577.823 250.23 578.169 249.269 578.973 248.899C579.776 248.529 580.728 248.871 581.102 249.666L584.538 256.97L595.837 255.738C598.495 255.45 601.091 254.299 603.154 252.296C608.083 247.505 608.195 239.627 603.403 234.698ZM613.264 234.535C616.482 231.362 617.162 226.488 614.538 222.042C608.385 224.264 605.945 230.388 608.641 236.084L609.123 237.109C611.793 242.817 618.076 244.845 623.702 241.518C621.949 236.662 617.76 234.078 613.264 234.535Z" fill="#F04350"/>
<path d="M648.044 200.823C647.84 200.823 647.635 200.823 647.43 200.721L579.909 176.27C579.091 175.963 578.58 175.043 578.886 174.122C579.193 173.304 580.114 172.792 581.035 173.099L648.556 197.55C649.374 197.857 649.886 198.777 649.579 199.698C649.374 200.414 648.76 200.823 648.044 200.823Z" fill="white"/>
<path d="M644.873 209.622C644.668 209.622 644.464 209.622 644.259 209.519L576.738 185.069C575.92 184.762 575.408 183.841 575.715 182.92C576.022 182.102 576.943 181.59 577.863 181.897L645.384 206.348C646.203 206.655 646.714 207.576 646.408 208.496C646.203 209.213 645.589 209.622 644.873 209.622Z" fill="white"/>
<path d="M552.799 283.076C551.571 286.35 547.99 288.089 544.614 286.862C541.341 285.634 539.601 282.053 540.829 278.677C542.057 275.404 545.637 273.664 549.013 274.892C552.287 276.222 554.026 279.803 552.799 283.076Z" fill="white"/>
<path d="M607.225 313.154C607.02 313.154 606.816 313.154 606.611 313.052L555.663 294.637C554.845 294.33 554.333 293.409 554.64 292.488C554.947 291.67 555.868 291.158 556.789 291.465L607.736 309.88C608.555 310.187 609.066 311.108 608.759 312.028C608.555 312.745 607.941 313.154 607.225 313.154Z" fill="white"/>
<path d="M604.36 321.031C604.155 321.031 603.951 321.031 603.746 320.929L552.799 302.514C551.98 302.207 551.469 301.287 551.776 300.366C552.082 299.547 553.003 299.036 553.924 299.343L604.872 317.758C605.69 318.065 606.202 318.985 605.895 319.906C605.69 320.622 605.076 321.031 604.36 321.031Z" fill="white"/>
<path d="M610.089 305.174C609.885 305.174 609.68 305.174 609.475 305.072L558.528 286.657C557.709 286.35 557.198 285.429 557.505 284.509C557.811 283.69 558.732 283.179 559.653 283.486L610.601 301.9C611.419 302.207 611.931 303.128 611.624 304.049C611.419 304.765 610.805 305.174 610.089 305.174Z" fill="white"/>
<path d="M583.161 388.839C576.742 388.286 566.338 354.972 586.039 324.093C570.212 319.666 550.843 307.712 559.476 300.297C565.453 295.206 596.996 301.847 605.075 306.052C614.151 315.46 625.661 334.164 628.317 341.137C628.428 341.137 585.042 380.206 583.161 388.839Z" fill="#F8B586"/>
<path d="M586.149 324.314C584.046 329.848 581.833 335.271 580.173 340.916C578.512 346.45 577.295 352.094 576.963 357.739C576.631 363.383 577.406 369.028 579.066 374.562C580.726 379.985 583.382 385.297 586.26 390.499C582.054 386.294 578.512 381.313 576.188 375.668C573.864 370.024 572.757 363.826 573.089 357.739C573.421 351.651 574.971 345.675 577.295 340.141C579.619 334.275 582.608 329.073 586.149 324.314Z" fill="#FF9549"/>
<path d="M565.564 412.967C583.161 410.753 615.59 420.161 623.116 423.813C628.76 426.027 625.329 449.712 620.349 452.479L556.709 441.522C556.156 436.873 558.148 420.382 565.564 412.967Z" fill="#1D3557"/>
<path d="M478.239 663.098C501.702 584.628 538.447 493.983 556.709 441.411C576.299 439.529 597.992 443.514 620.349 452.368C616.143 515.344 607.289 646.607 597.438 727.844C552.171 712.681 511.663 690.546 478.239 663.098Z" fill="#457B9D"/>
<path d="M540.218 703.606C517.64 691.985 496.833 678.371 478.239 662.987C501.702 584.517 538.447 493.872 556.709 441.3C560.251 440.968 563.792 440.857 567.445 440.857C542.542 527.85 538.005 650.038 540.218 703.606Z" fill="#1D3557"/>
<path d="M566.67 435.434C548.187 499.185 529.815 563.045 511.332 626.796C508.122 625.357 505.023 623.807 501.813 622.147C524.281 560.611 545.531 498.299 565.563 435.434H566.67Z" fill="#1D3557"/>
<g opacity="0.2">
<path opacity="0.2" d="M549.736 169.919L498.825 151.436C495.504 150.219 491.852 151.989 490.634 155.31L484.99 170.915C483.772 174.236 485.543 177.888 488.864 179.105L534.905 195.818L541.878 210.648L547.965 193.825L549.736 188.845L553.61 178.22C554.827 174.789 553.167 171.026 549.736 169.919Z" fill="#000A49"/>
</g>
<path d="M549.736 160.29L498.825 141.807C495.504 140.59 491.852 142.36 490.634 145.681L484.99 161.286C483.772 164.607 485.543 168.259 488.864 169.476L534.905 186.189L541.878 201.019L547.965 184.196L549.736 179.216L553.61 168.591C554.827 165.16 553.167 161.508 549.736 160.29Z" fill="white"/>
<path d="M529.483 168.48C528.819 170.251 529.704 172.133 531.475 172.797C533.246 173.461 535.127 172.575 535.791 170.804C536.455 169.034 535.57 167.152 533.799 166.488C532.028 165.824 530.147 166.709 529.483 168.48Z" fill="#AC2D37"/>
<path d="M516.201 163.611C515.537 165.381 516.423 167.263 518.193 167.927C519.964 168.591 521.846 167.706 522.51 165.935C523.174 164.164 522.288 162.282 520.518 161.618C518.747 160.954 516.865 161.95 516.201 163.611Z" fill="#AC2D37"/>
<path d="M502.92 158.741C502.256 160.511 503.141 162.393 504.912 163.057C506.683 163.721 508.565 162.836 509.229 161.065C509.893 159.294 509.007 157.413 507.236 156.748C505.466 156.195 503.584 157.08 502.92 158.741Z" fill="#AC2D37"/>
<g opacity="0.2">
<path opacity="0.2" d="M715.753 302.289L620.017 267.647C610.167 264.106 605.186 253.259 608.728 243.52C612.269 233.669 623.116 228.689 632.855 232.23L728.591 266.872C738.442 270.414 743.422 281.261 739.881 291C736.339 300.74 725.492 305.831 715.753 302.289Z" fill="#000A49"/>
</g>
<path d="M715.753 292.771L620.017 258.129C610.167 254.587 605.187 243.741 608.728 234.001C612.27 224.151 623.116 219.17 632.856 222.712L728.592 257.354C738.442 260.896 743.423 271.742 739.881 281.482C736.339 291.222 725.493 296.313 715.753 292.771Z" fill="white"/>
<path d="M723.5 268.865C723.279 268.865 723.168 268.865 722.946 268.754L629.645 234.997C628.871 234.665 628.428 233.891 628.76 233.116C629.092 232.341 629.867 231.898 630.642 232.23L723.943 265.987C724.717 266.319 725.16 267.094 724.828 267.869C724.717 268.533 724.164 268.865 723.5 268.865Z" fill="#AC2D37"/>
<path d="M720.955 276.059C720.733 276.059 720.623 276.059 720.401 275.948L664.066 255.473C663.292 255.141 662.849 254.366 663.181 253.591C663.513 252.817 664.288 252.374 665.062 252.706L721.397 273.181C722.172 273.513 722.615 274.288 722.283 275.063C722.172 275.616 721.508 276.059 720.955 276.059Z" fill="#AC2D37"/>
<path d="M657.094 252.927C656.872 252.927 656.762 252.927 656.54 252.816L627.1 242.191C626.325 241.859 625.883 241.085 626.215 240.31C626.547 239.535 627.321 239.092 628.096 239.424L657.536 250.05C658.311 250.382 658.754 251.156 658.422 251.931C658.2 252.484 657.647 252.927 657.094 252.927Z" fill="#AC2D37"/>
<path d="M692.953 273.956C692.732 273.956 692.621 273.956 692.4 273.845L624.555 249.275C623.78 248.943 623.337 248.168 623.669 247.393C624.001 246.618 624.776 246.176 625.551 246.508L693.396 271.078C694.171 271.41 694.613 272.185 694.281 272.96C694.171 273.513 693.507 273.956 692.953 273.956Z" fill="#AC2D37"/>
<g opacity="0.2">
<path opacity="0.2" d="M730.472 195.264L694.834 182.426C691.514 181.208 687.861 182.979 686.644 186.299L675.687 216.514C674.469 219.835 676.24 223.487 679.561 224.704L691.182 228.91L693.063 243.63L703.799 233.448L715.199 237.543C718.519 238.76 722.171 236.99 723.389 233.669L734.346 203.454C735.453 200.134 733.793 196.482 730.472 195.264Z" fill="#000A49"/>
</g>
<path d="M730.472 185.746L694.834 172.907C691.514 171.69 687.861 173.461 686.644 176.781L675.687 206.996C674.469 210.316 676.24 213.969 679.561 215.186L691.182 219.392L693.063 234.112L703.799 223.93L715.199 228.025C718.519 229.242 722.171 227.471 723.389 224.151L734.346 193.936C735.453 190.616 733.793 186.963 730.472 185.746Z" fill="#AC2D37"/>
<g opacity="0.2">
<path opacity="0.2" d="M547.217 148.067C550.613 141.635 548.151 133.668 541.719 130.272C535.286 126.877 527.319 129.338 523.924 135.771C520.528 142.203 522.99 150.17 529.423 153.566C535.855 156.961 543.822 154.499 547.217 148.067Z" fill="#000A49"/>
</g>
<path d="M547.16 138.473C550.556 132.041 548.094 124.074 541.661 120.678C535.229 117.283 527.262 119.745 523.867 126.177C520.471 132.61 522.933 140.577 529.365 143.972C535.798 147.367 543.765 144.906 547.16 138.473Z" fill="white"/>
<path d="M535.127 133.395C531.807 132.178 528.155 133.949 526.937 137.269L539.001 141.586C540.219 138.265 538.448 134.613 535.127 133.395Z" fill="#F04350"/>
<path d="M535.681 132.067C537.562 132.731 539.665 131.735 540.329 129.854C540.993 127.972 539.997 125.869 538.116 125.205C536.234 124.541 534.131 125.537 533.467 127.419C532.803 129.3 533.799 131.403 535.681 132.067Z" fill="#F04350"/>
<path d="M713.683 197.475L714.227 195.983C715.426 192.694 713.598 188.996 710.152 187.74C706.706 186.484 702.928 188.138 701.729 191.427L701.185 192.918L696.498 191.21L691.877 203.886C691.127 205.945 692.267 208.251 694.424 209.037L708.484 214.163C710.641 214.949 712.999 213.918 713.749 211.859L718.37 199.183L713.683 197.475ZM704.853 192.566C705.453 190.922 707.342 190.095 709.065 190.723C710.788 191.351 711.702 193.2 711.102 194.844L710.559 196.336L704.31 194.057L704.853 192.566ZM710.626 201.006C709.979 200.77 709.637 200.078 709.862 199.46C710.087 198.843 710.794 198.533 711.441 198.769C712.088 199.005 712.43 199.697 712.205 200.315C711.98 200.932 711.273 201.242 710.626 201.006ZM701.252 197.589C700.605 197.353 700.263 196.661 700.488 196.043C700.714 195.426 701.421 195.116 702.068 195.352C702.715 195.588 703.057 196.28 702.832 196.898C702.607 197.515 701.899 197.825 701.252 197.589Z" fill="white"/>
<path d="M145.985 335.603C129.052 313.8 38.0749 350.434 42.1699 358.292C62.2025 396.365 75.9266 408.429 101.936 417.505C118.205 414.074 139.234 407.654 151.741 392.16C150.855 383.305 152.294 343.794 145.985 335.603Z" fill="#DB7627"/>
<path d="M70.9457 283.806C60.8741 277.83 19.2593 254.809 8.41295 256.912C2.21501 258.129 -0.551929 263.22 1.7723 268.533C3.87517 273.181 8.74498 276.723 13.0614 279.933C21.4729 286.352 32.5406 290.779 40.2881 296.645C44.3831 299.744 54.1228 308.819 59.3246 310.369C67.2934 312.804 81.4601 290.115 70.9457 283.806Z" fill="#DB7627"/>
<path d="M264.41 574.335C235.413 518.664 172.769 424.256 151.63 387.4C128.277 385.962 105.477 398.8 101.936 417.505C117.762 463.325 176.311 564.927 196.897 625.136C224.013 605.767 247.255 601.119 264.41 574.335Z" fill="#DB7627"/>
<path d="M128.498 387.179L54.1229 395.591C46.5968 396.476 39.8455 391.053 38.9601 383.527L18.5954 202.126C17.71 194.6 23.1332 187.849 30.6593 186.964L105.035 178.552C112.561 177.667 119.312 183.09 120.197 190.616L140.673 372.016C141.447 379.542 136.024 386.294 128.498 387.179Z" fill="#808080"/>
<path d="M127.945 381.867L53.5693 390.278C46.0432 391.163 39.2919 385.74 38.4065 378.214L17.9311 196.814C17.0457 189.288 22.4689 182.536 29.995 181.651L104.37 173.239C111.896 172.354 118.648 177.777 119.533 185.303L140.008 366.704C140.894 374.23 135.471 380.981 127.945 381.867Z" fill="#404040"/>
<path d="M78.915 186.963L66.0764 188.402C65.191 188.513 64.3056 187.849 64.1949 186.853C64.0842 185.967 64.7483 185.082 65.7444 184.971L78.583 183.532C79.4684 183.422 80.3538 184.086 80.4645 185.082C80.4645 185.967 79.8004 186.853 78.915 186.963Z" fill="#808080"/>
<path d="M59.4352 187.406C59.5459 188.292 58.8818 189.177 57.8857 189.288C57.0003 189.398 56.1149 188.734 56.0042 187.738C55.8935 186.742 56.5576 185.967 57.5537 185.857C58.5498 185.746 59.3245 186.521 59.4352 187.406Z" fill="#808080"/>
<path d="M94.7419 374.672C95.0739 377.55 92.9711 380.096 90.0934 380.428C87.2158 380.76 84.6702 378.657 84.3382 375.779C84.0062 372.902 86.1091 370.356 88.9867 370.024C91.8643 369.803 94.4099 371.795 94.7419 374.672Z" fill="#808080"/>
<path d="M117.1 195.839L23.3672 206.471L42.2912 373.311L136.024 362.68L117.1 195.839Z" fill="#F04350"/>
<path d="M123.906 255.469L30.1731 266.101L39.3687 347.173L133.102 336.541L123.906 255.469Z" fill="white"/>
<path d="M39.0982 247.792C38.2761 247.792 37.5568 247.175 37.454 246.353C37.3513 245.428 37.9679 244.606 38.8927 244.503L110.621 236.385C111.546 236.282 112.368 236.899 112.471 237.824C112.574 238.748 111.957 239.57 111.032 239.673L39.3038 247.792C39.201 247.792 39.0982 247.792 39.0982 247.792Z" fill="white"/>
<path d="M40.1261 257.246C39.304 257.246 38.5846 256.629 38.4819 255.807C38.3791 254.882 38.9957 254.06 39.9206 253.957L111.649 245.839C112.574 245.736 113.396 246.353 113.499 247.278C113.602 248.203 112.985 249.025 112.06 249.127L40.3316 257.246C40.2288 257.143 40.2288 257.246 40.1261 257.246Z" fill="white"/>
<path d="M62.3227 354.357C62.7338 357.851 60.1647 361.037 56.6707 361.448C53.1768 361.859 49.9911 359.29 49.5801 355.796C49.169 352.302 51.7381 349.116 55.2321 348.705C58.726 348.397 61.9117 350.863 62.3227 354.357Z" fill="white"/>
<path d="M68.8998 355.076C68.0777 355.076 67.3583 354.46 67.2555 353.637C67.1528 352.713 67.7694 351.89 68.6942 351.788L122.748 345.622C123.672 345.519 124.495 346.136 124.597 347.061C124.7 347.985 124.084 348.808 123.159 348.91L69.1053 355.076C69.0025 355.076 69.0025 355.076 68.8998 355.076Z" fill="white"/>
<path d="M109.572 396.919C103.484 394.373 108.576 364.822 135.249 336.046C131.043 321.879 129.494 283.032 144.435 282.478C151.629 282.146 161.59 336.821 161.59 336.821C161.59 336.821 159.044 362.055 151.85 392.27C151.85 392.27 113.445 387.843 109.572 396.919Z" fill="#DB7627"/>
<path d="M135.581 336.378C131.707 340.473 127.944 344.679 124.624 349.106C121.304 353.533 118.426 358.182 116.102 363.162C113.667 368.032 111.896 373.234 110.347 378.546C108.908 383.859 107.801 389.393 106.805 394.926C106.141 389.282 106.251 383.527 107.137 377.771C108.022 372.127 109.793 366.482 112.339 361.28C114.884 356.079 118.205 351.209 122.078 347.003C126.063 342.797 130.6 339.145 135.581 336.378Z" fill="#80491F"/>
<path d="M316.871 607.316C265.074 536.483 211.728 453.364 174.429 406.88C145.432 412.303 122.632 423.149 98.062 445.174C124.957 507.264 180.959 636.535 220.029 715.006C260.205 683.573 293.186 646.939 316.871 607.316Z" fill="#C1C9E7"/>
<path d="M174.54 406.88C170.998 407.544 167.567 408.318 164.136 409.093C190.367 452.257 214.495 501.509 234.749 555.298C249.358 594.146 260.979 632.551 269.612 669.739C287.985 650.038 303.811 629.12 316.982 607.316C265.185 536.483 211.838 453.364 174.54 406.88Z" fill="#98A4D1"/>
<path d="M40.7309 348.663C36.8572 347.999 33.0941 348.553 31.2126 350.766C27.7816 354.861 29.2204 363.494 33.6475 366.704C35.6397 368.143 37.7426 368.585 39.9561 368.807C44.2725 369.36 49.3637 369.028 52.4627 365.265C59.546 356.632 46.2647 349.549 40.7309 348.663Z" fill="#DB7627"/>
<path d="M49.1423 342.355C57.1111 332.504 42.0589 324.425 35.7503 323.429C31.3232 322.654 27.0068 323.318 24.9039 325.864C21.0302 330.512 22.5797 340.363 27.6709 344.015C29.8844 345.564 32.43 346.118 34.8649 346.45C39.7347 347.003 45.6006 346.671 49.1423 342.355Z" fill="#DB7627"/>
<path d="M27.2282 319.223C29.4418 320.773 31.8767 321.326 34.2009 321.658C39.0707 322.211 44.7153 321.879 48.1463 317.674C56.0044 308.045 41.2843 300.187 34.9756 299.08C30.6592 298.305 26.4535 298.969 24.3506 301.515C20.5876 305.942 22.137 315.571 27.2282 319.223Z" fill="#DB7627"/>
<g opacity="0.2">
<path opacity="0.2" d="M86.3301 151.104L84.4486 134.613C84.0059 131.071 80.9069 128.526 77.3652 128.968L39.7349 133.285C36.1932 133.727 33.6476 136.826 34.0903 140.368L35.9718 156.859C36.4145 160.401 39.5135 162.946 43.0552 162.504L55.3404 161.065L63.5305 173.461L68.6217 159.515L80.6855 158.187C84.2272 157.744 86.6621 154.535 86.3301 151.104Z" fill="#000A49"/>
</g>
<path d="M86.3301 141.475L84.4486 124.984C84.0059 121.442 80.9069 118.897 77.3652 119.339L39.7349 123.656C36.1932 124.098 33.6476 127.197 34.0903 130.739L35.9718 147.23C36.4145 150.772 39.5135 153.317 43.0552 152.875L55.3404 151.436L63.5305 163.832L68.6217 149.886L80.6855 148.558C84.2272 148.226 86.6621 145.017 86.3301 141.475Z" fill="white"/>
<g opacity="0.2">
<path opacity="0.2" d="M191.381 226.937L62.9955 241.546C52.5918 242.763 43.2949 235.237 42.0775 224.944C40.86 214.541 48.3861 205.244 58.6791 204.026L187.065 189.417C197.469 188.199 206.766 195.725 207.983 206.018C209.201 216.422 201.785 225.83 191.381 226.937Z" fill="#000A49"/>
</g>
<path d="M191.917 218.082L63.5309 232.692C53.1272 233.909 43.8303 226.383 42.6129 216.09C41.3954 205.686 48.9215 196.389 59.2145 195.172L187.6 180.563C198.004 179.345 207.301 186.871 208.518 197.164C209.736 207.568 202.32 216.865 191.917 218.082Z" fill="white"/>
<path d="M88.986 204.672C88.2113 204.672 87.5472 204.118 87.5472 203.344C87.4366 202.569 87.99 201.794 88.8754 201.683L187.489 190.505C188.264 190.394 189.038 190.948 189.149 191.833C189.26 192.608 188.706 193.383 187.821 193.493L89.2074 204.672C89.0967 204.672 88.986 204.672 88.986 204.672Z" fill="#AC2D37"/>
<path d="M128.831 207.771C128.056 207.771 127.392 207.217 127.392 206.443C127.281 205.668 127.834 204.893 128.72 204.782L188.264 198.031C189.039 197.92 189.814 198.474 189.925 199.359C190.035 200.134 189.482 200.909 188.596 201.019L129.052 207.771C128.941 207.771 128.941 207.771 128.831 207.771Z" fill="#AC2D37"/>
<path d="M89.8718 212.198C89.097 212.198 88.433 211.644 88.433 210.87C88.3223 210.095 88.8757 209.32 89.7611 209.209L120.861 205.668C121.636 205.557 122.411 206.11 122.522 206.996C122.632 207.771 122.079 208.545 121.194 208.656L90.0931 212.198C89.9825 212.198 89.8718 212.198 89.8718 212.198Z" fill="#AC2D37"/>
<path d="M90.6462 219.835C89.8715 219.835 89.2074 219.281 89.2074 218.506C89.0967 217.732 89.6501 216.957 90.5355 216.846L162.255 208.767C163.029 208.656 163.804 209.21 163.915 210.095C164.025 210.87 163.472 211.644 162.587 211.755L90.8676 219.835C90.7569 219.835 90.7569 219.835 90.6462 219.835Z" fill="#AC2D37"/>
<path d="M72.6346 209.3L72.4908 208.044C72.1735 205.275 69.5546 203.291 66.6528 203.624C63.7509 203.956 61.6482 206.48 61.9655 209.25L62.1093 210.506L58.1623 210.958L59.3849 221.633C59.5835 223.367 61.2171 224.604 63.0337 224.396L74.8746 223.039C76.6912 222.831 78.0028 221.257 77.8042 219.523L76.5816 208.848L72.6346 209.3ZM64.5968 208.949C64.4382 207.564 65.4895 206.302 66.9404 206.135C68.3914 205.969 69.7008 206.961 69.8594 208.346L70.0033 209.602L64.7406 210.204L64.5968 208.949ZM71.7145 212.905C71.1695 212.967 70.6794 212.596 70.6199 212.076C70.5603 211.556 70.9538 211.083 71.4987 211.021C72.0437 210.958 72.5338 211.33 72.5934 211.85C72.6529 212.37 72.2595 212.842 71.7145 212.905ZM63.8205 213.809C63.2755 213.871 62.7855 213.5 62.7259 212.98C62.6663 212.46 63.0598 211.987 63.6047 211.925C64.1497 211.863 64.6398 212.234 64.6994 212.754C64.759 213.274 64.3655 213.746 63.8205 213.809Z" fill="#AC2D37"/>
<path d="M89.4613 289.895C84.7796 287.612 79.2894 288.962 76.1179 292.809L81.0217 297.712C81.5814 298.272 81.5814 299.169 81.0217 299.72C80.7463 299.995 80.3821 300.138 80.0179 300.138C79.6536 300.138 79.2894 299.995 79.014 299.72L74.5544 295.26L63.1743 318.598C62.9167 319.131 62.8989 319.779 63.1743 320.348C63.654 321.334 64.8533 321.742 65.8394 321.263L77.7081 315.471L73.3373 311.1C72.7776 310.549 72.7776 309.643 73.3373 309.092C73.897 308.541 74.7942 308.541 75.345 309.092L80.4088 314.156L89.4702 309.732C91.6023 308.692 93.4234 306.951 94.5428 304.659C97.2168 299.178 94.9426 292.569 89.4613 289.895ZM97.6432 286.794C99.3756 283.179 98.4783 278.906 94.9515 275.983C90.4829 279.688 90.2875 285.533 94.2496 289.477L94.9603 290.188C98.9047 294.15 104.759 293.955 108.455 289.486C105.532 285.959 101.259 285.062 97.6432 286.794Z" fill="#F04350"/>
<path d="M65.0479 137.695C64.1506 137.8 63.3608 138.194 62.7682 138.766L58.4145 136.819C58.4736 136.284 58.4101 135.746 58.2283 135.24L62.0099 132.333C62.7193 132.752 63.5789 132.951 64.4762 132.845C66.5806 132.597 68.0945 130.768 67.8577 128.759C67.6209 126.75 65.7231 125.323 63.6187 125.571C61.5144 125.819 60.0005 127.649 60.2373 129.657C60.2692 129.929 60.3317 130.189 60.4207 130.436L56.6391 133.343C55.9297 132.924 55.0701 132.725 54.1728 132.831C52.0684 133.079 50.5545 134.908 50.7913 136.917C51.0281 138.926 52.926 140.353 55.0303 140.105C55.9276 139.999 56.7174 139.606 57.31 139.033L61.6637 140.981C61.6342 141.247 61.6351 141.515 61.6665 141.781C61.9033 143.789 63.8011 145.217 65.9054 144.969C68.0097 144.721 69.5237 142.891 69.2869 140.882C69.0501 138.874 67.1522 137.447 65.0479 137.695Z" fill="#AC2D37"/>
</g>
</svg>
