<svg width="742" height="553" viewBox="0 0 742 553" fill="none" xmlns="http://www.w3.org/2000/svg"><mask id="a" mask-type="alpha" maskUnits="userSpaceOnUse" x="0" y="0" width="742" height="553"><path fill="#C4C4C4" d="M.956 0H741.02v553H.956z"/></mask><g mask="url(#a)"><path d="M283.668 119.34c20.696-18.262 61.979 99.941 61.647 108.795-.885 35.749-7.305 72.716-25.345 83.23-16.602.221-37.741-3.542-53.236-8.633-.775-13.835-6.641-63.307-6.419-84.447.332-19.59 19.368-95.404 23.353-98.945z" fill="#FD9B55"/><path d="M217.925 468.97c15.827-60.762 37.299-129.161 49.584-169.78 22.357-6.64 34.974-1.881 54.01 7.084-5.201 48.255-16.269 152.735-22.799 215.931-30.658-12.949-58.106-30.989-80.795-53.235z" fill="#FD9B55"/><path d="M304.696 276.391l74.376-8.412c7.526-.885 12.949-7.637 12.064-15.163l-20.476-181.4c-.885-7.526-7.636-12.95-15.163-12.064l-74.375 8.412c-7.526.885-12.949 7.636-12.064 15.163l20.476 181.4c.885 7.526 7.636 12.838 15.162 12.064z" fill="gray"/><path d="M304.143 271.078l74.375-8.411c7.526-.886 12.95-7.637 12.064-15.163l-20.475-181.4c-.886-7.526-7.637-12.95-15.163-12.064l-74.375 8.411c-7.526.886-12.95 7.637-12.064 15.163l20.475 181.4c.886 7.416 7.637 12.839 15.163 12.064z" fill="#404040"/><path d="M308.46 70.088l12.838-1.439c.886-.11 1.55-.996 1.55-1.881-.111-.886-.996-1.55-1.882-1.55l-12.838 1.439c-.886.11-1.55.996-1.55 1.881.111.996.996 1.66 1.882 1.55zM327.496 66.214c.111.886.996 1.55 1.882 1.55.885-.111 1.549-.996 1.549-1.882-.111-.885-.996-1.55-1.881-1.55-.996.111-1.661.997-1.55 1.882zM334.911 256.69c.332 2.878 2.878 4.98 5.756 4.648 2.877-.332 4.98-2.877 4.648-5.755-.332-2.877-2.878-4.98-5.755-4.648-2.989.221-4.981 2.877-4.649 5.755z" fill="gray"/><path d="M367.036 71.794l-94.024 10.742 19.119 167.358 94.024-10.741-19.119-167.359z" fill="#F04350"/><path d="M366.994 71.942L272.97 82.684l6.003 52.542 94.024-10.741-6.003-52.543zM300.849 148.764a6.392 6.392 0 1 0-9.96-8.015 6.392 6.392 0 0 0 9.96 8.015zM309.802 153.111a1.665 1.665 0 0 1-1.649-1.443c-.104-.928.515-1.752 1.443-1.856l54.227-6.185c.928-.103 1.752.515 1.855 1.443.103.928-.515 1.753-1.443 1.856l-54.227 6.185h-.206zM310.73 161.565a1.667 1.667 0 0 1-1.649-1.443c-.103-.928.515-1.753 1.443-1.856l54.227-6.186c.928-.103 1.752.516 1.856 1.444.103.928-.516 1.752-1.444 1.855l-54.227 6.186h-.206zM308.875 144.658a1.667 1.667 0 0 1-1.65-1.443c-.103-.928.516-1.753 1.443-1.856l54.227-6.186c.928-.103 1.753.516 1.856 1.444.103.928-.516 1.752-1.443 1.855l-54.227 6.186h-.206zM300.833 231.874a1.666 1.666 0 0 1-1.649-1.443c-.103-.928.515-1.753 1.443-1.856l71.959-8.247c.928-.103 1.753.515 1.856 1.443.103.928-.516 1.753-1.444 1.856l-71.959 8.247h-.206zM301.967 241.359a1.667 1.667 0 0 1-1.65-1.443c-.103-.928.516-1.753 1.444-1.856l71.958-8.248c.928-.103 1.753.516 1.856 1.444.103.928-.515 1.752-1.443 1.855l-71.959 8.248h-.206zM366.297 165.764l-73.54 8.401 5.055 44.247 73.54-8.402-5.055-44.246z" fill="#fff"/><path d="M346.836 194.935l1.006-13.915c.072-1.005-.642-1.874-1.465-1.783l-20.978 2.338-.817-2.883c-.203-.719-.787-1.186-1.396-1.118l-5.476.61c-.708.079-1.203.847-1.107 1.716l.117 1.049c.097.869.749 1.509 1.457 1.43l3.733-.416 6.26 22.094c-.827.734-1.3 1.989-1.148 3.351.226 2.027 1.748 3.521 3.4 3.337 1.652-.184 2.808-1.976 2.582-4.004-.115-1.027-.562-1.917-1.191-2.521l11.197-1.248c-.479.728-.72 1.695-.606 2.722.226 2.027 1.748 3.522 3.4 3.338 1.652-.184 2.808-1.977 2.582-4.004-.162-1.454-.99-2.633-2.055-3.116l.118-1.624c.072-1.005-.642-1.875-1.464-1.783l-14.337 1.597-.583-2.059 15.657-1.744c.599-.066 1.061-.633 1.114-1.364z" fill="#AC2D37"/><path d="M304.365 299.412c6.308.885 24.459-28.887 12.506-63.529 16.159-13.946 24.349-53.236 11.621-58.327-8.854-3.542-54.674 69.284-54.232 76.699.664 13.503 30.326 36.302 30.105 45.157z" fill="#FD9B55"/><path d="M316.871 236.104c2.324 5.534 3.984 11.289 4.87 17.155.885 5.977 1.107 12.064-.111 18.151-1.107 5.977-3.652 11.843-7.305 16.713a47.534 47.534 0 0 1-13.281 12.063c4.095-4.316 7.858-8.743 10.847-13.724 2.988-4.869 4.98-10.293 5.976-15.826 1.107-5.534 1.218-11.29.886-17.045-.332-5.866-1.218-11.621-1.882-17.487z" fill="#D37C3A"/><path d="M382.945 291.886c-17.044-17.598-34.531-34.864-39.622-29.773-6.862 6.641 10.293 56.556 39.954 76.921 11.068 7.526 36.081-44.05-.332-47.148z" fill="#FD9B55"/><path d="M382.834 176.892c-22.799 65.631-3.652 152.181 1.107 155.612 18.815 13.392 65.521 19.147 70.059 12.507 16.823-24.017 24.681-65.411 10.182-88.764-4.87-7.858-50.801-17.487-60.983-15.494-4.317-18.262-2.878-46.596-.775-58.327 4.759-26.231-13.171-23.796-19.59-5.534z" fill="#FD9B55"/><path opacity=".2" d="M327.938 9.658l-37.63 4.206c-3.542.442-6.087 3.541-5.644 7.083l1.881 16.491c.443 3.542 3.542 6.087 7.083 5.645l12.286-1.328 8.19 12.395 5.091-13.834 12.064-1.328c3.541-.443 6.087-3.542 5.644-7.084l-1.881-16.49c-.443-3.653-3.542-6.199-7.084-5.756z" fill="#000A49"/><path d="M327.939.03l-37.631 4.205c-3.541.443-6.087 3.542-5.644 7.083l1.881 16.491c.443 3.542 3.542 6.087 7.084 5.645l12.285-1.328 8.19 12.396 5.091-13.835 12.064-1.328c3.542-.443 6.087-3.542 5.645-7.084l-1.882-16.49c-.443-3.542-3.542-6.088-7.083-5.756z" fill="#fff"/><path opacity=".2" d="M303.368 126.533l-71.055 7.969c-4.648.554-8.854-2.877-9.407-7.526l-2.435-21.803c-.553-4.649 2.878-8.855 7.526-9.408l71.055-7.969c4.648-.553 8.854 2.878 9.408 7.526l2.434 21.804c.554 4.648-2.877 8.854-7.526 9.407z" fill="#000A49"/><path d="M303.368 117.015l-71.055 7.969c-4.648.553-8.854-2.878-9.407-7.526l-2.435-21.803c-.553-4.649 2.878-8.855 7.526-9.408l71.055-7.969c4.648-.553 8.854 2.878 9.408 7.526l2.434 21.804c.554 4.648-2.877 8.854-7.526 9.407z" fill="#AC2D37"/><path d="M240.061 105.837c-3.985.443-6.862 4.095-6.42 8.079l14.499-1.66c-.443-3.984-4.095-6.862-8.079-6.419zM239.839 104.177c2.324-.222 3.874-2.325 3.652-4.649-.221-2.324-2.324-3.874-4.648-3.652-2.324.221-3.874 2.324-3.652 4.648.221 2.325 2.435 3.985 4.648 3.653zM255.002 98.31c-.775 0-1.439-.553-1.439-1.327-.11-.775.443-1.55 1.328-1.66l39.955-4.538c.775-.11 1.55.443 1.66 1.328.111.775-.443 1.55-1.328 1.66l-39.954 4.538h-.222zM285.992 100.856c-.775 0-1.439-.553-1.439-1.328-.111-.775.443-1.55 1.328-1.66l9.629-1.107c.775-.11 1.549.443 1.66 1.329.111.774-.443 1.549-1.328 1.66l-9.629 1.106h-.221zM255.666 104.287c-.775 0-1.439-.553-1.439-1.328-.11-.775.443-1.549 1.329-1.66l24.681-2.767c.774-.11 1.549.443 1.66 1.328.11.775-.443 1.55-1.328 1.66l-24.681 2.767h-.222zM256.441 110.264c-.775 0-1.439-.554-1.439-1.328-.11-.775.443-1.55 1.328-1.66l16.381-1.882c.774-.111 1.549.443 1.66 1.328.111.775-.443 1.55-1.328 1.66l-16.381 1.882h-.221z" fill="#fff"/><path opacity=".2" d="M392.464 120.778l-45.6 5.091c-4.98.554-8.632 5.092-8.079 10.072l2.656 23.464 2.878 25.345 14.609-18.151 38.184-4.317c4.98-.553 8.633-5.091 8.079-10.071l-2.656-23.464c-.443-4.87-4.98-8.522-10.071-7.969z" fill="#000A49"/><path d="M392.464 111.26l-45.599 5.091c-4.981.553-8.633 5.091-8.08 10.072l2.657 23.463 2.877 25.346 14.61-18.152 38.183-4.316c4.981-.553 8.633-5.091 8.08-10.072l-2.656-23.463c-.443-4.981-4.981-8.522-10.072-7.969z" fill="#fff"/><path d="M332.034 325.864c-21.139-13.835-63.972-26.784-82.787-16.823-1.106 2.103-.332 10.403.886 12.396l76.921 20.918c2.213-3.985 5.423-10.957 4.98-16.491z" fill="#1D3557"/><path d="M301.044 570.35c8.19-81.458 22.91-172.435 26.009-227.995-23.574-14.278-46.152-21.029-76.921-20.918-20.032 59.876-61.758 184.61-83.45 263.412 47.48 3.21 93.19-1.771 134.362-14.499z" fill="#E2003B"/><path d="M327.053 342.355c-2.877-1.771-5.755-3.431-8.632-4.87-8.633 46.263-22.689 95.625-42.058 145.541-14.056 36.081-29.993 70.059-47.038 101.159 25.013-2.214 49.03-6.862 71.83-13.835 8.079-81.458 22.799-172.435 25.898-227.995z" fill="#AC2D37"/><path d="M379.846 322.433s15.717 69.394 15.717 79.909c15.605 3.541 42.278-8.744 48.698-8.301 0 0 9.961-57.11 15.384-74.043l-79.799 2.435z" fill="#FD9B55"/><path d="M455.66 357.517c-23.021-7.747-65.41-8.964-79.466 5.534-.332 2.325 2.656 10.072 4.316 11.621h75.372c.885-4.427 1.66-11.953-.222-17.155z" fill="#1D3557"/><path d="M497.939 599.68c-16.048-80.131-28.887-171.108-42.057-225.118-25.346-7.526-47.592-8.08-75.372 0-.885 62.533-2.656 192.8.443 274.037 43.718-9.297 83.451-26.009 116.986-48.919z" fill="#E2003B"/><path d="M455.881 374.673c-3.098-.886-6.197-1.771-9.186-2.435 5.534 46.595 7.084 97.396 3.874 150.41-2.324 38.295-6.862 74.929-13.392 109.128 21.914-8.633 42.279-19.368 60.762-31.985-16.048-80.242-28.887-171.219-42.058-225.118zM317.872 10.51c-1.864-1.763-4.345-2.733-6.982-2.733-5.443 0-9.872 4.183-9.872 9.323 0 1.642.454 3.247 1.316 4.662l-1.4 4.83 5.234-1.298a10.298 10.298 0 0 0 4.718 1.134h.004c5.439 0 9.966-4.183 9.966-9.324 0-2.49-1.121-4.83-2.984-6.593zm-6.982 14.347a8.562 8.562 0 0 1-4.18-1.08l-.298-.167-3.104.768.827-2.86-.195-.294a7.408 7.408 0 0 1-1.254-4.124c0-4.271 3.682-7.749 8.209-7.749 2.192 0 4.251.807 5.798 2.273 1.548 1.465 2.499 3.41 2.495 5.48 0 4.276-3.775 7.753-8.298 7.753zm4.5-5.804c-.244-.117-1.458-.68-1.685-.756-.227-.08-.391-.117-.556.118-.164.235-.636.756-.783.915-.142.156-.289.177-.533.059-1.45-.684-2.401-1.222-3.358-2.772-.253-.411.254-.382.725-1.272.08-.156.04-.29-.022-.408-.062-.117-.556-1.264-.76-1.73-.2-.454-.405-.39-.556-.4-.142-.008-.307-.008-.472-.008a.94.94 0 0 0-.658.29c-.226.236-.862.798-.862 1.945 0 1.146.885 2.255 1.005 2.41.124.156 1.738 2.508 4.215 3.52 1.566.638 2.179.693 2.962.584.476-.067 1.458-.563 1.663-1.109.205-.546.205-1.012.142-1.109-.058-.105-.222-.163-.467-.277z" fill="#AC2D37"/><path d="M376.054 128.038c-3.086-1.505-6.704-.615-8.795 1.921l3.233 3.232a.93.93 0 0 1 0 1.323.94.94 0 0 1-.662.275.94.94 0 0 1-.662-.275l-2.939-2.939-7.501 15.381a1.331 1.331 0 0 0 0 1.153c.317.65 1.107.92 1.757.603l7.823-3.817-2.881-2.881a.929.929 0 0 1 0-1.323.94.94 0 0 1 1.323 0l3.338 3.337 5.972-2.915a7.276 7.276 0 0 0-.006-13.075zm5.393-2.043c1.141-2.383.55-5.2-1.775-7.126-2.945 2.442-3.073 6.294-.462 8.894l.468.468c2.6 2.612 6.459 2.483 8.894-.462-1.926-2.325-4.742-2.916-7.125-1.774z" fill="#F04350"/><path d="M616.143 268.201c-18.483-20.586-81.68 54.896-81.348 63.75 1.217 29.772 22.025 52.904 37.077 67.402 16.159 4.206 37.851 2.435 54.121 1.218 8.633-42.943 20.807-98.282-9.85-132.37z" fill="#F8B586"/><path d="M506.461 306.716c12.285 3.431 23.021 7.416 32.318 16.491 6.751 6.641 25.898-18.483 15.827-22.467-13.06-5.091-26.784-9.629-40.73-13.503-10.735-2.988-17.376 1.328-18.704 6.419-1.218 4.538 2.103 10.515 11.289 13.06zM505.797 339.92c14.278 2.656 25.677 5.423 36.413 20.696 5.977 8.633 29.772-19.147 18.262-23.574-14.942-5.644-30.326-10.846-46.263-15.273-12.175-3.431-19.922.885-20.365 6.419-.332 4.759 2.435 10.514 11.953 11.732zM510.445 275.727c12.175 3.652 22.911 7.858 31.986 17.155 6.641 6.751 21.914-1.771 26.12-6.198 4.316-4.427.111-11.732-9.85-15.938-13.06-5.423-26.563-10.182-40.508-14.388-10.736-3.21-20.476-2.988-22.246 4.649-1.439 5.865 5.312 11.953 14.498 14.72zM599.099 253.37c-8.523-7.969-44.271-39.401-55.339-39.623-6.309-.11-10.183 4.206-8.965 9.851.996 4.98 5.091 9.518 8.633 13.613 6.862 8.079 16.712 14.831 23.021 22.135 3.32 3.985 10.957 14.942 15.605 17.488 7.305 3.984 26.009-15.163 17.045-23.464zM585.817 630.78c10.183-61.979 35.196-187.93 40.287-230.099-17.819-15.162-33.314-2.324-54.343-1.881-14.72 46.152-46.484 140.56-65.964 201.101 0 0 50.359 42.057 80.02 30.879z" fill="#F8B586"/><path d="M588.363 366.372l-70.281-25.899c-7.083-2.656-10.735-10.514-8.079-17.598l63.086-171.328c2.656-7.084 10.514-10.736 17.598-8.08l70.28 25.899c7.083 2.656 10.736 10.514 8.079 17.597L605.96 358.292c-2.656 7.083-10.514 10.625-17.597 8.08z" fill="gray"/><path d="M590.133 361.28l-70.28-25.898c-7.084-2.656-10.736-10.514-8.08-17.598l63.087-171.329c2.656-7.083 10.514-10.735 17.597-8.079l70.28 25.899c7.084 2.656 10.736 10.514 8.08 17.597l-63.086 171.329c-2.657 7.083-10.515 10.736-17.598 8.079z" fill="#404040"/><path d="M633.74 165.16l-12.064-4.427a1.72 1.72 0 0 1-.996-2.214 1.72 1.72 0 0 1 2.214-.996l12.064 4.427a1.72 1.72 0 0 1 .996 2.214c-.332.775-1.328 1.328-2.214.996zM616.143 156.859a1.72 1.72 0 0 1-2.214.996 1.72 1.72 0 0 1-.996-2.213 1.72 1.72 0 0 1 2.214-.996 1.72 1.72 0 0 1 .996 2.213zM558.811 343.461a5.202 5.202 0 1 0 0-10.404 5.202 5.202 0 0 0 0 10.404z" fill="gray"/><path d="M664.164 187.202l-88.309-31.959-56.886 157.185 88.308 31.96 56.887-157.186z" fill="#F04350"/><path d="M652.121 220.558l-88.309-31.959-27.643 76.38 88.309 31.96 27.643-76.381z" fill="#fff"/><path d="M603.403 234.698c-4.093-4.209-10.431-4.874-15.263-2.006l3.328 7.074a1.59 1.59 0 0 1-.767 2.129 1.6 1.6 0 0 1-2.129-.767l-3.027-6.432-20.98 20.402a2.27 2.27 0 0 0-.668 1.856 2.25 2.25 0 0 0 2.476 1.988l14.799-1.61-2.966-6.304a1.59 1.59 0 0 1 .767-2.129 1.608 1.608 0 0 1 2.129.767l3.436 7.304 11.299-1.232a12.409 12.409 0 0 0 7.317-3.442c4.929-4.791 5.041-12.669.249-17.598zm9.861-.163c3.218-3.173 3.898-8.047 1.274-12.493-6.153 2.222-8.593 8.346-5.897 14.042l.482 1.025c2.67 5.708 8.953 7.736 14.579 4.409-1.753-4.856-5.942-7.44-10.438-6.983z" fill="#F04350"/><path d="M648.044 200.823c-.204 0-.409 0-.614-.102l-67.521-24.451a1.715 1.715 0 0 1-1.023-2.148 1.715 1.715 0 0 1 2.149-1.023l67.521 24.451a1.714 1.714 0 0 1 1.023 2.148c-.205.716-.819 1.125-1.535 1.125zM644.873 209.622c-.205 0-.409 0-.614-.103l-67.521-24.45a1.715 1.715 0 0 1-1.023-2.149 1.714 1.714 0 0 1 2.148-1.023l67.521 24.451a1.715 1.715 0 0 1 1.024 2.148c-.205.717-.819 1.126-1.535 1.126zM552.799 283.076c-1.228 3.274-4.809 5.013-8.185 3.786-3.273-1.228-5.013-4.809-3.785-8.185 1.228-3.273 4.808-5.013 8.184-3.785 3.274 1.33 5.013 4.911 3.786 8.184zM607.225 313.154c-.205 0-.409 0-.614-.102l-50.948-18.415a1.715 1.715 0 0 1-1.023-2.149 1.715 1.715 0 0 1 2.149-1.023l50.947 18.415a1.713 1.713 0 0 1 1.023 2.148c-.204.717-.818 1.126-1.534 1.126zM604.36 321.031c-.205 0-.409 0-.614-.102l-50.947-18.415a1.713 1.713 0 0 1-1.023-2.148 1.713 1.713 0 0 1 2.148-1.023l50.948 18.415a1.714 1.714 0 0 1 1.023 2.148c-.205.716-.819 1.125-1.535 1.125zM610.089 305.174c-.204 0-.409 0-.614-.102l-50.947-18.415a1.713 1.713 0 0 1-1.023-2.148 1.713 1.713 0 0 1 2.148-1.023l50.948 18.414a1.715 1.715 0 0 1 1.023 2.149c-.205.716-.819 1.125-1.535 1.125z" fill="#fff"/><path d="M583.161 388.839c-6.419-.553-16.823-33.867 2.878-64.746-15.827-4.427-35.196-16.381-26.563-23.796 5.977-5.091 37.52 1.55 45.599 5.755 9.076 9.408 20.586 28.112 23.242 35.085.111 0-43.275 39.069-45.156 47.702z" fill="#F8B586"/><path d="M586.149 324.314c-2.103 5.534-4.316 10.957-5.976 16.602-1.661 5.534-2.878 11.178-3.21 16.823-.332 5.644.443 11.289 2.103 16.823 1.66 5.423 4.316 10.735 7.194 15.937-4.206-4.205-7.748-9.186-10.072-14.831-2.324-5.644-3.431-11.842-3.099-17.929.332-6.088 1.882-12.064 4.206-17.598 2.324-5.866 5.313-11.068 8.854-15.827z" fill="#FF9549"/><path d="M565.564 412.967c17.597-2.214 50.026 7.194 57.552 10.846 5.644 2.214 2.213 25.899-2.767 28.666l-63.64-10.957c-.553-4.649 1.439-21.14 8.855-28.555z" fill="#1D3557"/><path d="M478.239 663.098c23.463-78.47 60.208-169.115 78.47-221.687 19.59-1.882 41.283 2.103 63.64 10.957-4.206 62.976-13.06 194.239-22.911 275.476-45.267-15.163-85.775-37.298-119.199-64.746z" fill="#457B9D"/><path d="M540.218 703.606c-22.578-11.621-43.385-25.235-61.979-40.619 23.463-78.47 60.208-169.115 78.47-221.687 3.542-.332 7.083-.443 10.736-.443-24.903 86.993-29.44 209.181-27.227 262.749z" fill="#1D3557"/><path d="M566.67 435.434c-18.483 63.751-36.855 127.611-55.338 191.362-3.21-1.439-6.309-2.989-9.519-4.649 22.468-61.536 43.718-123.848 63.75-186.713h1.107z" fill="#1D3557"/><path opacity=".2" d="M549.736 169.919l-50.911-18.483c-3.321-1.217-6.973.553-8.191 3.874l-5.644 15.605c-1.218 3.321.553 6.973 3.874 8.19l46.041 16.713 6.973 14.83 6.087-16.823 1.771-4.98 3.874-10.625c1.217-3.431-.443-7.194-3.874-8.301z" fill="#000A49"/><path d="M549.736 160.29l-50.911-18.483c-3.321-1.217-6.973.553-8.191 3.874l-5.644 15.605c-1.218 3.321.553 6.973 3.874 8.19l46.041 16.713 6.973 14.83 6.087-16.823 1.771-4.98 3.874-10.625c1.217-3.431-.443-7.083-3.874-8.301z" fill="#fff"/><path d="M529.483 168.48c-.664 1.771.221 3.653 1.992 4.317 1.771.664 3.652-.222 4.316-1.993.664-1.77-.221-3.652-1.992-4.316-1.771-.664-3.652.221-4.316 1.992zM516.201 163.611c-.664 1.77.222 3.652 1.992 4.316 1.771.664 3.653-.221 4.317-1.992.664-1.771-.222-3.653-1.992-4.317-1.771-.664-3.653.332-4.317 1.993zM502.92 158.741c-.664 1.77.221 3.652 1.992 4.316 1.771.664 3.653-.221 4.317-1.992.664-1.771-.222-3.652-1.993-4.317-1.77-.553-3.652.332-4.316 1.993z" fill="#AC2D37"/><path opacity=".2" d="M715.753 302.289l-95.736-34.642c-9.85-3.541-14.831-14.388-11.289-24.127 3.541-9.851 14.388-14.831 24.127-11.29l95.736 34.642c9.851 3.542 14.831 14.389 11.29 24.128-3.542 9.74-14.389 14.831-24.128 11.289z" fill="#000A49"/><path d="M715.753 292.771l-95.736-34.642c-9.85-3.542-14.83-14.388-11.289-24.128 3.542-9.85 14.388-14.831 24.128-11.289l95.736 34.642c9.85 3.542 14.831 14.388 11.289 24.128s-14.388 14.831-24.128 11.289z" fill="#fff"/><path d="M723.5 268.865c-.221 0-.332 0-.554-.111l-93.301-33.757c-.774-.332-1.217-1.106-.885-1.881.332-.775 1.107-1.218 1.882-.886l93.301 33.757c.774.332 1.217 1.107.885 1.882-.111.664-.664.996-1.328.996zM720.955 276.059c-.222 0-.332 0-.554-.111l-56.335-20.475c-.774-.332-1.217-1.107-.885-1.882.332-.774 1.107-1.217 1.881-.885l56.335 20.475c.775.332 1.218 1.107.886 1.882-.111.553-.775.996-1.328.996zM657.094 252.927c-.222 0-.332 0-.554-.111l-29.44-10.625c-.775-.332-1.217-1.106-.885-1.881.332-.775 1.106-1.218 1.881-.886l29.44 10.626c.775.332 1.218 1.106.886 1.881-.222.553-.775.996-1.328.996zM692.953 273.956c-.221 0-.332 0-.553-.111l-67.845-24.57c-.775-.332-1.218-1.107-.886-1.882.332-.775 1.107-1.217 1.882-.885l67.845 24.57c.775.332 1.217 1.107.885 1.882-.11.553-.774.996-1.328.996z" fill="#AC2D37"/><path opacity=".2" d="M730.472 195.264l-35.638-12.838c-3.32-1.218-6.973.553-8.19 3.873l-10.957 30.215c-1.218 3.321.553 6.973 3.874 8.19l11.621 4.206 1.881 14.72 10.736-10.182 11.4 4.095c3.32 1.217 6.972-.553 8.19-3.874l10.957-30.215c1.107-3.32-.553-6.972-3.874-8.19z" fill="#000A49"/><path d="M730.472 185.746l-35.638-12.839c-3.32-1.217-6.973.554-8.19 3.874l-10.957 30.215c-1.218 3.32.553 6.973 3.874 8.19l11.621 4.206 1.881 14.72 10.736-10.182 11.4 4.095c3.32 1.217 6.972-.554 8.19-3.874l10.957-30.215c1.107-3.32-.553-6.973-3.874-8.19z" fill="#AC2D37"/><path opacity=".2" d="M547.217 148.067c3.396-6.432.934-14.399-5.498-17.795-6.433-3.395-14.4-.934-17.795 5.499-3.396 6.432-.934 14.399 5.499 17.795 6.432 3.395 14.399.933 17.794-5.499z" fill="#000A49"/><path d="M547.16 138.473c3.396-6.432.934-14.399-5.499-17.795-6.432-3.395-14.399-.933-17.794 5.499-3.396 6.433-.934 14.4 5.498 17.795 6.433 3.395 14.4.934 17.795-5.499z" fill="#fff"/><path d="M535.127 133.395c-3.32-1.217-6.972.554-8.19 3.874l12.064 4.317c1.218-3.321-.553-6.973-3.874-8.191zM535.681 132.067c1.881.664 3.984-.332 4.648-2.213.664-1.882-.332-3.985-2.213-4.649-1.882-.664-3.985.332-4.649 2.214-.664 1.881.332 3.984 2.214 4.648z" fill="#F04350"/><path d="M713.683 197.475l.544-1.492c1.199-3.289-.629-6.987-4.075-8.243-3.446-1.256-7.224.398-8.423 3.687l-.544 1.491-4.687-1.708-4.621 12.676c-.75 2.059.39 4.365 2.547 5.151l14.06 5.126c2.157.786 4.515-.245 5.265-2.304l4.621-12.676-4.687-1.708zm-8.83-4.909c.6-1.644 2.489-2.471 4.212-1.843 1.723.628 2.637 2.477 2.037 4.121l-.543 1.492-6.249-2.279.543-1.491zm5.773 8.44c-.647-.236-.989-.928-.764-1.546.225-.617.932-.927 1.579-.691.647.236.989.928.764 1.546-.225.617-.932.927-1.579.691zm-9.374-3.417c-.647-.236-.989-.928-.764-1.546.226-.617.933-.927 1.58-.691.647.236.989.928.764 1.546-.225.617-.933.927-1.58.691z" fill="#fff"/><path d="M145.985 335.603C129.052 313.8 38.075 350.434 42.17 358.292c20.032 38.073 33.757 50.137 59.766 59.213 16.269-3.431 37.298-9.851 49.805-25.345-.886-8.855.553-48.366-5.756-56.557zM70.946 283.806c-10.072-5.976-51.687-28.997-62.533-26.894-6.198 1.217-8.965 6.308-6.64 11.621 2.102 4.648 6.972 8.19 11.288 11.4 8.412 6.419 19.48 10.846 27.227 16.712 4.095 3.099 13.835 12.174 19.037 13.724 7.968 2.435 22.135-20.254 11.62-26.563z" fill="#DB7627"/><path d="M264.41 574.335c-28.997-55.671-91.641-150.079-112.78-186.935-23.353-1.438-46.153 11.4-49.694 30.105 15.826 45.82 74.375 147.422 94.961 207.631 27.116-19.369 50.358-24.017 67.513-50.801z" fill="#DB7627"/><path d="M128.498 387.179l-74.375 8.412c-7.526.885-14.277-4.538-15.163-12.064L18.595 202.126c-.885-7.526 4.538-14.277 12.064-15.162l74.376-8.412c7.526-.885 14.277 4.538 15.162 12.064l20.476 181.4c.774 7.526-4.649 14.278-12.175 15.163z" fill="gray"/><path d="M127.945 381.867l-74.376 8.411c-7.526.885-14.277-4.538-15.163-12.064l-20.475-181.4c-.885-7.526 4.538-14.278 12.064-15.163l74.375-8.412c7.526-.885 14.278 4.538 15.163 12.064l20.475 181.401c.886 7.526-4.537 14.277-12.063 15.163z" fill="#404040"/><path d="M78.915 186.963l-12.839 1.439c-.885.111-1.77-.553-1.881-1.549-.11-.886.553-1.771 1.55-1.882l12.838-1.439c.885-.11 1.77.554 1.882 1.55 0 .885-.665 1.771-1.55 1.881zM59.435 187.406c.11.886-.553 1.771-1.55 1.882-.885.11-1.77-.554-1.88-1.55-.111-.996.553-1.771 1.549-1.881.996-.111 1.77.664 1.881 1.549zM94.742 374.672c.332 2.878-1.77 5.424-4.649 5.756-2.877.332-5.423-1.771-5.755-4.649-.332-2.877 1.771-5.423 4.649-5.755 2.877-.221 5.423 1.771 5.755 4.648z" fill="gray"/><path d="M117.1 195.839l-93.733 10.632 18.924 166.84 93.733-10.631L117.1 195.839z" fill="#F04350"/><path d="M123.906 255.469l-93.733 10.632 9.196 81.072 93.733-10.632-9.196-81.072zM39.098 247.792a1.662 1.662 0 0 1-1.644-1.439c-.103-.925.514-1.747 1.439-1.85l71.728-8.118c.925-.103 1.747.514 1.85 1.439.103.924-.514 1.746-1.439 1.849l-71.728 8.119h-.206zM40.126 257.246a1.662 1.662 0 0 1-1.644-1.439c-.103-.925.514-1.747 1.439-1.85l71.728-8.118c.925-.103 1.747.514 1.85 1.439.103.925-.514 1.747-1.439 1.849l-71.728 8.119c-.103-.103-.103 0-.206 0zM62.323 354.357c.41 3.494-2.158 6.68-5.652 7.091-3.494.411-6.68-2.158-7.09-5.652-.412-3.494 2.157-6.68 5.651-7.091 3.494-.308 6.68 2.158 7.09 5.652zM68.9 355.076a1.661 1.661 0 0 1-1.645-1.439c-.102-.924.514-1.747 1.44-1.849l54.053-6.166c.924-.103 1.747.514 1.849 1.439.103.924-.513 1.747-1.438 1.849l-54.054 6.166H68.9z" fill="#fff"/><path d="M109.572 396.919c-6.088-2.546-.996-32.097 25.677-60.873-4.206-14.167-5.755-53.014 9.186-53.568 7.194-.332 17.155 54.343 17.155 54.343s-2.546 25.234-9.74 55.449c0 0-38.405-4.427-42.278 4.649z" fill="#DB7627"/><path d="M135.581 336.378c-3.874 4.095-7.637 8.301-10.957 12.728-3.32 4.427-6.198 9.076-8.522 14.056-2.435 4.87-4.206 10.072-5.755 15.384-1.439 5.313-2.546 10.847-3.542 16.38-.664-5.644-.554-11.399.332-17.155a58.37 58.37 0 0 1 5.202-16.491 60.367 60.367 0 0 1 9.739-14.277c3.985-4.206 8.522-7.858 13.503-10.625z" fill="#80491F"/><path d="M316.871 607.316c-51.797-70.833-105.143-153.952-142.442-200.436-28.997 5.423-51.797 16.269-76.367 38.294 26.895 62.09 82.897 191.361 121.967 269.832 40.176-31.433 73.157-68.067 96.842-107.69z" fill="#C1C9E7"/><path d="M174.54 406.88c-3.542.664-6.973 1.438-10.404 2.213 26.231 43.164 50.359 92.416 70.613 146.205 14.609 38.848 26.23 77.253 34.863 114.441 18.373-19.701 34.199-40.619 47.37-62.423-51.797-70.833-105.144-153.952-142.442-200.436z" fill="#98A4D1"/><path d="M40.73 348.663c-3.873-.664-7.636-.11-9.517 2.103-3.431 4.095-1.993 12.728 2.434 15.938 1.993 1.439 4.096 1.881 6.31 2.103 4.316.553 9.407.221 12.506-3.542 7.083-8.633-6.198-15.716-11.732-16.602zM49.142 342.355c7.97-9.851-7.083-17.93-13.392-18.926-4.427-.775-8.743-.111-10.846 2.435-3.874 4.648-2.324 14.499 2.767 18.151 2.213 1.549 4.759 2.103 7.194 2.435 4.87.553 10.736.221 14.277-4.095zM27.228 319.223c2.214 1.55 4.649 2.103 6.973 2.435 4.87.553 10.514.221 13.945-3.984 7.858-9.629-6.862-17.487-13.17-18.594-4.317-.775-8.523-.111-10.625 2.435-3.763 4.427-2.214 14.056 2.877 17.708z" fill="#DB7627"/><path opacity=".2" d="M86.33 151.104l-1.881-16.491c-.443-3.542-3.542-6.087-7.084-5.645l-37.63 4.317c-3.542.442-6.087 3.541-5.645 7.083l1.882 16.491c.442 3.542 3.541 6.087 7.083 5.645l12.285-1.439 8.19 12.396 5.092-13.946 12.064-1.328c3.541-.443 5.976-3.652 5.644-7.083z" fill="#000A49"/><path d="M86.33 141.475l-1.881-16.491c-.443-3.542-3.542-6.087-7.084-5.645l-37.63 4.317c-3.542.442-6.087 3.541-5.645 7.083l1.882 16.491c.442 3.542 3.541 6.087 7.083 5.645l12.285-1.439 8.19 12.396 5.092-13.946 12.064-1.328c3.541-.332 5.976-3.541 5.644-7.083z" fill="#fff"/><path opacity=".2" d="M191.381 226.937L62.995 241.546c-10.403 1.217-19.7-6.309-20.917-16.602-1.218-10.403 6.308-19.7 16.601-20.918l128.386-14.609c10.404-1.218 19.701 6.308 20.918 16.601 1.218 10.404-6.198 19.812-16.602 20.919z" fill="#000A49"/><path d="M191.917 218.082l-128.386 14.61c-10.404 1.217-19.7-6.309-20.918-16.602-1.218-10.404 6.309-19.701 16.602-20.918L187.6 180.563c10.404-1.218 19.701 6.308 20.918 16.601 1.218 10.404-6.198 19.701-16.601 20.918z" fill="#fff"/><path d="M88.986 204.672c-.775 0-1.439-.554-1.439-1.328-.11-.775.443-1.55 1.328-1.661l98.614-11.178c.775-.111 1.549.443 1.66 1.328.111.775-.443 1.55-1.328 1.66l-98.614 11.179h-.221zM128.831 207.771c-.775 0-1.439-.554-1.439-1.328-.111-.775.442-1.55 1.328-1.661l59.544-6.751c.775-.111 1.55.443 1.661 1.328.11.775-.443 1.55-1.329 1.66l-59.544 6.752h-.221zM89.872 212.198c-.775 0-1.439-.554-1.439-1.328-.11-.775.443-1.55 1.328-1.661l31.1-3.541c.775-.111 1.55.442 1.661 1.328.11.775-.443 1.549-1.328 1.66l-31.1 3.542h-.222zM90.646 219.835c-.775 0-1.439-.554-1.439-1.329-.11-.774.443-1.549 1.329-1.66l71.719-8.079c.774-.111 1.549.443 1.66 1.328.11.775-.443 1.549-1.328 1.66l-71.72 8.08h-.22zM72.635 209.3l-.144-1.256c-.317-2.769-2.936-4.753-5.838-4.42-2.902.332-5.005 2.856-4.688 5.626l.144 1.256-3.947.452 1.223 10.675c.199 1.734 1.832 2.971 3.649 2.763l11.84-1.357c1.817-.208 3.129-1.782 2.93-3.516l-1.222-10.675-3.947.452zm-8.038-.351c-.159-1.385.893-2.647 2.343-2.814 1.451-.166 2.76.826 2.92 2.211l.143 1.256-5.262.602-.144-1.255zm7.118 3.956c-.546.062-1.036-.309-1.095-.829-.06-.52.334-.993.879-1.055.545-.063 1.035.309 1.094.829.06.52-.334.992-.879 1.055zm-7.895.904c-.544.062-1.035-.309-1.094-.829-.06-.52.334-.993.879-1.055.545-.062 1.035.309 1.094.829.06.52-.334.992-.878 1.055z" fill="#AC2D37"/><path d="M89.461 289.895c-4.681-2.283-10.172-.933-13.343 2.914l4.904 4.903c.56.56.56 1.457 0 2.008-.276.275-.64.418-1.004.418s-.729-.143-1.004-.418l-4.46-4.46-11.38 23.338a2.015 2.015 0 0 0 0 1.75 1.998 1.998 0 0 0 2.665.915l11.87-5.792-4.372-4.371a1.41 1.41 0 0 1 0-2.008 1.426 1.426 0 0 1 2.008 0l5.064 5.064 9.061-4.424a11.01 11.01 0 0 0 5.073-5.073c2.674-5.481.4-12.09-5.082-14.764zm8.182-3.101c1.733-3.615.835-7.888-2.692-10.811-4.468 3.705-4.663 9.55-.701 13.494l.71.711c3.945 3.962 9.799 3.767 13.495-.702-2.923-3.527-7.196-4.424-10.812-2.692z" fill="#F04350"/><path d="M65.048 137.695a3.93 3.93 0 0 0-2.28 1.071l-4.354-1.947a3.518 3.518 0 0 0-.186-1.579l3.782-2.907c.71.419 1.569.618 2.466.512 2.105-.248 3.618-2.077 3.382-4.086-.237-2.009-2.135-3.436-4.24-3.188-2.104.248-3.617 2.078-3.38 4.086.031.272.094.532.183.779l-3.782 2.907a3.931 3.931 0 0 0-2.466-.512c-2.105.248-3.619 2.077-3.382 4.086.237 2.009 2.135 3.436 4.24 3.188a3.932 3.932 0 0 0 2.279-1.072l4.354 1.948c-.03.266-.029.534.002.8.237 2.008 2.135 3.436 4.24 3.188 2.104-.248 3.618-2.078 3.38-4.087-.236-2.008-2.134-3.435-4.238-3.187z" fill="#AC2D37"/></g></svg>