<svg width="106" height="183" fill="none" xmlns="http://www.w3.org/2000/svg"><path d="M0 7.625A7.625 7.625 0 017.626 0h90.748A7.625 7.625 0 01106 7.625v167.75A7.625 7.625 0 0198.374 183H7.626A7.626 7.626 0 010 175.375V7.625z" fill="#fff"/><path d="M0 6.003A6.001 6.001 0 016 0h94c3.314 0 6 2.688 6 6.003v99.045H0V6.003z" fill="#E6FF8E"/><path d="M13.084 120.653l-2.922-2.699v2.699h-.653v-5.668h.653v2.603l2.786-2.603h.836l-2.961 2.762 3.112 2.906h-.851zM14.475 116.649h.645v4.004h-.645v-4.004zm.725-1.696v.732h-.788v-.732h.788zM17.232 117.158v2.19c0 .297.061.506.183.629.122.116.295.175.518.175a1.3 1.3 0 00.43-.072v.549c-.165.053-.35.08-.558.08-.382 0-.682-.106-.9-.319-.212-.217-.318-.536-.318-.955v-2.277h-.78v-.509h.78v-1.027l.645-.231v1.258h1.146v.509h-1.146zM24.758 114.794v5.859h-.637v-.724a1.287 1.287 0 01-.533.581 1.628 1.628 0 01-.82.199c-.35 0-.66-.088-.932-.263a1.755 1.755 0 01-.62-.732 2.574 2.574 0 01-.224-1.099c0-.414.072-.775.215-1.083.15-.313.359-.554.63-.724.27-.17.58-.255.93-.255.314 0 .587.069.82.207.235.133.41.321.526.565v-2.531h.645zm-1.863 5.382c.393 0 .696-.133.908-.399.212-.27.318-.652.318-1.146 0-.488-.106-.865-.318-1.13-.212-.271-.515-.406-.908-.406-.392 0-.7.132-.923.398-.218.265-.327.639-.327 1.122 0 .494.11.879.327 1.155.223.27.53.406.923.406zM29.357 118.631h-2.938c.005.51.122.894.35 1.154.234.261.57.391 1.011.391.467 0 .897-.157 1.29-.47l.215.47c-.175.164-.4.294-.677.39-.27.095-.549.143-.836.143-.626 0-1.117-.183-1.472-.549-.356-.372-.534-.879-.534-1.521 0-.409.08-.77.239-1.083.16-.318.382-.565.669-.74.286-.175.613-.263.979-.263.53 0 .947.175 1.25.526.303.345.454.822.454 1.433v.119zm-1.696-1.576c-.334 0-.608.101-.82.302-.207.202-.34.486-.398.852h2.333c-.032-.377-.144-.663-.335-.86-.186-.196-.446-.294-.78-.294zM34.41 116.553c.35 0 .66.088.931.263.27.175.48.422.629.74.149.313.223.677.223 1.091 0 .414-.074.778-.223 1.091a1.69 1.69 0 01-.629.716 1.69 1.69 0 01-.931.255c-.313 0-.587-.069-.82-.207a1.336 1.336 0 01-.534-.589v2.46h-.645v-4.602c0-.414-.02-.788-.063-1.122h.613l.063.772c.112-.276.287-.488.526-.637.244-.154.53-.231.86-.231zm-.12 3.623c.393 0 .696-.133.908-.399.217-.265.326-.642.326-1.13 0-.488-.109-.868-.326-1.138-.218-.276-.52-.414-.908-.414-.398 0-.703.132-.915.398-.213.265-.319.644-.319 1.138 0 .494.106.876.319 1.146.212.266.517.399.915.399zM39.048 116.553c.133 0 .255.016.366.048l-.016.589a1.294 1.294 0 00-.422-.064c-.387 0-.676.122-.867.367-.186.238-.28.53-.28.875v2.285h-.644v-2.882c0-.414-.021-.788-.064-1.122h.613l.064.74c.1-.271.263-.478.486-.621.223-.143.477-.215.764-.215zM41.648 120.709c-.377 0-.709-.085-.996-.255a1.734 1.734 0 01-.668-.724c-.154-.313-.231-.68-.231-1.099 0-.419.077-.785.23-1.099.16-.313.383-.554.67-.724.286-.17.618-.255.995-.255.376 0 .708.085.995.255.286.17.507.411.66.724.16.314.24.68.24 1.099 0 .419-.08.786-.24 1.099a1.683 1.683 0 01-.66.724c-.287.17-.619.255-.995.255zm0-.533c.398 0 .703-.13.915-.391.212-.265.319-.65.319-1.154 0-.488-.11-.865-.327-1.13-.217-.271-.52-.406-.907-.406-.393 0-.698.135-.916.406-.218.265-.326.642-.326 1.13 0 .504.106.889.318 1.154.218.261.526.391.924.391zM48.074 114.794v5.859h-.636v-.724a1.287 1.287 0 01-.534.581 1.628 1.628 0 01-.82.199c-.35 0-.66-.088-.931-.263a1.755 1.755 0 01-.621-.732 2.574 2.574 0 01-.223-1.099c0-.414.071-.775.215-1.083.148-.313.358-.554.629-.724.27-.17.58-.255.931-.255.313 0 .587.069.82.207.234.133.409.321.526.565v-2.531h.644zm-1.862 5.382c.392 0 .695-.133.907-.399.212-.27.319-.652.319-1.146 0-.488-.107-.865-.319-1.13-.212-.271-.515-.406-.907-.406-.393 0-.701.132-.924.398-.218.265-.326.639-.326 1.122 0 .494.108.879.326 1.155.223.27.53.406.924.406zM52.673 116.649v4.004h-.629v-.692a1.324 1.324 0 01-.533.557 1.561 1.561 0 01-.773.191c-.472 0-.83-.133-1.074-.398-.245-.265-.367-.658-.367-1.178v-2.484h.645v2.468c0 .361.075.626.223.796.149.17.374.255.677.255.355 0 .642-.115.86-.343.217-.233.326-.538.326-.915v-2.261h.645zM55.596 120.709c-.387 0-.727-.085-1.02-.255a1.743 1.743 0 01-.668-.716 2.445 2.445 0 01-.23-1.091c0-.414.079-.778.238-1.091a1.76 1.76 0 01.677-.74 2.002 2.002 0 011.035-.263c.27 0 .53.048.78.143.255.091.464.218.629.383l-.215.477a2.317 2.317 0 00-.59-.35 1.536 1.536 0 00-.572-.111c-.41 0-.73.138-.964.414-.233.27-.35.65-.35 1.138 0 .483.114.86.342 1.13.234.266.558.399.972.399.196 0 .387-.038.573-.112.19-.074.387-.191.589-.35l.215.477a1.87 1.87 0 01-.645.383c-.255.09-.52.135-.796.135zM58.725 117.158v2.19c0 .297.061.506.183.629.123.116.295.175.518.175a1.3 1.3 0 00.43-.072v.549c-.165.053-.35.08-.557.08-.383 0-.682-.106-.9-.319-.212-.217-.318-.536-.318-.955v-2.277h-.78v-.509h.78v-1.027l.644-.231v1.258h1.147v.509h-1.147zM62.305 120.709c-.377 0-.709-.085-.995-.255a1.734 1.734 0 01-.669-.724c-.154-.313-.23-.68-.23-1.099 0-.419.076-.785.23-1.099.16-.313.382-.554.669-.724.286-.17.618-.255.995-.255s.708.085.995.255c.287.17.507.411.66.724.16.314.24.68.24 1.099 0 .419-.08.786-.24 1.099a1.683 1.683 0 01-.66.724c-.287.17-.618.255-.995.255zm0-.533c.398 0 .703-.13.915-.391.213-.265.319-.65.319-1.154 0-.488-.109-.865-.327-1.13-.217-.271-.52-.406-.907-.406-.393 0-.698.135-.916.406-.217.265-.326.642-.326 1.13 0 .504.106.889.318 1.154.218.261.526.391.924.391zM66.558 120.709c-.674 0-1.207-.173-1.6-.518l.215-.477c.218.17.438.292.66.366.224.074.473.111.75.111.302 0 .53-.05.684-.151a.513.513 0 00.239-.454.49.49 0 00-.16-.382c-.106-.095-.28-.17-.525-.223l-.677-.159c-.334-.074-.594-.207-.78-.398a.962.962 0 01-.27-.685c0-.35.14-.634.421-.851.282-.223.653-.335 1.115-.335.281 0 .547.045.796.136.25.09.46.22.629.39l-.215.469c-.377-.313-.78-.469-1.21-.469-.287 0-.51.055-.669.167a.518.518 0 00-.23.454c0 .164.047.294.143.39.1.095.26.17.477.223l.677.167c.372.085.647.217.828.398.18.175.27.406.27.692 0 .345-.14.621-.421.828-.282.207-.664.311-1.147.311zM9.43 124.745h.644v5.86H9.43v-5.86zM11.326 126.6h.645v4.005h-.645V126.6zm.725-1.695v.732h-.788v-.732h.788zM17.666 126.505c.886 0 1.33.528 1.33 1.584v2.516h-.645v-2.484c0-.377-.067-.65-.2-.82-.127-.17-.337-.255-.628-.255-.34 0-.605.114-.797.342-.19.229-.286.539-.286.932v2.285h-.645v-2.484c0-.372-.066-.642-.2-.812-.132-.175-.344-.263-.636-.263-.34 0-.608.114-.804.342-.191.229-.287.539-.287.932v2.285h-.645v-2.882c0-.414-.02-.788-.063-1.123h.613l.063.701c.112-.255.277-.451.494-.589.223-.138.48-.207.772-.207.319 0 .579.063.78.191.202.127.35.324.446.589.122-.239.3-.427.534-.565.239-.144.507-.215.804-.215zM22.219 126.505c.35 0 .66.087.931.262.271.176.48.422.63.741.148.313.222.677.222 1.091 0 .414-.074.777-.223 1.09a1.693 1.693 0 01-.629.717c-.265.17-.575.255-.931.255-.313 0-.587-.069-.82-.207a1.339 1.339 0 01-.534-.59v2.46h-.644v-4.601c0-.414-.021-.788-.064-1.123h.613l.064.773c.111-.276.286-.489.525-.637.244-.154.53-.231.86-.231zm-.12 3.622c.393 0 .696-.133.908-.398.218-.265.326-.642.326-1.13 0-.489-.108-.868-.326-1.139-.218-.276-.52-.414-.908-.414-.398 0-.703.133-.915.398-.212.266-.319.645-.319 1.139 0 .493.107.875.319 1.146.212.265.517.398.915.398zM24.994 126.6h.645v4.005h-.645V126.6zm.725-1.695v.732h-.788v-.732h.788zM30.243 128.583h-2.938c.006.509.122.894.35 1.154.234.26.571.39 1.012.39.467 0 .897-.156 1.29-.47l.214.47c-.175.165-.4.295-.676.39-.271.096-.55.144-.836.144-.627 0-1.117-.184-1.473-.55-.356-.371-.534-.878-.534-1.52 0-.409.08-.77.24-1.083a1.78 1.78 0 01.668-.741 1.84 1.84 0 01.98-.262c.53 0 .947.175 1.25.525.302.345.453.823.453 1.433v.12zm-1.696-1.577c-.334 0-.607.101-.82.303-.207.202-.34.485-.398.852h2.333c-.032-.377-.143-.664-.334-.86-.186-.197-.446-.295-.78-.295zM34.351 130.095v.51h-3.383v-.446l2.524-3.049h-2.437v-.51h3.209v.47l-2.5 3.025h2.587zM38.753 126.6v4.005h-.637v-.725c-.117.25-.295.443-.534.581-.233.133-.507.2-.82.2-.355 0-.668-.085-.94-.255a1.712 1.712 0 01-.62-.717 2.594 2.594 0 01-.215-1.09c0-.414.074-.778.223-1.091.148-.319.355-.565.62-.741.272-.175.582-.262.932-.262.313 0 .587.069.82.207.234.138.412.331.534.581v-.693h.637zm-1.863 3.527c.392 0 .695-.133.907-.398.213-.271.319-.653.319-1.146 0-.494-.106-.873-.319-1.139-.212-.265-.515-.398-.907-.398-.393 0-.7.138-.924.414-.217.271-.326.65-.326 1.139 0 .488.109.865.326 1.13.218.265.526.398.924.398zM45.594 126.6l-1.87 4.371c-.197.456-.444.791-.741 1.003-.297.212-.664.358-1.099.438l-.135-.502c.377-.084.66-.199.852-.342.196-.138.358-.353.485-.645l.16-.358-1.696-3.965h.677l1.353 3.304 1.37-3.304h.644zM51.907 124.745v5.86h-.636v-.725c-.117.25-.295.443-.534.581a1.63 1.63 0 01-.82.2c-.35 0-.66-.088-.931-.263a1.752 1.752 0 01-.621-.733 2.566 2.566 0 01-.223-1.098c0-.414.071-.775.215-1.083.148-.313.358-.555.629-.724.27-.17.58-.255.931-.255.313 0 .587.069.82.207.234.132.409.321.526.565v-2.532h.644zm-1.863 5.382c.393 0 .696-.133.908-.398.212-.271.319-.653.319-1.146 0-.489-.107-.865-.319-1.131-.212-.271-.515-.406-.908-.406-.392 0-.7.133-.923.398-.218.266-.327.64-.327 1.123 0 .493.11.878.327 1.154.223.271.53.406.923.406zM56.506 128.583h-2.938c.006.509.122.894.35 1.154.234.26.571.39 1.011.39.468 0 .898-.156 1.29-.47l.215.47c-.175.165-.4.295-.676.39-.271.096-.55.144-.836.144-.627 0-1.118-.184-1.473-.55-.356-.371-.534-.878-.534-1.52 0-.409.08-.77.24-1.083a1.78 1.78 0 01.668-.741 1.84 1.84 0 01.98-.262c.53 0 .947.175 1.25.525.302.345.453.823.453 1.433v.12zm-1.696-1.577c-.334 0-.608.101-.82.303-.207.202-.34.485-.398.852h2.333c-.032-.377-.144-.664-.335-.86-.186-.197-.446-.295-.78-.295zM58.838 130.661c-.674 0-1.207-.173-1.6-.518l.215-.478c.217.17.438.292.66.367.224.074.473.111.749.111.302 0 .53-.05.685-.151a.514.514 0 00.239-.454.488.488 0 00-.16-.382c-.106-.096-.281-.17-.525-.223l-.677-.159c-.334-.075-.594-.207-.78-.398a.964.964 0 01-.27-.685c0-.35.14-.634.421-.852.281-.223.653-.334 1.115-.334.281 0 .546.045.796.135.25.09.459.22.629.39l-.215.47c-.377-.313-.78-.47-1.21-.47-.287 0-.51.056-.669.167a.52.52 0 00-.23.454c0 .165.047.295.142.39.101.096.26.17.478.223l.677.167c.371.085.647.218.828.398.18.176.27.406.27.693 0 .345-.14.621-.422.828-.28.207-.663.311-1.146.311zM61.434 126.6h.645v4.005h-.645V126.6zm.725-1.695v.732h-.788v-.732h.788zM65.33 126.505c.96 0 1.44.528 1.44 1.584v2.516h-.644v-2.484c0-.372-.075-.642-.223-.812-.149-.175-.382-.263-.7-.263-.372 0-.67.114-.893.342-.222.229-.334.537-.334.924v2.293h-.645v-2.882c0-.414-.021-.788-.064-1.123h.613l.064.717c.122-.26.305-.459.55-.597.244-.144.522-.215.835-.215zM69.525 125.271c-.213 0-.38.061-.502.183-.117.117-.175.321-.175.613v.533h.98v.51h-.98v3.495h-.645v-3.495h-.78v-.51h.78v-.613c0-.419.104-.735.31-.947.213-.218.507-.327.884-.327.186 0 .367.024.542.072v.549a1.528 1.528 0 00-.414-.063zM73.983 128.583h-2.937c.005.509.122.894.35 1.154.233.26.57.39 1.011.39a2.02 2.02 0 001.29-.47l.215.47c-.175.165-.401.295-.677.39-.27.096-.55.144-.836.144-.626 0-1.117-.184-1.473-.55-.355-.371-.533-.878-.533-1.52 0-.409.08-.77.239-1.083a1.78 1.78 0 01.668-.741 1.84 1.84 0 01.98-.262c.53 0 .947.175 1.25.525.302.345.453.823.453 1.433v.12zm-1.695-1.577c-.335 0-.608.101-.82.303-.207.202-.34.485-.398.852h2.332c-.032-.377-.143-.664-.334-.86-.186-.197-.446-.295-.78-.295zM76.642 130.661c-.388 0-.727-.085-1.02-.255a1.747 1.747 0 01-.668-.717 2.44 2.44 0 01-.23-1.09c0-.414.079-.778.238-1.091.16-.319.385-.565.677-.741a2.001 2.001 0 011.035-.262c.27 0 .53.048.78.143.255.09.464.218.629.382l-.215.478a2.319 2.319 0 00-.59-.35 1.517 1.517 0 00-.572-.112c-.41 0-.73.138-.964.414-.233.271-.35.65-.35 1.139 0 .483.114.859.342 1.13.234.265.558.398.972.398.196 0 .387-.037.573-.111.19-.075.387-.191.589-.351l.215.478c-.17.159-.385.287-.645.382-.255.09-.52.136-.796.136zM80.584 130.661c-.388 0-.727-.085-1.02-.255a1.746 1.746 0 01-.668-.717 2.44 2.44 0 01-.231-1.09c0-.414.08-.778.239-1.091.16-.319.385-.565.677-.741a2.001 2.001 0 011.034-.262c.271 0 .531.048.78.143.255.09.465.218.63.382l-.215.478a2.318 2.318 0 00-.59-.35 1.517 1.517 0 00-.573-.112c-.408 0-.73.138-.963.414-.233.271-.35.65-.35 1.139 0 .483.114.859.342 1.13.234.265.557.398.971.398.197 0 .388-.037.574-.111.19-.075.387-.191.589-.351l.215.478c-.17.159-.385.287-.645.382-.255.09-.52.136-.796.136zM82.846 126.6h.644v4.005h-.644V126.6zm.724-1.695v.732h-.788v-.732h.788zM86.399 130.661c-.377 0-.709-.085-.996-.255a1.737 1.737 0 01-.668-.725 2.46 2.46 0 01-.231-1.098c0-.42.077-.786.23-1.099.16-.313.383-.555.67-.724.286-.17.618-.255.995-.255.376 0 .708.085.995.255.286.169.507.411.66.724.16.313.24.679.24 1.099 0 .419-.08.785-.24 1.098a1.686 1.686 0 01-.66.725c-.287.17-.619.255-.995.255zm0-.534c.398 0 .703-.13.915-.39.212-.265.319-.65.319-1.154 0-.489-.11-.865-.327-1.131-.217-.271-.52-.406-.907-.406-.393 0-.698.135-.916.406-.218.266-.326.642-.326 1.131 0 .504.106.889.318 1.154.218.26.526.39.924.39zm-.231-4.044l.796-1.624h.748l-1.09 1.624h-.454zM91.297 126.505c.96 0 1.44.528 1.44 1.584v2.516h-.644v-2.484c0-.372-.074-.642-.223-.812-.148-.175-.382-.263-.7-.263-.372 0-.67.114-.892.342-.223.229-.335.537-.335.924v2.293H89.3v-2.882c0-.414-.022-.788-.064-1.123h.613l.064.717c.122-.26.305-.459.549-.597.244-.144.523-.215.836-.215z" fill="#444"/><path d="M13.496 153.587a1.4 1.4 0 01-.434 1.041c-.283.279-.666.454-1.147.525v.843h-.775v-.828a3.519 3.519 0 01-.95-.198 2.518 2.518 0 01-.76-.433l.334-.714c.44.344.917.534 1.429.57v-1.581a5.717 5.717 0 01-.86-.281 1.541 1.541 0 01-.584-.464c-.157-.208-.236-.476-.236-.805 0-.274.068-.522.205-.745a1.64 1.64 0 01.57-.563c.248-.152.532-.248.851-.289v-.843h.776v.836c.294.035.57.106.828.213.258.106.476.24.654.403l-.335.714a2.4 2.4 0 00-1.2-.547v1.649c.339.086.62.18.843.281.223.096.41.243.563.441.152.198.228.456.228.775zm-3.003-2.379c0 .178.061.322.183.434.121.106.294.197.517.273v-1.467a.979.979 0 00-.517.266.702.702 0 00-.183.494zm1.368 3.147c.213-.046.375-.129.487-.251a.71.71 0 00.167-.486.477.477 0 00-.167-.38 1.348 1.348 0 00-.487-.244v1.361zM16.297 151.657c.34 0 .639.073.897.22.258.142.458.345.6.608.142.259.213.558.213.897 0 .355-.08.669-.243.942a1.659 1.659 0 01-.7.631 2.4 2.4 0 01-1.056.221c-.34 0-.674-.056-1.003-.168-.33-.116-.6-.271-.813-.463l.327-.715c.491.375.993.563 1.504.563.34 0 .598-.084.776-.251.182-.172.273-.415.273-.73 0-.299-.093-.537-.28-.714-.183-.182-.43-.274-.738-.274-.213 0-.413.041-.6.122-.188.076-.353.19-.495.342h-.592v-3.185h3.39v.761h-2.433v1.474c.274-.188.598-.281.973-.281zM20.565 155.183c-.643 0-1.135-.235-1.474-.707-.334-.476-.502-1.167-.502-2.074 0-.892.168-1.574.502-2.045.34-.471.83-.707 1.474-.707s1.133.236 1.467.707c.34.466.51 1.148.51 2.045 0 .901-.17 1.591-.51 2.067-.334.476-.823.714-1.467.714zm0-.767c.35 0 .603-.16.76-.479.163-.324.244-.836.244-1.535 0-.69-.081-1.191-.244-1.505-.157-.319-.41-.479-.76-.479-.35 0-.605.16-.767.479-.157.314-.236.815-.236 1.505 0 .699.079 1.211.236 1.535.162.319.418.479.767.479zM25.123 155.183c-.644 0-1.135-.235-1.475-.707-.334-.476-.502-1.167-.502-2.074 0-.892.168-1.574.502-2.045.34-.471.831-.707 1.475-.707.643 0 1.132.236 1.466.707.34.466.51 1.148.51 2.045 0 .901-.17 1.591-.51 2.067-.334.476-.823.714-1.466.714zm0-.767c.35 0 .602-.16.76-.479.162-.324.243-.836.243-1.535 0-.69-.081-1.191-.243-1.505-.157-.319-.41-.479-.76-.479-.35 0-.606.16-.768.479-.157.314-.236.815-.236 1.505 0 .699.079 1.211.236 1.535.162.319.418.479.768.479z" fill="#C4C4C4"/><path d="M73.572 33.926l-13.104-9.264a5.762 5.762 0 00-3.397-1.05l-24.412.102c-1.395.022-2.673.867-3.703 1.808l-6.998 6.421a5.677 5.677 0 00-1.84 4.192v50.352a5.69 5.69 0 001.657 4.01l.672.677a5.705 5.705 0 004.047 1.684h43.397a5.732 5.732 0 004.317-1.968l.387-.445a5.705 5.705 0 001.388-3.717V38.576a5.723 5.723 0 00-2.41-4.65zm-2.542 9.25c0 2.296-2.695 3.542-4.448 2.055l-11.067-9.366c-2.381-1.633-.599-3.827-.599-3.827.446-1.8 2.535-2.624 4.098-1.618l10.789 6.99a2.69 2.69 0 011.227 2.26v3.506z" fill="#0071BE"/><path d="M74.2 86.969a5.695 5.695 0 01-4.317 1.968H26.487a5.705 5.705 0 01-4.047-1.684l-.672-.678a5.69 5.69 0 01-1.658-4.01v3.922a5.69 5.69 0 001.658 4.01l.672.677a5.706 5.706 0 004.047 1.684h43.396A5.732 5.732 0 0074.2 90.89l.388-.445a5.705 5.705 0 001.387-3.717v-3.922c0 1.364-.489 2.683-1.387 3.718l-.388.445zM54.924 32.038c.314-.561 1.044-1.705 3.148-2.055 0 0-.935-.693-3.85 0-1.658.393-4.273 3.732-2.03 5.882l11.066 9.366c1.06.897 4.208 1.378 5.15.65-1.585-.3-1.797-.62-1.826-.65l-11.067-9.366c-.781-.663-1.57-2.07-.591-3.827z" fill="#006299"/><path d="M73.572 33.926l-13.104-9.264a5.763 5.763 0 00-3.397-1.05l-2.856.015a5.666 5.666 0 012.922 1.035l13.104 9.264a5.674 5.674 0 012.403 4.643v48.152c0 1.363-.49 2.682-1.388 3.717l-.387.445a5.695 5.695 0 01-4.317 1.968h3.331a5.732 5.732 0 004.317-1.968l.387-.445a5.705 5.705 0 001.388-3.717V38.569a5.693 5.693 0 00-2.403-4.643z" fill="#006299"/><path d="M51.118 18.714H33.996v8.798h17.122v-8.798z" fill="#0071BE"/><path d="M52.769 20.63H32.345v-4.795c0-1.05.855-1.903 1.907-1.903h16.61c1.052 0 1.907.853 1.907 1.902v4.797z" fill="#EF4538"/><path d="M50.862 13.94h-2.929c1.052 0 1.907.852 1.907 1.902v4.796h2.929v-4.804a1.9 1.9 0 00-1.907-1.895z" fill="#CE3932"/><path d="M52.769 22.307H32.345v1.407H52.77v-1.407z" fill="#EF4538"/><path d="M33.529 15.754c0 .35.46.489.81.518a58.39 58.39 0 007.32.095c.35-.015.715-.044 1.022-.226.3-.183.512-.569.373-.89-.168-.393-.694-.451-1.125-.451-1.125.007-8.4-.73-8.4.954z" fill="#FC675B"/><path d="M52.769 22.307H49.7v1.407h3.068v-1.407z" fill="#CE3932"/><path d="M29.204 86.218l.285-50.047c0-1.589.672-3.112 1.84-4.191l6.648-7.428h-4.616l-8.985 7.428a5.677 5.677 0 00-1.84 4.191v44.2l6.668 5.847z" fill="#0093E5"/><path d="M35.114 55.24c0-2.443 2.68-4.418 5.982-4.418H68.62c.854 0 1.672.131 2.403.372C69.986 49.882 68.057 49 65.85 49H38.328c-3.31 0-5.983 1.975-5.983 4.417 0 1.808 1.476 3.36 3.58 4.045-.512-.656-.811-1.414-.811-2.223zM34.748 66.588c0-2.442 2.681-4.417 5.983-4.417h27.524c.854 0 1.672.131 2.403.372-1.037-1.312-2.966-2.194-5.172-2.194H37.962c-3.309 0-5.982 1.975-5.982 4.417 0 1.808 1.476 3.36 3.58 4.045-.52-.656-.812-1.414-.812-2.223zM35.114 76.946c0-2.442 2.68-4.417 5.982-4.417H68.62c.854 0 1.672.131 2.403.372-1.037-1.312-2.966-2.194-5.172-2.194H38.328c-3.31 0-5.983 1.975-5.983 4.417 0 1.807 1.476 3.36 3.58 4.045-.512-.656-.811-1.414-.811-2.223zM86.839 27.733s.007 2.692 1.044 5.638c1.078 3.06 2.498 5.011 3.629 4.63.63-.214-1.473-1.857-1.955-5.772-.321-2.639.207-5.351.207-5.351l-2.925.855z" fill="#006299"/><path d="M77.908 32.683c-.08-.594-1.7-2.004-3.802-2.01-2.096-.007-2.611-.996-2.692-1.51-.08-.515.991-3.167 8.08-4.49 7.09-1.323 15.245-.574 15.245-.574v2.765s-5.068.12-7.679 1.978c-2.61 1.857-3.126 3.835-3.126 3.835h-6.026v.006z" fill="#0071BE"/><path d="M82.655 32.476l-4.078-.02c-.08-.594-2.363-2.786-4.465-2.792-1.593-.007-2.276-.575-2.544-1.076-.134.267-.167.468-.147.575.08.514.595 1.503 2.691 1.51 2.096.006 3.722 1.416 3.803 2.01h6.018s.516-1.977 3.127-3.834c2.611-1.858 7.679-1.978 7.679-1.978v-.394s-5.021-.114-7.692 1.563c-2.719 1.71-4.392 4.436-4.392 4.436z" fill="#006299"/><path d="M91.987 67.85c0-5.01-3.769-7.93-3.488-9.88.282-1.951 4.044-2.505 3.488-8.21-.555-5.706-7.618-10.37-7.618-10.37v-5.444h-6.83v5.445s-7.062 4.663-7.618 10.368c-.556 5.706 3.207 6.26 3.488 8.21.281 1.951-3.488 4.87-3.488 9.881l-1.185 24.238a1.309 1.309 0 001.305 1.37h21.833c.75 0 1.339-.622 1.305-1.37L91.987 67.85z" fill="#CDEDEA"/><path d="M89.972 67.343c0-5.011-3.066-7.93-2.838-9.881.18-1.577 3.273-2.245 3.802-5.472H71.273c.53 3.234 3.401 3.895 3.589 5.472.228 1.95-2.839 4.87-2.839 9.88L71.06 89.73c-.027.742.455 1.37 1.065 1.37h17.755c.609 0 1.09-.621 1.064-1.37l-.97-22.386z" fill="#93D850"/><path d="M89.972 67.343c0-5.011-3.066-7.93-2.838-9.881.18-1.577 3.273-2.245 3.802-5.472h-2.858c-1.072 1.864-3.067 2.546-3.214 3.802-.228 1.95 2.839 4.87 2.839 9.88l.964 22.387c.026.742-.456 1.37-1.065 1.37h-16.53l-.013.3c-.027.742.455 1.37 1.065 1.37h17.755c.609 0 1.09-.621 1.064-1.37l-.97-22.386z" fill="#6EC646"/><path d="M71.273 51.99c-.3.949 5.303 1.063 9.393 1.016 4.09-.047 10.223-.174 10.27-1.016.047-.841-5.992-.788-10.223-.795-4.231-.006-9.205.054-9.44.795z" fill="#AAF45D"/><path d="M85.031 32.476h-8.134v5.94h8.134v-5.94z" fill="#0071BE"/><path d="M85.031 32.476h-1.399v5.94h1.4v-5.94zM94.739 24.112c.154.074 1.546.214 1.546.214v2.224l-1.546.328v-2.766z" fill="#006299"/><path opacity=".53" d="M77.888 33.966c.02.735.047 1.476.067 2.211.007.294.02.601.167.855.14.254.462.441.737.334.234-.093.355-.36.375-.614.02-.254-.047-.501-.054-.755-.027-.802.77-2.131.054-2.826-.67-.648-1.373.053-1.346.795zM74.567 28.521c.288 0 .556-.107.817-.234 1.071-.507 2.035-1.222 3.133-1.67 1.192-.487 2.49-.641 3.756-.902.127-.026.268-.06.342-.167.113-.16 0-.407-.181-.494-.181-.087-.388-.067-.59-.047a24.213 24.213 0 00-5.576 1.363c-.603.227-1.714.468-2.19.915-.481.468-.274 1.23.49 1.236zM73.208 50.36c-.174.989-.254 2.038.114 2.973.368.936 1.305 1.71 2.31 1.604.16-.02.334-.067.435-.188.087-.106.114-.247.127-.38.1-.929-.228-1.837-.388-2.76-.536-3.073.837-6.152 2.47-8.818.522-.855.134-1.797-.823-1.129-.784.548-1.446 1.804-1.935 2.605a17.376 17.376 0 00-2.31 6.093zM74.681 63.708c-.18.381-.2.815-.22 1.23-.155 4.342.28 8.704-.228 13.02-.275 2.305-.81 4.69-.074 6.888.18.54.555 1.135 1.125 1.129.696-.007 1.017-.862 1.104-1.55.16-1.283.16-2.579.16-3.875V68.638c0-1.483 0-2.98-.193-4.449-.134-1.009-1.105-1.69-1.674-.48z" fill="#fff"/><path d="M87.95 46.886l.804 3.154 1.767.654s-.375-2.505-1.024-3.72c-1.32-2.466-3.207-4.89-4.693-5.753-.482-.28-2.23-.715-2.23-.715 1.266.355 4.533 3.715 5.376 6.38z" fill="#B3CECB"/><path opacity=".3" d="M84.563 71.23a.73.73 0 01-1.46 0 .73.73 0 011.46 0z" fill="#fff"/><path opacity=".37" d="M83.404 70.91c-.06.08-.073.2-.006.274.04.053.114.073.18.067a.37.37 0 00.181-.08.306.306 0 00.12-.248c-.04-.26-.374-.153-.475-.013z" fill="#fff"/><path opacity=".3" d="M80.378 68.632a.73.73 0 01-1.46 0 .73.73 0 011.46 0z" fill="#fff"/><path opacity=".37" d="M79.22 68.311c-.06.08-.073.2-.006.274.04.054.113.074.18.067a.368.368 0 00.181-.08.306.306 0 00.12-.247c-.04-.26-.368-.154-.475-.014z" fill="#fff"/><path opacity=".3" d="M85.286 65.726a.73.73 0 01-1.46 0 .73.73 0 011.46 0z" fill="#fff"/><path opacity=".37" d="M84.134 65.405c-.06.08-.073.2-.007.274.04.053.114.073.181.067a.368.368 0 00.18-.08.306.306 0 00.121-.248c-.04-.254-.374-.147-.475-.013z" fill="#fff"/><path opacity=".3" d="M77.834 61.684c0 .327-.288.595-.642.595-.355 0-.643-.268-.643-.595 0-.327.288-.595.642-.595.355 0 .643.268.643.595z" fill="#fff"/><path opacity=".37" d="M76.817 61.417c-.054.066-.067.167-.007.227.04.04.1.06.16.053a.344.344 0 00.162-.067c.066-.046.113-.127.1-.2-.034-.214-.328-.12-.415-.013z" fill="#fff"/><path opacity=".3" d="M83.358 58.945c0 .327-.288.595-.643.595-.355 0-.643-.268-.643-.595 0-.327.288-.595.643-.595.355 0 .643.268.643.595z" fill="#fff"/><path opacity=".37" d="M82.334 58.685c-.054.066-.068.167-.007.227.04.04.1.06.16.053a.344.344 0 00.161-.067c.067-.046.114-.127.1-.2-.026-.214-.32-.127-.415-.013z" fill="#fff"/><path opacity=".3" d="M86.544 54.349c0 .327-.287.594-.642.594-.355 0-.643-.267-.643-.594 0-.327.288-.595.643-.595.355 0 .642.268.642.595z" fill="#fff"/><path opacity=".37" d="M85.527 54.088c-.054.067-.067.167-.007.227.04.04.1.06.16.054a.343.343 0 00.161-.067c.067-.047.114-.127.1-.2-.033-.22-.327-.127-.414-.014z" fill="#fff"/><path opacity=".3" d="M79.153 56.854c0 .327-.288.595-.642.595-.355 0-.643-.268-.643-.595 0-.327.288-.594.643-.594.355-.007.642.26.642.594z" fill="#fff"/><path opacity=".37" d="M78.13 56.587c-.054.067-.068.167-.008.227.04.04.1.06.161.053a.344.344 0 00.16-.066c.068-.047.115-.127.101-.2-.027-.215-.321-.128-.415-.014z" fill="#fff"/><path opacity=".3" d="M82.93 80.744c0 .327-.289.595-.644.595-.354 0-.642-.268-.642-.595 0-.327.288-.595.642-.595.355 0 .643.268.643.595z" fill="#fff"/><path opacity=".37" d="M81.911 80.477c-.053.066-.067.167-.006.227.04.04.1.06.16.053a.344.344 0 00.161-.067c.067-.046.114-.126.1-.2-.033-.214-.328-.127-.415-.013z" fill="#fff"/><path opacity=".3" d="M86.531 89.983c.355 0 .643-.266.643-.594 0-.329-.288-.595-.643-.595-.355 0-.643.266-.643.595 0 .328.288.594.643.594z" fill="#fff"/><path opacity=".37" d="M86.156 89.128c-.053.067-.067.167-.006.227.04.04.1.06.16.054a.344.344 0 00.161-.067c.067-.047.114-.127.1-.2-.026-.22-.32-.127-.415-.014z" fill="#fff"/><path opacity=".3" d="M79.562 84.846c0 .327-.288.594-.643.594-.355 0-.643-.267-.643-.594 0-.327.288-.595.643-.595.355 0 .643.268.643.595z" fill="#fff"/><path opacity=".37" d="M78.544 84.579c-.053.066-.066.167-.006.227.04.04.1.06.16.053a.345.345 0 00.161-.067c.067-.046.114-.127.1-.2-.033-.214-.32-.127-.415-.013z" fill="#fff"/><path d="M39.25 49.868h-4.529v2.624h4.53v-2.624z" fill="#459B9B"/><path d="M46.102 93.515H27.651a2.36 2.36 0 01-2.36-2.355V64.038c0-3.666 2.98-6.64 6.655-6.64h9.868c3.675 0 6.655 2.974 6.655 6.64v27.123a2.371 2.371 0 01-2.367 2.354z" fill="#CDEDEA"/><path d="M27.169 70.933v18.23c0 1.298.884 2.355 1.98 2.355h15.456c1.096 0 1.98-1.057 1.98-2.355v-18.23H27.168z" fill="#FF5D80"/><path d="M44.093 70.933v16.379c0 1.297-.884 2.354-1.98 2.354H27.206c.19 1.064.986 1.859 1.936 1.859h15.456c1.089 0 1.98-1.057 1.98-2.355V70.934h-2.484z" fill="#EA577E"/><path d="M27.169 70.977c0 1.108 4.675 1.152 9.707 1.246 5.033.095 9.708-.736 9.708-1.246s-6.296-.561-9.678-.561c-3.39 0-9.737.146-9.737.561z" fill="#FF94AB"/><path d="M42.136 52.164h-10.3v5.343h10.3v-5.343z" fill="#5CCCD8"/><path d="M42.136 52.164H39.25v5.343h2.886v-5.343z" fill="#53BCC1"/><path d="M39.988 57.5h-6.055v3.513h6.055V57.5zM37.84 61.013h-1.906v10.314h1.907V61.013z" fill="#86EAEF"/><path d="M45.956 44.132c-2.55-.62-11.658-.183-11.658-.183-.753 0-1.359.605-1.359 1.356v3.987c0 .751.606 1.356 1.359 1.356h5.39c.753 0 1.36-.605 1.36-1.356v-3.017c.686-.102 1.438-.19 2.19-.212 2.623-.095 3.733.503 3.733.503l1.892-.204c-.007-.007-.401-1.625-2.907-2.23z" fill="#5CCCD8"/><path d="M47.198 44.65c.745.626.898 1.267.898 1.267l-1.892.204s-1.11-.597-3.732-.502c-.753.029-1.505.109-2.192.211v3.018c0 .75-.606 1.355-1.358 1.355H33.53c-.11 0-.22-.014-.329-.036.248.328.643.547 1.089.547h5.39c.753 0 1.359-.605 1.359-1.356V46.34c.687-.102 1.439-.19 2.191-.211 2.623-.095 3.733.503 3.733.503l1.892-.204c0-.008-.256-1.05-1.658-1.779z" fill="#53BCC1"/><path d="M42.136 57.274h-10.3v.233h10.3v-.233z" fill="#459B9B"/><path opacity=".53" d="M28.922 63.76c-.015.708.007 1.422.073 2.13.051.56.153 1.158.526 1.581.372.423 1.117.569 1.497.153.285-.313.27-.787.256-1.21-.03-.933.044-1.866.212-2.777.102-.547.24-1.1.555-1.56.511-.758 1.395-1.151 2.22-1.545 1.089-.525.753-1.305-.277-1.538-.687-.153-1.585-.263-2.272-.058-2.118.648-2.754 2.864-2.79 4.825zM28.929 69.775c-.066.56.08 1.122.19 1.676.752 3.805-.27 7.756.095 11.619.044.466.117.947.372 1.334.263.386.76.656 1.206.502.628-.21.752-1.027.745-1.69-.03-3.485-.745-6.969-.292-10.424.11-.838.284-1.684.146-2.515-.241-1.472-2.214-2.645-2.462-.502z" fill="#fff"/><path d="M45.189 65.139v3.535l1.395 1.057v-4.592c0-3.667-1.702-6.64-3.806-6.64h-1.395c2.104 0 3.806 2.973 3.806 6.64z" fill="#B3CECB"/><path opacity=".53" d="M33.64 44.911c-.168.197-.24.46-.27.715a3.182 3.182 0 00.263 1.684c.059.116.124.247.249.298.197.095.438-.043.533-.233.102-.19.102-.415.102-.634.015-.423.073-.875.35-1.188.308-.35.812-.46 1.279-.488.468-.022.95.014 1.395-.124.117-.037.241-.095.285-.212.051-.138-.051-.291-.183-.357-.131-.066-.285-.058-.43-.05-.731.036-1.469.065-2.2.13-.46.044-1.051.095-1.372.46z" fill="#fff"/><path d="M23.164 52.48v-.123a2.575 2.575 0 00-2.579-2.573H19.33a2.575 2.575 0 00-2.579 2.573v.124c0 .743-.321 1.45-.884 1.939L9.9 59.61a2.566 2.566 0 00-.884 1.938v29.79a2.575 2.575 0 002.578 2.574h16.742a2.575 2.575 0 002.579-2.573V61.556c0-.744-.322-1.45-.884-1.94l-5.968-5.19a2.535 2.535 0 01-.898-1.945z" fill="#CDEDEA"/><path d="M30.015 59.61l-5.968-5.19a2.566 2.566 0 01-.883-1.94v-.123a2.575 2.575 0 00-2.579-2.573h-.416c.401.452.643 1.05.643 1.705v.124c0 .744.321 1.45.883 1.94l5.968 5.189c.563.488.884 1.196.884 1.939v29.79a2.575 2.575 0 01-2.578 2.573H9.65a2.586 2.586 0 001.936.875h16.742a2.575 2.575 0 002.579-2.573v-29.79a2.6 2.6 0 00-.892-1.947z" fill="#B3CECB"/><path d="M23.719 49.463h-7.531v3.718h7.53v-3.718z" fill="#EF4538"/><path d="M14.924 49.463h10.059L24.2 47.16h-8.408l-.869 2.303zM22.703 46.19h-5.507v.962h5.507v-.962zM19.818 46.19h-3.492s.928-2.39 3.587-2.39a3.817 3.817 0 013.667 2.39h-3.762z" fill="#EF4538"/><path d="M16.188 49.463h7.53v3.71h-1.007l-.665-2.449-5.858-.94v-.32zM22.703 46.19h-5.507v.962h5.507v-.962z" fill="#CE3932"/><path d="M17.817 44.959a.919.919 0 00-.176.32.416.416 0 00.059.357c.102.124.277.16.438.183.343.043.745.043.964-.22.124-.145.16-.334.234-.51.073-.167.183-.327.321-.451.095-.08.205-.16.234-.285a.258.258 0 00-.088-.255c-.24-.19-.81.044-1.052.146-.365.16-.686.408-.934.715zM16.421 47.918c-.073.145-.146.284-.211.43a.993.993 0 00-.117.32c-.015.11.014.241.102.307.051.043.117.058.175.072.263.059.534.037.796.008a.606.606 0 00.278-.073c.132-.08.183-.24.22-.394.05-.19.101-.379.153-.561.131-.474-.168-.678-.614-.692-.372-.015-.62.27-.782.583zM16.816 50.739a9.629 9.629 0 00.015 1.654c.007.08.014.16.058.219a.38.38 0 00.204.146c.19.087.453.123.585-.044.051-.066.066-.153.08-.233.103-.605.11-1.225.015-1.837-.015-.102-.037-.219-.11-.292-.35-.342-.825 0-.847.387z" fill="#FC675B"/><path d="M16.648 53.173h6.61l.46.788-7.216-.394.146-.394z" fill="#9DB2AF"/><path opacity=".53" d="M12.689 58.662c-.198.182-.395.364-.512.605-.117.24-.131.54.022.758.168.24.497.306.79.35.97.124 2.059.073 2.775-.583.234-.212.416-.481.592-.744.628-.933 1.263-1.88 1.628-2.937.176-.503.256-1.487-.518-1.538-.577-.037-1.154.904-1.52 1.26-1.03.992-2.19 1.86-3.257 2.829z" fill="#fff"/><path d="M22.828 62.999H9v25.016h13.828V62.999z" fill="#5BA93A"/><path d="M22.039 63.611H9v23.172h13.039V63.61z" fill="#93D850"/><path d="M11.68 82.723c2.075-2.551 5.21-4.228 8.489-4.541a10.682 10.682 0 01-3.528 4.796c-1.651 1.261-4.295 2.668-6.384 2.88-.052-1.13.745-2.297 1.424-3.135z" fill="#5BA93A"/><path d="M14.77 73.612c-.007.007.468 2.15.49 2.369.073.889.036 1.778-.102 2.66-.278 1.72-.957 3.411-2.01 4.81-.92 1.226-3.045 4.396-3.11.73-.03-1.596.262-4.534.84-6 .795-2.018 2.307-3.476 3.893-4.57zM9.847 68.684L9 67.044v2.02l.124.24c.073.146.11.233.117.284.007.044-.022.08-.073.11-.044.021-.088.021-.117-.008-.014-.014-.03-.036-.051-.065v.692c.146-.03.3-.08.453-.16a1.52 1.52 0 00.409-.3.78.78 0 00.197-.706 3.814 3.814 0 00-.212-.467zM9.182 66.49l.826-.422c.226-.117.402-.19.54-.22a.68.68 0 01.344 0c.095.03.168.081.234.154.065.073.146.204.233.379l.132.248c.095.182.139.328.146.43a.489.489 0 01-.132.313c-.087.102-.219.197-.401.292l-.22.117.592 1.151-.825.423-1.469-2.865zm1.074.073l.373.73c.022-.008.044-.023.058-.03.073-.036.117-.08.132-.131.014-.051-.008-.124-.066-.233l-.124-.234c-.051-.094-.102-.153-.146-.167-.044-.015-.125.007-.227.065zM11.191 65.463l1.373-.707.293.575-.548.285.277.54.512-.263.277.546-.511.263.321.627.607-.314.292.576-1.425.736-1.468-2.864zM12.85 64.61l.584-.299c.387-.197.657-.32.81-.364.154-.044.3-.03.446.036.146.066.278.219.402.467.117.225.16.386.139.495-.022.11-.117.219-.293.32.183-.043.315-.05.402-.021.088.03.154.073.19.117.037.043.117.182.241.415l.387.75-.767.395-.489-.948c-.08-.153-.139-.24-.19-.263-.044-.021-.124-.007-.241.052l.665 1.29-.826.422-1.46-2.864zm1.08.066l.33.634a.477.477 0 00.175-.132c.021-.043.007-.123-.059-.255l-.08-.16c-.044-.088-.095-.139-.146-.153-.052-.007-.125.014-.22.066z" fill="#5BA93A"/><path d="M12.039 71.986h-.986v-.736c0-.211-.008-.35-.03-.4-.022-.052-.065-.081-.138-.081-.08 0-.132.029-.154.095-.022.065-.029.204-.029.422v1.976c0 .204.007.342.03.4.021.066.072.095.145.095s.124-.029.146-.094c.022-.066.037-.212.037-.445v-.532h.986v.167c0 .438-.03.751-.08.934a.95.95 0 01-.366.48c-.19.14-.423.205-.7.205-.286 0-.527-.059-.717-.175a.807.807 0 01-.372-.489c-.059-.204-.088-.517-.088-.933v-1.239c0-.306.007-.532.03-.685.021-.153.072-.299.167-.444a.967.967 0 01.387-.336c.168-.08.351-.124.57-.124.292 0 .526.066.716.19.19.124.314.284.373.466.058.19.087.481.087.875v.408h-.014zM13.376 70.135v3.396h.599v.853h-1.586v-4.242h.987v-.007zM14.215 70.135h1.644v.852H15.2v.802h.614v.81h-.614v.932h.724v.853h-1.71v-4.25zM17.904 70.135l.563 4.242h-1.008l-.051-.765h-.351l-.058.765h-1.016l.504-4.242h1.417zm-.518 2.733a55.186 55.186 0 01-.154-1.786c-.102.817-.16 1.407-.19 1.786h.344zM20.833 70.135v4.242h-.862l-.511-1.932v1.932h-.826v-4.242h.826l.555 1.91v-1.91h.818z" fill="#CDEDEA"/><path opacity=".53" d="M10.958 63.093c.19 4.891.387 9.79.577 14.68.014.329.029.664.168.963.139.299.43.554.76.54.562-.023.818-.708.854-1.27.051-.743-.029-1.486-.088-2.23a47.514 47.514 0 01.446-11.385c.102-.642.22-1.312.007-1.932-.211-.627-1.022-1.21-1.709-1.137-.913.102-1.045 1.057-1.015 1.771zM11.36 89.035c.014.372.029.751.175 1.094.146.342.445.641.818.685.445.044.854-.306 1.023-.722.168-.415.153-.874.138-1.326-.05-1.407-.11-2.814-.16-4.22a207.2 207.2 0 01-.08-2.144c-.023-.495.116-1.319-.103-1.77-.3-.62-1.271-.591-1.636-.037-.548.816-.227 2.77-.234 3.717-.015 1.575 0 3.149.058 4.723z" fill="#fff"/><path d="M24.276 167.273c0 .529-.186.977-.56 1.344-.365.359-.86.585-1.48.677v1.089h-1.001v-1.07a4.538 4.538 0 01-1.227-.255 3.281 3.281 0 01-.98-.559l.431-.922c.569.444 1.184.69 1.844.736v-2.041a7.312 7.312 0 01-1.108-.363 1.98 1.98 0 01-.756-.599c-.202-.268-.304-.614-.304-1.04 0-.353.089-.673.265-.961.177-.294.422-.536.736-.726.32-.196.687-.32 1.099-.373v-1.089h1v1.079c.38.046.736.138 1.07.275.333.137.615.311.844.52l-.432.922c-.478-.392-.994-.628-1.55-.706v2.129c.438.111.801.232 1.089.363.288.124.53.314.726.569.196.255.294.589.294 1.001zm-3.875-3.071c0 .229.078.415.235.559.157.137.38.255.667.353v-1.893c-.28.059-.503.173-.667.343a.905.905 0 00-.235.638zm1.766 4.061c.274-.058.484-.166.628-.323a.917.917 0 00.215-.628.618.618 0 00-.215-.491c-.144-.124-.354-.229-.628-.314v1.756zM28.599 165.654c.412.111.726.314.942.608.222.294.333.657.333 1.089 0 .608-.225 1.089-.677 1.442-.444.353-1.046.53-1.805.53a4.34 4.34 0 01-1.364-.216 2.964 2.964 0 01-1.069-.598l.432-.922c.621.484 1.272.726 1.952.726.445 0 .775-.089.991-.265.222-.177.334-.445.334-.805 0-.353-.112-.611-.334-.775-.222-.17-.566-.255-1.03-.255h-.922v-1.01h.755c.903 0 1.354-.344 1.354-1.031 0-.32-.098-.565-.294-.735-.197-.17-.471-.256-.825-.256-.627 0-1.255.242-1.883.726l-.422-.922a3.068 3.068 0 011.06-.588 3.984 3.984 0 011.324-.226c.687 0 1.233.17 1.638.51.412.334.619.782.619 1.344a1.808 1.808 0 01-.305 1.011c-.19.281-.457.487-.804.618zM33.775 164.781c.438 0 .824.094 1.158.284.333.183.592.445.775.785.183.334.275.719.275 1.158 0 .458-.105.863-.314 1.216a2.15 2.15 0 01-.903.815c-.392.189-.847.284-1.364.284-.438 0-.87-.072-1.295-.216a3.07 3.07 0 01-1.05-.598l.422-.922c.635.484 1.282.726 1.943.726.438 0 .772-.108 1-.324.236-.223.354-.537.354-.942 0-.386-.121-.693-.363-.922-.236-.236-.553-.353-.952-.353-.274 0-.533.052-.775.157a1.778 1.778 0 00-.638.441h-.765v-4.111h4.376v.981h-3.14v1.904c.354-.242.772-.363 1.256-.363zM39.285 169.333c-.83 0-1.465-.304-1.903-.913-.432-.614-.648-1.507-.648-2.678 0-1.151.216-2.031.648-2.639.438-.608 1.072-.912 1.903-.912.83 0 1.462.304 1.893.912.439.602.658 1.481.658 2.639 0 1.164-.22 2.054-.658 2.669-.431.614-1.062.922-1.893.922zm0-.991c.451 0 .778-.206.981-.618.21-.419.314-1.079.314-1.982 0-.889-.105-1.537-.314-1.942-.203-.412-.53-.619-.981-.619-.451 0-.782.207-.99.619-.204.405-.305 1.053-.305 1.942 0 .903.101 1.563.304 1.982.21.412.54.618.991.618zM12.469 162.011a3.672 3.672 0 00-1.701.817c-1.407 1.208-1.74 3.159-.83 4.851a3.238 3.238 0 001.393 1.351 4.157 4.157 0 001.874.459 3.74 3.74 0 002.316-.796l-.633-.812c-.832.648-1.95.763-2.985.281a2.36 2.36 0 01-1.12-1.09c-.656-1.33-.302-2.839.918-3.661.225-.151.474-.266.736-.337a2.755 2.755 0 013.462 2.127h-1.44a1.356 1.356 0 100 1.029h2.479a.04.04 0 00.04-.039v-.476a3.78 3.78 0 00-4.51-3.704z" fill="#F04350"/></svg>