<svg width="106" height="183" fill="none" xmlns="http://www.w3.org/2000/svg"><path d="M0 7.625A7.625 7.625 0 017.626 0h90.748A7.625 7.625 0 01106 7.625v167.75A7.625 7.625 0 0198.374 183H7.626A7.626 7.626 0 010 175.375V7.625z" fill="#fff"/><path d="M0 6.003A6.001 6.001 0 016 0h94c3.314 0 6 2.688 6 6.003v99.045H0V6.003z" fill="#E2F2FD"/><path d="M12.534 120.59c-.536 0-1.003-.117-1.4-.351a2.314 2.314 0 01-.908-1.003c-.213-.44-.319-.958-.319-1.552 0-.595.106-1.107.319-1.537a2.32 2.32 0 01.907-1.003c.398-.234.865-.35 1.401-.35.393 0 .751.061 1.075.183.33.117.613.294.852.533l-.247.502a2.735 2.735 0 00-.804-.502 2.38 2.38 0 00-.868-.151c-.62 0-1.104.202-1.449.605-.34.403-.51.977-.51 1.72 0 .748.17 1.327.51 1.735.34.404.823.605 1.45.605.318 0 .607-.05.867-.151.265-.101.534-.268.804-.502l.247.502a2.335 2.335 0 01-.852.541 3.143 3.143 0 01-1.075.176zM18.926 116.521v4.005h-.637v-.725c-.117.25-.295.444-.533.582a1.64 1.64 0 01-.82.199c-.356 0-.67-.085-.94-.255a1.712 1.712 0 01-.62-.717 2.594 2.594 0 01-.216-1.09c0-.414.075-.778.223-1.091.149-.319.356-.565.621-.74a1.67 1.67 0 01.931-.263c.314 0 .587.069.82.207.234.138.412.332.534.581v-.693h.637zm-1.863 3.527c.393 0 .695-.133.908-.398.212-.271.318-.653.318-1.146 0-.494-.106-.873-.319-1.139-.212-.265-.514-.398-.907-.398s-.7.138-.924.414c-.217.271-.326.65-.326 1.139 0 .488.109.865.326 1.13.218.265.526.398.924.398zM22.036 116.426c.132 0 .254.016.366.048l-.016.589a1.268 1.268 0 00-.422-.064c-.387 0-.677.122-.868.366-.186.239-.279.531-.279.876v2.285h-.644v-2.882c0-.414-.022-.788-.064-1.123h.613l.064.741c.1-.271.262-.478.485-.621.223-.144.478-.215.765-.215zM25.055 116.426c.35 0 .661.087.932.263.27.175.48.421.629.74.148.313.223.677.223 1.091 0 .414-.075.777-.223 1.09a1.692 1.692 0 01-.63.717 1.69 1.69 0 01-.93.255c-.314 0-.587-.069-.82-.207a1.339 1.339 0 01-.534-.59v2.46h-.645v-4.601c0-.414-.021-.788-.064-1.123h.613l.064.773c.111-.276.287-.489.525-.637.245-.154.531-.231.86-.231zm-.12 3.622c.394 0 .696-.133.909-.398.217-.265.326-.642.326-1.13 0-.489-.109-.868-.327-1.139-.217-.276-.52-.414-.907-.414-.398 0-.703.133-.916.398-.212.266-.318.645-.318 1.139 0 .493.106.875.318 1.146.213.265.518.398.916.398zM31.182 118.504h-2.937c.005.509.122.894.35 1.154.233.26.57.39 1.011.39a2.02 2.02 0 001.29-.47l.215.47c-.175.165-.401.295-.677.39-.27.096-.55.144-.836.144-.626 0-1.117-.184-1.473-.55-.355-.371-.533-.878-.533-1.52 0-.409.08-.77.239-1.083a1.771 1.771 0 011.648-1.003c.53 0 .947.175 1.25.525.302.345.453.823.453 1.433v.12zm-1.695-1.577c-.335 0-.608.101-.82.303-.207.202-.34.486-.398.852H30.6c-.032-.377-.143-.664-.334-.86-.186-.196-.446-.295-.78-.295zM32.998 117.031v2.189c0 .297.06.507.183.629.122.117.294.175.517.175.149 0 .292-.024.43-.071v.549c-.164.053-.35.08-.557.08-.382 0-.682-.107-.9-.319-.212-.217-.318-.536-.318-.955v-2.277h-.78v-.51h.78v-1.027l.645-.231v1.258h1.146v.51h-1.146zM38.448 116.521v4.005h-.637v-.725c-.117.25-.294.444-.533.582a1.639 1.639 0 01-.82.199c-.356 0-.669-.085-.94-.255a1.712 1.712 0 01-.62-.717 2.594 2.594 0 01-.216-1.09c0-.414.075-.778.223-1.091.149-.319.356-.565.621-.74a1.67 1.67 0 01.932-.263c.313 0 .586.069.82.207.233.138.411.332.533.581v-.693h.637zm-1.863 3.527c.393 0 .695-.133.908-.398.212-.271.318-.653.318-1.146 0-.494-.106-.873-.318-1.139-.213-.265-.515-.398-.908-.398s-.7.138-.923.414c-.218.271-.327.65-.327 1.139 0 .488.109.865.327 1.13.217.265.525.398.923.398zM45.56 119.069H42.6l-.63 1.457h-.676l2.492-5.669h.573l2.492 5.669h-.669l-.62-1.457zm-.23-.541l-1.25-2.914-1.25 2.914h2.5zM51.51 119.292h-.86v1.234h-.652v-1.234h-2.612v-.494l2.731-3.941h.534v3.893h.86v.542zm-1.512-.542v-2.786l-1.935 2.786h1.935zM14.955 124.809l-2.476 5.668h-.574l-2.476-5.668h.693l2.078 4.84 2.078-4.84h.677zM18.662 126.473v4.004h-.637v-.724a1.287 1.287 0 01-.534.581 1.629 1.629 0 01-.82.199c-.355 0-.668-.085-.94-.255a1.703 1.703 0 01-.62-.716 2.598 2.598 0 01-.215-1.091c0-.414.074-.777.223-1.091.148-.318.355-.565.62-.74.271-.175.582-.263.932-.263.313 0 .587.069.82.207.234.138.412.332.534.582v-.693h.637zM16.799 130c.392 0 .695-.133.907-.398.213-.271.319-.653.319-1.147 0-.493-.106-.873-.319-1.138-.212-.266-.515-.398-.907-.398-.393 0-.701.138-.924.414-.217.27-.326.65-.326 1.138 0 .488.109.865.326 1.131.218.265.526.398.924.398zM21.771 126.377c.133 0 .255.016.366.048l-.015.589a1.296 1.296 0 00-.422-.063c-.388 0-.677.122-.868.366-.186.239-.279.531-.279.876v2.284h-.645v-2.882c0-.414-.02-.788-.063-1.122h.613l.063.74c.101-.27.263-.477.486-.621.223-.143.478-.215.764-.215zM22.793 126.473h.645v4.004h-.645v-4.004zm.724-1.696v.733h-.788v-.733h.788zM26.346 130.533c-.377 0-.709-.085-.995-.255a1.728 1.728 0 01-.67-.724c-.153-.313-.23-.679-.23-1.099 0-.419.077-.785.23-1.098a1.73 1.73 0 01.67-.725c.286-.17.618-.255.995-.255s.708.085.995.255c.287.17.507.411.66.725.16.313.24.679.24 1.098 0 .42-.08.786-.24 1.099a1.677 1.677 0 01-.66.724c-.287.17-.619.255-.995.255zm0-.533c.398 0 .703-.13.915-.39.213-.266.319-.651.319-1.155 0-.488-.11-.865-.327-1.13-.217-.271-.52-.406-.907-.406-.393 0-.698.135-.916.406-.218.265-.326.642-.326 1.13 0 .504.106.889.318 1.155.218.26.526.39.924.39zM30.6 130.533c-.675 0-1.208-.172-1.601-.517l.215-.478c.218.17.438.292.66.366.224.075.473.112.749.112.302 0 .53-.051.685-.152a.512.512 0 00.239-.453.49.49 0 00-.16-.383c-.106-.095-.281-.169-.525-.222l-.677-.16c-.334-.074-.594-.207-.78-.398a.962.962 0 01-.27-.684c0-.351.14-.635.421-.852.281-.223.653-.335 1.115-.335.281 0 .546.045.796.136.25.09.459.22.629.39l-.215.47c-.377-.314-.78-.47-1.21-.47-.287 0-.51.056-.669.167a.518.518 0 00-.23.454c0 .164.047.294.142.39.101.095.26.17.478.223l.677.167c.371.085.647.218.828.398.18.175.27.406.27.693 0 .345-.14.621-.422.828-.28.207-.663.31-1.146.31zM36.95 130.533c-.387 0-.726-.085-1.018-.255a1.737 1.737 0 01-.669-.716 2.445 2.445 0 01-.23-1.091c0-.414.079-.777.238-1.091a1.76 1.76 0 01.677-.74 2.002 2.002 0 011.035-.263c.27 0 .53.048.78.144.255.09.464.217.629.382l-.215.477a2.318 2.318 0 00-.59-.35 1.536 1.536 0 00-.572-.111c-.41 0-.73.138-.964.414-.233.27-.35.65-.35 1.138 0 .483.114.86.342 1.131.234.265.558.398.972.398.196 0 .387-.037.573-.112.19-.074.387-.191.589-.35l.215.478c-.17.159-.385.286-.645.382-.255.09-.52.135-.796.135zM40.869 130.533c-.377 0-.709-.085-.995-.255a1.728 1.728 0 01-.67-.724c-.153-.313-.23-.679-.23-1.099 0-.419.077-.785.23-1.098a1.73 1.73 0 01.67-.725c.286-.17.618-.255.995-.255s.708.085.995.255c.287.17.507.411.66.725.16.313.24.679.24 1.098 0 .42-.08.786-.24 1.099a1.678 1.678 0 01-.66.724c-.287.17-.618.255-.995.255zm0-.533c.398 0 .703-.13.915-.39.213-.266.319-.651.319-1.155 0-.488-.109-.865-.327-1.13-.217-.271-.52-.406-.907-.406-.393 0-.698.135-.916.406-.217.265-.326.642-.326 1.13 0 .504.106.889.318 1.155.218.26.526.39.924.39zM43.769 124.618h.645v5.859h-.645v-5.859zM47.322 130.533c-.377 0-.709-.085-.995-.255a1.729 1.729 0 01-.67-.724c-.153-.313-.23-.679-.23-1.099 0-.419.077-.785.23-1.098.16-.314.383-.555.67-.725.286-.17.618-.255.995-.255s.708.085.995.255c.286.17.507.411.66.725.16.313.24.679.24 1.098 0 .42-.08.786-.24 1.099a1.678 1.678 0 01-.66.724c-.287.17-.618.255-.995.255zm0-.533c.398 0 .703-.13.915-.39.213-.266.319-.651.319-1.155 0-.488-.11-.865-.327-1.13-.217-.271-.52-.406-.907-.406-.393 0-.698.135-.916.406-.217.265-.326.642-.326 1.13 0 .504.106.889.318 1.155.218.26.526.39.924.39zM52.085 126.377c.132 0 .254.016.366.048l-.016.589a1.295 1.295 0 00-.422-.063c-.387 0-.677.122-.868.366-.186.239-.278.531-.278.876v2.284h-.645v-2.882c0-.414-.022-.788-.064-1.122h.613l.064.74c.1-.27.262-.477.485-.621.223-.143.478-.215.765-.215zM56.38 128.455h-2.938c.006.51.123.895.35 1.155.234.26.571.39 1.012.39.467 0 .897-.157 1.29-.47l.214.47c-.175.164-.4.294-.676.39-.27.095-.55.143-.836.143-.627 0-1.117-.183-1.473-.549-.356-.372-.533-.879-.533-1.521 0-.408.08-.769.238-1.083.16-.318.383-.565.67-.74.286-.175.612-.263.978-.263.531 0 .948.176 1.25.526.303.345.454.822.454 1.433v.119zm-1.696-1.576c-.334 0-.607.101-.82.302-.207.202-.34.486-.398.852H55.8c-.032-.377-.143-.663-.334-.86-.186-.196-.446-.294-.78-.294zM58.712 130.533c-.674 0-1.207-.172-1.6-.517l.215-.478c.218.17.438.292.66.366.224.075.473.112.75.112.302 0 .53-.051.684-.152a.512.512 0 00.239-.453.49.49 0 00-.16-.383c-.106-.095-.28-.169-.525-.222l-.677-.16c-.334-.074-.594-.207-.78-.398a.962.962 0 01-.27-.684c0-.351.14-.635.421-.852.282-.223.653-.335 1.115-.335.281 0 .547.045.796.136.25.09.46.22.629.39l-.215.47c-.377-.314-.78-.47-1.21-.47-.287 0-.51.056-.669.167a.518.518 0 00-.23.454c0 .164.047.294.143.39.1.095.26.17.477.223l.677.167c.372.085.648.218.828.398.18.175.27.406.27.693 0 .345-.14.621-.421.828-.282.207-.664.31-1.147.31z" fill="#444"/><path d="M24.277 167.273c0 .53-.187.978-.56 1.345-.366.36-.86.585-1.481.677v1.089h-1v-1.07a4.538 4.538 0 01-1.227-.255 3.26 3.26 0 01-.982-.559l.432-.922c.57.444 1.184.69 1.845.736v-2.041a7.543 7.543 0 01-1.109-.363 1.989 1.989 0 01-.756-.599c-.202-.268-.304-.615-.304-1.04 0-.353.089-.674.265-.962a2.12 2.12 0 01.736-.726c.32-.196.687-.32 1.1-.373v-1.089h1v1.08c.38.045.736.137 1.07.274.333.138.614.311.843.52l-.431.923c-.478-.393-.995-.628-1.55-.707v2.129a6.65 6.65 0 011.088.364c.288.124.53.314.727.569.196.255.294.588.294 1zm-3.876-3.071c0 .229.079.416.236.56.157.137.379.255.667.353v-1.894c-.281.059-.504.173-.667.343a.907.907 0 00-.236.638zm1.766 4.063c.275-.059.484-.167.628-.324a.916.916 0 00.216-.628.617.617 0 00-.216-.491c-.144-.124-.353-.229-.628-.314v1.757zM28.698 165.654c.452.112.805.318 1.06.619s.383.664.383 1.089c0 .399-.111.749-.334 1.05-.216.294-.523.52-.922.677-.393.157-.847.235-1.364.235-.517 0-.975-.078-1.374-.235a2.104 2.104 0 01-.922-.677 1.755 1.755 0 01-.324-1.05c0-.425.128-.788.383-1.089.255-.301.608-.507 1.06-.619a1.959 1.959 0 01-.933-.618 1.535 1.535 0 01-.333-.981c0-.379.104-.71.314-.991.209-.288.497-.507.863-.657a3.235 3.235 0 011.266-.236c.47 0 .89.079 1.256.236.373.15.664.369.873.657.21.281.314.612.314.991s-.114.713-.343 1.001c-.223.281-.53.481-.923.598zm-1.177-2.492c-.386 0-.69.088-.913.265-.222.177-.333.429-.333.756 0 .307.111.559.333.755.23.19.534.314.913.373.38-.059.68-.183.903-.373a.95.95 0 00.343-.755c0-.327-.111-.579-.334-.756-.222-.177-.526-.265-.912-.265zm0 5.171c.445 0 .791-.091 1.04-.275.255-.183.383-.444.383-.785 0-.32-.131-.578-.393-.775-.255-.196-.598-.323-1.03-.382-.432.059-.779.186-1.04.382a.932.932 0 00-.383.775c0 .341.124.602.373.785.255.184.605.275 1.05.275zM33.404 169.334c-.83 0-1.465-.304-1.903-.912-.432-.615-.648-1.508-.648-2.679 0-1.152.216-2.031.648-2.64.438-.608 1.073-.912 1.903-.912.831 0 1.462.304 1.894.912.438.602.658 1.482.658 2.64 0 1.164-.22 2.054-.658 2.669-.432.615-1.063.922-1.894.922zm0-.991c.452 0 .779-.206.982-.618.209-.419.314-1.08.314-1.982 0-.89-.105-1.537-.314-1.943-.203-.412-.53-.618-.982-.618-.451 0-.781.206-.99.618-.203.406-.305 1.053-.305 1.943 0 .902.102 1.563.304 1.982.21.412.54.618.991.618zM12.469 162.011a3.672 3.672 0 00-1.701.817c-1.407 1.208-1.74 3.159-.83 4.851a3.238 3.238 0 001.393 1.351 4.157 4.157 0 001.874.459 3.74 3.74 0 002.316-.796l-.633-.812c-.832.648-1.95.763-2.985.281a2.36 2.36 0 01-1.12-1.09c-.656-1.33-.302-2.839.918-3.661.225-.151.474-.266.736-.337a2.755 2.755 0 013.462 2.127h-1.44a1.356 1.356 0 100 1.029h2.479a.04.04 0 00.04-.039v-.476a3.78 3.78 0 00-4.51-3.704z" fill="#F04350"/><path d="M11.459 155.176c-.406 0-.783-.054-1.133-.16a2.703 2.703 0 01-.897-.479l.335-.707c.258.198.522.342.79.434.269.091.56.136.874.136.35 0 .618-.065.806-.197.187-.137.281-.332.281-.585a.456.456 0 00-.167-.373 1.136 1.136 0 00-.433-.228 6.371 6.371 0 00-.585-.167 16.973 16.973 0 01-.639-.182 2.64 2.64 0 01-.593-.266 1.368 1.368 0 01-.425-.441c-.107-.183-.16-.416-.16-.699 0-.315.086-.593.258-.836.178-.244.418-.434.722-.571a2.429 2.429 0 011.034-.212 3.193 3.193 0 011.345.296c.203.091.378.203.525.335l-.335.714c-.47-.38-.98-.57-1.527-.57-.32 0-.573.068-.76.205-.188.137-.282.332-.282.585 0 .173.054.312.16.418.106.102.248.185.426.251.182.061.38.117.592.167.213.051.426.109.639.175.213.066.408.152.585.259.183.106.327.248.433.425.107.178.16.403.16.677 0 .319-.086.597-.258.836a1.678 1.678 0 01-.715.562 2.632 2.632 0 01-1.056.198zm-.32.82v-.98l.061-.448v-4.416l-.06-.38v-.95h.775v.95l-.053.38v4.416l.053.448v.98h-.775zM15.758 154.666v-4.24l.494.106-1.589.958v-.874l1.505-.913h.57v4.963h-.98zm-1.179.449v-.791h3.345v.791h-3.345zM20.565 155.176c-.638 0-1.127-.236-1.466-.707-.34-.471-.51-1.158-.51-2.06 0-.902.168-1.588.502-2.059.34-.472.83-.707 1.474-.707s1.133.235 1.467.707c.34.471.51 1.155.51 2.052 0 .907-.17 1.596-.51 2.067-.34.471-.828.707-1.467.707zm0-.76c.35 0 .606-.16.768-.479.162-.324.243-.836.243-1.535 0-.695-.08-1.199-.243-1.513-.162-.314-.418-.471-.768-.471-.35 0-.605.16-.767.479-.162.314-.243.815-.243 1.505 0 .699.08 1.211.243 1.535.162.319.418.479.767.479zM25.123 155.176c-.639 0-1.128-.236-1.467-.707-.34-.471-.51-1.158-.51-2.06 0-.902.168-1.588.502-2.059.34-.472.831-.707 1.475-.707.643 0 1.132.235 1.466.707.34.471.51 1.155.51 2.052 0 .907-.17 1.596-.51 2.067-.339.471-.828.707-1.466.707zm0-.76c.35 0 .605-.16.767-.479.162-.324.243-.836.243-1.535 0-.695-.08-1.199-.243-1.513-.162-.314-.418-.471-.767-.471-.35 0-.606.16-.768.479-.162.314-.243.815-.243 1.505 0 .699.08 1.211.243 1.535.162.319.418.479.768.479z" fill="#C4C4C4"/><path d="M15.418 18.908H14v72.413h1.418V18.908zM28.47 18.908h-1.417v72.413h1.418V18.908z" fill="#282F89"/><path d="M27.053 18.908H15.417v72.413h11.636V18.908z" fill="#4551A3"/><path d="M21.206 78.15a3.662 3.662 0 100-7.324 3.662 3.662 0 000 7.324z" fill="#C6C6C6"/><path d="M23.746 74.488a2.496 2.496 0 01-2.48 2.48 2.496 2.496 0 01-2.482-2.48 2.496 2.496 0 012.481-2.481 2.496 2.496 0 012.48 2.48z" fill="#070707"/><path d="M25.754 30.307h-9.037v34.849h9.037V30.307z" fill="#B8BCD9"/><path d="M25.754 24.106h-9.037v6.201h9.037v-6.201z" fill="#070707"/><path d="M91.16 25.544H42.232v66.062H91.16V25.544z" fill="#1A1F59"/><path d="M86.757 69.525H72.035v17.979h14.72V69.525z" fill="#D8D8D8"/><path d="M86.757 66.509H72.035v3.981h14.72V66.51z" fill="#070707"/><path d="M42.233 25.544v66.062l-4.948-6.636V18.908l4.948 6.636z" fill="#38407C"/><path d="M41.388 32.784v29.562l-3.318-4.404V28.38l3.318 4.404z" fill="#151515"/><path d="M41.388 37.791v24.555l-3.318-4.404V33.387l3.318 4.404z" fill="#DCDCDE"/><path d="M43.62 25.544h-1.388v66.062h1.388V25.544z" fill="#263370"/><path d="M37.285 18.908h45.791v6.636H42.233l-4.948-6.636z" fill="#0A103A"/><path d="M83.076 18.908h-45.79v.543h45.79v-.543zM91.16 25.544H42.232v.543H91.16v-.543z" fill="#57619B"/><path d="M42.233 25.544l-4.948-6.636v.543l4.948 6.636v-.543z" fill="#57619B"/></svg>