<svg width="256" height="444" fill="none" xmlns="http://www.w3.org/2000/svg"><path d="M0 20.56C0 10.392 8.243 2.15 18.41 2.15h219.085c10.167 0 18.41 8.242 18.41 18.41v405.029c0 10.168-8.243 18.411-18.41 18.411H18.41C8.243 444 0 435.757 0 425.589V20.559z" fill="#fff"/><path d="M35.135 296.136l-7.126-6.583v6.583h-1.593V282.31h1.593v6.35l6.796-6.35h2.039l-7.224 6.738 7.593 7.088h-2.078zM38.53 286.369h1.572v9.767H38.53v-9.767zm1.766-4.137v1.787h-1.922v-1.787h1.922zM45.254 287.611v5.341c0 .724.149 1.236.446 1.534.298.284.719.427 1.262.427a3.17 3.17 0 001.05-.175v1.34a4.432 4.432 0 01-1.36.194c-.932 0-1.664-.259-2.194-.777-.518-.53-.777-1.307-.777-2.33v-5.554h-1.903v-1.242h1.903v-2.505l1.573-.564v3.069h2.796v1.242h-2.796zM63.611 281.844v14.292h-1.553v-1.767a3.137 3.137 0 01-1.301 1.418c-.57.323-1.237.485-2 .485-.855 0-1.612-.213-2.272-.641-.648-.427-1.153-1.022-1.515-1.786-.363-.777-.544-1.67-.544-2.68 0-1.01.175-1.89.524-2.641.363-.764.874-1.353 1.535-1.767.66-.414 1.417-.621 2.272-.621.763 0 1.43.168 2 .504.57.324.997.784 1.281 1.379v-6.175h1.573zm-4.544 13.127c.958 0 1.696-.324 2.214-.971.518-.66.777-1.592.777-2.796 0-1.191-.26-2.11-.777-2.758-.518-.66-1.256-.99-2.214-.99s-1.709.324-2.252.971c-.531.647-.796 1.56-.796 2.738 0 1.204.265 2.143.796 2.816.543.66 1.294.99 2.252.99zM74.828 291.204h-7.166c.013 1.243.298 2.181.855 2.816.57.634 1.391.951 2.466.951 1.139 0 2.188-.382 3.146-1.146l.524 1.146c-.427.401-.978.719-1.65.952-.66.233-1.34.349-2.04.349-1.527 0-2.725-.446-3.592-1.34-.867-.906-1.301-2.142-1.301-3.709 0-.997.194-1.877.582-2.641.389-.776.933-1.378 1.632-1.806.699-.427 1.495-.64 2.388-.64 1.295 0 2.31.427 3.049 1.281.738.842 1.107 2.007 1.107 3.496v.291zm-4.136-3.845c-.816 0-1.483.246-2 .738-.505.492-.83 1.184-.972 2.078h5.69c-.078-.92-.35-1.619-.816-2.098-.453-.479-1.087-.718-1.902-.718zM87.153 286.136c.854 0 1.611.213 2.271.64.66.428 1.172 1.03 1.535 1.806.362.764.543 1.651.543 2.661 0 1.009-.18 1.896-.543 2.66-.363.751-.874 1.333-1.535 1.748-.647.414-1.404.621-2.272.621-.763 0-1.43-.168-2-.505a3.256 3.256 0 01-1.3-1.437v6.001h-1.574v-11.224c0-1.01-.051-1.923-.155-2.738h1.495l.156 1.883c.272-.673.699-1.191 1.281-1.553.596-.376 1.295-.563 2.097-.563zm-.292 8.835c.958 0 1.696-.324 2.214-.971.53-.647.796-1.566.796-2.757s-.265-2.117-.796-2.777c-.53-.673-1.269-1.01-2.214-1.01-.97 0-1.715.324-2.233.971s-.777 1.573-.777 2.777c0 1.204.26 2.136.777 2.796.518.647 1.262.971 2.233.971zM98.466 286.136c.324 0 .622.038.893.116l-.038 1.437a3.117 3.117 0 00-1.03-.155c-.945 0-1.65.297-2.116.893-.453.583-.68 1.295-.68 2.136v5.573h-1.573v-7.029c0-1.01-.052-1.923-.155-2.738h1.495l.155 1.806c.246-.661.641-1.166 1.185-1.515.544-.35 1.165-.524 1.864-.524zM104.807 296.272c-.919 0-1.728-.207-2.427-.621a4.235 4.235 0 01-1.631-1.767c-.376-.764-.564-1.657-.564-2.68 0-1.023.188-1.916.564-2.68a4.223 4.223 0 011.631-1.767c.699-.414 1.508-.621 2.427-.621s1.728.207 2.427.621a4.095 4.095 0 011.612 1.767c.389.764.583 1.657.583 2.68 0 1.023-.194 1.916-.583 2.68a4.106 4.106 0 01-1.612 1.767c-.699.414-1.508.621-2.427.621zm0-1.301c.971 0 1.715-.317 2.233-.951.518-.648.777-1.586.777-2.816 0-1.191-.265-2.11-.796-2.758-.531-.66-1.269-.99-2.214-.99-.958 0-1.702.33-2.233.99-.531.648-.796 1.567-.796 2.758 0 1.23.259 2.168.777 2.816.53.634 1.281.951 2.252.951zM120.483 281.844v14.292h-1.553v-1.767a3.14 3.14 0 01-1.301 1.418c-.57.323-1.237.485-2.001.485-.854 0-1.611-.213-2.272-.641-.647-.427-1.152-1.022-1.514-1.786-.363-.777-.544-1.67-.544-2.68 0-1.01.175-1.89.524-2.641.363-.764.874-1.353 1.534-1.767.661-.414 1.418-.621 2.272-.621.764 0 1.431.168 2.001.504.569.324.996.784 1.281 1.379v-6.175h1.573zm-4.544 13.127c.958 0 1.696-.324 2.214-.971.518-.66.777-1.592.777-2.796 0-1.191-.259-2.11-.777-2.758-.518-.66-1.256-.99-2.214-.99s-1.709.324-2.252.971c-.531.647-.797 1.56-.797 2.738 0 1.204.266 2.143.797 2.816.543.66 1.294.99 2.252.99zM131.7 286.369v9.767h-1.534v-1.689a3.23 3.23 0 01-1.301 1.359c-.557.311-1.185.466-1.884.466-1.152 0-2.026-.324-2.622-.971-.595-.647-.893-1.605-.893-2.874v-6.058h1.573v6.019c0 .881.181 1.528.544 1.942.362.415.912.622 1.65.622.868 0 1.567-.279 2.098-.835.53-.57.796-1.314.796-2.234v-5.514h1.573zM138.829 296.272c-.945 0-1.773-.207-2.485-.621a4.267 4.267 0 01-1.632-1.748c-.375-.764-.563-1.651-.563-2.66 0-1.01.194-1.897.583-2.661a4.297 4.297 0 011.65-1.806c.725-.427 1.567-.64 2.525-.64.66 0 1.294.116 1.903.349.621.22 1.133.531 1.534.932l-.524 1.165c-.492-.388-.971-.673-1.437-.854a3.736 3.736 0 00-1.398-.272c-.997 0-1.78.337-2.35 1.01-.57.66-.855 1.586-.855 2.777 0 1.178.279 2.097.835 2.757.57.647 1.36.971 2.37.971.479 0 .945-.091 1.398-.272.466-.181.945-.466 1.437-.854l.524 1.165c-.414.388-.939.699-1.573.932-.621.22-1.269.33-1.942.33zM146.463 287.611v5.341c0 .724.148 1.236.446 1.534.298.284.719.427 1.262.427.363 0 .712-.058 1.049-.175v1.34a4.429 4.429 0 01-1.359.194c-.932 0-1.664-.259-2.195-.777-.517-.53-.776-1.307-.776-2.33v-5.554h-1.903v-1.242h1.903v-2.505l1.573-.564v3.069h2.796v1.242h-2.796zM155.193 296.272c-.919 0-1.728-.207-2.427-.621a4.235 4.235 0 01-1.631-1.767c-.375-.764-.563-1.657-.563-2.68 0-1.023.188-1.916.563-2.68a4.223 4.223 0 011.631-1.767c.699-.414 1.508-.621 2.427-.621.92 0 1.729.207 2.428.621a4.107 4.107 0 011.612 1.767c.388.764.582 1.657.582 2.68 0 1.023-.194 1.916-.582 2.68a4.118 4.118 0 01-1.612 1.767c-.699.414-1.508.621-2.428.621zm0-1.301c.971 0 1.716-.317 2.234-.951.517-.648.776-1.586.776-2.816 0-1.191-.265-2.11-.796-2.758-.531-.66-1.268-.99-2.214-.99-.958 0-1.702.33-2.233.99-.53.648-.796 1.567-.796 2.758 0 1.23.259 2.168.777 2.816.531.634 1.282.951 2.252.951zM165.568 296.272c-1.644 0-2.945-.421-3.903-1.262l.524-1.165c.531.414 1.068.712 1.612.893a5.758 5.758 0 001.825.272c.738 0 1.295-.123 1.671-.369.388-.259.582-.628.582-1.107 0-.388-.129-.699-.388-.932-.259-.233-.686-.414-1.282-.544l-1.651-.388c-.815-.181-1.449-.505-1.903-.971a2.349 2.349 0 01-.66-1.67c0-.854.343-1.547 1.029-2.078.687-.544 1.593-.815 2.719-.815.686 0 1.333.11 1.942.33.608.22 1.12.537 1.534.951l-.524 1.146c-.919-.764-1.903-1.146-2.952-1.146-.699 0-1.243.136-1.631.408-.376.259-.563.628-.563 1.107 0 .401.116.718.349.951.246.233.635.415 1.165.544l1.651.408c.906.207 1.579.531 2.02.971.44.427.66.99.66 1.689 0 .842-.343 1.515-1.029 2.02-.687.505-1.619.757-2.797.757zM26.222 306.117h1.573v14.293h-1.573v-14.293zM30.85 310.642h1.572v9.768h-1.573v-9.768zm1.766-4.136v1.786h-1.922v-1.786h1.922zM46.312 310.409c2.162 0 3.243 1.288 3.243 3.864v6.137h-1.573v-6.059c0-.919-.162-1.586-.486-2-.31-.414-.822-.622-1.534-.622-.828 0-1.476.279-1.942.835-.466.557-.699 1.314-.699 2.272v5.574h-1.573v-6.059c0-.906-.161-1.566-.485-1.981-.324-.427-.841-.641-1.553-.641-.83 0-1.483.279-1.962.835-.466.557-.699 1.314-.699 2.272v5.574h-1.573v-7.03c0-1.01-.052-1.922-.155-2.738h1.495l.155 1.709c.272-.622.674-1.101 1.204-1.437.544-.337 1.172-.505 1.884-.505.777 0 1.411.155 1.903.466.492.311.854.79 1.087 1.437a3.337 3.337 0 011.302-1.379 3.743 3.743 0 011.96-.524zM57.418 310.409c.854 0 1.611.214 2.272.641.66.427 1.171 1.029 1.534 1.806.362.764.543 1.65.543 2.66 0 1.01-.18 1.897-.543 2.661-.363.75-.874 1.333-1.534 1.747-.648.414-1.405.622-2.272.622-.764 0-1.431-.169-2-.505a3.267 3.267 0 01-1.302-1.437v6h-1.572V313.38c0-1.01-.052-1.922-.156-2.738h1.495l.156 1.884c.272-.674.699-1.191 1.281-1.554.596-.375 1.295-.563 2.098-.563zm-.292 8.836c.958 0 1.696-.324 2.214-.971.53-.648.796-1.567.796-2.758s-.265-2.117-.796-2.777c-.53-.673-1.269-1.01-2.214-1.01-.97 0-1.715.324-2.233.971-.518.648-.777 1.573-.777 2.777 0 1.204.26 2.136.777 2.797.518.647 1.262.971 2.233.971zM64.187 310.642h1.573v9.768h-1.573v-9.768zm1.767-4.136v1.786h-1.922v-1.786h1.922zM76.99 315.477h-7.166c.013 1.243.298 2.182.855 2.816.57.634 1.391.952 2.466.952 1.139 0 2.188-.382 3.145-1.146l.525 1.146c-.427.401-.978.718-1.65.951-.661.233-1.34.35-2.04.35-1.527 0-2.725-.447-3.592-1.34-.868-.907-1.301-2.143-1.301-3.709 0-.997.194-1.877.582-2.641.389-.777.932-1.379 1.631-1.806.7-.427 1.496-.641 2.389-.641 1.294 0 2.31.427 3.049 1.282.738.841 1.107 2.006 1.107 3.495v.291zm-4.137-3.845c-.815 0-1.482.246-2 .738-.505.492-.828 1.185-.97 2.078h5.689c-.078-.919-.35-1.618-.816-2.097-.453-.479-1.087-.719-1.903-.719zM87.01 319.167v1.243h-8.253v-1.088l6.156-7.437h-5.942v-1.243h7.826v1.146l-6.098 7.379h6.311zM97.746 310.642v9.768h-1.554v-1.767a3.134 3.134 0 01-1.3 1.417c-.57.324-1.237.486-2 .486-.868 0-1.632-.208-2.292-.622-.648-.414-1.152-.997-1.515-1.747-.35-.764-.524-1.651-.524-2.661s.18-1.896.543-2.66c.363-.777.868-1.379 1.515-1.806.66-.427 1.418-.641 2.272-.641.764 0 1.43.168 2 .505.57.336 1.003.809 1.301 1.417v-1.689h1.554zm-4.544 8.603c.958 0 1.696-.324 2.213-.971.518-.661.777-1.593.777-2.797 0-1.204-.259-2.129-.776-2.777-.518-.647-1.256-.971-2.214-.971s-1.71.337-2.253 1.01c-.53.66-.796 1.586-.796 2.777s.265 2.11.796 2.758c.531.647 1.282.971 2.253.971zM114.433 310.642l-4.563 10.661c-.479 1.113-1.081 1.929-1.806 2.447-.725.518-1.618.874-2.68 1.068l-.33-1.224c.919-.207 1.612-.485 2.078-.835.479-.336.874-.861 1.184-1.573l.389-.873-4.136-9.671h1.65l3.301 8.059 3.34-8.059h1.573zM129.832 306.117v14.293h-1.553v-1.767a3.138 3.138 0 01-1.301 1.417c-.57.324-1.237.486-2 .486-.855 0-1.612-.214-2.272-.641-.648-.427-1.153-1.023-1.515-1.787-.363-.777-.544-1.67-.544-2.68 0-1.009.175-1.89.524-2.64.363-.764.874-1.353 1.535-1.768.66-.414 1.417-.621 2.272-.621.763 0 1.43.168 2 .505.569.324.997.783 1.281 1.379v-6.176h1.573zm-4.544 13.128c.958 0 1.696-.324 2.214-.971.518-.661.777-1.593.777-2.797 0-1.191-.259-2.11-.777-2.757-.518-.66-1.256-.991-2.214-.991s-1.709.324-2.252.971c-.531.648-.796 1.56-.796 2.738 0 1.204.265 2.143.796 2.816.543.66 1.294.991 2.252.991zM141.049 315.477h-7.166c.013 1.243.298 2.182.855 2.816.569.634 1.391.952 2.466.952 1.139 0 2.188-.382 3.146-1.146l.524 1.146c-.427.401-.977.718-1.651.951-.66.233-1.34.35-2.039.35-1.527 0-2.725-.447-3.592-1.34-.867-.907-1.301-2.143-1.301-3.709 0-.997.194-1.877.582-2.641.389-.777.933-1.379 1.632-1.806.699-.427 1.495-.641 2.388-.641 1.295 0 2.311.427 3.049 1.282.738.841 1.107 2.006 1.107 3.495v.291zm-4.136-3.845c-.816 0-1.483.246-2.001.738-.504.492-.828 1.185-.971 2.078h5.69c-.078-.919-.349-1.618-.815-2.097-.454-.479-1.088-.719-1.903-.719zM146.737 320.546c-1.644 0-2.945-.421-3.903-1.263l.524-1.165a5.434 5.434 0 001.612.894 5.76 5.76 0 001.826.271c.738 0 1.294-.123 1.67-.369.388-.258.582-.627.582-1.106 0-.389-.129-.7-.388-.933-.259-.233-.686-.414-1.282-.543l-1.65-.389c-.816-.181-1.45-.505-1.903-.971a2.344 2.344 0 01-.661-1.67c0-.854.343-1.547 1.029-2.077.687-.544 1.593-.816 2.719-.816.686 0 1.334.11 1.942.33.608.22 1.12.537 1.534.952l-.524 1.145c-.919-.763-1.903-1.145-2.952-1.145-.699 0-1.243.136-1.631.407-.375.259-.563.628-.563 1.107 0 .402.116.719.349.952.246.233.635.414 1.165.544l1.651.407c.906.207 1.579.531 2.02.971.44.427.66.991.66 1.69 0 .841-.343 1.514-1.029 2.019-.686.505-1.619.758-2.797.758zM153.07 310.642h1.573v9.768h-1.573v-9.768zm1.767-4.136v1.786h-1.923v-1.786h1.923zM162.571 310.409c2.343 0 3.515 1.288 3.515 3.864v6.137h-1.573v-6.059c0-.906-.181-1.566-.544-1.981-.362-.427-.932-.641-1.709-.641-.906 0-1.631.279-2.175.835-.543.557-.815 1.308-.815 2.253v5.593h-1.573v-7.03c0-1.01-.052-1.922-.156-2.738h1.496l.155 1.748a3.18 3.18 0 011.34-1.457c.595-.349 1.275-.524 2.039-.524zM172.804 307.399c-.518 0-.926.149-1.224.447-.284.285-.427.783-.427 1.495v1.301h2.389v1.243h-2.389v8.525h-1.573v-8.525h-1.903v-1.243h1.903v-1.495c0-1.023.253-1.793.758-2.311.518-.531 1.236-.796 2.155-.796.453 0 .893.058 1.321.175v1.339a3.714 3.714 0 00-1.01-.155zM183.679 315.477h-7.166c.013 1.243.298 2.182.855 2.816.569.634 1.392.952 2.466.952 1.139 0 2.188-.382 3.146-1.146l.524 1.146c-.427.401-.977.718-1.65.951-.661.233-1.34.35-2.039.35-1.528 0-2.725-.447-3.593-1.34-.867-.907-1.301-2.143-1.301-3.709 0-.997.194-1.877.583-2.641.388-.777.932-1.379 1.631-1.806.699-.427 1.495-.641 2.388-.641 1.295 0 2.311.427 3.049 1.282.738.841 1.107 2.006 1.107 3.495v.291zm-4.136-3.845c-.816 0-1.483.246-2 .738-.505.492-.829 1.185-.971 2.078h5.689c-.077-.919-.349-1.618-.815-2.097-.453-.479-1.088-.719-1.903-.719zM190.164 320.546c-.945 0-1.774-.208-2.486-.622a4.255 4.255 0 01-1.631-1.747c-.375-.764-.563-1.651-.563-2.661s.194-1.896.582-2.66a4.294 4.294 0 011.651-1.806c.725-.427 1.566-.641 2.524-.641.661 0 1.295.117 1.903.35.622.22 1.133.53 1.535.932l-.525 1.165c-.492-.389-.971-.673-1.437-.855a3.736 3.736 0 00-1.398-.272c-.997 0-1.78.337-2.35 1.01-.569.66-.854 1.586-.854 2.777 0 1.178.278 2.097.835 2.758.57.647 1.359.971 2.369.971.479 0 .945-.091 1.398-.272.466-.182.945-.466 1.437-.855l.525 1.165c-.415.389-.939.699-1.573.932a5.756 5.756 0 01-1.942.331zM199.778 320.546c-.945 0-1.773-.208-2.485-.622a4.255 4.255 0 01-1.631-1.747c-.376-.764-.564-1.651-.564-2.661s.195-1.896.583-2.66a4.288 4.288 0 011.651-1.806c.725-.427 1.566-.641 2.524-.641.66 0 1.295.117 1.903.35.621.22 1.133.53 1.534.932l-.524 1.165c-.492-.389-.971-.673-1.437-.855a3.736 3.736 0 00-1.398-.272c-.997 0-1.78.337-2.35 1.01-.57.66-.854 1.586-.854 2.777 0 1.178.278 2.097.835 2.758.569.647 1.359.971 2.369.971.479 0 .945-.091 1.398-.272.466-.182.945-.466 1.437-.855l.524 1.165c-.414.389-.938.699-1.573.932a5.747 5.747 0 01-1.942.331zM205.296 310.642h1.572v9.768h-1.572v-9.768zm1.767-4.136v1.786h-1.923v-1.786h1.923zM213.962 320.546c-.919 0-1.728-.208-2.428-.622-.699-.414-1.242-1.003-1.631-1.767-.375-.764-.563-1.657-.563-2.68 0-1.022.188-1.916.563-2.679.389-.764.932-1.353 1.631-1.768.7-.414 1.509-.621 2.428-.621s1.728.207 2.427.621a4.115 4.115 0 011.612 1.768c.388.763.582 1.657.582 2.679 0 1.023-.194 1.916-.582 2.68a4.107 4.107 0 01-1.612 1.767c-.699.414-1.508.622-2.427.622zm0-1.301c.971 0 1.715-.318 2.233-.952.518-.647.777-1.586.777-2.816 0-1.191-.266-2.11-.796-2.757-.531-.66-1.269-.991-2.214-.991-.958 0-1.703.331-2.233.991-.531.647-.797 1.566-.797 2.757 0 1.23.259 2.169.777 2.816.531.634 1.282.952 2.253.952zm-.563-9.865l1.942-3.962h1.825l-2.66 3.962h-1.107zM225.909 310.409c2.344 0 3.515 1.288 3.515 3.864v6.137h-1.573v-6.059c0-.906-.181-1.566-.543-1.981-.363-.427-.932-.641-1.709-.641-.906 0-1.631.279-2.175.835-.544.557-.816 1.308-.816 2.253v5.593h-1.573v-7.03c0-1.01-.051-1.922-.155-2.738h1.495l.156 1.748a3.176 3.176 0 011.34-1.457c.595-.349 1.275-.524 2.038-.524z" fill="#444"/><path d="M62.28 415.748c0 1.193-.42 2.202-1.26 3.026-.825.81-1.937 1.319-3.336 1.525v2.452h-2.253v-2.408a10.36 10.36 0 01-2.762-.574 7.384 7.384 0 01-2.21-1.26l.973-2.076c1.281 1.001 2.666 1.553 4.153 1.657v-4.596c-.986-.25-1.819-.523-2.496-.817a4.47 4.47 0 01-1.701-1.348c-.457-.604-.685-1.384-.685-2.342 0-.795.199-1.517.596-2.165a4.764 4.764 0 011.657-1.634c.722-.442 1.547-.722 2.475-.84v-2.452h2.253v2.43a9.154 9.154 0 012.408.619c.751.309 1.385.699 1.9 1.17l-.972 2.077c-1.075-.884-2.239-1.414-3.49-1.591v4.795c.986.25 1.804.522 2.452.817.648.28 1.193.707 1.635 1.281.441.575.662 1.326.662 2.254zm-8.727-6.915c0 .515.177.935.53 1.259.354.309.854.574 1.502.795v-4.263c-.633.132-1.134.39-1.502.773-.353.383-.53.861-.53 1.436zm3.976 9.146c.619-.132 1.09-.375 1.414-.729.324-.368.486-.839.486-1.414 0-.456-.162-.825-.486-1.104-.324-.28-.795-.516-1.414-.707v3.954zM72.013 412.102c.928.251 1.635.707 2.121 1.37.501.663.751 1.48.751 2.453 0 1.369-.508 2.452-1.524 3.247-1.001.795-2.356 1.193-4.065 1.193a9.78 9.78 0 01-3.07-.486c-.973-.324-1.775-.773-2.409-1.348l.972-2.076c1.4 1.09 2.865 1.635 4.397 1.635 1.001 0 1.745-.199 2.231-.597.5-.398.751-1.001.751-1.812 0-.795-.25-1.377-.751-1.745-.5-.383-1.274-.574-2.32-.574h-2.076v-2.276h1.7c2.033 0 3.05-.773 3.05-2.319 0-.722-.221-1.274-.663-1.657-.442-.383-1.06-.575-1.856-.575-1.414 0-2.828.545-4.242 1.635l-.95-2.077c.633-.559 1.429-1.001 2.386-1.325a8.996 8.996 0 012.983-.508c1.546 0 2.776.383 3.69 1.148.927.752 1.391 1.761 1.391 3.027-.015.869-.243 1.628-.685 2.276-.427.633-1.03 1.097-1.812 1.391zM83.67 410.136c.986 0 1.855.214 2.607.641a4.29 4.29 0 011.745 1.767c.412.751.618 1.62.618 2.607 0 1.031-.235 1.944-.706 2.74-.472.78-1.15 1.392-2.033 1.833-.884.428-1.907.641-3.07.641a9.04 9.04 0 01-2.917-.486c-.957-.339-1.745-.788-2.364-1.348l.95-2.076c1.429 1.09 2.887 1.635 4.374 1.635.987 0 1.738-.243 2.254-.729.53-.501.795-1.208.795-2.121 0-.869-.272-1.562-.817-2.077-.53-.53-1.245-.795-2.143-.795-.619 0-1.2.117-1.745.353a4.002 4.002 0 00-1.437.994h-1.723v-9.257h9.853v2.21h-7.07v4.286c.796-.545 1.739-.818 2.829-.818zM96.077 420.387c-1.87 0-3.3-.685-4.286-2.054-.972-1.385-1.458-3.395-1.458-6.032 0-2.592.486-4.573 1.458-5.943.987-1.369 2.416-2.054 4.286-2.054 1.87 0 3.292.685 4.264 2.054.987 1.355 1.48 3.336 1.48 5.943 0 2.622-.493 4.625-1.48 6.009-.972 1.385-2.393 2.077-4.264 2.077zm0-2.231c1.016 0 1.753-.464 2.21-1.392.47-.943.706-2.43.706-4.463 0-2.003-.235-3.461-.707-4.374-.456-.928-1.193-1.392-2.209-1.392s-1.76.464-2.231 1.392c-.457.913-.685 2.371-.685 4.374 0 2.033.228 3.52.685 4.463.471.928 1.215 1.392 2.231 1.392zM33.188 401.949a8.946 8.946 0 00-4.148 1.993c-3.431 2.945-4.245 7.704-2.026 11.832a7.906 7.906 0 003.4 3.296c1.496.753 3.052 1.119 4.57 1.119a9.12 9.12 0 005.65-1.943l-1.544-1.98c-2.029 1.581-4.758 1.862-7.281.687a5.755 5.755 0 01-2.734-2.66c-1.6-3.243-.735-6.924 2.241-8.929a6.048 6.048 0 011.794-.821 6.718 6.718 0 018.446 5.186H38.04a3.31 3.31 0 00-5.401-1.084 3.31 3.31 0 105.401 3.595h6.049a.096.096 0 00.096-.096v-1.16c0-5.661-5.14-10.147-10.998-9.035z" fill="#F04350"/><path d="M36.25 383.349c0 .994-.35 1.835-1.049 2.522-.687.676-1.614 1.099-2.78 1.271v2.043h-1.878v-2.006a8.627 8.627 0 01-2.301-.479 6.175 6.175 0 01-1.841-1.049l.81-1.731c1.068.835 2.222 1.295 3.461 1.381v-3.83c-.822-.208-1.516-.435-2.08-.681a3.728 3.728 0 01-1.418-1.123c-.38-.503-.57-1.154-.57-1.951 0-.663.165-1.265.497-1.805a3.97 3.97 0 011.38-1.362c.602-.368 1.29-.601 2.062-.7v-2.043h1.878v2.025c.712.086 1.381.258 2.007.516a5.32 5.32 0 011.583.975l-.81 1.731c-.896-.737-1.865-1.178-2.909-1.326v3.995c.823.209 1.504.436 2.044.682.54.233.994.589 1.362 1.067.368.479.553 1.105.553 1.878zm-7.271-5.762c0 .429.147.779.441 1.049.295.258.712.479 1.252.663v-3.553c-.527.11-.945.325-1.252.644-.294.319-.442.718-.442 1.197zm3.313 7.622c.516-.111.909-.313 1.179-.608.27-.307.405-.699.405-1.178 0-.381-.135-.687-.405-.921-.27-.233-.663-.429-1.179-.589v3.296zM43.037 378.673c.822 0 1.546.178 2.172.534.626.344 1.111.835 1.455 1.473.343.626.515 1.35.515 2.172 0 .859-.196 1.62-.589 2.283-.393.651-.957 1.16-1.694 1.528-.736.356-1.59.534-2.559.534a7.534 7.534 0 01-2.43-.405c-.798-.282-1.454-.657-1.97-1.123l.792-1.731c1.19.909 2.405 1.363 3.645 1.363.822 0 1.448-.203 1.878-.608.442-.417.663-1.006.663-1.767 0-.724-.227-1.301-.681-1.731-.442-.442-1.038-.663-1.786-.663-.516 0-1 .099-1.455.295-.454.184-.853.46-1.196.828H38.36v-7.713h8.21v1.841h-5.89v3.571c.662-.454 1.448-.681 2.356-.681zM53.376 387.215c-1.558 0-2.749-.57-3.571-1.712-.81-1.153-1.215-2.829-1.215-5.026 0-2.16.405-3.811 1.215-4.952.822-1.142 2.013-1.712 3.571-1.712 1.56 0 2.744.57 3.553 1.712.823 1.129 1.234 2.78 1.234 4.952 0 2.185-.411 3.854-1.233 5.008-.81 1.154-1.995 1.73-3.554 1.73zm0-1.859c.847 0 1.46-.387 1.841-1.16.393-.785.59-2.025.59-3.719 0-1.669-.197-2.884-.59-3.645-.38-.773-.994-1.16-1.84-1.16-.848 0-1.467.387-1.86 1.16-.38.761-.57 1.976-.57 3.645 0 1.694.19 2.934.57 3.719.393.773 1.012 1.16 1.86 1.16zM64.415 387.215c-1.558 0-2.749-.57-3.571-1.712-.81-1.153-1.215-2.829-1.215-5.026 0-2.16.405-3.811 1.215-4.952.822-1.142 2.013-1.712 3.571-1.712 1.56 0 2.743.57 3.554 1.712.822 1.129 1.233 2.78 1.233 4.952 0 2.185-.411 3.854-1.233 5.008-.81 1.154-1.995 1.73-3.554 1.73zm0-1.859c.847 0 1.46-.387 1.841-1.16.393-.785.59-2.025.59-3.719 0-1.669-.197-2.884-.59-3.645-.38-.773-.994-1.16-1.84-1.16-.847 0-1.467.387-1.86 1.16-.38.761-.57 1.976-.57 3.645 0 1.694.19 2.934.57 3.719.393.773 1.013 1.16 1.86 1.16z" fill="#C4C4C4"/><path d="M0 14.564C0 6.521 6.485 0 14.486 0h226.943c8.001 0 14.486 6.52 14.486 14.564v240.307H0V14.564z" fill="#E6FF8E"/><path d="M179.782 82.75l-31.964-22.596a14.055 14.055 0 00-8.285-2.56l-59.544.248c-3.403.054-6.521 2.116-9.034 4.41L53.888 77.914a13.847 13.847 0 00-4.49 10.223v122.818c0 3.663 1.46 7.183 4.044 9.779l1.64 1.653a13.913 13.913 0 009.87 4.107h105.851c4.045 0 7.875-1.76 10.53-4.8l.944-1.085a13.912 13.912 0 003.386-9.067V94.093a13.962 13.962 0 00-5.88-11.342zm-6.2 22.563c0 5.6-6.575 8.64-10.851 5.013L135.738 87.48c-5.808-3.983-1.461-9.334-1.461-9.334 1.087-4.392 6.183-6.4 9.996-3.947l26.315 17.05a6.562 6.562 0 012.994 5.512v8.552z" fill="#0071BE"/><path d="M181.314 212.13a13.891 13.891 0 01-10.53 4.8H64.934a13.918 13.918 0 01-9.871-4.107l-1.64-1.653a13.879 13.879 0 01-4.044-9.779v9.565c0 3.663 1.461 7.183 4.044 9.779l1.64 1.653a13.913 13.913 0 009.87 4.107h105.851a13.98 13.98 0 0010.53-4.8l.945-1.085a13.916 13.916 0 003.385-9.067v-9.565c0 3.325-1.194 6.543-3.385 9.067l-.945 1.085zM134.295 78.146c.766-1.369 2.548-4.16 7.679-5.014 0 0-2.28-1.689-9.389 0-4.045.96-10.423 9.103-4.953 14.348l26.993 22.846c2.583 2.187 10.262 3.361 12.561 1.583-3.867-.729-4.383-1.511-4.455-1.583L135.738 87.48c-1.906-1.618-3.83-5.05-1.443-9.334z" fill="#006299"/><path d="M179.782 82.75l-31.964-22.596a14.055 14.055 0 00-8.285-2.56l-6.966.035a13.819 13.819 0 017.126 2.525l31.964 22.597a13.841 13.841 0 015.862 11.325v117.449c0 3.325-1.194 6.543-3.385 9.068l-.944 1.084a13.893 13.893 0 01-10.53 4.8h8.124c4.045 0 7.875-1.76 10.53-4.8l.944-1.084a13.916 13.916 0 003.386-9.068V94.076c0-4.498-2.192-8.73-5.862-11.325z" fill="#006299"/><path d="M125.012 45.646H83.249v21.46h41.763v-21.46z" fill="#0071BE"/><path d="M129.039 50.322H79.223V38.623c0-2.56 2.085-4.64 4.65-4.64h40.516c2.566 0 4.65 2.08 4.65 4.64v11.699z" fill="#EF4538"/><path d="M124.389 34h-7.145c2.566 0 4.65 2.08 4.65 4.64v11.7h7.145V38.623c0-2.56-2.085-4.622-4.65-4.622z" fill="#CE3932"/><path d="M129.039 54.41H79.223v3.432h49.816v-3.431z" fill="#EF4538"/><path d="M82.11 38.427c0 .854 1.122 1.191 1.977 1.263 5.933.444 11.902.533 17.853.23.855-.035 1.746-.106 2.494-.55.73-.445 1.247-1.387.909-2.17-.41-.96-1.693-1.102-2.744-1.102-2.744.018-20.49-1.778-20.49 2.33z" fill="#FC675B"/><path d="M129.039 54.41h-7.483v3.432h7.483v-3.431z" fill="#CE3932"/><path d="M71.561 210.299l.695-122.072c0-3.876 1.64-7.592 4.49-10.223L92.96 59.887H81.7L59.783 78.004a13.848 13.848 0 00-4.49 10.223V196.04l16.267 14.259z" fill="#0093E5"/><path d="M85.976 134.737c0-5.956 6.539-10.774 14.592-10.774h67.134c2.085 0 4.08.32 5.862.907-2.53-3.201-7.234-5.352-12.614-5.352H93.815c-8.07 0-14.592 4.818-14.592 10.774 0 4.409 3.6 8.196 8.73 9.868-1.247-1.6-1.977-3.45-1.977-5.423zM85.085 162.419c0-5.956 6.538-10.774 14.592-10.774h67.134c2.085 0 4.08.32 5.862.907-2.53-3.201-7.234-5.352-12.614-5.352H92.924c-8.071 0-14.592 4.818-14.592 10.774 0 4.41 3.599 8.197 8.73 9.868-1.265-1.6-1.977-3.449-1.977-5.423zM85.976 187.684c0-5.956 6.539-10.775 14.592-10.775h67.134c2.085 0 4.08.32 5.862.907-2.53-3.2-7.234-5.351-12.614-5.351H93.815c-8.07 0-14.592 4.818-14.592 10.774 0 4.409 3.6 8.196 8.73 9.867-1.247-1.6-1.977-3.449-1.977-5.422zM212.142 67.645s.016 6.567 2.547 13.753c2.629 7.463 6.091 12.222 8.851 11.293 1.535-.522-3.593-4.53-4.768-14.08-.784-6.436.506-13.052.506-13.052l-7.136 2.086z" fill="#006299"/><path d="M190.358 79.72c-.196-1.45-4.148-4.889-9.275-4.905-5.111-.016-6.369-2.428-6.565-3.683-.196-1.255 2.417-7.724 19.71-10.95 17.294-3.227 37.184-1.402 37.184-1.402v6.746s-12.362.294-18.731 4.824c-6.368 4.53-7.626 9.353-7.626 9.353h-14.697v.017z" fill="#0071BE"/><path d="M201.936 79.215l-9.945-.05c-.196-1.45-5.765-6.794-10.892-6.81-3.887-.017-5.553-1.402-6.206-2.624-.326.651-.408 1.14-.359 1.401.196 1.255 1.453 3.666 6.565 3.683 5.111.016 9.079 3.454 9.275 4.905h14.681s1.257-4.824 7.626-9.354c6.368-4.53 18.73-4.823 18.73-4.823v-.962s-12.247-.277-18.763 3.813c-6.63 4.172-10.712 10.82-10.712 10.82z" fill="#006299"/><path d="M224.7 165.498c0-12.222-9.194-19.343-8.508-24.101.686-4.758 9.863-6.11 8.508-20.027-1.356-13.916-18.584-25.29-18.584-25.29V82.8H189.46v13.28s-17.228 11.374-18.584 25.29c-1.355 13.917 7.822 15.269 8.508 20.027.686 4.758-8.508 11.879-8.508 24.101l-2.89 59.119a3.19 3.19 0 003.184 3.34h53.252a3.182 3.182 0 003.184-3.34l-2.906-59.119z" fill="#CDEDEA"/><path d="M219.784 164.259c0-12.222-7.479-19.343-6.924-24.101.441-3.845 7.986-5.475 9.276-13.346h-47.961c1.29 7.887 8.295 9.501 8.753 13.346.555 4.758-6.924 11.879-6.924 24.101l-2.352 54.605c-.065 1.809 1.111 3.341 2.597 3.341h43.307c1.486 0 2.661-1.516 2.596-3.341l-2.368-54.605z" fill="#93D850"/><path d="M219.784 164.259c0-12.222-7.479-19.343-6.924-24.101.441-3.845 7.986-5.475 9.276-13.346h-6.973c-2.613 4.547-7.479 6.209-7.838 9.272-.556 4.759 6.923 11.88 6.923 24.101l2.352 54.605c.065 1.809-1.11 3.341-2.597 3.341h-40.318l-.033.733c-.065 1.809 1.111 3.341 2.597 3.341h43.307c1.486 0 2.661-1.516 2.596-3.341l-2.368-54.605z" fill="#6EC646"/><path d="M174.175 126.813c-.735 2.313 12.933 2.59 22.911 2.476 9.977-.114 24.935-.423 25.05-2.476.114-2.054-14.616-1.923-24.936-1.94-10.321-.016-22.454.131-23.025 1.94z" fill="#AAF45D"/><path d="M207.733 79.214h-19.841v14.487h19.841V79.214z" fill="#0071BE"/><path d="M207.733 79.214h-3.413v14.487h3.413V79.214zM231.411 58.813c.376.18 3.772.521 3.772.521v5.427l-3.772.798v-6.746z" fill="#006299"/><path opacity=".53" d="M190.309 82.848c.049 1.792.114 3.601.163 5.394.016.717.049 1.466.408 2.085.343.62 1.127 1.076 1.797.815.571-.228.865-.88.914-1.499.049-.62-.114-1.222-.131-1.841-.065-1.956 1.878-5.199.131-6.893-1.633-1.58-3.348.13-3.282 1.939zM182.209 69.568c.702 0 1.355-.261 1.992-.57 2.613-1.24 4.965-2.983 7.643-4.075 2.906-1.189 6.074-1.564 9.161-2.2.31-.065.653-.146.833-.407.277-.39 0-.994-.441-1.206-.441-.211-.947-.162-1.437-.114a59.06 59.06 0 00-13.603 3.325c-1.47.554-4.181 1.14-5.34 2.232-1.176 1.14-.67 2.998 1.192 3.015zM178.894 122.837c-.425 2.411-.62 4.97.278 7.251.898 2.281 3.184 4.172 5.634 3.911.391-.049.816-.163 1.061-.456.212-.261.278-.603.31-.929.245-2.265-.555-4.481-.947-6.73-1.306-7.496 2.041-15.008 6.026-21.51 1.274-2.086.326-4.383-2.009-2.754-1.91 1.337-3.527 4.4-4.719 6.355a42.391 42.391 0 00-5.634 14.862zM182.487 155.394c-.441.929-.49 1.988-.539 2.999-.376 10.591.686 21.232-.555 31.759-.67 5.622-1.976 11.439-.18 16.8.441 1.32 1.356 2.77 2.744 2.754 1.698-.016 2.482-2.102 2.694-3.78.392-3.129.392-6.29.392-9.452V167.42c0-3.617 0-7.268-.474-10.853-.326-2.46-2.694-4.122-4.082-1.173z" fill="#fff"/><path d="M214.852 114.363l1.96 7.692 4.311 1.597s-.914-6.111-2.498-9.077c-3.217-6.013-7.822-11.928-11.448-14.03-1.175-.684-5.437-1.743-5.437-1.743 3.086.863 11.055 9.06 13.112 15.561z" fill="#B3CECB"/><path opacity=".3" d="M206.59 173.743c0 .978-.801 1.776-1.78 1.776-.98 0-1.78-.798-1.78-1.776s.8-1.776 1.78-1.776c.979 0 1.78.798 1.78 1.776z" fill="#fff"/><path opacity=".37" d="M203.764 172.961c-.147.195-.18.489-.016.668.098.13.277.179.441.163a.9.9 0 00.441-.196c.179-.146.31-.374.293-.603-.098-.635-.914-.374-1.159-.032z" fill="#fff"/><path opacity=".3" d="M196.384 167.404c0 .978-.801 1.777-1.78 1.777-.98 0-1.78-.799-1.78-1.777 0-.977.8-1.776 1.78-1.776.979 0 1.78.799 1.78 1.776z" fill="#fff"/><path opacity=".37" d="M193.559 166.622c-.147.196-.18.489-.017.668.098.131.278.18.441.163a.89.89 0 00.441-.195c.18-.147.31-.375.294-.603-.098-.636-.898-.375-1.159-.033z" fill="#fff"/><path opacity=".3" d="M208.353 160.315c0 .978-.8 1.777-1.78 1.777-.979 0-1.78-.799-1.78-1.777 0-.977.801-1.776 1.78-1.776.996.017 1.78.799 1.78 1.776z" fill="#fff"/><path opacity=".37" d="M205.544 159.533c-.147.196-.179.489-.016.668.098.13.278.179.441.163a.907.907 0 00.441-.195c.18-.147.31-.375.294-.603-.098-.62-.915-.359-1.16-.033z" fill="#fff"/><path opacity=".3" d="M190.178 150.457c0 .798-.702 1.45-1.568 1.45-.865 0-1.567-.652-1.567-1.45 0-.799.702-1.45 1.567-1.45.866 0 1.568.651 1.568 1.45z" fill="#fff"/><path opacity=".37" d="M187.696 149.805c-.13.163-.163.407-.016.554a.486.486 0 00.392.13.84.84 0 00.392-.163c.163-.114.277-.31.245-.489-.082-.521-.8-.293-1.013-.032z" fill="#fff"/><path opacity=".3" d="M203.651 143.776c0 .799-.703 1.45-1.568 1.45-.866 0-1.568-.651-1.568-1.45 0-.798.702-1.45 1.568-1.45.865 0 1.568.652 1.568 1.45z" fill="#fff"/><path opacity=".37" d="M201.152 143.141c-.13.163-.163.407-.016.554a.48.48 0 00.392.13.834.834 0 00.392-.163c.163-.114.277-.309.245-.489-.066-.521-.784-.309-1.013-.032z" fill="#fff"/><path opacity=".3" d="M211.423 132.565c0 .799-.702 1.451-1.567 1.451-.866 0-1.568-.652-1.568-1.451 0-.798.702-1.45 1.568-1.45.865 0 1.567.652 1.567 1.45z" fill="#fff"/><path opacity=".37" d="M208.941 131.93c-.131.163-.163.407-.016.554a.483.483 0 00.392.13.826.826 0 00.391-.163c.164-.114.278-.309.245-.489-.081-.537-.8-.309-1.012-.032z" fill="#fff"/><path opacity=".3" d="M193.395 138.676c0 .798-.702 1.45-1.567 1.45-.866 0-1.568-.652-1.568-1.45 0-.799.702-1.45 1.568-1.45.865-.017 1.567.635 1.567 1.45z" fill="#fff"/><path opacity=".37" d="M190.897 138.024c-.131.163-.163.408-.016.554a.484.484 0 00.392.131.855.855 0 00.392-.163c.163-.115.277-.31.244-.489-.065-.522-.783-.31-1.012-.033z" fill="#fff"/><path opacity=".3" d="M202.605 196.947c0 .799-.702 1.451-1.567 1.451-.866 0-1.568-.652-1.568-1.451 0-.798.702-1.45 1.568-1.45.865 0 1.567.652 1.567 1.45z" fill="#fff"/><path opacity=".37" d="M200.123 196.295c-.131.163-.164.408-.017.554a.484.484 0 00.392.131.84.84 0 00.392-.163c.164-.114.278-.31.245-.489-.081-.522-.8-.31-1.012-.033z" fill="#fff"/><path opacity=".3" d="M211.391 219.483c.866 0 1.568-.649 1.568-1.45 0-.801-.702-1.45-1.568-1.45-.866 0-1.568.649-1.568 1.45 0 .801.702 1.45 1.568 1.45z" fill="#fff"/><path opacity=".37" d="M210.477 217.398c-.131.163-.163.407-.016.554a.483.483 0 00.391.13.83.83 0 00.392-.163c.164-.114.278-.31.245-.489-.065-.537-.784-.309-1.012-.032z" fill="#fff"/><path opacity=".3" d="M194.392 206.952c0 .799-.703 1.451-1.568 1.451-.866 0-1.568-.652-1.568-1.451 0-.798.702-1.45 1.568-1.45.865 0 1.568.652 1.568 1.45z" fill="#fff"/><path opacity=".37" d="M191.91 206.3c-.131.163-.163.408-.017.555a.486.486 0 00.392.13.84.84 0 00.392-.163c.164-.114.278-.31.245-.489-.081-.521-.784-.31-1.012-.033z" fill="#fff"/><path d="M96.065 121.636H85.02v6.4h11.046v-6.4z" fill="#459B9B"/><path d="M112.778 228.097H67.772c-3.172 0-5.755-2.578-5.755-5.742v-66.156c0-8.943 7.27-16.197 16.231-16.197h24.071c8.962 0 16.231 7.254 16.231 16.197v66.156c-.017 3.164-2.601 5.742-5.772 5.742z" fill="#CDEDEA"/><path d="M66.596 173.018v44.465c0 3.165 2.156 5.743 4.829 5.743h37.701c2.672 0 4.828-2.578 4.828-5.743v-44.465H66.596z" fill="#FF5D80"/><path d="M107.878 173.018v39.949c0 3.165-2.156 5.743-4.828 5.743H66.685c.463 2.596 2.405 4.534 4.722 4.534h37.7c2.655 0 4.829-2.578 4.829-5.743v-44.483h-6.058z" fill="#EA577E"/><path d="M66.596 173.124c0 2.703 11.403 2.809 23.68 3.04 12.275.232 23.678-1.795 23.678-3.04 0-1.244-15.358-1.369-23.608-1.369-8.267 0-23.75.356-23.75 1.369z" fill="#FF94AB"/><path d="M103.103 127.236H77.981v13.032h25.122v-13.032z" fill="#5CCCD8"/><path d="M103.103 127.236h-7.038v13.032h7.038v-13.032z" fill="#53BCC1"/><path d="M97.865 140.251h-14.77v8.569h14.77v-8.569zM92.627 148.821h-4.65v25.157h4.65v-25.157z" fill="#86EAEF"/><path d="M112.421 107.644c-6.218-1.511-28.436-.445-28.436-.445a3.304 3.304 0 00-3.314 3.307v9.725a3.304 3.304 0 003.314 3.307h13.15a3.304 3.304 0 003.313-3.307v-7.36c1.675-.249 3.51-.462 5.345-.516 6.397-.231 9.105 1.227 9.105 1.227l4.614-.498c-.017-.018-.979-3.965-7.091-5.44z" fill="#5CCCD8"/><path d="M115.451 108.906c1.817 1.529 2.191 3.094 2.191 3.094l-4.615.498s-2.708-1.458-9.104-1.227c-1.835.071-3.67.267-5.345.515v7.361a3.304 3.304 0 01-3.314 3.307h-13.15c-.266 0-.534-.036-.8-.089a3.334 3.334 0 002.654 1.333h13.149a3.304 3.304 0 003.314-3.306v-7.361c1.675-.249 3.51-.462 5.345-.516 6.396-.231 9.104 1.227 9.104 1.227l4.615-.498c0-.017-.624-2.56-4.044-4.338z" fill="#53BCC1"/><path d="M103.103 139.699H77.981v.569h25.122v-.569z" fill="#459B9B"/><path opacity=".53" d="M70.872 155.523a45.945 45.945 0 00.178 5.191c.125 1.369.375 2.827 1.283 3.858.91 1.032 2.727 1.387 3.653.374.695-.765.66-1.92.624-2.952a31.885 31.885 0 01.516-6.773c.25-1.334.588-2.685 1.354-3.805 1.248-1.849 3.403-2.809 5.417-3.769 2.655-1.28 1.835-3.183-.677-3.752-1.675-.373-3.867-.64-5.541-.142-5.167 1.582-6.718 6.987-6.807 11.77zM70.89 170.191c-.16 1.369.196 2.738.463 4.089 1.835 9.281-.66 18.917.232 28.34.107 1.138.285 2.311.909 3.254.641.942 1.853 1.6 2.94 1.226 1.532-.515 1.835-2.507 1.817-4.124-.071-8.499-1.818-16.997-.713-25.425.267-2.044.695-4.107.356-6.133-.588-3.592-5.398-6.454-6.004-1.227z" fill="#fff"/><path d="M110.551 158.883v8.623l3.403 2.578v-11.201c0-8.943-4.151-16.197-9.283-16.197h-3.403c5.132 0 9.283 7.254 9.283 16.197z" fill="#B3CECB"/><path opacity=".53" d="M82.382 109.546c-.41.48-.588 1.12-.66 1.743a7.763 7.763 0 00.642 4.107c.142.284.303.604.606.729.48.231 1.069-.107 1.3-.569.25-.463.25-1.014.25-1.547.035-1.031.178-2.134.855-2.898.748-.854 1.978-1.12 3.118-1.191 1.14-.054 2.316.035 3.403-.303.285-.088.588-.231.695-.515.125-.338-.125-.711-.446-.871-.32-.16-.694-.143-1.05-.125-1.782.089-3.582.16-5.364.32-1.122.107-2.565.231-3.35 1.12z" fill="#fff"/><path d="M56.827 128.009v-.302c0-3.467-2.815-6.276-6.29-6.276h-3.064c-3.474 0-6.29 2.809-6.29 6.276v.302a6.26 6.26 0 01-2.155 4.729l-14.556 12.659a6.26 6.26 0 00-2.156 4.729v72.664c0 3.466 2.815 6.276 6.29 6.276h40.836c3.474 0 6.29-2.81 6.29-6.276v-72.646a6.258 6.258 0 00-2.157-4.729L59.02 132.756a6.183 6.183 0 01-2.192-4.747z" fill="#CDEDEA"/><path d="M73.54 145.397l-14.557-12.659a6.26 6.26 0 01-2.155-4.729v-.302c0-3.467-2.816-6.276-6.29-6.276h-1.015a6.232 6.232 0 011.567 4.16v.302c0 1.814.784 3.538 2.156 4.729l14.557 12.659a6.26 6.26 0 012.156 4.729v72.664c0 3.467-2.815 6.276-6.29 6.276H23.866c1.158 1.298 2.833 2.133 4.721 2.133h40.837c3.474 0 6.29-2.809 6.29-6.276v-72.663c0-1.813-.802-3.538-2.174-4.747z" fill="#B3CECB"/><path d="M58.181 120.648H39.812v9.068h18.37v-9.068z" fill="#EF4538"/><path d="M36.73 120.649h24.534l-1.907-5.618H38.85l-2.12 5.618zM55.705 112.665H42.27v2.347h13.434v-2.347z" fill="#EF4538"/><path d="M48.667 112.666H40.15s2.263-5.832 8.749-5.832c6.948 0 8.944 5.832 8.944 5.832h-9.176z" fill="#EF4538"/><path d="M39.812 120.648h18.37v9.05h-2.46l-1.62-5.974-14.29-2.293v-.783zM55.705 112.665H42.27v2.347h13.434v-2.347z" fill="#CE3932"/><path d="M43.785 109.661c-.178.231-.356.498-.428.782-.07.285-.053.622.143.871.25.303.677.392 1.069.445.837.107 1.817.107 2.352-.534.303-.355.392-.817.57-1.244a3.2 3.2 0 01.784-1.102c.232-.196.499-.392.57-.694a.628.628 0 00-.213-.622c-.588-.462-1.978.107-2.566.356a6.106 6.106 0 00-2.281 1.742zM40.382 116.879c-.178.356-.356.693-.517 1.049-.125.249-.25.498-.285.782-.035.267.036.587.25.747.124.107.285.142.427.178.642.142 1.3.089 1.942.018.232-.018.481-.054.677-.178.321-.196.446-.587.535-.96.125-.463.25-.925.374-1.369.32-1.156-.41-1.654-1.497-1.689-.908-.036-1.514.657-1.906 1.422zM41.344 123.759a23.453 23.453 0 00.036 4.036c.018.196.035.391.142.534.107.177.303.284.5.355.463.214 1.104.303 1.425-.106.125-.16.16-.374.196-.569a14 14 0 00.036-4.481c-.036-.249-.09-.533-.268-.711-.855-.835-2.013 0-2.067.942z" fill="#FC675B"/><path d="M40.935 129.698h16.124l1.123 1.92-17.604-.96.357-.96z" fill="#9DB2AF"/><path opacity=".53" d="M31.278 143.086c-.481.444-.962.889-1.247 1.476-.286.586-.321 1.315.053 1.849.41.586 1.212.746 1.924.853 2.37.302 5.025.178 6.77-1.422.57-.516 1.016-1.174 1.444-1.814 1.532-2.275 3.082-4.587 3.973-7.165.428-1.226.624-3.627-1.265-3.751-1.407-.089-2.815 2.205-3.706 3.076-2.512 2.418-5.345 4.533-7.946 6.898z" fill="#fff"/><path d="M56.008 153.664H22.28v61.018h33.728v-61.018z" fill="#5BA93A"/><path d="M54.084 155.157H22.28v56.52h31.804v-56.52z" fill="#93D850"/><path d="M28.82 201.775c5.06-6.223 12.703-10.312 20.703-11.077-1.675 4.605-4.704 8.712-8.606 11.699-4.026 3.076-10.476 6.507-15.572 7.023-.125-2.756 1.817-5.601 3.474-7.645z" fill="#5BA93A"/><path d="M36.355 179.551c-.017.017 1.14 5.244 1.194 5.778.178 2.169.09 4.338-.25 6.489-.676 4.196-2.333 8.321-4.899 11.734-2.245 2.987-7.43 10.721-7.59 1.778-.071-3.893.642-11.058 2.05-14.632 1.941-4.925 5.63-8.481 9.495-11.147zM24.347 167.532l-2.067-4v4.925l.303.586c.178.356.267.569.285.694.018.106-.053.195-.178.266-.107.054-.214.054-.285-.017-.036-.036-.071-.089-.125-.16v1.689c.357-.072.73-.196 1.105-.392.41-.213.748-.462.997-.729.25-.266.41-.568.481-.888.072-.32.072-.605 0-.836-.07-.231-.249-.605-.516-1.138zM22.725 162.181l2.014-1.032c.552-.284.98-.462 1.318-.533.339-.071.606-.071.838 0 .231.071.41.196.57.373.16.178.356.498.57.925l.32.604c.232.445.34.801.357 1.049 0 .249-.107.516-.32.765-.215.249-.535.48-.98.711l-.535.285 1.443 2.809-2.013 1.031-3.582-6.987zm2.62.177l.908 1.778c.054-.017.107-.053.143-.071.178-.089.285-.195.32-.32.036-.124-.017-.302-.16-.569l-.303-.569c-.125-.231-.25-.373-.356-.409-.107-.035-.303.018-.553.16zM27.625 159.674l3.35-1.725.712 1.405-1.336.693.677 1.316 1.247-.64.677 1.333-1.247.64.784 1.529 1.479-.764.713 1.404-3.475 1.796-3.581-6.987zM31.67 157.594l1.425-.729c.944-.48 1.604-.783 1.978-.889.374-.107.73-.071 1.087.089.356.16.677.533.98 1.138.285.551.392.942.338 1.209-.053.266-.285.533-.713.782.446-.107.767-.125.98-.054.214.072.375.178.464.285.089.107.285.444.588 1.013l.944 1.832-1.87.96-1.195-2.312c-.196-.373-.338-.586-.463-.64-.107-.053-.303-.017-.588.125l1.621 3.147-2.013 1.031-3.563-6.987zm2.637.16l.801 1.546c.232-.124.375-.231.428-.32.053-.106.018-.302-.143-.622l-.196-.391c-.106-.213-.231-.338-.356-.373-.125-.018-.303.035-.534.16z" fill="#5BA93A"/><path d="M29.692 175.586h-2.405v-1.796c0-.516-.018-.853-.072-.978-.053-.124-.16-.195-.338-.195-.196 0-.321.071-.374.231-.054.16-.072.498-.072 1.031v4.818c0 .498.018.836.072.978.053.16.178.231.356.231s.303-.071.356-.231c.054-.16.09-.516.09-1.085v-1.298h2.405v.409c0 1.067-.072 1.832-.196 2.276-.143.445-.428.836-.891 1.174-.463.337-1.034.497-1.71.497-.695 0-1.284-.142-1.747-.426a1.97 1.97 0 01-.908-1.192c-.143-.497-.214-1.262-.214-2.275v-3.023c0-.746.018-1.298.071-1.671.054-.373.178-.729.41-1.084.232-.338.534-.623.944-.818.41-.196.855-.303 1.39-.303.713 0 1.283.16 1.746.463.463.302.766.693.909 1.138.142.462.213 1.173.213 2.133v.996h-.035zM32.953 171.07v8.285h1.46v2.08h-3.866v-10.347h2.405v-.018zM35.001 171.07h4.01v2.08h-1.604v1.956h1.496v1.973h-1.496v2.276h1.764v2.08H35V171.07zM43.999 171.07l1.372 10.347h-2.459l-.125-1.867h-.855l-.142 1.867h-2.477l1.23-10.347h3.456zm-1.265 6.667a133.67 133.67 0 01-.374-4.356 95.973 95.973 0 00-.463 4.356h.837zM51.143 171.07v10.347h-2.102l-1.247-4.711v4.711H45.78V171.07h2.014l1.354 4.658v-4.658h1.995z" fill="#CDEDEA"/><path opacity=".53" d="M27.055 153.895c.464 11.93.945 23.877 1.408 35.807.036.8.071 1.618.41 2.347.338.729 1.051 1.351 1.853 1.316 1.372-.054 1.995-1.725 2.084-3.094.125-1.813-.07-3.627-.213-5.44a115.892 115.892 0 011.087-27.771c.249-1.565.534-3.201.017-4.712-.516-1.529-2.494-2.951-4.169-2.773-2.227.249-2.548 2.578-2.477 4.32zM28.035 217.171c.036.907.071 1.832.428 2.667.356.836 1.086 1.565 1.995 1.672 1.087.106 2.085-.747 2.495-1.761.41-1.013.374-2.133.338-3.235-.125-3.432-.267-6.863-.392-10.295-.071-1.742-.142-3.484-.196-5.227-.053-1.209.285-3.218-.25-4.32-.73-1.511-3.1-1.44-3.99-.089-1.337 1.991-.553 6.756-.57 9.068-.036 3.84 0 7.68.142 11.52z" fill="#fff"/></svg>