<svg width="106" height="183" fill="none" xmlns="http://www.w3.org/2000/svg"><path d="M0 7.625A7.625 7.625 0 017.626 0h90.748A7.625 7.625 0 01106 7.625v167.75A7.625 7.625 0 0198.374 183H7.626A7.626 7.626 0 010 175.375V7.625z" fill="#fff"/><path d="M0 6.003A6.001 6.001 0 016 0h94c3.314 0 6 2.687 6 6.003v99.044H0V6.003z" fill="#E2FFC8"/><path d="M24.287 167.273c0 .529-.186.977-.56 1.344-.365.359-.86.585-1.48.677v1.089h-1.001v-1.07a4.615 4.615 0 01-1.227-.255 3.281 3.281 0 01-.98-.559l.431-.922c.569.444 1.184.69 1.844.735v-2.04a7.312 7.312 0 01-1.108-.363 1.99 1.99 0 01-.756-.599c-.202-.268-.304-.614-.304-1.04 0-.353.088-.673.265-.961a2.12 2.12 0 01.736-.726c.32-.196.687-.321 1.099-.373v-1.089h1v1.079a4.1 4.1 0 011.07.275c.333.137.615.311.844.52l-.432.922c-.478-.392-.994-.628-1.55-.706v2.129c.438.111.801.232 1.089.363.288.124.53.314.726.569.196.255.294.588.294 1.001zm-3.875-3.071c0 .229.078.415.235.559.157.137.38.255.667.353v-1.893c-.28.059-.503.173-.667.343a.905.905 0 00-.235.638zm1.766 4.061c.274-.058.484-.166.628-.323a.917.917 0 00.215-.628.617.617 0 00-.215-.491c-.144-.124-.354-.229-.628-.314v1.756zM28.708 165.654c.451.111.804.317 1.06.618.255.301.382.664.382 1.089 0 .399-.111.749-.333 1.05-.216.294-.524.52-.923.677-.392.156-.847.235-1.363.235-.517 0-.975-.079-1.374-.235a2.104 2.104 0 01-.922-.677 1.755 1.755 0 01-.324-1.05c0-.425.128-.788.383-1.089.255-.301.608-.507 1.06-.618a1.973 1.973 0 01-.933-.618 1.539 1.539 0 01-.333-.981c0-.38.104-.71.314-.991.209-.288.497-.507.863-.658a3.233 3.233 0 011.266-.235c.47 0 .89.078 1.255.235.373.151.664.37.874.658.209.281.314.611.314.991 0 .379-.115.713-.344 1-.222.282-.53.481-.922.599zm-1.177-2.492c-.386 0-.69.088-.913.265-.222.176-.333.428-.333.755 0 .308.11.559.333.756.23.189.533.314.913.372.379-.058.68-.183.902-.372a.951.951 0 00.344-.756c0-.327-.112-.579-.334-.755-.222-.177-.527-.265-.912-.265zm0 5.17c.444 0 .791-.091 1.04-.275.255-.183.382-.444.382-.784a.925.925 0 00-.392-.776c-.255-.196-.599-.323-1.03-.382-.432.059-.779.186-1.04.382a.933.933 0 00-.383.776c0 .34.124.601.373.784.255.184.605.275 1.05.275zM33.413 169.333c-.83 0-1.465-.304-1.903-.913-.432-.614-.648-1.507-.648-2.678 0-1.151.216-2.031.648-2.639.438-.608 1.073-.912 1.903-.912.83 0 1.462.304 1.894.912.438.602.657 1.481.657 2.639 0 1.164-.219 2.054-.657 2.669-.432.614-1.063.922-1.894.922zm0-.991c.452 0 .779-.206.981-.618.21-.419.314-1.079.314-1.982 0-.889-.104-1.537-.314-1.942-.202-.413-.53-.619-.98-.619-.452 0-.782.206-.992.619-.202.405-.304 1.053-.304 1.942 0 .903.102 1.563.304 1.982.21.412.54.618.991.618zM12.473 162.011a3.671 3.671 0 00-1.703.818c-1.409 1.21-1.743 3.163-.832 4.858a3.247 3.247 0 001.396 1.354 4.168 4.168 0 001.877.459c.837 0 1.646-.272 2.319-.798l-.634-.813c-.833.65-1.953.765-2.99.282a2.36 2.36 0 01-1.122-1.092c-.656-1.331-.302-2.842.92-3.666a2.758 2.758 0 014.204 1.792h-1.442a1.36 1.36 0 100 1.031h2.483c.022 0 .04-.017.04-.039v-.476a3.786 3.786 0 00-4.516-3.71z" fill="#F04350"/><path d="M13.496 153.587a1.4 1.4 0 01-.434 1.041c-.283.279-.666.454-1.147.525v.843h-.775v-.828a3.519 3.519 0 01-.95-.198 2.518 2.518 0 01-.76-.433l.334-.714c.44.344.917.534 1.429.57v-1.581a5.717 5.717 0 01-.86-.281 1.541 1.541 0 01-.584-.464c-.157-.208-.236-.476-.236-.805 0-.274.068-.522.205-.745a1.64 1.64 0 01.57-.563c.248-.152.532-.248.851-.289v-.843h.776v.836c.294.035.57.106.828.213.258.106.476.24.654.402l-.335.715a2.392 2.392 0 00-1.2-.547v1.649c.339.086.62.18.843.281.223.096.41.243.563.441.152.198.228.456.228.775zm-3.003-2.379c0 .178.061.322.183.434.121.106.294.197.517.273v-1.467a.979.979 0 00-.517.266.702.702 0 00-.183.494zm1.368 3.147c.213-.046.375-.129.487-.251a.71.71 0 00.167-.486.477.477 0 00-.167-.38 1.348 1.348 0 00-.487-.244v1.361zM17.916 154.317v.798h-3.337v-.798h1.186v-3.489l-1.102.662v-.875l1.505-.912h.57v4.614h1.178zM22.458 154.317v.798h-3.633v-.722l1.84-1.984c.217-.238.377-.456.478-.653.101-.198.152-.393.152-.586 0-.248-.073-.435-.22-.562-.142-.127-.347-.19-.616-.19-.476 0-.965.187-1.467.562l-.327-.714c.213-.193.487-.345.821-.456a3.041 3.041 0 011.011-.175c.542 0 .97.134 1.285.403.319.263.478.621.478 1.072 0 .309-.068.6-.205.874-.132.273-.355.58-.669.919l-1.33 1.414h2.402zM25.13 155.183c-.643 0-1.135-.235-1.474-.707-.335-.476-.502-1.167-.502-2.074 0-.892.167-1.574.502-2.045.339-.471.83-.707 1.474-.707.643 0 1.132.236 1.467.707.34.466.51 1.148.51 2.045 0 .901-.17 1.591-.51 2.067-.335.476-.824.714-1.467.714zm0-.767c.35 0 .603-.16.76-.479.162-.324.243-.836.243-1.535 0-.69-.08-1.191-.243-1.505-.157-.32-.41-.479-.76-.479-.35 0-.605.159-.768.479-.157.314-.235.815-.235 1.505 0 .699.078 1.211.235 1.535.163.319.418.479.768.479z" fill="#C4C4C4"/><path d="M13.105 120.215v.55H9.94v-.55h1.252v-4.313l-1.165.741v-.629l1.452-.925h.374v5.126h1.252zM13.516 121.204l2.05-6.41h.597l-2.057 6.41h-.59zM20.287 120.215v.55h-3.652v-.494l1.985-2.2c.266-.298.46-.567.582-.806.123-.239.184-.478.184-.717 0-.314-.09-.553-.271-.718-.181-.17-.439-.255-.774-.255-.542 0-1.079.218-1.61.654l-.247-.502a2.46 2.46 0 01.845-.511c.34-.127.683-.191 1.028-.191.521 0 .933.135 1.236.407.303.265.454.627.454 1.084 0 .324-.074.638-.223.941-.143.297-.385.632-.725 1.004l-1.619 1.754h2.807zM26.987 114.897v5.868h-.638v-.725c-.117.25-.295.444-.534.582a1.633 1.633 0 01-.822.199c-.35 0-.661-.087-.932-.263a1.758 1.758 0 01-.622-.733 2.576 2.576 0 01-.224-1.101c0-.414.072-.776.216-1.084.149-.314.359-.555.63-.726.27-.17.582-.255.933-.255.313 0 .587.069.82.208.235.133.41.321.527.566v-2.536h.646zm-1.866 5.39c.393 0 .696-.133.909-.399.213-.271.319-.653.319-1.148 0-.489-.106-.866-.319-1.132-.213-.271-.516-.406-.909-.406s-.702.132-.925.398c-.218.266-.327.641-.327 1.124 0 .495.11.88.327 1.156.223.271.532.407.925.407zM29.894 120.821c-.378 0-.71-.085-.997-.255a1.738 1.738 0 01-.67-.725c-.154-.314-.23-.681-.23-1.101 0-.42.076-.786.23-1.1a1.74 1.74 0 01.67-.726c.287-.17.62-.255.997-.255s.71.085.996.255c.287.171.508.412.662.726.16.314.24.68.24 1.1 0 .42-.08.787-.24 1.101a1.688 1.688 0 01-.662.725c-.287.17-.619.255-.996.255zm0-.534c.398 0 .704-.13.917-.391.212-.265.319-.651.319-1.156 0-.489-.11-.866-.327-1.132-.218-.271-.521-.406-.91-.406-.393 0-.698.135-.916.406-.218.266-.327.643-.327 1.132 0 .505.106.891.319 1.156.218.261.526.391.925.391zM34.48 120.821c-.388 0-.728-.085-1.02-.255a1.747 1.747 0 01-.67-.717 2.45 2.45 0 01-.231-1.093c0-.414.08-.778.239-1.092.16-.319.385-.566.678-.742a2.007 2.007 0 011.036-.263c.271 0 .532.048.782.144.255.09.465.218.63.383l-.216.478a2.33 2.33 0 00-.59-.351 1.54 1.54 0 00-.574-.111c-.41 0-.73.138-.965.414-.234.271-.35.651-.35 1.14 0 .484.114.861.342 1.132.234.266.558.399.973.399.197 0 .388-.037.574-.112.191-.074.388-.191.59-.35l.215.478c-.17.159-.385.287-.645.383-.256.09-.521.135-.798.135zM40.102 118.74H37.16c.005.511.122.896.35 1.156.235.261.572.391 1.013.391a2.03 2.03 0 001.292-.47l.215.47a1.867 1.867 0 01-.677.391c-.272.095-.55.143-.837.143-.628 0-1.12-.183-1.475-.55-.357-.372-.535-.88-.535-1.523 0-.409.08-.77.24-1.084.159-.319.382-.566.67-.742.286-.175.613-.263.98-.263.531 0 .949.176 1.252.527.303.345.454.823.454 1.435v.119zm-1.698-1.578c-.335 0-.609.101-.821.303-.208.202-.34.486-.399.853h2.336c-.032-.378-.144-.665-.335-.861-.186-.197-.446-.295-.781-.295zM43.084 116.659c.962 0 1.443.529 1.443 1.587v2.519h-.646v-2.487c0-.372-.075-.643-.224-.813-.148-.176-.382-.263-.701-.263-.372 0-.67.114-.893.342-.223.229-.335.537-.335.925v2.296h-.646v-2.886c0-.414-.021-.789-.063-1.124h.613l.064.718c.123-.261.306-.46.55-.598.245-.144.524-.216.837-.216zM49.278 116.755v4.01h-.638v-.725c-.117.25-.295.444-.534.582a1.633 1.633 0 01-.821.199c-.356 0-.67-.085-.94-.255a1.712 1.712 0 01-.623-.717 2.605 2.605 0 01-.215-1.093c0-.414.074-.778.223-1.092.149-.319.356-.566.622-.742.271-.175.582-.263.933-.263.314 0 .587.069.821.208.234.138.412.332.534.582v-.694h.638zm-1.865 3.532c.393 0 .696-.133.908-.399.213-.271.32-.653.32-1.148 0-.494-.107-.874-.32-1.14-.212-.266-.515-.398-.908-.398-.394 0-.702.138-.925.414-.218.271-.327.651-.327 1.14 0 .489.109.867.327 1.132.218.266.526.399.925.399zM56.138 114.897v5.868H55.5v-.725c-.117.25-.295.444-.534.582a1.633 1.633 0 01-.822.199c-.35 0-.661-.087-.932-.263a1.758 1.758 0 01-.622-.733 2.577 2.577 0 01-.224-1.101c0-.414.072-.776.216-1.084.148-.314.358-.555.63-.726.27-.17.582-.255.932-.255.314 0 .588.069.822.208.233.133.409.321.526.566v-2.536h.646zm-1.866 5.39c.393 0 .696-.133.909-.399.213-.271.319-.653.319-1.148 0-.489-.106-.866-.32-1.132-.212-.271-.515-.406-.908-.406s-.702.132-.925.398c-.218.266-.327.641-.327 1.124 0 .495.11.88.327 1.156.223.271.532.407.925.407zM60.743 118.74H57.8c.005.511.122.896.35 1.156.234.261.572.391 1.013.391a2.03 2.03 0 001.292-.47l.215.47a1.867 1.867 0 01-.678.391c-.27.095-.55.143-.837.143-.627 0-1.119-.183-1.475-.55-.356-.372-.534-.88-.534-1.523 0-.409.08-.77.24-1.084.159-.319.382-.566.669-.742.287-.175.614-.263.98-.263.532 0 .95.176 1.252.527.303.345.455.823.455 1.435v.119zm-1.698-1.578c-.335 0-.609.101-.822.303-.207.202-.34.486-.398.853h2.336c-.032-.378-.144-.665-.335-.861-.186-.197-.447-.295-.781-.295zM65.803 116.659c.962 0 1.443.529 1.443 1.587v2.519H66.6v-2.487c0-.372-.074-.643-.223-.813-.149-.176-.382-.263-.701-.263-.373 0-.67.114-.893.342-.224.229-.335.537-.335.925v2.296h-.646v-5.868h.646v2.512c.127-.245.308-.431.542-.558.24-.128.51-.192.813-.192zM71.822 116.755v4.01h-.63v-.693c-.127.244-.305.43-.534.558a1.565 1.565 0 01-.773.191c-.473 0-.832-.133-1.076-.398-.245-.266-.367-.66-.367-1.18v-2.488h.646v2.472c0 .361.074.627.223.797.149.17.375.255.678.255.356 0 .643-.114.86-.343.219-.234.328-.539.328-.917v-2.264h.645zM76.424 118.74h-2.942c.005.511.122.896.35 1.156.235.261.572.391 1.013.391a2.03 2.03 0 001.292-.47l.215.47a1.867 1.867 0 01-.678.391c-.27.095-.55.143-.837.143-.627 0-1.118-.183-1.475-.55-.356-.372-.534-.88-.534-1.523 0-.409.08-.77.24-1.084.159-.319.382-.566.67-.742.286-.175.613-.263.98-.263.531 0 .948.176 1.251.527.303.345.455.823.455 1.435v.119zm-1.698-1.578c-.335 0-.609.101-.822.303-.207.202-.34.486-.398.853h2.336c-.032-.378-.144-.665-.335-.861-.186-.197-.446-.295-.781-.295zM80.882 116.763l-1.73 4.002h-.615l-1.706-4.002h.678l1.355 3.301 1.372-3.301h.645zM83.205 120.821c-.378 0-.71-.085-.997-.255a1.738 1.738 0 01-.67-.725 2.47 2.47 0 01-.23-1.101c0-.42.076-.786.23-1.1a1.74 1.74 0 01.67-.726c.287-.17.62-.255.997-.255s.71.085.996.255c.287.171.508.412.662.726.16.314.24.68.24 1.1 0 .42-.08.787-.24 1.101a1.688 1.688 0 01-.662.725c-.287.17-.619.255-.996.255zm0-.534c.398 0 .704-.13.917-.391.212-.265.319-.651.319-1.156 0-.489-.11-.866-.327-1.132-.218-.271-.521-.406-.91-.406-.393 0-.698.135-.916.406-.218.266-.327.643-.327 1.132 0 .505.106.891.319 1.156.218.261.526.391.925.391zM87.464 120.821c-.675 0-1.209-.173-1.602-.518l.215-.478c.218.17.439.292.662.366.223.075.473.112.75.112.302 0 .53-.051.685-.152a.513.513 0 00.24-.454.491.491 0 00-.16-.383c-.107-.095-.282-.17-.526-.223l-.678-.159c-.335-.075-.596-.208-.782-.399a.964.964 0 01-.27-.686c0-.35.14-.635.422-.853.282-.223.654-.335 1.116-.335.282 0 .548.046.797.136.25.09.46.22.63.391l-.215.47c-.377-.314-.781-.47-1.212-.47-.287 0-.51.055-.67.167a.519.519 0 00-.23.454c0 .165.047.295.143.391.1.096.26.17.478.223l.678.168c.372.085.648.218.829.398.18.176.271.407.271.694 0 .346-.14.622-.423.829-.281.208-.664.311-1.148.311zM10.25 125.924v.829h-.82v-.582c0-.223.037-.428.111-.614.074-.191.2-.375.375-.55l.303.239c-.207.223-.324.449-.351.678h.383zm1.34 0v.829h-.821v-.582c0-.223.037-.428.111-.614.075-.191.2-.375.375-.55l.303.239c-.207.223-.324.449-.35.678h.382zM17.24 127.774v2.631a3.408 3.408 0 01-.877.287 5.854 5.854 0 01-1.1.103c-.564 0-1.05-.114-1.46-.343a2.318 2.318 0 01-.94-1.004c-.213-.436-.32-.957-.32-1.563 0-.6.107-1.116.32-1.547.217-.435.526-.768.924-.996.404-.234.88-.351 1.427-.351.4 0 .763.061 1.093.183.335.117.622.295.86.535l-.254.502a2.839 2.839 0 00-.814-.502 2.31 2.31 0 00-.885-.16c-.643 0-1.137.202-1.483.606-.34.399-.51.975-.51 1.73 0 .771.176 1.358.526 1.762.351.399.861.598 1.531.598.473 0 .928-.074 1.364-.223v-1.73H15.23v-.518h2.01zM20.369 126.625c.132 0 .255.016.366.048l-.016.59a1.3 1.3 0 00-.422-.063c-.388 0-.678.122-.87.366-.185.239-.278.532-.278.877v2.289h-.646v-2.887c0-.414-.021-.789-.064-1.124h.614l.064.742c.1-.271.263-.479.486-.622a1.38 1.38 0 01.765-.216zM24.846 126.721v4.011h-.638v-.726c-.117.25-.295.444-.534.582a1.633 1.633 0 01-.822.199c-.356 0-.67-.085-.94-.255a1.714 1.714 0 01-.622-.717 2.605 2.605 0 01-.216-1.093c0-.414.075-.778.224-1.092.148-.319.356-.566.622-.741.27-.176.581-.264.932-.264.314 0 .588.07.822.208.233.138.412.332.534.582v-.694h.638zm-1.866 3.532c.393 0 .696-.133.909-.398.212-.272.319-.654.319-1.149 0-.494-.107-.874-.32-1.14-.212-.265-.515-.398-.908-.398s-.702.138-.925.414c-.218.271-.327.651-.327 1.14 0 .489.11.867.327 1.133.218.265.526.398.925.398zM28.095 126.625c.962 0 1.444.529 1.444 1.587v2.52h-.646v-2.488c0-.372-.075-.643-.224-.813-.148-.176-.382-.263-.701-.263-.372 0-.67.114-.893.342-.223.229-.335.537-.335.925v2.297h-.646v-2.887c0-.414-.021-.789-.064-1.124h.614l.064.718c.122-.261.306-.46.55-.598.245-.144.524-.216.837-.216zM29.698 131.864c.143.042.273.063.39.063.447 0 .67-.265.67-.797v-4.409h.646v4.489c0 .42-.107.736-.32.949-.206.218-.493.327-.86.327-.176 0-.351-.024-.526-.072v-.55zm1.778-6.841v.733h-.79v-.733h.79zM36.19 126.721v4.011h-.638v-.726c-.117.25-.295.444-.534.582a1.633 1.633 0 01-.821.199c-.357 0-.67-.085-.941-.255a1.712 1.712 0 01-.622-.717 2.605 2.605 0 01-.215-1.093c0-.414.074-.778.223-1.092.149-.319.356-.566.622-.741.27-.176.582-.264.933-.264.313 0 .587.07.82.208.235.138.413.332.535.582v-.694h.638zm-1.866 3.532c.394 0 .696-.133.91-.398.212-.272.318-.654.318-1.149 0-.494-.106-.874-.319-1.14-.213-.265-.515-.398-.909-.398-.393 0-.701.138-.925.414-.218.271-.327.651-.327 1.14 0 .489.11.867.327 1.133.218.265.526.398.925.398zM39.597 125.055h1.906c.908 0 1.61.247 2.104.741.5.489.75 1.186.75 2.089 0 .909-.25 1.611-.75 2.105-.494.494-1.196.742-2.104.742h-1.906v-5.677zm1.866 5.118c.733 0 1.283-.191 1.65-.574.372-.382.558-.954.558-1.714 0-1.515-.736-2.272-2.208-2.272H40.25v4.56h1.212zM47.124 130.787c-.377 0-.71-.085-.996-.255a1.738 1.738 0 01-.67-.725 2.47 2.47 0 01-.231-1.101c0-.419.077-.786.23-1.1.16-.313.384-.555.67-.725.288-.17.62-.256.997-.256.378 0 .71.086.997.256.287.17.507.412.662.725.159.314.239.681.239 1.1 0 .42-.08.787-.24 1.101a1.688 1.688 0 01-.661.725c-.287.17-.62.255-.997.255zm0-.534c.399 0 .704-.13.917-.391.213-.265.319-.651.319-1.156 0-.489-.109-.866-.327-1.132-.218-.271-.52-.406-.909-.406-.393 0-.699.135-.917.406-.218.266-.327.643-.327 1.132 0 .505.107.891.32 1.156.217.261.526.391.924.391zM52.03 126.625c.962 0 1.443.529 1.443 1.587v2.52h-.646v-2.488c0-.372-.075-.643-.223-.813-.15-.176-.383-.263-.702-.263-.372 0-.67.114-.893.342-.223.229-.335.537-.335.925v2.297h-.645v-2.887c0-.414-.022-.789-.064-1.124h.614l.063.718c.123-.261.306-.46.55-.598.245-.144.524-.216.838-.216zM56.11 131.585c.239.042.43.063.574.063.27 0 .46-.077.566-.231.111-.149.167-.406.167-.773v-5.589h.654v5.597c0 .553-.101.951-.303 1.196-.197.244-.524.366-.98.366-.182 0-.407-.021-.679-.063v-.566zM62.752 126.721v4.011h-.63v-.694c-.128.244-.306.43-.534.558a1.554 1.554 0 01-.774.191c-.473 0-.832-.133-1.076-.398-.245-.266-.367-.659-.367-1.18v-2.488h.646v2.472c0 .361.074.627.223.797.149.17.375.255.678.255.356 0 .643-.114.861-.343.218-.234.327-.539.327-.917v-2.264h.646zM67.529 126.721v4.011h-.638v-.726c-.117.25-.295.444-.534.582a1.633 1.633 0 01-.822.199c-.356 0-.67-.085-.94-.255a1.712 1.712 0 01-.622-.717 2.605 2.605 0 01-.216-1.093c0-.414.075-.778.224-1.092.148-.319.356-.566.622-.741.27-.176.582-.264.932-.264.314 0 .588.07.822.208.234.138.412.332.534.582v-.694h.638zm-1.866 3.532c.393 0 .696-.133.909-.398.212-.272.319-.654.319-1.149 0-.494-.107-.874-.32-1.14-.212-.265-.515-.398-.908-.398s-.702.138-.925.414c-.218.271-.327.651-.327 1.14 0 .489.11.867.327 1.133.218.265.526.398.925.398zM70.778 126.625c.962 0 1.444.529 1.444 1.587v2.52h-.646v-2.488c0-.372-.075-.643-.223-.813-.15-.176-.383-.263-.702-.263-.372 0-.67.114-.893.342-.223.229-.335.537-.335.925v2.297h-.646v-2.887c0-.414-.021-.789-.064-1.124h.614l.064.718c.122-.261.306-.46.55-.598.245-.144.524-.216.837-.216zM74.003 125.055v.582c0 .223-.037.428-.112.614-.074.186-.2.369-.375.55l-.303-.239c.208-.239.325-.468.351-.686h-.382v-.821h.82zm1.34 0v.582c0 .223-.038.428-.112.614-.075.186-.2.369-.375.55l-.303-.239c.207-.239.324-.468.35-.686h-.382v-.821h.821z" fill="#444"/><path d="M94.272 80.33H38.867v-3.202c0-1.991 1.645-3.636 3.636-3.636h48.132c1.992 0 3.636 1.645 3.636 3.636v3.203z" fill="#ADB0D7"/><path d="M94.704 79.985l-.26.606-.779 2.25-.432 1.212-2.078 5.974c-.52 1.645-2.078 2.683-3.81 2.683H83.71a3.288 3.288 0 01-3.29-3.29c0-.432-.26-.778-.606-.951-.606-.174-1.212.26-1.212.865v.087a3.288 3.288 0 01-3.29 3.29h-4.501a3.288 3.288 0 01-3.29-3.29c0-.433-.346-.866-.779-.953-.606-.086-1.039.347-1.039.866v.087a3.288 3.288 0 01-3.29 3.29h-4.5a3.288 3.288 0 01-3.29-3.29c0-.433-.347-.866-.78-.953-.606-.086-1.039.347-1.039.866v.087a3.288 3.288 0 01-3.29 3.29H45.88c-1.731 0-3.203-1.126-3.81-2.684l-2.077-5.974-.433-1.212-.779-2.25-.346-.606h56.27z" fill="#C2C4E1"/><path d="M95.05 80.59H38.089c-.953 0-1.732-.779-1.732-1.731 0-.952.78-1.731 1.732-1.731h56.876c.952 0 1.731.779 1.731 1.731.087.952-.692 1.731-1.644 1.731z" fill="#C8CAE4"/><path d="M94.444 80.59l-.779 2.251H39.472l-.779-2.25h55.751zM94.272 61.112H38.867V57.91c0-1.991 1.645-3.636 3.636-3.636h48.132c1.992 0 3.636 1.645 3.636 3.636v3.203z" fill="#ADB0D7"/><path d="M94.704 60.68l-.26.605-.779 2.251-.432 1.212-2.078 5.974c-.52 1.644-2.078 2.683-3.81 2.683H83.71a3.288 3.288 0 01-3.29-3.29c0-.432-.26-.779-.606-.952-.606-.173-1.212.26-1.212.866v.087a3.288 3.288 0 01-3.29 3.29h-4.501a3.288 3.288 0 01-3.29-3.29c0-.433-.346-.866-.779-.953-.606-.086-1.039.347-1.039.866v.087a3.288 3.288 0 01-3.29 3.29h-4.5a3.288 3.288 0 01-3.29-3.29c0-.433-.347-.866-.78-.953-.606-.086-1.039.347-1.039.866v.087a3.288 3.288 0 01-3.29 3.29H45.88c-1.731 0-3.203-1.126-3.81-2.684l-2.077-5.974-.433-1.212-.779-2.25-.346-.607h56.27z" fill="#C2C4E1"/><path d="M95.05 61.372H38.089c-.953 0-1.732-.78-1.732-1.732s.78-1.731 1.732-1.731h56.876c.952 0 1.731.78 1.731 1.731.087.953-.692 1.732-1.644 1.732z" fill="#C8CAE4"/><path d="M94.444 61.372l-.779 2.25H39.472l-.779-2.25h55.751zM94.272 41.807H38.867v-3.29c0-1.99 1.645-3.636 3.636-3.636h48.132c1.992 0 3.636 1.645 3.636 3.636v3.29z" fill="#ADB0D7"/><path d="M94.704 41.374l-.26.606-.779 2.251-.432 1.212-2.078 5.974c-.52 1.644-2.078 2.683-3.81 2.683H83.71a3.288 3.288 0 01-3.29-3.29c0-.432-.26-.779-.606-.952-.606-.173-1.212.26-1.212.866v.087a3.288 3.288 0 01-3.29 3.29h-4.501a3.288 3.288 0 01-3.29-3.29c0-.433-.346-.866-.779-.953-.606-.086-1.039.347-1.039.866v.087a3.288 3.288 0 01-3.29 3.29h-4.5a3.288 3.288 0 01-3.29-3.29c0-.433-.347-.866-.78-.953-.606-.086-1.039.347-1.039.866v.087a3.288 3.288 0 01-3.29 3.29H45.88c-1.731 0-3.203-1.126-3.81-2.684l-2.077-5.974-.433-1.212-.779-2.25-.346-.607h56.27z" fill="#C8CAE4"/><path d="M95.05 42.067H38.089c-.953 0-1.732-.78-1.732-1.732s.78-1.731 1.732-1.731h56.876c.952 0 1.731.78 1.731 1.731.087.953-.692 1.732-1.644 1.732z" fill="#C8CAE4"/><path d="M94.444 42.067l-.779 2.25H39.472l-.779-2.25h55.751zM66.915 77.56H11.424v-9.782a8.128 8.128 0 018.137-8.137h39.217a8.128 8.128 0 018.137 8.137v9.783z" fill="#ADB0D7"/><path d="M13.675 79.465V67.778c0-3.203 2.597-5.886 5.887-5.886h39.216c3.203 0 5.887 2.597 5.887 5.886v11.687h-50.99z" fill="#8B93B4"/><path d="M20.773 71.587c.433.953.606 2.078.606 3.203 0 3.463-1.99 6.233-4.415 6.233-1.039 0-1.904-.519-2.683-1.298.779 1.818 2.164 3.03 3.809 3.03 2.424 0 4.415-2.77 4.415-6.233 0-1.991-.693-3.81-1.732-4.935z" fill="#DBCFB5"/><path d="M16.965 81.023c2.423 0 4.415-2.77 4.415-6.233 0-1.212-.26-2.25-.607-3.203-.779-.779-1.644-1.298-2.683-1.298-2.424 0-4.415 2.77-4.415 6.233 0 1.212.26 2.25.606 3.203.779.866 1.731 1.299 2.684 1.299z" fill="#F1EDE3"/><path d="M16.099 73.665c-.087 0-.174 0-.26-.087-.26-.173-.346-.519-.173-.692.692-1.126 1.645-1.731 2.683-1.731.26 0 .52.26.52.519 0 .26-.26.52-.52.52-.692 0-1.298.432-1.817 1.211a.476.476 0 01-.433.26z" fill="#fff"/><path d="M62.846 71.587c.433.953.606 2.078.606 3.203 0 3.463-1.99 6.233-4.415 6.233-1.039 0-1.904-.519-2.684-1.298.78 1.818 2.165 3.03 3.81 3.03 2.424 0 4.415-2.77 4.415-6.233 0-1.991-.693-3.81-1.732-4.935z" fill="#DBCFB5"/><path d="M59.124 81.023c2.424 0 4.415-2.77 4.415-6.233 0-1.212-.26-2.25-.606-3.203-.78-.779-1.645-1.298-2.684-1.298-2.424 0-4.415 2.77-4.415 6.233 0 1.212.26 2.25.606 3.203a3.36 3.36 0 002.684 1.299z" fill="#F1EDE3"/><path d="M58.258 73.665c-.087 0-.173 0-.26-.087-.26-.173-.346-.519-.173-.692.693-1.126 1.645-1.731 2.684-1.731.26 0 .52.26.52.519 0 .26-.26.52-.52.52-.693 0-1.299.432-1.818 1.211-.173.174-.346.26-.433.26z" fill="#fff"/><path d="M52.371 71.587c.433.953.606 2.078.606 3.203 0 3.463-1.991 6.233-4.415 6.233-1.039 0-1.904-.519-2.684-1.298.78 1.818 2.165 3.03 3.81 3.03 2.423 0 4.415-2.77 4.415-6.233 0-1.991-.693-3.81-1.732-4.935z" fill="#DBCFB5"/><path d="M48.562 81.023c2.424 0 4.415-2.77 4.415-6.233 0-1.212-.26-2.25-.606-3.203-.779-.779-1.644-1.298-2.683-1.298-2.424 0-4.415 2.77-4.415 6.233 0 1.212.26 2.25.606 3.203.779.866 1.645 1.299 2.683 1.299z" fill="#F1EDE3"/><path d="M47.697 73.665c-.087 0-.174 0-.26-.087-.26-.173-.346-.519-.173-.692.692-1.126 1.644-1.731 2.683-1.731.26 0 .52.26.52.519 0 .26-.26.52-.52.52-.692 0-1.298.432-1.818 1.211a.476.476 0 01-.432.26z" fill="#fff"/><path d="M41.81 71.587c.433.953.606 2.078.606 3.203 0 3.463-1.991 6.233-4.415 6.233-1.039 0-1.905-.519-2.684-1.298.78 1.818 2.164 3.03 3.81 3.03 2.423 0 4.414-2.77 4.414-6.233 0-1.991-.692-3.81-1.731-4.935z" fill="#DBCFB5"/><path d="M38 81.023c2.425 0 4.416-2.77 4.416-6.233 0-1.212-.26-2.25-.606-3.203-.78-.779-1.645-1.298-2.684-1.298-2.424 0-4.415 2.77-4.415 6.233 0 1.212.26 2.25.606 3.203.78.866 1.732 1.299 2.684 1.299z" fill="#F1EDE3"/><path d="M37.135 73.665c-.087 0-.173 0-.26-.087-.26-.173-.346-.519-.173-.692.693-1.126 1.645-1.731 2.684-1.731.26 0 .52.26.52.519 0 .26-.26.52-.52.52-.693 0-1.299.432-1.818 1.211a.476.476 0 01-.433.26z" fill="#fff"/><path d="M31.248 71.587c.433.953.606 2.078.606 3.203 0 3.463-1.99 6.233-4.415 6.233-1.039 0-1.904-.519-2.683-1.298.779 1.818 2.164 3.03 3.809 3.03 2.424 0 4.415-2.77 4.415-6.233.086-1.991-.606-3.81-1.732-4.935z" fill="#DBCFB5"/><path d="M27.526 81.023c2.424 0 4.415-2.77 4.415-6.233 0-1.212-.26-2.25-.606-3.203-.78-.779-1.645-1.298-2.684-1.298-2.424 0-4.415 2.77-4.415 6.233 0 1.212.26 2.25.606 3.203.78.866 1.645 1.299 2.684 1.299z" fill="#F1EDE3"/><path d="M26.66 73.665c-.086 0-.173 0-.26-.087-.26-.173-.346-.519-.173-.692.693-1.126 1.645-1.731 2.684-1.731.26 0 .52.26.52.519 0 .26-.26.52-.52.52-.693 0-1.299.432-1.818 1.211a.476.476 0 01-.433.26z" fill="#fff"/><path d="M67.348 79.985l-.26.606-.779 2.25-.433 1.212-2.077 5.974c-.52 1.645-2.078 2.683-3.81 2.683h-3.635a3.288 3.288 0 01-3.29-3.29c0-.432-.26-.778-.606-.951-.606-.174-1.212.26-1.212.865v.087a3.288 3.288 0 01-3.29 3.29h-4.501a3.288 3.288 0 01-3.29-3.29c0-.433-.346-.866-.78-.953-.605-.086-1.038.347-1.038.866v.087a3.288 3.288 0 01-3.29 3.29h-4.501a3.288 3.288 0 01-3.29-3.29c0-.433-.346-.866-.779-.953-.606-.086-1.039.347-1.039.866v.087a3.288 3.288 0 01-3.29 3.29h-3.635c-1.732 0-3.204-1.126-3.81-2.684l-2.25-5.974-.433-1.212-.78-2.25-.259-.606h56.357z" fill="#C2C4E1"/><path d="M67.608 80.59H10.73C9.78 80.59 9 79.812 9 78.86c0-.953.78-1.732 1.731-1.732h56.877c.952 0 1.731.779 1.731 1.731 0 .953-.692 1.732-1.731 1.732z" fill="#C8CAE4"/><path d="M67.088 80.59l-.779 2.251H12.03l-.692-2.25h55.751z" fill="#ADB0D7"/></svg>