<svg width="106" height="183" fill="none" xmlns="http://www.w3.org/2000/svg"><path d="M0 7.625A7.625 7.625 0 017.626 0h90.748A7.625 7.625 0 01106 7.625v167.75A7.625 7.625 0 0198.374 183H7.626A7.626 7.626 0 010 175.375V7.625z" fill="#fff"/><path d="M0 6.003A6.001 6.001 0 016 0h94c3.314 0 6 2.687 6 6.003v99.044H0V6.003z" fill="#F1EDE3"/><path d="M9.62 114.985h2.265c.585 0 1.04.141 1.364.423.329.281.494.669.494 1.164 0 .494-.165.885-.495 1.172-.33.281-.784.422-1.363.422h-1.61v2.496H9.62v-5.677zm2.21 2.639c.42 0 .736-.09.948-.271.213-.181.319-.441.319-.781 0-.341-.106-.598-.319-.774-.213-.18-.529-.271-.949-.271h-1.554v2.097h1.554zM18.142 116.651v4.011h-.638v-.726c-.117.25-.295.444-.534.582-.234.133-.508.2-.822.2-.356 0-.67-.085-.94-.256a1.713 1.713 0 01-.622-.717 2.602 2.602 0 01-.215-1.092c0-.415.074-.779.223-1.093.149-.319.356-.566.622-.741.27-.176.582-.263.932-.263.314 0 .588.069.822.207.234.138.412.332.534.582v-.694h.638zm-1.866 3.532c.393 0 .696-.132.909-.398.213-.271.319-.654.319-1.148 0-.495-.106-.875-.319-1.14-.213-.266-.516-.399-.909-.399s-.701.138-.925.414c-.218.272-.327.652-.327 1.141s.11.866.327 1.132c.218.266.526.398.925.398zM21.073 120.718c-.388 0-.729-.085-1.02-.256a1.747 1.747 0 01-.67-.717 2.45 2.45 0 01-.232-1.092c0-.415.08-.779.24-1.093.159-.319.385-.566.677-.741a1.998 1.998 0 011.037-.263c.27 0 .531.048.78.143.256.091.466.218.63.383l-.215.478a2.358 2.358 0 00-.59-.351 1.54 1.54 0 00-.573-.111c-.41 0-.731.138-.965.414-.234.272-.351.652-.351 1.141 0 .483.114.861.343 1.132.234.266.558.398.973.398.196 0 .387-.037.573-.111.192-.075.389-.192.59-.351l.216.478c-.17.16-.386.287-.646.383a2.38 2.38 0 01-.797.136zM26.04 120.662l-2.056-1.93v1.93h-.646v-5.868h.646v3.699l1.89-1.834h.82l-2.009 1.922 2.2 2.081h-.844zM33.052 116.651v4.011h-.638v-.726c-.117.25-.295.444-.534.582-.234.133-.508.2-.821.2-.356 0-.67-.085-.941-.256a1.712 1.712 0 01-.622-.717 2.603 2.603 0 01-.215-1.092c0-.415.074-.779.223-1.093.149-.319.356-.566.622-.741.271-.176.582-.263.933-.263.313 0 .587.069.821.207.234.138.412.332.534.582v-.694h.638zm-1.866 3.532c.394 0 .697-.132.91-.398.212-.271.318-.654.318-1.148 0-.495-.106-.875-.319-1.14-.212-.266-.515-.399-.909-.399-.393 0-.701.138-.924.414-.218.272-.327.652-.327 1.141s.109.866.327 1.132c.217.266.526.398.924.398zM37.873 116.651v3.979c0 .595-.155 1.044-.463 1.347-.303.309-.752.463-1.347.463-.612 0-1.138-.138-1.579-.415l.112-.526c.255.143.494.247.717.311.229.064.479.096.75.096.388 0 .68-.104.877-.311.196-.202.295-.505.295-.909v-.949a1.378 1.378 0 01-.542.598 1.618 1.618 0 01-.838.207 1.8 1.8 0 01-.94-.247 1.653 1.653 0 01-.63-.702 2.34 2.34 0 01-.223-1.044c0-.393.074-.742.223-1.045.149-.302.359-.536.63-.701a1.8 1.8 0 01.94-.247c.32 0 .596.069.83.207.239.138.42.332.542.582v-.694h.646zM35.983 120c.388 0 .69-.128.909-.383.223-.26.335-.616.335-1.068 0-.452-.112-.805-.335-1.06-.218-.261-.521-.391-.91-.391-.392 0-.703.13-.932.391-.223.255-.335.608-.335 1.06 0 .452.112.808.335 1.068.229.255.54.383.933.383zM42.469 116.651v4.011h-.63v-.694a1.316 1.316 0 01-.534.558 1.556 1.556 0 01-.773.192c-.473 0-.832-.133-1.077-.399-.244-.266-.366-.659-.366-1.18v-2.488h.645v2.472c0 .361.075.627.224.797.148.17.374.255.677.255.356 0 .643-.114.861-.342.218-.234.327-.54.327-.917v-2.265h.646zM47.246 116.651v4.011h-.638v-.726c-.117.25-.295.444-.534.582-.234.133-.508.2-.821.2-.356 0-.67-.085-.941-.256a1.713 1.713 0 01-.622-.717 2.603 2.603 0 01-.215-1.092c0-.415.074-.779.223-1.093.149-.319.356-.566.622-.741.271-.176.582-.263.933-.263.313 0 .587.069.821.207.234.138.412.332.534.582v-.694h.638zm-1.866 3.532c.394 0 .697-.132.91-.398.212-.271.318-.654.318-1.148 0-.495-.106-.875-.319-1.14-.212-.266-.515-.399-.909-.399-.393 0-.701.138-.925.414-.218.272-.326.652-.326 1.141s.108.866.327 1.132c.217.266.526.398.924.398zM54.305 118.621H52.59v1.714h-.495v-1.714h-1.714v-.503h1.714v-1.714h.495v1.714h1.714v.503zM61.005 116.651v3.979c0 .595-.154 1.044-.463 1.347-.303.309-.752.463-1.347.463-.611 0-1.138-.138-1.579-.415l.112-.526c.255.143.494.247.718.311.228.064.478.096.749.096.388 0 .68-.104.877-.311.197-.202.295-.505.295-.909v-.949a1.378 1.378 0 01-.542.598 1.619 1.619 0 01-.837.207 1.8 1.8 0 01-.941-.247 1.653 1.653 0 01-.63-.702 2.34 2.34 0 01-.223-1.044c0-.393.074-.742.223-1.045.149-.302.359-.536.63-.701a1.8 1.8 0 01.94-.247c.32 0 .596.069.83.207.24.138.42.332.542.582v-.694h.646zM59.115 120c.388 0 .691-.128.91-.383.222-.26.334-.616.334-1.068 0-.452-.112-.805-.335-1.06-.218-.261-.52-.391-.909-.391-.393 0-.704.13-.933.391-.223.255-.334.608-.334 1.06 0 .452.111.808.334 1.068.229.255.54.383.933.383zM65.777 116.651v4.011h-.638v-.726c-.117.25-.295.444-.534.582-.234.133-.508.2-.822.2-.356 0-.67-.085-.94-.256a1.714 1.714 0 01-.622-.717 2.603 2.603 0 01-.215-1.092c0-.415.074-.779.223-1.093.149-.319.356-.566.622-.741.27-.176.582-.263.932-.263.314 0 .588.069.822.207.234.138.412.332.534.582v-.694h.638zm-1.866 3.532c.393 0 .696-.132.909-.398.213-.271.319-.654.319-1.148 0-.495-.106-.875-.319-1.14-.213-.266-.516-.399-.909-.399s-.702.138-.925.414c-.218.272-.327.652-.327 1.141s.11.866.327 1.132c.218.266.526.398.925.398zM68.38 120.718c-.674 0-1.209-.173-1.602-.519l.215-.478c.218.17.439.292.662.367.224.074.473.111.75.111.303 0 .531-.05.685-.151a.515.515 0 00.24-.455.488.488 0 00-.16-.382c-.106-.096-.282-.17-.526-.224l-.678-.159c-.335-.074-.595-.207-.781-.399a.963.963 0 01-.271-.685c0-.351.14-.635.422-.853.282-.224.654-.335 1.117-.335.281 0 .547.045.797.135.25.091.46.221.63.391l-.216.47c-.377-.313-.78-.47-1.212-.47-.287 0-.51.056-.67.167a.52.52 0 00-.23.455c0 .165.047.295.143.39.101.096.26.171.479.224l.677.167c.372.085.649.218.83.399.18.175.27.406.27.693a.98.98 0 01-.422.83c-.282.207-.664.311-1.148.311zM74.337 118.637h-2.942c.006.51.123.895.351 1.156.234.26.572.39 1.013.39.467 0 .898-.156 1.291-.47l.216.47a1.867 1.867 0 01-.678.391 2.49 2.49 0 01-.837.144c-.627 0-1.12-.184-1.475-.551-.356-.372-.534-.879-.534-1.522 0-.41.08-.771.239-1.085a1.774 1.774 0 011.65-1.004c.532 0 .949.175 1.252.526.303.345.454.824.454 1.435v.12zm-1.698-1.579c-.335 0-.608.101-.821.303-.207.202-.34.486-.399.853h2.336c-.032-.377-.143-.664-.335-.861-.186-.197-.446-.295-.78-.295zM76.976 120.718a1.91 1.91 0 01-.997-.256 1.732 1.732 0 01-.67-.725 2.467 2.467 0 01-.23-1.1c0-.42.076-.787.23-1.101.16-.313.383-.555.67-.725.287-.17.62-.255.997-.255s.71.085.996.255c.288.17.508.412.662.725.16.314.24.681.24 1.101 0 .42-.08.786-.24 1.1a1.681 1.681 0 01-.662.725 1.91 1.91 0 01-.996.256zm0-.535c.398 0 .704-.13.917-.39.212-.266.319-.651.319-1.156 0-.489-.11-.867-.327-1.133-.218-.271-.521-.406-.91-.406-.392 0-.698.135-.916.406-.218.266-.327.644-.327 1.133 0 .505.106.89.319 1.156.218.26.526.39.925.39zM81.236 120.718c-.675 0-1.21-.173-1.603-.519l.215-.478c.218.17.439.292.662.367.223.074.473.111.75.111.302 0 .531-.05.685-.151a.514.514 0 00.24-.455.488.488 0 00-.16-.382c-.107-.096-.282-.17-.526-.224l-.678-.159c-.335-.074-.595-.207-.781-.399a.963.963 0 01-.272-.685c0-.351.141-.635.423-.853.282-.224.654-.335 1.116-.335.282 0 .548.045.798.135.25.091.46.221.63.391l-.216.47c-.377-.313-.781-.47-1.212-.47-.287 0-.51.056-.67.167a.52.52 0 00-.23.455c0 .165.047.295.143.39.1.096.26.171.478.224l.678.167c.372.085.648.218.83.399.18.175.27.406.27.693a.98.98 0 01-.422.83c-.282.207-.665.311-1.148.311zM87.367 116.651v4.011h-.637v-.726c-.117.25-.295.444-.535.582-.233.133-.507.2-.82.2-.357 0-.67-.085-.942-.256a1.712 1.712 0 01-.622-.717 2.603 2.603 0 01-.215-1.092c0-.415.075-.779.224-1.093.148-.319.356-.566.621-.741.272-.176.582-.263.933-.263.314 0 .588.069.821.207.234.138.412.332.535.582v-.694h.637zm-1.865 3.532c.393 0 .696-.132.909-.398.212-.271.319-.654.319-1.148 0-.495-.107-.875-.32-1.14-.212-.266-.515-.399-.908-.399-.394 0-.702.138-.925.414-.218.272-.327.652-.327 1.141s.109.866.327 1.132c.218.266.526.398.925.398zM13.232 130.078v.55H9.582v-.494l1.985-2.201a4 4 0 00.582-.805c.123-.239.184-.479.184-.718 0-.313-.09-.553-.272-.717-.18-.17-.438-.255-.773-.255-.542 0-1.079.217-1.61.653l-.248-.502c.224-.213.505-.383.846-.51a2.9 2.9 0 011.028-.192c.521 0 .933.136 1.236.407.303.266.454.627.454 1.084 0 .325-.074.638-.223.941-.143.298-.385.633-.725 1.005l-1.619 1.754h2.806zM14.401 124.951h.654v5.119h2.846v.558h-3.5v-5.677z" fill="#444"/><path d="M24.296 167.273c0 .529-.187.977-.56 1.344-.367.359-.862.585-1.484.677v1.089h-1.003v-1.07a4.628 4.628 0 01-1.228-.255 3.287 3.287 0 01-.983-.559l.433-.922c.57.444 1.185.69 1.847.735v-2.04a7.33 7.33 0 01-1.11-.363 1.992 1.992 0 01-.757-.599c-.203-.268-.305-.614-.305-1.04a1.8 1.8 0 01.266-.961c.177-.294.422-.536.737-.726a2.744 2.744 0 011.1-.373v-1.089h1.003v1.079c.38.046.737.138 1.07.275.335.137.617.311.846.52l-.433.922c-.478-.392-.995-.628-1.552-.706v2.129c.439.111.802.232 1.09.363.289.124.531.314.728.569.196.255.294.588.294 1.001zm-3.882-3.071c0 .229.079.415.236.559.157.137.38.255.668.353v-1.893c-.282.059-.504.173-.668.343a.904.904 0 00-.236.638zm1.769 4.061c.275-.058.485-.166.629-.323a.915.915 0 00.216-.628.616.616 0 00-.216-.491c-.144-.124-.354-.229-.63-.314v1.756zM29.991 168.214v1.03h-4.697v-.932l2.378-2.56c.282-.308.488-.589.62-.844.13-.255.196-.507.196-.755 0-.321-.095-.563-.285-.726-.184-.164-.45-.246-.796-.246-.616 0-1.248.242-1.897.726l-.422-.922c.275-.248.629-.445 1.06-.588a3.94 3.94 0 011.308-.226c.7 0 1.254.173 1.66.52.413.34.62.801.62 1.383 0 .399-.089.775-.266 1.128-.17.354-.458.749-.864 1.188l-1.72 1.824h3.105zM33.446 169.333c-.832 0-1.467-.304-1.906-.913-.433-.614-.649-1.507-.649-2.678 0-1.151.216-2.031.649-2.639.439-.608 1.074-.912 1.906-.912.832 0 1.464.304 1.897.912.438.602.658 1.481.658 2.639 0 1.164-.22 2.054-.658 2.669-.433.614-1.065.922-1.897.922zm0-.991c.452 0 .78-.206.983-.618.21-.419.314-1.079.314-1.982 0-.889-.105-1.537-.314-1.942-.203-.413-.531-.619-.983-.619-.452 0-.783.206-.992.619-.204.405-.305 1.053-.305 1.942 0 .903.101 1.563.304 1.982.21.412.541.618.993.618zM39.338 169.333c-.832 0-1.467-.304-1.906-.913-.433-.614-.649-1.507-.649-2.678 0-1.151.216-2.031.649-2.639.439-.608 1.074-.912 1.906-.912.832 0 1.464.304 1.897.912.439.602.658 1.481.658 2.639 0 1.164-.22 2.054-.658 2.669-.433.614-1.065.922-1.897.922zm0-.991c.452 0 .78-.206.983-.618.21-.419.314-1.079.314-1.982 0-.889-.105-1.537-.314-1.942-.203-.413-.53-.619-.983-.619-.452 0-.783.206-.992.619-.203.405-.305 1.053-.305 1.942 0 .903.102 1.563.305 1.982.21.412.54.618.992.618zM12.473 162.011a3.671 3.671 0 00-1.703.818c-1.409 1.21-1.743 3.163-.832 4.858a3.247 3.247 0 001.396 1.354 4.168 4.168 0 001.877.459c.837 0 1.646-.272 2.319-.798l-.634-.813c-.833.65-1.953.765-2.99.282a2.36 2.36 0 01-1.122-1.092c-.656-1.331-.302-2.842.92-3.666a2.758 2.758 0 014.204 1.792h-1.442a1.36 1.36 0 100 1.031h2.483c.022 0 .04-.017.04-.039v-.476a3.786 3.786 0 00-4.516-3.71z" fill="#F04350"/><path d="M11.459 155.176c-.406 0-.783-.054-1.133-.16a2.703 2.703 0 01-.897-.479l.335-.707c.258.198.522.342.79.434.269.091.56.136.874.136.35 0 .618-.065.806-.197.187-.137.281-.332.281-.585a.456.456 0 00-.167-.373 1.136 1.136 0 00-.433-.228 6.371 6.371 0 00-.585-.167 16.973 16.973 0 01-.639-.182 2.64 2.64 0 01-.593-.266 1.368 1.368 0 01-.425-.441c-.107-.183-.16-.416-.16-.699 0-.315.086-.593.258-.837.178-.243.418-.433.722-.57a2.429 2.429 0 011.034-.212 3.193 3.193 0 011.345.296c.203.091.378.203.525.334l-.335.715c-.47-.38-.98-.57-1.527-.57-.32 0-.573.068-.76.205-.188.137-.282.332-.282.585 0 .173.054.312.16.418.106.102.248.185.426.251.182.061.38.117.592.167.213.051.426.109.639.175.213.066.408.152.585.259.183.106.327.248.433.425.107.177.16.403.16.677 0 .319-.086.597-.258.836a1.678 1.678 0 01-.715.562 2.632 2.632 0 01-1.056.198zm-.32.82v-.98l.061-.448v-4.416l-.06-.38v-.95h.775v.95l-.053.38v4.416l.053.448v.98h-.775zM14.275 155.115v-.722l1.832-1.984c.213-.238.37-.456.471-.653.102-.198.152-.393.152-.586 0-.248-.07-.435-.213-.562-.141-.127-.347-.19-.615-.19-.243 0-.49.048-.737.144a2.84 2.84 0 00-.73.418l-.334-.714c.217-.193.494-.345.828-.456a3.186 3.186 0 011.018-.167c.355 0 .664.058.928.174.263.117.466.287.608.51.142.218.212.478.212.783 0 .314-.065.608-.197.881-.132.269-.355.573-.669.912l-1.65 1.748-.113-.327H17.9v.791h-3.626zM20.565 155.168c-.334 0-.668-.056-1.003-.167-.33-.112-.6-.264-.813-.456l.327-.715c.243.183.489.322.737.418.253.097.51.145.768.145.334 0 .592-.084.775-.251.182-.172.273-.415.273-.73a1.02 1.02 0 00-.129-.524.842.842 0 00-.35-.342 1.132 1.132 0 00-.539-.122 1.48 1.48 0 00-.593.122c-.187.076-.357.19-.509.342h-.585v-3.185h3.39v.768H19.88v1.786l-.296-.045a1.51 1.51 0 01.547-.418c.213-.097.454-.145.722-.145.34 0 .636.074.89.221.258.146.458.349.6.608.147.258.22.559.22.904 0 .355-.083.669-.25.942a1.622 1.622 0 01-.692.624c-.294.147-.646.22-1.057.22zM25.123 155.176c-.639 0-1.128-.236-1.467-.707-.34-.471-.51-1.158-.51-2.06 0-.902.168-1.588.502-2.06.34-.471.831-.706 1.475-.706.643 0 1.132.235 1.466.706.34.472.51 1.156.51 2.053 0 .907-.17 1.596-.51 2.067-.339.471-.828.707-1.466.707zm0-.76c.35 0 .605-.16.767-.479.162-.324.243-.836.243-1.535 0-.695-.08-1.199-.243-1.513-.162-.314-.418-.471-.767-.471-.35 0-.606.159-.768.479-.162.314-.243.815-.243 1.505 0 .699.08 1.211.243 1.535.162.319.418.479.768.479z" fill="#C4C4C4"/><path d="M45.679 72.542c1.23 0 2.23 1 2.23 2.23v15.683l-7.689.308 4.075-3.383V74.772c0-1.23-1-2.23-2.23-2.23 1.23 0 2.23-1 2.23-2.23v-1.076h3.613v1.076c0 1.23-1 2.23-2.23 2.23z" fill="#661204"/><path d="M44.218 70.312v-1.076H23.23v1.076c0 1.23.999 2.23 2.23 2.23-1.231 0-2.23 1-2.23 2.23v15.683l7.918.308-.384-.308h10.225c1.768 0 3.23-1.46 3.23-3.229V74.772c0-1.23-1-2.23-2.23-2.23 1.23 0 2.23-1 2.23-2.23z" fill="#801600"/><path d="M47.908 70.312c0 1.23-.999 2.23-2.229 2.23 1.23 0 2.23 1 2.23 2.23V86.38c0 2.23-1.846 4.074-4.152 4.074H27.38c-2.23 0-4.151-1.845-4.151-4.074V74.772c0-1.23.999-2.23 2.23-2.23-1.231 0-2.23-1-2.23-2.23v-1.076h-2.153v1.076c0 .77.23 1.538.615 2.23-.461.615-.692 1.384-.692 2.23V86.38c.077 3.46 2.845 6.304 6.304 6.304H43.68c3.46 0 6.304-2.845 6.304-6.228V74.849c0-.768-.23-1.537-.615-2.23a4.204 4.204 0 00.615-2.229v-1.076h-2.152v1h.076zM50.061 37.638c0-4.075-1.999-7.842-5.382-10.149l-2.152-1.46c-1.46-1-2.307-2.614-2.307-4.306v-5.458h-8.764v5.305a5.1 5.1 0 01-2.383 4.305l-2.384 1.46A12.225 12.225 0 0021 37.639v6.612c0 .768.23 1.537.615 2.23A4.132 4.132 0 0021 48.631v1.307h2.153v-1.307c0-1.23 1-2.23 2.23-2.23-1.23 0-2.23-1-2.23-2.23v-6.534c0-3.46 1.768-6.612 4.69-8.457l2.229-1.384c2.076-1.307 3.383-3.69 3.46-6.15v-3.153h4.459V21.8a7.51 7.51 0 003.229 6.15l2.153 1.462c2.844 1.768 4.535 4.843 4.535 8.226v6.612c0 1.23-.999 2.23-2.229 2.23 1.23 0 2.23.999 2.23 2.229v1.307h2.152v-1.307c0-.77-.23-1.538-.615-2.23a4.204 4.204 0 00.615-2.23v-6.611z" fill="#CEE8FB"/><path d="M23.153 49.939H21v19.22h2.153V49.94z" fill="#FF4D54"/><path d="M50.061 49.939H47.91v19.22h2.152V49.94z" fill="#D40000"/><path d="M43.45 29.258l-2.153-1.461c-2.076-1.384-3.23-3.69-3.23-6.15v-3.23H33.61v3.152a7.16 7.16 0 01-3.46 6.151l-2.23 1.384-.922.692h17.298c-.307-.154-.615-.308-.846-.538z" fill="#E1F1FD"/><path d="M44.218 44.25v-6.535c0-3.076-1.384-5.92-3.69-7.765H26.92c-2.307 1.922-3.69 4.766-3.69 7.765v6.535c0 1.23.999 2.23 2.23 2.23-1.231 0-2.23.999-2.23 2.229v1.307h21.065v-1.307c0-1.23-1-2.23-2.23-2.23 1.154-.077 2.153-1.076 2.153-2.23z" fill="#801600"/><path d="M25.997 38.714a1.051 1.051 0 01-1.076-1.076c0-2.153.846-4.152 2.307-5.69.384-.384 1.076-.46 1.46 0 .385.385.462 1.077 0 1.461-1.076 1.154-1.691 2.691-1.691 4.229.077.615-.384 1.076-1 1.076zM25.997 45.172a1.051 1.051 0 01-1.076-1.076v-2.921c0-.616.461-1.077 1.076-1.077.616 0 1.077.461 1.077 1.077v2.921c0 .615-.462 1.076-1.077 1.076zM25.997 86.535a1.051 1.051 0 01-1.076-1.077v-9.38c0-.614.461-1.076 1.076-1.076.616 0 1.077.462 1.077 1.077v9.456c0 .538-.462 1-1.077 1z" fill="#A43422"/><path d="M44.141 29.873h-3.69c2.306 1.922 3.69 4.766 3.69 7.765v6.612c0 1.23-1 2.23-2.23 2.23 1.23 0 2.23.999 2.23 2.229v1.307h3.69v-1.307c0-.308-.076-.615-.153-.846a2.498 2.498 0 00-.769-1c-.384-.23-.769-.384-1.23-.384.461 0 .846-.154 1.23-.384s.615-.538.769-1c.077-.23.154-.538.154-.845v-6.535c.076-3.076-1.307-5.997-3.69-7.842z" fill="#661204"/><path d="M40.605 11.96h-2.307c.461 0 .923.46.923 1.076v4.382c0 .615-.385 1.076-.923 1.076h2.306c.462 0 .923-.461.923-1.076v-4.382c0-.615-.384-1.077-.922-1.077z" fill="#D40000"/><path d="M39.22 17.418v-4.382c0-.615-.383-1.077-.922-1.077h-7.303c-.462 0-.923.462-.923 1.077v4.382c0 .615.384 1.076.923 1.076h7.303c.462-.077.923-.538.923-1.076z" fill="#EE1E1D"/><path d="M40.22 18.417H31.38v2h8.841v-2z" fill="#D40000"/><path d="M47.908 49.939h-5.15a11.942 11.942 0 00-7.304-2.46c-2.768 0-5.228.922-7.304 2.46h-4.92v19.22h4.92a11.942 11.942 0 007.304 2.46c2.767 0 5.228-.922 7.303-2.46h5.151V49.94z" fill="#EE1E1D"/><path d="M34.3 44.096a1.46 1.46 0 100-2.922 1.46 1.46 0 000 2.922zM38.375 36.715c0 .538-.384.923-.922.923-.539 0-.923-.385-.923-.923s.384-.922.923-.922c.538 0 .922.384.922.922zM36.146 83.998a1.46 1.46 0 100-2.922 1.46 1.46 0 000 2.922zM39.298 77.54a.923.923 0 100-1.846.923.923 0 000 1.845zM31.917 76.617a.923.923 0 100-1.846.923.923 0 000 1.846z" fill="#A43422"/><path d="M40.936 66.532a8.765 8.765 0 10-10.807-13.803 8.765 8.765 0 0010.807 13.803z" fill="#D40000"/><path d="M81.199 72.542c1.23 0 2.23 1 2.23 2.23v15.683l-7.689.308 4.075-3.383V74.772c0-1.23-1-2.23-2.23-2.23 1.23 0 2.23-1 2.23-2.23v-1.076h3.69v1.076c-.077 1.23-1.076 2.23-2.306 2.23z" fill="#80C9F8"/><path d="M79.815 70.313v-1.077H58.826v1.076c0 1.23 1 2.23 2.23 2.23-1.23 0-2.23 1-2.23 2.23v15.683l7.919.308-.385-.308h10.226a3.249 3.249 0 003.229-3.229V74.772c0-1.23-1-2.23-2.23-2.23 1.23 0 2.23-1 2.23-2.23z" fill="#A9DAFA"/><path d="M83.428 70.313c0 1.23-1 2.229-2.23 2.229 1.23 0 2.23 1 2.23 2.23V86.38c0 2.23-1.845 4.074-4.151 4.074H62.9c-2.23 0-4.152-1.845-4.152-4.074V74.772c0-1.23 1-2.23 2.23-2.23-1.23 0-2.23-1-2.23-2.23v-1.076h-2.153v1.076c0 .77.231 1.538.616 2.23a4.204 4.204 0 00-.616 2.23V86.38c.077 3.46 2.845 6.304 6.305 6.304h16.375c3.46 0 6.305-2.845 6.305-6.227V74.849c0-.77-.23-1.538-.615-2.23a4.203 4.203 0 00.615-2.23v-1.076h-2.153v1zM85.658 37.638c0-4.075-2-7.842-5.382-10.148l-2.153-1.461c-1.46-1-2.306-2.614-2.306-4.306v-5.458h-8.765v5.305a5.1 5.1 0 01-2.383 4.305l-2.383 1.46a12.225 12.225 0 00-5.69 10.303v6.612c0 .769.231 1.537.616 2.23a4.203 4.203 0 00-.616 2.229v1.307h2.153v-1.307c0-1.23 1-2.23 2.23-2.23-1.23 0-2.23-1-2.23-2.23v-6.534c0-3.46 1.768-6.612 4.69-8.457l2.23-1.384c2.075-1.307 3.382-3.69 3.46-6.15V18.57h4.458v3.306c0 2.46 1.23 4.767 3.23 6.15l2.152 1.461c2.768 1.846 4.46 4.998 4.46 8.304v6.458c0 1.23-1 2.23-2.23 2.23 1.23 0 2.23.999 2.23 2.229v1.307h2.152v-1.307c0-.769-.23-1.538-.615-2.23a4.204 4.204 0 00.615-2.23v-6.611h.077z" fill="#CEE8FB"/><path d="M58.75 49.939h-2.154v19.22h2.153V49.94z" fill="#61B6F2"/><path d="M85.58 49.939h-2.152v19.22h2.153V49.94z" fill="#1379DA"/><path d="M79.046 29.258l-2.153-1.461c-2.076-1.384-3.229-3.69-3.229-6.15v-3.23h-4.46v3.153a7.16 7.16 0 01-3.459 6.15l-2.23 1.384-.922.692h17.298c-.384-.154-.615-.308-.845-.538z" fill="#E1F1FD"/><path d="M79.814 44.25v-6.535c0-3.075-1.383-5.92-3.69-7.765H62.516c-2.306 1.922-3.69 4.766-3.69 7.765v6.535c0 1.23 1 2.23 2.23 2.23-1.23 0-2.23.999-2.23 2.229v1.307H79.89v-1.307c0-1.23-1-2.23-2.23-2.23 1.154-.077 2.153-1.076 2.153-2.23z" fill="#A9DAFA"/><path d="M61.593 38.714a1.051 1.051 0 01-1.076-1.076c0-2.153.845-4.152 2.306-5.69.385-.384 1.077-.46 1.461 0 .384.385.461 1.077 0 1.461-1.076 1.154-1.691 2.691-1.691 4.229.076.615-.462 1.076-1 1.076zM61.593 45.172a1.051 1.051 0 01-1.076-1.076v-2.921c0-.616.461-1.077 1.076-1.077s1.076.461 1.076 1.077v2.921c0 .615-.538 1.076-1.076 1.076zM61.593 86.535a1.051 1.051 0 01-1.076-1.077v-9.38c0-.614.461-1.076 1.076-1.076s1.076.462 1.076 1.077v9.456c0 .538-.538 1-1.076 1z" fill="#E2F2FD"/><path d="M79.737 29.873h-3.69c2.307 1.922 3.69 4.767 3.69 7.765v6.612c0 1.23-.999 2.23-2.23 2.23 1.231 0 2.23.999 2.23 2.229v1.307h3.69v-1.307c0-.308-.076-.615-.153-.846a2.499 2.499 0 00-.769-1c-.384-.23-.769-.384-1.23-.384.461 0 .846-.154 1.23-.384.385-.23.615-.538.769-1 .077-.23.154-.538.154-.845v-6.535c0-3.075-1.384-5.997-3.69-7.842z" fill="#80C9F8"/><path d="M76.201 11.96h-2.306c.461 0 .922.46.922 1.076v4.382c0 .615-.384 1.076-.922 1.076H76.2c.462 0 .923-.46.923-1.076v-4.382c-.077-.615-.462-1.077-.923-1.077z" fill="#1379DA"/><path d="M74.74 17.418v-4.382c0-.615-.384-1.077-.922-1.077h-7.304c-.461 0-.922.462-.922 1.077v4.382c0 .615.384 1.076.922 1.076h7.304c.538-.077.922-.538.922-1.076z" fill="#299AEA"/><path d="M75.74 18.417h-8.842v2h8.842v-2z" fill="#1379DA"/><path d="M83.428 49.939h-5.151a11.942 11.942 0 00-7.304-2.46c-2.767 0-5.228.922-7.304 2.46h-4.92v19.22h4.92a11.942 11.942 0 007.304 2.46c2.768 0 5.228-.922 7.304-2.46h5.151V49.94z" fill="#299AEA"/><path d="M69.897 44.096a1.46 1.46 0 100-2.922 1.46 1.46 0 000 2.922zM73.972 36.715c0 .538-.384.923-.923.923-.538 0-.922-.385-.922-.923s.384-.922.922-.922c.462 0 .923.384.923.922zM71.743 83.998a1.46 1.46 0 100-2.922 1.46 1.46 0 000 2.922zM74.818 77.54a.923.923 0 100-1.846.923.923 0 000 1.845zM67.437 76.617a.923.923 0 100-1.846.923.923 0 000 1.846z" fill="#E2F2FD"/><path d="M79.641 61.614a8.764 8.764 0 10-17.064-4.007 8.764 8.764 0 1017.064 4.007z" fill="#80C9F8"/><path d="M71.127 65.392c-2.23 0-4.075-1.845-4.075-4.075 0-1.46 1.307-3.613 2.46-5.227l1.615-2.307 1.615 2.306c1.076 1.538 2.46 3.768 2.46 5.228 0 2.23-1.846 4.075-4.075 4.075z" fill="#E5F3FD"/></svg>