<svg width="257" height="444" fill="none" xmlns="http://www.w3.org/2000/svg"><path d="M0 19.94C0 9.759 8.255 1.504 18.437 1.504h219.405c10.183 0 18.437 8.255 18.437 18.438v405.622c0 10.182-8.254 18.437-18.437 18.437H18.437C8.255 444 0 435.745 0 425.563V19.941z" fill="#fff"/><path d="M59.517 407.035c0 1.195-.42 2.205-1.261 3.031-.826.811-1.94 1.32-3.341 1.527v2.455h-2.257v-2.411a10.388 10.388 0 01-2.765-.575 7.4 7.4 0 01-2.213-1.262l.974-2.079c1.283 1.003 2.67 1.556 4.16 1.659v-4.602c-.99-.251-1.822-.523-2.501-.818a4.48 4.48 0 01-1.704-1.35c-.457-.605-.686-1.387-.686-2.345 0-.797.2-1.52.598-2.169a4.777 4.777 0 011.66-1.637c.722-.442 1.548-.723 2.477-.841v-2.455h2.257v2.433c.855.104 1.66.31 2.412.62s1.386.7 1.902 1.172l-.973 2.08c-1.077-.885-2.242-1.416-3.496-1.593v4.801c.988.251 1.807.524 2.456.819.649.28 1.195.708 1.637 1.283.443.575.664 1.328.664 2.257zm-8.74-6.925c0 .516.178.936.532 1.261.354.31.855.575 1.504.796v-4.27c-.634.133-1.136.391-1.504.775-.354.383-.531.863-.531 1.438zm3.983 9.159c.62-.132 1.092-.376 1.416-.73.325-.368.487-.84.487-1.416 0-.457-.162-.826-.487-1.106-.324-.28-.796-.516-1.416-.708v3.96zM69.487 403.384c1.017.251 1.814.716 2.39 1.394.574.679.862 1.497.862 2.456 0 .9-.25 1.689-.752 2.367-.487.664-1.18 1.173-2.08 1.527-.885.354-1.91.531-3.075.531-1.166 0-2.198-.177-3.098-.531-.885-.354-1.578-.863-2.08-1.527-.486-.678-.73-1.467-.73-2.367 0-.959.288-1.777.863-2.456.575-.678 1.372-1.143 2.39-1.394-.885-.295-1.586-.759-2.102-1.394-.502-.634-.752-1.371-.752-2.212 0-.856.236-1.6.708-2.235.472-.649 1.12-1.143 1.947-1.482.84-.354 1.792-.531 2.854-.531s2.006.177 2.832.531c.84.339 1.497.833 1.969 1.482.472.635.708 1.379.708 2.235 0 .855-.258 1.608-.775 2.257-.501.634-1.194 1.084-2.08 1.349zm-2.655-5.619c-.87 0-1.556.199-2.058.597-.502.398-.752.966-.752 1.704 0 .693.25 1.261.752 1.703.516.428 1.202.708 2.058.841.855-.133 1.534-.413 2.035-.841.516-.442.774-1.01.774-1.703 0-.738-.25-1.306-.752-1.704-.501-.398-1.187-.597-2.057-.597zm0 11.659c1.003 0 1.784-.206 2.345-.619.575-.413.863-1.003.863-1.77 0-.723-.295-1.305-.885-1.748-.576-.442-1.35-.73-2.323-.863-.974.133-1.756.421-2.346.863-.575.443-.863 1.025-.863 1.748 0 .767.28 1.357.841 1.77.576.413 1.365.619 2.368.619zM80.098 411.681c-1.873 0-3.304-.686-4.292-2.058-.974-1.386-1.46-3.399-1.46-6.04 0-2.596.486-4.579 1.46-5.951.988-1.372 2.419-2.058 4.292-2.058 1.873 0 3.296.686 4.27 2.058.988 1.357 1.482 3.341 1.482 5.951 0 2.626-.494 4.632-1.482 6.018-.974 1.387-2.397 2.08-4.27 2.08zm0-2.235c1.018 0 1.755-.464 2.212-1.393.472-.944.708-2.434.708-4.47 0-2.006-.236-3.466-.708-4.38-.457-.93-1.194-1.394-2.212-1.394-1.018 0-1.763.464-2.235 1.394-.457.914-.686 2.374-.686 4.38 0 2.036.23 3.526.686 4.47.472.929 1.217 1.393 2.235 1.393zM30.383 393.215a8.97 8.97 0 00-4.154 1.996c-3.436 2.95-4.251 7.716-2.03 11.849a7.915 7.915 0 003.406 3.302c1.498.753 3.056 1.12 4.577 1.12a9.133 9.133 0 005.657-1.945l-1.545-1.983c-2.032 1.583-4.765 1.864-7.292.688a5.771 5.771 0 01-2.738-2.664c-1.601-3.248-.736-6.934 2.244-8.943a6.063 6.063 0 011.797-.822 6.728 6.728 0 018.458 5.194h-3.52a3.315 3.315 0 00-5.41-1.085 3.314 3.314 0 105.41 3.599h6.058a.096.096 0 00.096-.096v-1.161c0-5.669-5.146-10.162-11.014-9.049z" fill="#F04350"/><path d="M33.45 374.589c0 .995-.35 1.837-1.05 2.526-.69.676-1.617 1.1-2.785 1.272v2.046h-1.88v-2.009a8.611 8.611 0 01-2.305-.48 6.148 6.148 0 01-1.844-1.051l.811-1.733c1.07.836 2.225 1.297 3.466 1.383v-3.835c-.823-.209-1.517-.436-2.083-.682a3.728 3.728 0 01-1.42-1.125c-.38-.504-.571-1.155-.571-1.954 0-.664.166-1.266.498-1.807a3.97 3.97 0 011.383-1.364 5.137 5.137 0 012.064-.701v-2.046h1.881v2.028a7.668 7.668 0 012.01.516 5.335 5.335 0 011.585.977l-.81 1.733c-.898-.737-1.87-1.18-2.914-1.327v4.001c.824.209 1.506.436 2.047.682.54.233.995.59 1.364 1.069.369.48.553 1.106.553 1.881zm-7.283-5.771c0 .43.148.78.443 1.051.295.258.713.479 1.253.664v-3.559c-.528.111-.946.326-1.253.645-.295.32-.443.72-.443 1.199zm3.319 7.633c.516-.111.91-.313 1.18-.608.27-.308.406-.701.406-1.18 0-.381-.136-.689-.406-.922-.27-.234-.664-.431-1.18-.59v3.3zM44.173 376.359v1.936H36.08v-1.936h2.877v-8.463l-2.674 1.604v-2.12l3.65-2.213h1.384v11.192h2.857zM55.192 376.359v1.936h-8.813v-1.752l4.462-4.812c.528-.578.915-1.106 1.161-1.586.246-.479.369-.952.369-1.419 0-.603-.178-1.057-.535-1.365-.344-.307-.842-.461-1.493-.461-1.156 0-2.342.455-3.559 1.365l-.792-1.733c.516-.467 1.18-.836 1.99-1.107a7.425 7.425 0 012.453-.424c1.315 0 2.354.326 3.116.978.774.639 1.161 1.505 1.161 2.599 0 .75-.166 1.457-.497 2.121-.32.663-.86 1.407-1.623 2.23l-3.227 3.43h5.827zM61.674 378.461c-1.561 0-2.753-.572-3.577-1.715-.811-1.155-1.217-2.833-1.217-5.033 0-2.164.406-3.817 1.217-4.96.824-1.143 2.016-1.715 3.577-1.715s2.747.572 3.559 1.715c.823 1.131 1.235 2.784 1.235 4.96 0 2.187-.412 3.859-1.236 5.015-.81 1.155-1.997 1.733-3.558 1.733zm0-1.863c.848 0 1.463-.387 1.844-1.161.393-.787.59-2.028.59-3.724 0-1.672-.197-2.889-.59-3.651-.381-.774-.996-1.162-1.844-1.162-.848 0-1.469.388-1.862 1.162-.381.762-.572 1.979-.572 3.651 0 1.696.19 2.937.572 3.724.393.774 1.014 1.161 1.862 1.161z" fill="#C4C4C4"/><path d="M34.176 292.797v1.342h-7.72v-1.342h3.052v-10.521l-2.839 1.808v-1.536l3.54-2.256h.913v12.505h3.054zM35.18 295.208l4.997-15.635h1.459l-5.018 15.635H35.18zM51.693 292.797v1.342h-8.907v-1.206l4.843-5.367c.648-.726 1.12-1.381 1.42-1.965.297-.583.446-1.166.446-1.75 0-.765-.22-1.348-.66-1.75-.442-.415-1.07-.622-1.887-.622-1.323 0-2.632.531-3.928 1.594l-.603-1.225c.544-.519 1.231-.933 2.061-1.245a7.1 7.1 0 012.509-.466c1.27 0 2.275.33 3.014.992.739.648 1.108 1.529 1.108 2.644 0 .791-.181 1.556-.544 2.295-.35.726-.94 1.543-1.77 2.45l-3.948 4.279h6.846zM68.035 279.826v14.313H66.48v-1.77a3.143 3.143 0 01-1.303 1.42c-.57.324-1.239.486-2.003.486-.856 0-1.614-.214-2.276-.642-.648-.428-1.154-1.024-1.517-1.789-.363-.778-.544-1.673-.544-2.684 0-1.011.175-1.893.525-2.645.363-.765.875-1.354 1.536-1.769.661-.415 1.42-.623 2.276-.623.764 0 1.432.169 2.003.506.57.324.998.784 1.283 1.381v-6.184h1.575zm-4.55 13.146c.96 0 1.698-.324 2.217-.973.518-.661.778-1.594.778-2.8 0-1.193-.26-2.113-.778-2.761-.519-.662-1.258-.992-2.217-.992-.96 0-1.712.324-2.256.972-.532.648-.797 1.562-.797 2.742 0 1.206.265 2.146.797 2.82.544.661 1.296.992 2.256.992zM75.126 294.275c-.92 0-1.73-.208-2.43-.622-.701-.415-1.245-1.005-1.634-1.77-.376-.765-.564-1.66-.564-2.684 0-1.024.188-1.919.564-2.684a4.233 4.233 0 011.633-1.769c.7-.415 1.51-.623 2.431-.623.92 0 1.73.208 2.43.623a4.11 4.11 0 011.615 1.769c.389.765.583 1.66.583 2.684 0 1.024-.194 1.919-.583 2.684a4.112 4.112 0 01-1.614 1.77c-.7.414-1.51.622-2.431.622zm0-1.303c.972 0 1.718-.318 2.236-.953.519-.648.778-1.588.778-2.82 0-1.193-.265-2.113-.797-2.761-.532-.662-1.27-.992-2.217-.992-.96 0-1.705.33-2.236.992-.532.648-.798 1.568-.798 2.761 0 1.232.26 2.172.778 2.82.532.635 1.284.953 2.256.953zM86.313 294.275c-.946 0-1.776-.208-2.489-.622a4.265 4.265 0 01-1.633-1.751c-.377-.765-.565-1.653-.565-2.664 0-1.011.195-1.899.584-2.664a4.299 4.299 0 011.653-1.809c.726-.428 1.569-.642 2.528-.642.661 0 1.297.117 1.906.35.622.221 1.134.532 1.536.934l-.525 1.167c-.493-.389-.972-.674-1.439-.856a3.748 3.748 0 00-1.4-.272c-.998 0-1.783.337-2.353 1.011-.57.661-.856 1.588-.856 2.781 0 1.18.279 2.1.836 2.761.57.649 1.362.973 2.373.973.48 0 .946-.091 1.4-.272.467-.182.947-.467 1.44-.856l.524 1.167c-.415.389-.94.7-1.575.933a5.767 5.767 0 01-1.945.331zM100.026 289.199H92.85c.013 1.245.298 2.185.856 2.82.57.635 1.393.953 2.47.953 1.14 0 2.19-.383 3.15-1.148l.525 1.148c-.428.402-.979.719-1.653.953a6.1 6.1 0 01-2.042.35c-1.53 0-2.73-.447-3.598-1.342-.869-.908-1.303-2.146-1.303-3.714 0-.999.195-1.88.584-2.645.389-.778.933-1.381 1.633-1.809.7-.428 1.498-.642 2.392-.642 1.297 0 2.314.428 3.053 1.284.74.843 1.109 2.009 1.109 3.5v.292zm-4.142-3.85c-.817 0-1.485.246-2.004.739-.505.492-.83 1.186-.972 2.08h5.698c-.078-.92-.35-1.62-.817-2.1-.453-.48-1.089-.719-1.905-.719zM107.298 284.123c2.347 0 3.52 1.29 3.52 3.87v6.146h-1.575v-6.068c0-.907-.182-1.569-.545-1.983-.363-.428-.933-.642-1.711-.642-.908 0-1.634.279-2.178.836-.545.558-.817 1.309-.817 2.256v5.601h-1.575v-7.04c0-1.011-.052-1.925-.156-2.742h1.498l.155 1.75a3.195 3.195 0 011.342-1.459c.596-.35 1.277-.525 2.042-.525zM122.408 284.357v9.782h-1.556v-1.77a3.144 3.144 0 01-1.303 1.42c-.57.324-1.238.486-2.003.486-.869 0-1.634-.208-2.295-.622-.648-.415-1.154-.999-1.517-1.751-.35-.765-.525-1.653-.525-2.664 0-1.011.182-1.899.545-2.664.363-.778.868-1.381 1.517-1.809.661-.428 1.419-.642 2.275-.642.765 0 1.433.169 2.003.506.57.337 1.005.81 1.303 1.42v-1.692h1.556zm-4.551 8.615c.959 0 1.698-.324 2.217-.973.519-.661.778-1.594.778-2.8 0-1.206-.259-2.133-.778-2.781-.519-.648-1.258-.972-2.217-.972-.959 0-1.711.337-2.256 1.011-.531.661-.797 1.588-.797 2.781s.266 2.113.797 2.761c.532.649 1.284.973 2.256.973zM139.139 279.826v14.313h-1.556v-1.77a3.139 3.139 0 01-1.303 1.42c-.57.324-1.238.486-2.003.486-.855 0-1.614-.214-2.275-.642-.648-.428-1.154-1.024-1.517-1.789-.363-.778-.544-1.673-.544-2.684 0-1.011.175-1.893.525-2.645.363-.765.875-1.354 1.536-1.769.661-.415 1.42-.623 2.275-.623.765 0 1.433.169 2.003.506.571.324.999.784 1.284 1.381v-6.184h1.575zm-4.551 13.146c.96 0 1.699-.324 2.217-.973.519-.661.778-1.594.778-2.8 0-1.193-.259-2.113-.778-2.761-.518-.662-1.257-.992-2.217-.992-.959 0-1.711.324-2.255.972-.532.648-.798 1.562-.798 2.742 0 1.206.266 2.146.798 2.82.544.661 1.296.992 2.255.992zM150.372 289.199h-7.176c.013 1.245.298 2.185.856 2.82.57.635 1.393.953 2.469.953 1.141 0 2.191-.383 3.151-1.148l.525 1.148c-.428.402-.979.719-1.653.953a6.1 6.1 0 01-2.042.35c-1.53 0-2.729-.447-3.598-1.342-.868-.908-1.303-2.146-1.303-3.714 0-.999.195-1.88.584-2.645.389-.778.933-1.381 1.633-1.809.7-.428 1.498-.642 2.392-.642 1.297 0 2.315.428 3.054 1.284.738.843 1.108 2.009 1.108 3.5v.292zm-4.142-3.85c-.817 0-1.485.246-2.003.739-.506.492-.83 1.186-.973 2.08h5.698c-.077-.92-.35-1.62-.816-2.1-.454-.48-1.089-.719-1.906-.719zM162.715 284.123c2.346 0 3.52 1.29 3.52 3.87v6.146h-1.575v-6.068c0-.907-.182-1.569-.545-1.983-.363-.428-.933-.642-1.711-.642-.908 0-1.634.279-2.178.836-.545.558-.817 1.309-.817 2.256v5.601h-1.575v-14.313h1.575v6.125a3.194 3.194 0 011.322-1.361c.584-.311 1.245-.467 1.984-.467zM177.397 284.357v9.782h-1.537v-1.692a3.221 3.221 0 01-1.303 1.361c-.557.311-1.186.467-1.886.467-1.154 0-2.029-.324-2.625-.973-.597-.648-.895-1.607-.895-2.878v-6.067h1.575v6.028c0 .882.182 1.53.545 1.945.363.415.914.622 1.653.622.869 0 1.569-.278 2.1-.836.532-.57.798-1.316.798-2.236v-5.523h1.575zM188.621 289.199h-7.176c.013 1.245.298 2.185.855 2.82.571.635 1.394.953 2.47.953 1.141 0 2.191-.383 3.151-1.148l.525 1.148c-.428.402-.979.719-1.653.953a6.105 6.105 0 01-2.042.35c-1.53 0-2.729-.447-3.598-1.342-.869-.908-1.303-2.146-1.303-3.714 0-.999.194-1.88.583-2.645.389-.778.934-1.381 1.634-1.809.7-.428 1.497-.642 2.392-.642 1.296 0 2.314.428 3.053 1.284.739.843 1.109 2.009 1.109 3.5v.292zm-4.143-3.85c-.816 0-1.484.246-2.003.739-.505.492-.829 1.186-.972 2.08h5.698c-.078-.92-.35-1.62-.817-2.1-.454-.48-1.089-.719-1.906-.719zM199.493 284.376l-4.22 9.763h-1.497l-4.162-9.763h1.653l3.306 8.051 3.345-8.051h1.575zM205.16 294.275c-.921 0-1.731-.208-2.431-.622a4.23 4.23 0 01-1.633-1.77c-.376-.765-.564-1.66-.564-2.684 0-1.024.188-1.919.564-2.684a4.227 4.227 0 011.633-1.769c.7-.415 1.51-.623 2.431-.623.92 0 1.731.208 2.431.623a4.11 4.11 0 011.614 1.769c.389.765.583 1.66.583 2.684 0 1.024-.194 1.919-.583 2.684a4.113 4.113 0 01-1.614 1.77c-.7.414-1.511.622-2.431.622zm0-1.303c.972 0 1.718-.318 2.236-.953.519-.648.778-1.588.778-2.82 0-1.193-.265-2.113-.797-2.761-.532-.662-1.271-.992-2.217-.992-.959 0-1.705.33-2.236.992-.532.648-.798 1.568-.798 2.761 0 1.232.26 2.172.778 2.82.532.635 1.284.953 2.256.953zM215.55 294.275c-1.647 0-2.95-.422-3.909-1.264l.525-1.167c.532.415 1.07.713 1.614.894a5.748 5.748 0 001.828.273c.739 0 1.297-.123 1.673-.37.389-.259.583-.629.583-1.108 0-.389-.129-.7-.389-.934-.259-.233-.687-.415-1.283-.544l-1.653-.389c-.817-.182-1.452-.506-1.906-.973a2.348 2.348 0 01-.661-1.672c0-.856.343-1.549 1.03-2.081.687-.544 1.595-.817 2.723-.817.687 0 1.335.111 1.945.331.609.22 1.121.538 1.536.953l-.525 1.147c-.921-.765-1.906-1.147-2.956-1.147-.7 0-1.245.136-1.634.408-.376.26-.564.629-.564 1.109 0 .402.117.719.35.953.247.233.636.415 1.167.544l1.653.409c.908.207 1.582.531 2.023.972.441.428.661.992.661 1.692 0 .843-.344 1.517-1.031 2.022-.687.506-1.62.759-2.8.759zM27.213 306.721v2.023H25.21v-1.42a4 4 0 01.273-1.498c.181-.466.486-.914.914-1.341l.739.583c-.506.545-.791 1.096-.856 1.653h.933zm3.268 0v2.023h-2.003v-1.42a4 4 0 01.272-1.498c.181-.466.486-.914.914-1.341l.739.583c-.506.545-.791 1.096-.856 1.653h.934zM44.26 311.233v6.417c-.544.286-1.257.519-2.139.7-.881.169-1.776.253-2.683.253-1.375 0-2.561-.279-3.56-.836-.998-.57-1.763-1.387-2.294-2.45-.519-1.063-.778-2.334-.778-3.812 0-1.465.26-2.723.778-3.773.531-1.063 1.283-1.873 2.256-2.431.985-.57 2.145-.855 3.48-.855.973 0 1.861.149 2.665.447.817.285 1.517.72 2.1 1.303l-.622 1.225c-.674-.57-1.335-.979-1.983-1.225-.636-.259-1.355-.389-2.16-.389-1.568 0-2.774.493-3.616 1.478-.83.972-1.245 2.379-1.245 4.22 0 1.88.428 3.313 1.284 4.298.855.972 2.1 1.458 3.733 1.458a10.22 10.22 0 003.326-.544v-4.22H39.36v-1.264h4.9zM51.892 308.432c.325 0 .623.039.895.117l-.039 1.439a3.126 3.126 0 00-1.03-.155c-.947 0-1.654.298-2.12.894-.454.584-.681 1.297-.681 2.139v5.582h-1.575v-7.04c0-1.011-.052-1.925-.156-2.742h1.498l.155 1.808c.247-.661.642-1.167 1.187-1.517.544-.35 1.166-.525 1.866-.525zM62.813 308.666v9.782h-1.556v-1.77a3.143 3.143 0 01-1.303 1.42c-.57.324-1.238.486-2.003.486-.869 0-1.634-.208-2.295-.623-.648-.414-1.154-.998-1.517-1.75-.35-.765-.525-1.653-.525-2.664 0-1.011.182-1.899.545-2.664.363-.778.868-1.381 1.517-1.809.66-.428 1.42-.642 2.275-.642.765 0 1.433.169 2.003.506.57.337 1.005.81 1.303 1.42v-1.692h1.556zm-4.55 8.615c.959 0 1.698-.324 2.216-.973.519-.661.778-1.594.778-2.8 0-1.206-.26-2.133-.778-2.781-.518-.648-1.258-.972-2.217-.972-.96 0-1.711.337-2.256 1.011-.531.661-.797 1.588-.797 2.781s.266 2.113.797 2.761c.532.649 1.284.973 2.256.973zM70.74 308.432c2.346 0 3.52 1.29 3.52 3.87v6.146h-1.576v-6.068c0-.907-.181-1.569-.544-1.983-.363-.428-.934-.642-1.712-.642-.907 0-1.633.279-2.178.836-.544.557-.816 1.309-.816 2.256v5.601h-1.576v-7.04c0-1.011-.052-1.925-.155-2.742H67.2l.156 1.75a3.193 3.193 0 011.342-1.459c.596-.35 1.277-.525 2.042-.525zM74.648 321.209c.35.104.667.156.953.156 1.089 0 1.633-.649 1.633-1.945v-10.754h1.575v10.948c0 1.025-.259 1.796-.777 2.315-.506.531-1.206.797-2.1.797-.429 0-.856-.058-1.284-.175v-1.342zm4.337-16.686v1.79h-1.926v-1.79h1.925zM90.483 308.666v9.782h-1.556v-1.77a3.143 3.143 0 01-1.303 1.42c-.57.324-1.238.486-2.003.486-.868 0-1.633-.208-2.294-.623-.649-.414-1.154-.998-1.517-1.75-.35-.765-.525-1.653-.525-2.664 0-1.011.181-1.899.544-2.664.363-.778.869-1.381 1.517-1.809.661-.428 1.42-.642 2.275-.642.765 0 1.433.169 2.004.506.57.337 1.004.81 1.302 1.42v-1.692h1.556zm-4.55 8.615c.959 0 1.698-.324 2.217-.973.518-.661.777-1.594.777-2.8 0-1.206-.259-2.133-.777-2.781-.519-.648-1.258-.972-2.217-.972-.96 0-1.712.337-2.256 1.011-.532.661-.798 1.588-.798 2.781s.266 2.113.798 2.761c.531.649 1.283.973 2.256.973zM98.794 304.601h4.648c2.217 0 3.928.603 5.134 1.809 1.219 1.193 1.828 2.891 1.828 5.095 0 2.217-.609 3.928-1.828 5.134-1.206 1.206-2.917 1.809-5.134 1.809h-4.648v-13.847zm4.551 12.485c1.789 0 3.131-.466 4.025-1.4.908-.933 1.361-2.327 1.361-4.181 0-3.695-1.795-5.542-5.386-5.542h-2.956v11.123h2.956zM117.154 318.584c-.921 0-1.731-.208-2.431-.623-.7-.414-1.245-1.004-1.634-1.769-.375-.765-.563-1.66-.563-2.684 0-1.024.188-1.919.563-2.684a4.235 4.235 0 011.634-1.769c.7-.415 1.51-.623 2.431-.623.92 0 1.731.208 2.431.623a4.11 4.11 0 011.614 1.769c.389.765.583 1.66.583 2.684 0 1.024-.194 1.919-.583 2.684a4.105 4.105 0 01-1.614 1.769c-.7.415-1.511.623-2.431.623zm0-1.303c.972 0 1.718-.318 2.236-.953.519-.648.778-1.588.778-2.82 0-1.193-.266-2.113-.797-2.761-.532-.662-1.271-.992-2.217-.992-.959 0-1.705.33-2.236.992-.532.648-.798 1.568-.798 2.761 0 1.232.259 2.172.778 2.82.532.635 1.284.953 2.256.953zM129.119 308.432c2.347 0 3.52 1.29 3.52 3.87v6.146h-1.575v-6.068c0-.907-.182-1.569-.545-1.983-.363-.428-.933-.642-1.711-.642-.908 0-1.634.279-2.178.836-.545.557-.817 1.309-.817 2.256v5.601h-1.575v-7.04c0-1.011-.052-1.925-.156-2.742h1.498l.155 1.75a3.2 3.2 0 011.342-1.459c.597-.35 1.277-.525 2.042-.525zM139.07 320.528c.584.104 1.05.156 1.4.156.662 0 1.122-.188 1.381-.564.273-.363.409-.992.409-1.886v-13.633h1.594v13.652c0 1.349-.246 2.321-.739 2.917-.479.597-1.277.895-2.392.895-.44 0-.992-.052-1.653-.156v-1.381zM155.272 308.666v9.782h-1.537v-1.692a3.221 3.221 0 01-1.303 1.361c-.557.311-1.186.467-1.886.467-1.154 0-2.029-.324-2.625-.973-.597-.648-.895-1.607-.895-2.878v-6.067h1.575v6.028c0 .882.182 1.53.545 1.945.363.415.914.622 1.653.622.869 0 1.569-.278 2.1-.836.532-.57.798-1.316.798-2.236v-5.523h1.575zM166.924 308.666v9.782h-1.556v-1.77a3.144 3.144 0 01-1.303 1.42c-.571.324-1.238.486-2.003.486-.869 0-1.634-.208-2.295-.623-.648-.414-1.154-.998-1.517-1.75-.35-.765-.525-1.653-.525-2.664 0-1.011.182-1.899.545-2.664.363-.778.868-1.381 1.516-1.809.662-.428 1.42-.642 2.276-.642.765 0 1.432.169 2.003.506.57.337 1.005.81 1.303 1.42v-1.692h1.556zm-4.551 8.615c.959 0 1.698-.324 2.217-.973.518-.661.778-1.594.778-2.8 0-1.206-.26-2.133-.778-2.781-.519-.648-1.258-.972-2.217-.972-.96 0-1.711.337-2.256 1.011-.532.661-.797 1.588-.797 2.781s.265 2.113.797 2.761c.532.649 1.284.973 2.256.973zM174.85 308.432c2.347 0 3.52 1.29 3.52 3.87v6.146h-1.575v-6.068c0-.907-.181-1.569-.544-1.983-.363-.428-.934-.642-1.712-.642-.907 0-1.633.279-2.178.836-.544.557-.817 1.309-.817 2.256v5.601h-1.575v-7.04a22.06 22.06 0 00-.155-2.742h1.497l.156 1.75a3.192 3.192 0 011.341-1.459c.597-.35 1.277-.525 2.042-.525zM182.715 304.601v1.42c0 .544-.091 1.044-.272 1.497-.182.454-.487.901-.914 1.342l-.739-.583c.505-.584.791-1.141.855-1.673h-.933v-2.003h2.003zm3.267 0v1.42c0 .544-.091 1.044-.272 1.497-.182.454-.486.901-.914 1.342l-.739-.583c.505-.584.791-1.141.855-1.673h-.933v-2.003h2.003z" fill="#444"/><path d="M0 14.585C0 6.53 6.495 0 14.507 0h227.275c8.012 0 14.507 6.53 14.507 14.585v240.659H0V14.585z" fill="#E2FFC8"/><path d="M229.526 195.94H94.385v-7.813c0-4.857 4.012-8.869 8.868-8.869h117.404c4.857 0 8.869 4.012 8.869 8.869v7.813z" fill="#ADB0D7"/><path d="M230.581 195.095l-.633 1.478-1.9 5.49-1.056 2.957-5.068 14.57c-1.267 4.012-5.068 6.545-9.291 6.545h-8.869a8.02 8.02 0 01-8.024-8.024c0-1.055-.633-1.9-1.478-2.322-1.478-.423-2.956.633-2.956 2.111v.211a8.02 8.02 0 01-8.024 8.024h-10.98a8.02 8.02 0 01-8.024-8.024c0-1.055-.845-2.111-1.901-2.322-1.478-.211-2.533.844-2.533 2.111v.211a8.02 8.02 0 01-8.024 8.024h-10.981a8.02 8.02 0 01-8.024-8.024c0-1.055-.844-2.111-1.9-2.322-1.478-.211-2.534.844-2.534 2.111v.211a8.02 8.02 0 01-8.024 8.024h-8.869c-4.223 0-7.812-2.745-9.291-6.545l-5.067-14.57-1.056-2.957-1.9-5.49-.845-1.478H230.58z" fill="#C2C4E1"/><path d="M231.426 196.573H92.484a4.236 4.236 0 01-4.223-4.223c0-2.323 1.9-4.224 4.223-4.224h138.731a4.236 4.236 0 014.223 4.224c.211 2.322-1.689 4.223-4.012 4.223z" fill="#C8CAE4"/><path d="M229.948 196.573l-1.901 5.49H95.862l-1.9-5.49h135.986zM229.526 149.062H94.385v-7.813c0-4.856 4.012-8.868 8.868-8.868h117.404c4.857 0 8.869 4.012 8.869 8.868v7.813z" fill="#ADB0D7"/><path d="M230.581 148.007l-.633 1.478-1.9 5.49-1.056 2.956-5.068 14.57c-1.267 4.012-5.068 6.546-9.291 6.546h-8.869a8.02 8.02 0 01-8.024-8.024c0-1.056-.633-1.901-1.478-2.323-1.478-.422-2.956.634-2.956 2.112v.211a8.02 8.02 0 01-8.024 8.024h-10.98a8.02 8.02 0 01-8.024-8.024c0-1.056-.845-2.112-1.901-2.323-1.478-.211-2.533.845-2.533 2.112v.211a8.02 8.02 0 01-8.024 8.024h-10.981a8.02 8.02 0 01-8.024-8.024c0-1.056-.844-2.112-1.9-2.323-1.478-.211-2.534.845-2.534 2.112v.211a8.02 8.02 0 01-8.024 8.024h-8.869c-4.223 0-7.812-2.745-9.291-6.546l-5.067-14.57-1.056-2.956-1.9-5.49-.845-1.478H230.58z" fill="#C2C4E1"/><path d="M231.426 149.696H92.484a4.236 4.236 0 01-4.223-4.224c0-2.322 1.9-4.223 4.223-4.223h138.731a4.236 4.236 0 014.223 4.223c.211 2.323-1.689 4.224-4.012 4.224z" fill="#C8CAE4"/><path d="M229.948 149.696l-1.901 5.49H95.862l-1.9-5.49h135.986zM229.526 101.974H94.385V93.95c0-4.856 4.012-8.868 8.868-8.868h117.404c4.857 0 8.869 4.012 8.869 8.868v8.024z" fill="#ADB0D7"/><path d="M230.581 100.919l-.633 1.478-1.9 5.49-1.056 2.956-5.068 14.57c-1.267 4.012-5.068 6.546-9.291 6.546h-8.869a8.02 8.02 0 01-8.024-8.024c0-1.056-.633-1.901-1.478-2.323-1.478-.422-2.956.634-2.956 2.112v.211a8.02 8.02 0 01-8.024 8.024h-10.98a8.02 8.02 0 01-8.024-8.024c0-1.056-.845-2.112-1.901-2.323-1.478-.211-2.533.845-2.533 2.112v.211a8.02 8.02 0 01-8.024 8.024h-10.981a8.02 8.02 0 01-8.024-8.024c0-1.056-.844-2.112-1.9-2.323-1.478-.211-2.534.845-2.534 2.112v.211a8.02 8.02 0 01-8.024 8.024h-8.869c-4.223 0-7.812-2.745-9.291-6.546l-5.067-14.57-1.056-2.956-1.9-5.49-.845-1.478H230.58z" fill="#C8CAE4"/><path d="M231.426 102.608H92.484a4.236 4.236 0 01-4.223-4.224c0-2.322 1.9-4.223 4.223-4.223h138.731c2.323 0 4.223 1.9 4.223 4.224.211 2.322-1.689 4.223-4.012 4.223z" fill="#C8CAE4"/><path d="M229.948 102.608l-1.901 5.49H95.862l-1.9-5.49h135.986zM162.799 189.183H27.447v-23.861c0-10.98 8.869-19.849 19.849-19.849h95.654c10.981 0 19.849 8.869 19.849 19.849v23.861z" fill="#ADB0D7"/><path d="M32.937 193.828v-28.506c0-7.813 6.335-14.359 14.359-14.359h95.655c7.812 0 14.358 6.335 14.358 14.359v28.506H32.937z" fill="#8B93B4"/><path d="M50.252 174.613c1.056 2.323 1.478 5.068 1.478 7.813 0 8.446-4.856 15.203-10.769 15.203-2.534 0-4.645-1.267-6.546-3.167 1.9 4.434 5.28 7.39 9.291 7.39 5.912 0 10.77-6.757 10.77-15.203 0-4.857-1.69-9.291-4.224-12.036z" fill="#DBCFB5"/><path d="M40.961 197.629c5.913 0 10.77-6.757 10.77-15.203 0-2.956-.634-5.49-1.479-7.813-1.9-1.9-4.012-3.167-6.546-3.167-5.912 0-10.769 6.757-10.769 15.203 0 2.956.634 5.49 1.478 7.813 1.9 2.111 4.224 3.167 6.546 3.167z" fill="#F1EDE3"/><path d="M38.85 179.681c-.211 0-.422 0-.634-.211-.633-.423-.844-1.267-.422-1.69 1.69-2.745 4.012-4.223 6.546-4.223.633 0 1.267.634 1.267 1.267 0 .634-.634 1.267-1.267 1.267-1.69 0-3.168 1.056-4.434 2.956a1.16 1.16 0 01-1.056.634z" fill="#fff"/><path d="M152.875 174.613c1.055 2.323 1.478 5.068 1.478 7.813 0 8.446-4.857 15.203-10.769 15.203-2.534 0-4.646-1.267-6.546-3.167 1.9 4.434 5.279 7.39 9.291 7.39 5.912 0 10.769-6.757 10.769-15.203 0-4.857-1.689-9.291-4.223-12.036z" fill="#DBCFB5"/><path d="M143.795 197.629c5.912 0 10.769-6.757 10.769-15.203 0-2.956-.634-5.49-1.478-7.813-1.901-1.9-4.012-3.167-6.546-3.167-5.912 0-10.769 6.757-10.769 15.203 0 2.956.633 5.49 1.478 7.813 1.689 2.111 4.012 3.167 6.546 3.167z" fill="#F1EDE3"/><path d="M141.683 179.681c-.211 0-.422 0-.633-.211-.634-.423-.845-1.267-.423-1.69 1.69-2.745 4.012-4.223 6.546-4.223.634 0 1.267.634 1.267 1.267 0 .634-.633 1.267-1.267 1.267-1.689 0-3.167 1.056-4.434 2.956-.422.423-.845.634-1.056.634z" fill="#fff"/><path d="M127.324 174.613c1.056 2.323 1.478 5.068 1.478 7.813 0 8.446-4.856 15.203-10.769 15.203-2.534 0-4.645-1.267-6.546-3.167 1.901 4.434 5.279 7.39 9.291 7.39 5.913 0 10.769-6.757 10.769-15.203 0-4.857-1.689-9.291-4.223-12.036z" fill="#DBCFB5"/><path d="M118.034 197.629c5.912 0 10.769-6.757 10.769-15.203 0-2.956-.634-5.49-1.478-7.813-1.901-1.9-4.012-3.167-6.546-3.167-5.913 0-10.769 6.757-10.769 15.203 0 2.956.633 5.49 1.478 7.813 1.9 2.111 4.012 3.167 6.546 3.167z" fill="#F1EDE3"/><path d="M115.922 179.681c-.211 0-.422 0-.633-.211-.634-.423-.845-1.267-.423-1.69 1.689-2.745 4.012-4.223 6.546-4.223.634 0 1.267.634 1.267 1.267 0 .634-.633 1.267-1.267 1.267-1.689 0-3.167 1.056-4.434 2.956a1.161 1.161 0 01-1.056.634z" fill="#fff"/><path d="M101.564 174.613c1.055 2.323 1.478 5.068 1.478 7.813 0 8.446-4.857 15.203-10.77 15.203-2.533 0-4.645-1.267-6.545-3.167 1.9 4.434 5.279 7.39 9.29 7.39 5.913 0 10.77-6.757 10.77-15.203 0-4.857-1.689-9.291-4.223-12.036z" fill="#DBCFB5"/><path d="M92.272 197.629c5.913 0 10.77-6.757 10.77-15.203 0-2.956-.634-5.49-1.479-7.813-1.9-1.9-4.012-3.167-6.546-3.167-5.912 0-10.768 6.757-10.768 15.203 0 2.956.633 5.49 1.478 7.813 1.9 2.111 4.223 3.167 6.545 3.167z" fill="#F1EDE3"/><path d="M90.16 179.681c-.21 0-.422 0-.633-.211-.633-.423-.844-1.267-.422-1.69 1.69-2.745 4.012-4.223 6.546-4.223.633 0 1.267.634 1.267 1.267 0 .634-.634 1.267-1.267 1.267-1.69 0-3.167 1.056-4.434 2.956a1.16 1.16 0 01-1.056.634z" fill="#fff"/><path d="M75.802 174.613c1.056 2.323 1.479 5.068 1.479 7.813 0 8.446-4.857 15.203-10.77 15.203-2.533 0-4.645-1.267-6.545-3.167 1.9 4.434 5.279 7.39 9.29 7.39 5.913 0 10.77-6.757 10.77-15.203.21-4.857-1.478-9.291-4.224-12.036z" fill="#DBCFB5"/><path d="M66.722 197.629c5.913 0 10.77-6.757 10.77-15.203 0-2.956-.634-5.49-1.479-7.813-1.9-1.9-4.012-3.167-6.545-3.167-5.913 0-10.77 6.757-10.77 15.203 0 2.956.634 5.49 1.479 7.813 1.9 2.111 4.012 3.167 6.545 3.167z" fill="#F1EDE3"/><path d="M64.611 179.681c-.211 0-.422 0-.634-.211-.633-.423-.844-1.267-.422-1.69 1.69-2.745 4.012-4.223 6.546-4.223.633 0 1.267.634 1.267 1.267 0 .634-.633 1.267-1.267 1.267-1.69 0-3.167 1.056-4.434 2.956a1.16 1.16 0 01-1.056.634z" fill="#fff"/><path d="M163.855 195.095l-.634 1.478-1.9 5.49-1.056 2.957-5.068 14.57c-1.266 4.012-5.067 6.545-9.29 6.545h-8.869a8.02 8.02 0 01-8.024-8.024c0-1.055-.634-1.9-1.478-2.322-1.478-.423-2.956.633-2.956 2.111v.211a8.02 8.02 0 01-8.024 8.024h-10.981a8.02 8.02 0 01-8.024-8.024c0-1.055-.844-2.111-1.9-2.322-1.478-.211-2.534.844-2.534 2.111v.211a8.02 8.02 0 01-8.024 8.024h-10.98a8.02 8.02 0 01-8.024-8.024c0-1.055-.845-2.111-1.9-2.322-1.479-.211-2.534.844-2.534 2.111v.211a8.02 8.02 0 01-8.024 8.024h-8.869c-4.223 0-7.813-2.745-9.291-6.545l-5.49-14.57-1.056-2.957-1.9-5.49-.634-1.478h137.464z" fill="#C2C4E1"/><path d="M164.489 196.574H25.758a4.236 4.236 0 01-4.223-4.224c0-2.322 1.9-4.223 4.223-4.223h138.731a4.236 4.236 0 014.223 4.223c0 2.323-1.689 4.224-4.223 4.224z" fill="#C8CAE4"/><path d="M163.221 196.573l-1.9 5.491H28.925l-1.69-5.491h135.986z" fill="#ADB0D7"/></svg>