<svg width="256" height="444" fill="none" xmlns="http://www.w3.org/2000/svg"><path d="M0 20.56C0 10.392 8.243 2.15 18.41 2.15h219.085c10.167 0 18.41 8.242 18.41 18.41v405.029c0 10.168-8.243 18.411-18.41 18.411H18.41C8.243 444 0 435.757 0 425.589V20.559z" fill="#fff"/><path d="M31.543 296.291c-1.307 0-2.446-.284-3.417-.854-.958-.57-1.696-1.385-2.214-2.447-.518-1.074-.777-2.337-.777-3.786 0-1.45.26-2.7.777-3.748.518-1.062 1.256-1.877 2.214-2.447.97-.57 2.11-.854 3.417-.854.958 0 1.832.148 2.622.446a5.505 5.505 0 012.078 1.301l-.602 1.224c-.66-.57-1.314-.978-1.962-1.224-.634-.246-1.34-.369-2.116-.369-1.515 0-2.693.492-3.534 1.476-.829.984-1.243 2.382-1.243 4.195 0 1.825.414 3.236 1.243 4.233.828.984 2.006 1.476 3.534 1.476.777 0 1.482-.123 2.116-.369.648-.246 1.301-.654 1.962-1.224l.602 1.224a5.714 5.714 0 01-2.078 1.32c-.79.285-1.664.427-2.622.427zM47.133 286.368v9.768H45.58v-1.767a3.142 3.142 0 01-1.301 1.418c-.57.323-1.237.485-2 .485-.868 0-1.632-.207-2.292-.621-.647-.415-1.152-.997-1.515-1.748-.349-.764-.524-1.651-.524-2.66 0-1.01.181-1.897.544-2.661.362-.777.867-1.379 1.515-1.806.66-.427 1.417-.641 2.272-.641.763 0 1.43.169 2 .505.57.337 1.003.809 1.3 1.418v-1.69h1.554zm-4.544 8.603c.958 0 1.696-.324 2.214-.971.518-.66.777-1.592.777-2.796 0-1.204-.26-2.13-.777-2.777-.518-.647-1.256-.971-2.214-.971s-1.709.336-2.252 1.01c-.531.66-.797 1.586-.797 2.777s.266 2.11.797 2.757c.53.647 1.281.971 2.252.971zM54.718 286.135c.324 0 .622.039.894.117l-.04 1.437a3.117 3.117 0 00-1.028-.155c-.945 0-1.65.297-2.117.893-.453.582-.68 1.294-.68 2.136v5.573h-1.573v-7.03c0-1.009-.051-1.922-.155-2.738h1.495l.156 1.806c.246-.66.64-1.165 1.184-1.514.544-.35 1.165-.525 1.864-.525zM62.084 286.135c.854 0 1.612.214 2.272.641.66.427 1.172 1.029 1.534 1.806.363.764.544 1.651.544 2.661 0 1.009-.181 1.896-.544 2.66-.362.751-.874 1.333-1.534 1.748-.647.414-1.405.621-2.272.621-.764 0-1.43-.168-2-.505a3.256 3.256 0 01-1.301-1.437v6.001H57.21v-11.225c0-1.009-.052-1.922-.155-2.738h1.495l.155 1.884c.272-.673.7-1.191 1.282-1.553.595-.376 1.294-.564 2.097-.564zm-.291 8.836c.958 0 1.696-.324 2.214-.971.53-.647.796-1.566.796-2.757s-.266-2.117-.796-2.777c-.531-.674-1.27-1.01-2.214-1.01-.971 0-1.715.324-2.233.971s-.777 1.573-.777 2.777c0 1.204.259 2.136.777 2.796.517.647 1.262.971 2.233.971zM77.029 291.204h-7.166c.013 1.242.298 2.181.855 2.815.57.635 1.391.952 2.466.952 1.14 0 2.188-.382 3.146-1.146l.524 1.146c-.427.401-.977.718-1.65.951-.66.233-1.34.35-2.04.35-1.527 0-2.725-.447-3.592-1.34-.867-.906-1.3-2.142-1.3-3.709 0-.997.193-1.877.582-2.641.388-.777.932-1.379 1.63-1.806.7-.427 1.496-.641 2.39-.641 1.294 0 2.31.428 3.048 1.282.738.842 1.107 2.007 1.107 3.495v.292zm-4.136-3.845c-.816 0-1.483.246-2 .738-.505.492-.829 1.184-.971 2.077h5.69c-.078-.919-.35-1.618-.816-2.097-.453-.479-1.088-.718-1.903-.718zM81.457 287.611v5.34c0 .725.149 1.237.446 1.534.298.285.719.428 1.263.428.362 0 .712-.059 1.048-.175v1.34a4.433 4.433 0 01-1.36.194c-.931 0-1.663-.259-2.194-.777-.517-.531-.776-1.307-.776-2.33v-5.554H77.98v-1.243h1.903v-2.505l1.573-.563v3.068h2.796v1.243h-2.796zM94.751 286.368v9.768h-1.553v-1.767a3.142 3.142 0 01-1.302 1.418c-.57.323-1.236.485-2 .485-.867 0-1.63-.207-2.291-.621-.647-.415-1.152-.997-1.515-1.748-.35-.764-.524-1.651-.524-2.66 0-1.01.181-1.897.544-2.661.362-.777.867-1.379 1.514-1.806.66-.427 1.418-.641 2.272-.641.764 0 1.43.169 2 .505.57.337 1.004.809 1.302 1.418v-1.69h1.553zm-4.544 8.603c.958 0 1.696-.324 2.214-.971.518-.66.776-1.592.776-2.796 0-1.204-.258-2.13-.776-2.777-.518-.647-1.256-.971-2.214-.971s-1.709.336-2.253 1.01c-.53.66-.796 1.586-.796 2.777s.266 2.11.796 2.757c.531.647 1.282.971 2.253.971zM112.099 292.582h-7.224l-1.534 3.554h-1.651l6.078-13.826h1.399l6.078 13.826h-1.632l-1.514-3.554zm-.563-1.32l-3.049-7.107-3.049 7.107h6.098zM126.612 293.126h-2.097v3.01h-1.593v-3.01h-6.369v-1.204l6.661-9.612h1.301v9.496h2.097v1.32zm-3.69-1.32v-6.797l-4.718 6.797h4.718zM37.447 306.583l-6.04 13.827H30.01l-6.039-13.827h1.69l5.068 11.807 5.068-11.807h1.65zM46.489 310.642v9.768h-1.554v-1.768a3.137 3.137 0 01-1.301 1.418c-.57.324-1.236.485-2 .485-.867 0-1.631-.207-2.292-.621-.647-.414-1.152-.997-1.514-1.748-.35-.763-.525-1.65-.525-2.66 0-1.01.182-1.897.544-2.66.363-.777.867-1.379 1.515-1.806.66-.428 1.417-.641 2.272-.641.764 0 1.43.168 2 .505.57.336 1.003.809 1.301 1.417v-1.689h1.553zm-4.544 8.602c.958 0 1.695-.323 2.213-.971.518-.66.777-1.592.777-2.796 0-1.204-.259-2.129-.777-2.777-.518-.647-1.255-.971-2.214-.971-.958 0-1.708.337-2.252 1.01-.53.66-.796 1.586-.796 2.777s.265 2.11.796 2.757c.53.648 1.282.971 2.252.971zM54.074 310.409c.323 0 .621.039.893.116l-.039 1.437a3.143 3.143 0 00-1.03-.155c-.944 0-1.65.298-2.116.893-.453.583-.68 1.295-.68 2.136v5.574H49.53v-7.03c0-1.01-.052-1.923-.156-2.738h1.496l.155 1.806c.246-.66.64-1.165 1.184-1.515.544-.349 1.166-.524 1.865-.524zM56.565 310.642h1.573v9.768h-1.573v-9.768zm1.767-4.136v1.786H56.41v-1.786h1.922zM65.231 320.545c-.919 0-1.728-.207-2.427-.621-.699-.414-1.243-1.003-1.631-1.767-.376-.764-.563-1.657-.563-2.68 0-1.023.188-1.916.563-2.68a4.238 4.238 0 011.631-1.767c.7-.414 1.508-.621 2.427-.621.92 0 1.729.207 2.428.621a4.114 4.114 0 011.611 1.767c.389.764.583 1.657.583 2.68 0 1.023-.194 1.916-.582 2.68a4.103 4.103 0 01-1.612 1.767c-.7.414-1.508.621-2.428.621zm0-1.301c.971 0 1.716-.317 2.234-.951.517-.647.776-1.586.776-2.816 0-1.191-.265-2.11-.796-2.757-.53-.661-1.268-.991-2.214-.991-.958 0-1.702.33-2.233.991-.53.647-.796 1.566-.796 2.757 0 1.23.259 2.169.777 2.816.53.634 1.281.951 2.252.951zM75.606 320.545c-1.644 0-2.945-.42-3.903-1.262l.524-1.165c.531.414 1.068.712 1.612.893.544.182 1.152.272 1.825.272.738 0 1.295-.123 1.67-.369.389-.259.583-.628.583-1.107 0-.388-.13-.699-.388-.932-.26-.233-.686-.414-1.282-.543l-1.65-.389c-.816-.181-1.45-.505-1.904-.971a2.346 2.346 0 01-.66-1.67c0-.854.343-1.547 1.03-2.078.686-.543 1.592-.815 2.718-.815.686 0 1.333.11 1.942.33a4.11 4.11 0 011.534.951l-.524 1.146c-.92-.764-1.903-1.146-2.952-1.146-.7 0-1.243.136-1.631.408-.376.259-.563.628-.563 1.107 0 .401.116.719.35.952.245.233.633.414 1.164.543l1.65.408c.907.207 1.58.531 2.02.971.44.427.66.99.66 1.69 0 .841-.342 1.514-1.028 2.019-.687.505-1.619.757-2.797.757zM91.1 320.545c-.946 0-1.774-.207-2.486-.621a4.254 4.254 0 01-1.632-1.748c-.375-.763-.563-1.65-.563-2.66 0-1.01.194-1.897.583-2.66a4.29 4.29 0 011.65-1.806c.725-.428 1.567-.641 2.525-.641.66 0 1.294.116 1.903.349.621.22 1.133.531 1.534.932l-.524 1.166c-.492-.389-.971-.674-1.437-.855a3.738 3.738 0 00-1.399-.272c-.996 0-1.78.337-2.35 1.01-.569.66-.854 1.586-.854 2.777 0 1.178.279 2.097.835 2.757.57.648 1.36.971 2.37.971.479 0 .945-.09 1.398-.271.466-.182.945-.467 1.437-.855l.524 1.165c-.414.389-.939.699-1.573.932-.621.22-1.269.33-1.942.33zM100.655 320.545c-.919 0-1.728-.207-2.427-.621-.699-.414-1.243-1.003-1.631-1.767-.375-.764-.563-1.657-.563-2.68 0-1.023.188-1.916.563-2.68a4.237 4.237 0 011.631-1.767c.7-.414 1.508-.621 2.427-.621.92 0 1.729.207 2.428.621a4.118 4.118 0 011.612 1.767c.388.764.582 1.657.582 2.68 0 1.023-.194 1.916-.582 2.68a4.107 4.107 0 01-1.612 1.767c-.699.414-1.508.621-2.428.621zm0-1.301c.971 0 1.716-.317 2.234-.951.517-.647.776-1.586.776-2.816 0-1.191-.265-2.11-.796-2.757-.531-.661-1.268-.991-2.214-.991-.957 0-1.702.33-2.233.991-.53.647-.796 1.566-.796 2.757 0 1.23.26 2.169.777 2.816.53.634 1.281.951 2.252.951zM107.729 306.117h1.573v14.293h-1.573v-14.293zM116.395 320.545c-.919 0-1.728-.207-2.427-.621a4.223 4.223 0 01-1.631-1.767c-.376-.764-.563-1.657-.563-2.68 0-1.023.187-1.916.563-2.68a4.235 4.235 0 011.631-1.767c.699-.414 1.508-.621 2.427-.621s1.729.207 2.428.621a4.11 4.11 0 011.611 1.767c.389.764.583 1.657.583 2.68 0 1.023-.194 1.916-.583 2.68a4.099 4.099 0 01-1.611 1.767c-.699.414-1.509.621-2.428.621zm0-1.301c.971 0 1.716-.317 2.233-.951.518-.647.777-1.586.777-2.816 0-1.191-.265-2.11-.796-2.757-.531-.661-1.269-.991-2.214-.991-.958 0-1.702.33-2.233.991-.531.647-.796 1.566-.796 2.757 0 1.23.259 2.169.777 2.816.531.634 1.281.951 2.252.951zM128.013 310.409c.324 0 .621.039.893.116l-.039 1.437a3.14 3.14 0 00-1.029-.155c-.945 0-1.65.298-2.117.893-.453.583-.679 1.295-.679 2.136v5.574h-1.573v-7.03c0-1.01-.052-1.923-.155-2.738h1.495l.155 1.806c.246-.66.641-1.165 1.185-1.515.543-.349 1.165-.524 1.864-.524zM138.49 315.477h-7.165c.012 1.243.297 2.182.854 2.816.57.634 1.392.951 2.466.951 1.139 0 2.188-.382 3.146-1.145l.524 1.145c-.427.402-.977.719-1.65.952a6.087 6.087 0 01-2.039.349c-1.528 0-2.725-.446-3.593-1.339-.867-.907-1.301-2.143-1.301-3.709 0-.997.194-1.878.583-2.641.388-.777.932-1.379 1.631-1.806.699-.428 1.495-.641 2.388-.641 1.295 0 2.311.427 3.049 1.281.738.842 1.107 2.007 1.107 3.496v.291zm-4.136-3.845c-.816 0-1.482.246-2 .738-.505.492-.829 1.185-.971 2.078h5.69c-.078-.919-.35-1.618-.816-2.097-.453-.479-1.088-.719-1.903-.719zM144.179 320.545c-1.644 0-2.945-.42-3.903-1.262l.524-1.165c.531.414 1.068.712 1.612.893.543.182 1.152.272 1.825.272.738 0 1.295-.123 1.67-.369.388-.259.583-.628.583-1.107 0-.388-.13-.699-.389-.932-.259-.233-.686-.414-1.281-.543l-1.651-.389c-.816-.181-1.45-.505-1.903-.971a2.347 2.347 0 01-.66-1.67c0-.854.343-1.547 1.029-2.078.686-.543 1.592-.815 2.718-.815.687 0 1.334.11 1.942.33.609.22 1.12.537 1.534.951l-.524 1.146c-.919-.764-1.903-1.146-2.952-1.146-.699 0-1.242.136-1.631.408-.375.259-.563.628-.563 1.107 0 .401.117.719.35.952.246.233.634.414 1.165.543l1.65.408c.907.207 1.58.531 2.02.971.44.427.66.99.66 1.69 0 .841-.343 1.514-1.029 2.019-.686.505-1.618.757-2.796.757z" fill="#444"/><path d="M73.742 414.083c0 1.292-.455 2.385-1.365 3.279-.893.877-2.098 1.428-3.614 1.651v2.657h-2.44v-2.609a11.207 11.207 0 01-2.992-.622 8.005 8.005 0 01-2.394-1.364l1.053-2.25c1.388 1.085 2.888 1.683 4.5 1.795v-4.978c-1.07-.271-1.97-.567-2.705-.886a4.836 4.836 0 01-1.843-1.46c-.494-.654-.742-1.5-.742-2.537 0-.861.216-1.643.647-2.345a5.153 5.153 0 011.795-1.771c.782-.479 1.675-.782 2.68-.91v-2.656h2.441v2.632a9.965 9.965 0 012.61.67c.813.336 1.499.758 2.057 1.269l-1.053 2.25c-1.164-.958-2.425-1.532-3.781-1.723v5.193c1.069.271 1.954.567 2.656.886a4.413 4.413 0 011.772 1.388c.478.622.718 1.436.718 2.441zm-9.454-7.491c0 .558.191 1.013.574 1.364.383.335.926.622 1.628.862v-4.62c-.686.144-1.229.423-1.628.838-.383.415-.574.934-.574 1.556zm4.308 9.908c.67-.143 1.18-.407 1.532-.79.35-.398.526-.909.526-1.531 0-.495-.175-.894-.526-1.197-.351-.303-.862-.558-1.532-.766v4.284zM84.526 410.134c1.101.271 1.963.774 2.585 1.508.622.734.933 1.619.933 2.656 0 .974-.27 1.827-.813 2.561-.527.718-1.277 1.269-2.25 1.652-.957.383-2.066.574-3.327.574-1.26 0-2.377-.191-3.35-.574-.958-.383-1.708-.934-2.25-1.652-.527-.734-.79-1.587-.79-2.561 0-1.037.311-1.922.933-2.656.623-.734 1.484-1.237 2.585-1.508-.957-.319-1.715-.822-2.273-1.508-.543-.686-.814-1.484-.814-2.393 0-.926.255-1.731.766-2.417.51-.703 1.212-1.237 2.106-1.604.91-.383 1.938-.574 3.087-.574 1.15 0 2.17.191 3.064.574.91.367 1.62.901 2.13 1.604.51.686.766 1.491.766 2.417 0 .925-.28 1.739-.838 2.441-.542.686-1.292 1.173-2.25 1.46zm-2.872-6.079c-.941 0-1.683.215-2.226.646-.542.431-.813 1.045-.813 1.843 0 .75.27 1.364.813 1.843.559.463 1.3.766 2.226.909.926-.143 1.66-.446 2.202-.909.559-.479.838-1.093.838-1.843 0-.798-.271-1.412-.814-1.843-.542-.431-1.284-.646-2.226-.646zm0 12.613c1.085 0 1.93-.224 2.537-.67.623-.447.934-1.085.934-1.915 0-.782-.32-1.412-.958-1.891-.622-.478-1.46-.79-2.513-.933-1.053.143-1.898.455-2.537.933-.622.479-.933 1.109-.933 1.891 0 .83.303 1.468.91 1.915.622.446 1.475.67 2.56.67zM96.005 419.109c-2.026 0-3.574-.742-4.643-2.226-1.053-1.5-1.58-3.678-1.58-6.534 0-2.808.527-4.954 1.58-6.438 1.069-1.484 2.617-2.226 4.643-2.226s3.566.742 4.619 2.226c1.069 1.468 1.604 3.614 1.604 6.438 0 2.84-.535 5.01-1.604 6.51-1.053 1.5-2.593 2.25-4.619 2.25zm0-2.417c1.101 0 1.899-.503 2.393-1.508.511-1.021.766-2.633.766-4.835 0-2.17-.255-3.749-.766-4.738-.494-1.006-1.292-1.508-2.393-1.508-1.1 0-1.907.502-2.417 1.508-.495.989-.742 2.568-.742 4.738 0 2.202.247 3.814.742 4.835.51 1.005 1.316 1.508 2.417 1.508zM43.603 400.654a8.946 8.946 0 00-4.148 1.993c-3.431 2.945-4.245 7.704-2.026 11.831a7.902 7.902 0 003.4 3.297c1.496.753 3.052 1.119 4.57 1.119 2.04 0 4.01-.662 5.65-1.943l-1.544-1.98c-2.029 1.581-4.757 1.862-7.281.687a5.759 5.759 0 01-2.734-2.66c-1.6-3.243-.735-6.924 2.241-8.929a6.022 6.022 0 011.794-.821 6.717 6.717 0 018.446 5.186h-3.515a3.31 3.31 0 00-5.401-1.084 3.31 3.31 0 105.401 3.594h6.049a.095.095 0 00.096-.096v-1.159c0-5.661-5.14-10.147-10.998-9.035z" fill="#F04350"/><path d="M41.731 384.061a9.37 9.37 0 01-2.743-.387c-.835-.27-1.559-.656-2.173-1.16l.81-1.712a6.715 6.715 0 001.915 1.05c.65.22 1.356.331 2.117.331.847 0 1.498-.16 1.952-.479.454-.331.681-.804.681-1.417 0-.381-.135-.682-.405-.902-.258-.234-.608-.418-1.05-.553a15.51 15.51 0 00-1.417-.405 35.879 35.879 0 01-1.547-.442 6.305 6.305 0 01-1.436-.644 3.286 3.286 0 01-1.03-1.068c-.258-.442-.387-1.006-.387-1.694 0-.761.209-1.436.626-2.025.43-.589 1.012-1.049 1.749-1.381.736-.343 1.57-.515 2.504-.515.577 0 1.141.061 1.693.184a6.934 6.934 0 011.565.534 4.9 4.9 0 011.27.81l-.81 1.731c-1.14-.921-2.374-1.381-3.7-1.381-.773 0-1.387.166-1.841.497-.454.331-.681.804-.681 1.418 0 .417.129.754.386 1.012.258.246.602.448 1.031.608.442.147.921.282 1.436.405.516.122 1.031.264 1.547.423.515.16.988.368 1.418.626a2.92 2.92 0 011.049 1.031c.258.43.387.976.387 1.639 0 .773-.21 1.448-.626 2.025-.405.577-.982 1.031-1.731 1.362-.736.319-1.59.479-2.559.479zm-.773 1.988v-2.375l.147-1.086v-10.696l-.147-.921v-2.301h1.878v2.301l-.13.921v10.696l.13 1.086v2.375h-1.878zM52.144 382.827v-10.273l1.197.258-3.848 2.32v-2.117l3.645-2.21h1.381v12.022h-2.375zm-2.853 1.087v-1.915h8.1v1.915h-8.1zM63.79 384.061c-1.546 0-2.73-.571-3.553-1.712-.822-1.142-1.233-2.805-1.233-4.99 0-2.184.405-3.847 1.215-4.989.822-1.141 2.013-1.712 3.572-1.712 1.558 0 2.743.571 3.553 1.712.822 1.142 1.233 2.799 1.233 4.971 0 2.197-.41 3.866-1.233 5.008-.822 1.141-2.007 1.712-3.553 1.712zm0-1.841c.848 0 1.467-.387 1.86-1.16.393-.786.59-2.025.59-3.719 0-1.681-.197-2.903-.59-3.664-.393-.761-1.012-1.141-1.86-1.141-.846 0-1.466.386-1.859 1.16-.392.761-.589 1.976-.589 3.645 0 1.694.197 2.933.59 3.719.392.773 1.012 1.16 1.859 1.16zM74.83 384.061c-1.547 0-2.731-.571-3.553-1.712-.823-1.142-1.234-2.805-1.234-4.99 0-2.184.405-3.847 1.215-4.989.823-1.141 2.013-1.712 3.572-1.712 1.558 0 2.743.571 3.553 1.712.822 1.142 1.234 2.799 1.234 4.971 0 2.197-.412 3.866-1.234 5.008-.822 1.141-2.007 1.712-3.553 1.712zm0-1.841c.847 0 1.466-.387 1.86-1.16.392-.786.588-2.025.588-3.719 0-1.681-.196-2.903-.589-3.664-.393-.761-1.012-1.141-1.86-1.141-.846 0-1.466.386-1.859 1.16-.392.761-.589 1.976-.589 3.645 0 1.694.197 2.933.59 3.719.392.773 1.012 1.16 1.859 1.16z" fill="#C4C4C4"/><path d="M0 14.564C0 6.521 6.485 0 14.486 0h226.943c8.001 0 14.486 6.52 14.486 14.564v240.307H0V14.564z" fill="#E2F2FD"/><path d="M38.684 46.12h-3.458v176.627h3.458V46.12zM70.523 46.12h-3.458v176.627h3.458V46.12z" fill="#282F89"/><path d="M67.065 46.12H38.684v176.627h28.38V46.12z" fill="#4551A3"/><path d="M52.802 190.62a8.933 8.933 0 10-.001-17.866 8.933 8.933 0 00.001 17.866z" fill="#C6C6C6"/><path d="M58.998 181.687c0 3.314-2.738 6.051-6.051 6.051-3.314 0-6.051-2.737-6.051-6.051 0-3.313 2.737-6.051 6.05-6.051 3.314 0 6.052 2.738 6.052 6.051z" fill="#070707"/><path d="M63.896 73.924H41.853v85h22.043v-85z" fill="#B8BCD9"/><path d="M63.896 58.797H41.853v15.127h22.043V58.797z" fill="#070707"/><path d="M223.433 62.307H104.09v161.135h119.343V62.307z" fill="#1A1F59"/><path d="M212.69 169.583h-35.906v43.852h35.906v-43.852z" fill="#D8D8D8"/><path d="M212.69 162.225h-35.906v9.712h35.906v-9.712z" fill="#070707"/><path d="M104.09 62.307v161.135l-12.067-16.187V46.12l12.067 16.187z" fill="#38407C"/><path d="M102.029 79.966v72.106l-8.093-10.743V69.223l8.093 10.743z" fill="#151515"/><path d="M102.029 92.18v59.892l-8.093-10.743V81.437l8.093 10.742z" fill="#DCDCDE"/><path d="M107.474 62.307h-3.384v161.135h3.384V62.307z" fill="#263370"/><path d="M92.023 46.12h111.691v16.187H104.09L92.023 46.12z" fill="#0A103A"/><path d="M203.714 46.12H92.023v1.324h111.691V46.12zM223.433 62.307H104.09v1.324h119.343v-1.324z" fill="#57619B"/><path d="M104.09 62.307L92.023 46.12v1.324l12.067 16.187v-1.324z" fill="#57619B"/></svg>