<svg width="257" height="444" fill="none" xmlns="http://www.w3.org/2000/svg"><path d="M0 19.94C0 9.759 8.255 1.504 18.437 1.504h219.405c10.183 0 18.437 8.255 18.437 18.438v405.622c0 10.182-8.254 18.437-18.437 18.437H18.437C8.255 444 0 435.745 0 425.563V19.941z" fill="#fff"/><path d="M27.288 280.292h5.523c1.426 0 2.535.344 3.325 1.031.804.687 1.206 1.633 1.206 2.839s-.402 2.159-1.206 2.859c-.803.687-1.912 1.031-3.325 1.031h-3.928v6.087h-1.595v-13.847zm5.387 6.437c1.024 0 1.795-.22 2.314-.661.519-.441.778-1.076.778-1.906 0-.83-.26-1.458-.778-1.886-.519-.441-1.29-.661-2.314-.661h-3.792v5.114h3.792zM48.072 284.357v9.782h-1.556v-1.77a3.148 3.148 0 01-1.303 1.42c-.57.324-1.238.486-2.003.486-.868 0-1.633-.208-2.295-.623-.648-.414-1.154-.998-1.517-1.75-.35-.765-.525-1.653-.525-2.664 0-1.011.182-1.899.545-2.664.363-.778.869-1.381 1.517-1.809.661-.428 1.42-.642 2.275-.642.765 0 1.433.169 2.003.506.57.337 1.005.81 1.303 1.42v-1.692h1.556zm-4.55 8.615c.959 0 1.698-.324 2.216-.973.519-.661.778-1.594.778-2.8 0-1.206-.26-2.133-.778-2.781-.518-.648-1.257-.972-2.217-.972-.96 0-1.711.337-2.256 1.011-.531.661-.797 1.588-.797 2.781s.266 2.113.797 2.761c.532.649 1.284.973 2.256.973zM55.22 294.275c-.946 0-1.775-.208-2.488-.623a4.255 4.255 0 01-1.634-1.75c-.376-.765-.564-1.653-.564-2.664 0-1.011.195-1.899.584-2.664a4.3 4.3 0 011.652-1.809c.727-.428 1.57-.642 2.529-.642.66 0 1.296.117 1.906.35.622.221 1.134.532 1.536.934l-.525 1.167c-.493-.389-.973-.675-1.44-.856a3.727 3.727 0 00-1.4-.272c-.998 0-1.782.337-2.353 1.011-.57.661-.855 1.588-.855 2.781 0 1.18.278 2.1.836 2.761.57.649 1.361.973 2.373.973.48 0 .946-.091 1.4-.273.466-.181.946-.466 1.439-.855l.525 1.167c-.415.389-.94.7-1.575.933-.623.22-1.271.331-1.945.331zM67.339 294.139l-5.018-4.707v4.707h-1.575v-14.314h1.575v9.024l4.61-4.473h2.002l-4.9 4.687 5.367 5.076H67.34zM84.44 284.357v9.782h-1.555v-1.77a3.148 3.148 0 01-1.303 1.42c-.57.324-1.238.486-2.003.486-.869 0-1.634-.208-2.295-.623-.648-.414-1.154-.998-1.517-1.75-.35-.765-.525-1.653-.525-2.664 0-1.011.181-1.899.544-2.664.363-.778.87-1.381 1.517-1.809.662-.428 1.42-.642 2.276-.642.765 0 1.432.169 2.003.506.57.337 1.004.81 1.303 1.42v-1.692h1.555zm-4.55 8.615c.96 0 1.698-.324 2.217-.973.518-.661.778-1.594.778-2.8 0-1.206-.26-2.133-.778-2.781-.519-.648-1.258-.972-2.217-.972-.96 0-1.712.337-2.256 1.011-.532.661-.797 1.588-.797 2.781s.265 2.113.797 2.761c.531.649 1.283.973 2.256.973zM96.198 284.357v9.704c0 1.452-.376 2.547-1.128 3.286-.739.752-1.834 1.128-3.286 1.128-1.491 0-2.775-.337-3.85-1.011l.272-1.283c.622.35 1.205.602 1.75.758a6.767 6.767 0 001.828.233c.946 0 1.66-.252 2.139-.758.48-.493.72-1.232.72-2.217v-2.314a3.352 3.352 0 01-1.323 1.458c-.57.337-1.25.506-2.042.506-.856 0-1.62-.201-2.295-.603-.66-.402-1.173-.972-1.536-1.711-.363-.739-.544-1.589-.544-2.548 0-.959.181-1.809.544-2.548.363-.739.875-1.309 1.536-1.711.675-.402 1.44-.603 2.295-.603.778 0 1.452.169 2.023.506.583.337 1.024.81 1.322 1.42v-1.692h1.575zm-4.609 8.167c.947 0 1.686-.311 2.217-.933.545-.635.817-1.504.817-2.606 0-1.102-.272-1.964-.817-2.586-.531-.636-1.27-.953-2.217-.953-.959 0-1.718.317-2.275.953-.544.622-.817 1.484-.817 2.586 0 1.102.272 1.971.817 2.606.558.622 1.316.933 2.275.933zM107.41 284.357v9.782h-1.536v-1.692a3.233 3.233 0 01-1.303 1.361c-.558.311-1.187.467-1.887.467-1.154 0-2.029-.324-2.625-.973-.596-.648-.895-1.607-.895-2.878v-6.067h1.576v6.028c0 .882.181 1.53.544 1.945.363.415.914.622 1.653.622.869 0 1.569-.278 2.1-.836.532-.57.798-1.316.798-2.236v-5.523h1.575zM119.062 284.357v9.782h-1.556v-1.77a3.15 3.15 0 01-1.303 1.42c-.57.324-1.238.486-2.003.486-.869 0-1.634-.208-2.295-.623-.648-.414-1.154-.998-1.517-1.75-.35-.765-.525-1.653-.525-2.664 0-1.011.182-1.899.545-2.664.363-.778.868-1.381 1.517-1.809.661-.428 1.419-.642 2.275-.642.765 0 1.433.169 2.003.506.57.337 1.005.81 1.303 1.42v-1.692h1.556zm-4.551 8.615c.959 0 1.698-.324 2.217-.973.519-.661.778-1.594.778-2.8 0-1.206-.259-2.133-.778-2.781-.519-.648-1.258-.972-2.217-.972-.959 0-1.711.337-2.256 1.011-.531.661-.797 1.588-.797 2.781s.266 2.113.797 2.761c.532.649 1.284.973 2.256.973zM136.279 289.16h-4.181v4.181h-1.206v-4.181h-4.181v-1.225h4.181v-4.181h1.206v4.181h4.181v1.225zM152.622 284.357v9.704c0 1.452-.376 2.547-1.128 3.286-.739.752-1.835 1.128-3.287 1.128-1.491 0-2.774-.337-3.85-1.011l.272-1.283c.622.35 1.206.602 1.75.758a6.771 6.771 0 001.828.233c.947 0 1.66-.252 2.139-.758.48-.493.72-1.232.72-2.217v-2.314a3.352 3.352 0 01-1.322 1.458c-.571.337-1.252.506-2.042.506-.856 0-1.621-.201-2.295-.603-.661-.402-1.173-.972-1.536-1.711-.364-.739-.545-1.589-.545-2.548 0-.959.181-1.809.545-2.548.363-.739.875-1.309 1.536-1.711.674-.402 1.439-.603 2.295-.603.777 0 1.452.169 2.022.506.584.337 1.024.81 1.323 1.42v-1.692h1.575zm-4.609 8.167c.946 0 1.685-.311 2.217-.933.544-.635.817-1.504.817-2.606 0-1.102-.273-1.964-.817-2.586-.532-.636-1.271-.953-2.217-.953-.96 0-1.718.317-2.276.953-.544.622-.816 1.484-.816 2.586 0 1.102.272 1.971.816 2.606.558.622 1.316.933 2.276.933zM164.261 284.357v9.782h-1.556v-1.77a3.144 3.144 0 01-1.303 1.42c-.57.324-1.238.486-2.003.486-.868 0-1.633-.208-2.294-.623-.649-.414-1.154-.998-1.517-1.75-.35-.765-.525-1.653-.525-2.664 0-1.011.181-1.899.544-2.664.363-.778.869-1.381 1.517-1.809.661-.428 1.42-.642 2.275-.642.765 0 1.433.169 2.003.506.571.337 1.005.81 1.303 1.42v-1.692h1.556zm-4.55 8.615c.959 0 1.698-.324 2.217-.973.518-.661.777-1.594.777-2.8 0-1.206-.259-2.133-.777-2.781-.519-.648-1.258-.972-2.217-.972-.96 0-1.712.337-2.256 1.011-.532.661-.798 1.588-.798 2.781s.266 2.113.798 2.761c.531.649 1.283.973 2.256.973zM170.613 294.275c-1.647 0-2.95-.422-3.909-1.264l.525-1.167c.532.415 1.07.713 1.614.894a5.748 5.748 0 001.828.273c.739 0 1.297-.124 1.673-.37.389-.259.583-.629.583-1.108 0-.389-.13-.7-.389-.934-.259-.233-.687-.415-1.283-.544l-1.653-.389c-.817-.182-1.453-.506-1.906-.973a2.348 2.348 0 01-.661-1.672c0-.856.343-1.549 1.03-2.081.687-.544 1.595-.817 2.723-.817.687 0 1.335.11 1.945.331.609.22 1.121.538 1.536.953l-.525 1.147c-.921-.765-1.906-1.147-2.956-1.147-.7 0-1.245.136-1.634.408-.376.259-.564.629-.564 1.109 0 .402.117.719.35.953.247.233.636.414 1.167.544l1.653.408c.908.208 1.582.532 2.023.973.44.428.661.992.661 1.692 0 .842-.344 1.517-1.031 2.022-.687.506-1.62.759-2.8.759zM185.142 289.199h-7.176c.013 1.245.298 2.185.855 2.82.571.635 1.394.953 2.47.953 1.141 0 2.191-.383 3.151-1.148l.525 1.148c-.428.402-.979.719-1.653.953a6.105 6.105 0 01-2.042.35c-1.53 0-2.729-.448-3.598-1.342-.869-.908-1.303-2.146-1.303-3.715 0-.998.194-1.879.583-2.644.389-.778.934-1.381 1.634-1.809.7-.428 1.497-.642 2.392-.642 1.296 0 2.314.428 3.053 1.284.739.842 1.109 2.009 1.109 3.5v.292zm-4.143-3.851c-.816 0-1.484.247-2.003.739-.505.493-.829 1.187-.972 2.081h5.698c-.078-.92-.35-1.62-.817-2.1-.454-.48-1.089-.72-1.906-.72zM191.578 294.275c-.921 0-1.731-.208-2.431-.623-.7-.414-1.245-1.004-1.634-1.769-.376-.765-.564-1.66-.564-2.684 0-1.024.188-1.919.564-2.684.389-.765.934-1.355 1.634-1.769.7-.415 1.51-.623 2.431-.623.92 0 1.73.208 2.431.623a4.105 4.105 0 011.614 1.769c.389.765.583 1.66.583 2.684 0 1.024-.194 1.919-.583 2.684a4.105 4.105 0 01-1.614 1.769c-.701.415-1.511.623-2.431.623zm0-1.303c.972 0 1.717-.318 2.236-.953.519-.648.778-1.588.778-2.82 0-1.193-.266-2.113-.797-2.762-.532-.661-1.271-.991-2.217-.991-.96 0-1.705.33-2.237.991-.531.649-.797 1.569-.797 2.762 0 1.232.259 2.172.778 2.82.531.635 1.283.953 2.256.953zM201.968 294.275c-1.647 0-2.95-.422-3.909-1.264l.525-1.167c.531.415 1.069.713 1.614.894a5.744 5.744 0 001.828.273c.739 0 1.296-.124 1.672-.37.389-.259.584-.629.584-1.108 0-.389-.13-.7-.389-.934-.259-.233-.687-.415-1.284-.544l-1.653-.389c-.816-.182-1.452-.506-1.906-.973a2.352 2.352 0 01-.661-1.672c0-.856.344-1.549 1.031-2.081.687-.544 1.595-.817 2.723-.817.687 0 1.335.11 1.944.331.61.22 1.122.538 1.537.953l-.525 1.147c-.921-.765-1.906-1.147-2.956-1.147-.701 0-1.245.136-1.634.408-.376.259-.564.629-.564 1.109 0 .402.117.719.35.953.246.233.635.414 1.167.544l1.653.408c.907.208 1.582.532 2.022.973.441.428.662.992.662 1.692 0 .842-.344 1.517-1.031 2.022-.687.506-1.621.759-2.8.759zM216.924 284.357v9.782h-1.556v-1.77a3.147 3.147 0 01-1.302 1.42c-.571.324-1.239.486-2.004.486-.868 0-1.633-.208-2.294-.623-.649-.414-1.154-.998-1.517-1.75-.35-.765-.525-1.653-.525-2.664 0-1.011.181-1.899.544-2.664.363-.778.869-1.381 1.517-1.809.661-.428 1.42-.642 2.275-.642.765 0 1.433.169 2.004.506.57.337 1.004.81 1.302 1.42v-1.692h1.556zm-4.55 8.615c.959 0 1.698-.324 2.217-.973.518-.661.777-1.594.777-2.8 0-1.206-.259-2.133-.777-2.781-.519-.648-1.258-.972-2.217-.972-.96 0-1.712.337-2.256 1.011-.532.661-.798 1.588-.798 2.781s.266 2.113.798 2.761c.531.649 1.283.973 2.256.973zM36.097 317.106v1.342h-8.906v-1.206l4.842-5.368c.648-.726 1.121-1.38 1.42-1.964.298-.583.447-1.167.447-1.75 0-.765-.22-1.348-.661-1.75-.441-.415-1.07-.623-1.887-.623-1.322 0-2.631.532-3.928 1.595l-.603-1.225c.545-.519 1.232-.934 2.062-1.245a7.1 7.1 0 012.508-.466c1.27 0 2.276.33 3.015.991.739.649 1.108 1.53 1.108 2.645 0 .791-.181 1.556-.545 2.295-.35.726-.94 1.543-1.77 2.45l-3.947 4.279h6.845zM38.949 304.601h1.594v12.485h6.943v1.362h-8.537v-13.847z" fill="#444"/><path d="M60.565 408.508c0 1.295-.455 2.389-1.366 3.284-.895.879-2.101 1.43-3.62 1.654v2.66h-2.444v-2.612c-1.07-.08-2.07-.288-2.996-.623a8.005 8.005 0 01-2.397-1.367l1.055-2.253c1.39 1.087 2.892 1.686 4.506 1.798v-4.986c-1.07-.271-1.974-.567-2.709-.886a4.856 4.856 0 01-1.845-1.462c-.496-.656-.743-1.502-.743-2.541 0-.863.215-1.646.647-2.349.431-.719 1.03-1.31 1.797-1.774.783-.479 1.678-.783 2.685-.911v-2.66h2.445v2.637a9.912 9.912 0 012.612.671c.815.335 1.502.759 2.062 1.27l-1.055 2.253c-1.166-.959-2.429-1.534-3.787-1.726v5.201c1.07.272 1.957.568 2.66.887a4.423 4.423 0 011.774 1.39c.48.624.72 1.439.72 2.445zm-9.468-7.502c0 .559.192 1.015.576 1.366.383.336.927.624 1.63.863v-4.626c-.687.144-1.23.424-1.63.839-.384.416-.576.935-.576 1.558zm4.315 9.923c.671-.144 1.182-.407 1.534-.791.351-.399.527-.911.527-1.534 0-.495-.176-.895-.527-1.198-.352-.304-.863-.56-1.534-.767v4.29zM74.457 410.809v2.517H63.001v-2.277l5.8-6.256c.687-.751 1.19-1.438 1.51-2.061.32-.623.48-1.239.48-1.846 0-.783-.232-1.374-.696-1.773-.447-.4-1.094-.6-1.941-.6-1.502 0-3.044.592-4.626 1.774l-1.03-2.253c.67-.607 1.533-1.087 2.588-1.438a9.616 9.616 0 013.188-.551c1.71 0 3.06.423 4.05 1.27 1.007.831 1.51 1.957 1.51 3.38 0 .974-.215 1.893-.647 2.756-.415.863-1.118 1.83-2.109 2.9l-4.195 4.458h7.575zM82.885 413.542c-2.03 0-3.58-.743-4.65-2.229-1.055-1.502-1.582-3.684-1.582-6.544 0-2.812.527-4.961 1.582-6.447 1.07-1.486 2.62-2.229 4.65-2.229 2.029 0 3.57.743 4.625 2.229 1.071 1.47 1.606 3.619 1.606 6.447 0 2.844-.535 5.018-1.606 6.52-1.054 1.502-2.596 2.253-4.625 2.253zm0-2.421c1.102 0 1.901-.503 2.396-1.51.512-1.023.767-2.637.767-4.842 0-2.173-.255-3.755-.767-4.746-.495-1.006-1.294-1.51-2.396-1.51-1.103 0-1.91.504-2.421 1.51-.496.991-.743 2.573-.743 4.746 0 2.205.247 3.819.743 4.842.511 1.007 1.318 1.51 2.42 1.51zM97.256 413.542c-2.029 0-3.579-.743-4.65-2.229-1.054-1.502-1.581-3.684-1.581-6.544 0-2.812.527-4.961 1.581-6.447 1.071-1.486 2.621-2.229 4.65-2.229 2.03 0 3.572.743 4.626 2.229 1.071 1.47 1.606 3.619 1.606 6.447 0 2.844-.535 5.018-1.606 6.52-1.054 1.502-2.596 2.253-4.626 2.253zm0-2.421c1.103 0 1.902-.503 2.397-1.51.512-1.023.767-2.637.767-4.842 0-2.173-.255-3.755-.767-4.746-.495-1.006-1.294-1.51-2.397-1.51-1.102 0-1.91.504-2.42 1.51-.496.991-.743 2.573-.743 4.746 0 2.205.247 3.819.742 4.842.512 1.007 1.319 1.51 2.421 1.51zM30.383 395.06a8.96 8.96 0 00-4.155 1.995c-3.436 2.95-4.25 7.716-2.03 11.85a7.918 7.918 0 003.406 3.301c1.498.754 3.057 1.121 4.577 1.121a9.134 9.134 0 005.658-1.946l-1.546-1.983c-2.032 1.583-4.764 1.864-7.292.688a5.771 5.771 0 01-2.738-2.664c-1.601-3.248-.736-6.934 2.245-8.942a6.038 6.038 0 011.796-.822 6.727 6.727 0 018.458 5.193h-3.52a3.315 3.315 0 00-5.41-1.085 3.314 3.314 0 105.41 3.6H41.3a.096.096 0 00.096-.097v-1.161c0-5.669-5.146-10.162-11.014-9.048z" fill="#F04350"/><path d="M28.508 378.442a9.398 9.398 0 01-2.748-.387 6.582 6.582 0 01-2.175-1.162l.811-1.714a6.756 6.756 0 001.918 1.051 6.56 6.56 0 002.12.332c.848 0 1.5-.16 1.954-.48.455-.332.682-.805.682-1.419 0-.381-.135-.683-.405-.904-.258-.233-.609-.418-1.051-.553-.43-.148-.904-.283-1.42-.406a35.974 35.974 0 01-1.549-.442 6.368 6.368 0 01-1.438-.645 3.305 3.305 0 01-1.032-1.07c-.258-.442-.387-1.008-.387-1.696 0-.762.209-1.438.627-2.028.43-.59 1.014-1.051 1.751-1.383.738-.344 1.573-.516 2.508-.516a7.79 7.79 0 011.696.184 6.904 6.904 0 011.567.535 4.91 4.91 0 011.272.811l-.811 1.733c-1.143-.922-2.379-1.383-3.706-1.383-.774 0-1.389.166-1.844.498-.454.332-.682.805-.682 1.42 0 .418.13.756.387 1.014.258.246.602.449 1.033.608.442.148.922.283 1.438.406.516.123 1.032.264 1.549.424.516.16.99.369 1.42.627.442.258.792.602 1.05 1.032.258.431.387.978.387 1.641 0 .775-.209 1.451-.627 2.028-.405.578-.983 1.033-1.733 1.365-.737.319-1.591.479-2.562.479zm-.775 1.991v-2.378l.148-1.088v-10.712l-.148-.922v-2.304h1.88v2.304l-.128.922v10.712l.129 1.088v2.378h-1.88zM35.34 378.295v-1.752l4.444-4.812c.516-.578.897-1.106 1.143-1.586.246-.479.369-.952.369-1.419 0-.603-.172-1.057-.516-1.365-.345-.307-.842-.461-1.494-.461-.59 0-1.186.117-1.788.351-.59.221-1.18.559-1.77 1.014l-.811-1.733c.528-.467 1.198-.836 2.01-1.107a7.776 7.776 0 012.47-.405c.86 0 1.61.141 2.25.424.638.283 1.13.694 1.474 1.235.344.529.517 1.162.517 1.899 0 .762-.16 1.475-.48 2.139-.32.651-.86 1.389-1.622 2.212l-4.001 4.241-.277-.793h6.877v1.918h-8.794zM50.6 378.424a7.64 7.64 0 01-2.434-.406c-.8-.27-1.457-.639-1.973-1.106l.793-1.733a7.56 7.56 0 001.788 1.014c.615.233 1.236.35 1.862.35.812 0 1.439-.203 1.881-.608.443-.418.664-1.008.664-1.77 0-.492-.105-.916-.314-1.272a2.044 2.044 0 00-.848-.83c-.368-.197-.805-.295-1.309-.295a3.58 3.58 0 00-1.438.295 3.7 3.7 0 00-1.235.83h-1.42v-7.726h8.223v1.862h-5.9v4.333l-.719-.11a3.675 3.675 0 011.328-1.014c.516-.234 1.1-.351 1.751-.351.824 0 1.543.178 2.157.535a3.732 3.732 0 011.457 1.475c.356.627.535 1.358.535 2.194 0 .86-.203 1.622-.609 2.286-.393.652-.952 1.156-1.678 1.512-.712.357-1.567.535-2.562.535zM61.655 378.442c-1.549 0-2.735-.571-3.559-1.714-.823-1.144-1.235-2.809-1.235-4.997 0-2.188.406-3.853 1.217-4.997.823-1.143 2.016-1.714 3.577-1.714 1.56 0 2.747.571 3.558 1.714.824 1.144 1.236 2.803 1.236 4.979 0 2.2-.412 3.871-1.236 5.015-.823 1.143-2.01 1.714-3.558 1.714zm0-1.844c.848 0 1.469-.387 1.862-1.161.393-.787.59-2.028.59-3.724 0-1.684-.197-2.907-.59-3.669-.393-.763-1.014-1.144-1.862-1.144-.848 0-1.469.388-1.862 1.162-.394.762-.59 1.979-.59 3.651 0 1.696.196 2.937.59 3.724.393.774 1.014 1.161 1.862 1.161z" fill="#C4C4C4"/><path d="M0 14.585C0 6.53 6.495 0 14.507 0h227.275c8.012 0 14.507 6.53 14.507 14.585v240.659H0V14.585z" fill="#F1EDE3"/><path d="M111.245 176.941c3 0 5.438 2.438 5.438 5.439v38.255l-18.753.75 9.939-8.251V182.38a5.442 5.442 0 00-5.438-5.439c3 0 5.438-2.438 5.438-5.438v-2.625h8.814v2.625c0 3-2.438 5.438-5.438 5.438z" fill="#661204"/><path d="M107.682 171.503v-2.625H56.487v2.625c0 3 2.438 5.438 5.438 5.438-3 0-5.438 2.438-5.438 5.439v38.255l19.315.75-.938-.75h24.941c4.314 0 7.877-3.563 7.877-7.876V182.38a5.443 5.443 0 00-5.439-5.439 5.442 5.442 0 005.439-5.438z" fill="#801600"/><path d="M116.683 171.503c0 3-2.438 5.438-5.438 5.438 3 0 5.438 2.438 5.438 5.439V210.696c0 5.438-4.501 9.939-10.126 9.939H66.613c-5.438 0-10.126-4.501-10.126-9.939V182.38a5.442 5.442 0 015.438-5.439c-3 0-5.438-2.438-5.438-5.438v-2.625h-5.25v2.625c0 1.875.562 3.751 1.5 5.438-1.126 1.501-1.688 3.376-1.688 5.439V210.696c.187 8.439 6.938 15.377 15.377 15.377h39.943c8.439 0 15.377-6.938 15.377-15.189v-28.317c0-1.875-.562-3.75-1.5-5.438.938-1.5 1.5-3.376 1.5-5.438v-2.626h-5.25v2.438h.187zM121.934 91.805c0-9.94-4.876-19.128-13.127-24.754l-5.251-3.563c-3.563-2.438-5.626-6.376-5.626-10.501V39.673H76.553v12.939c0 4.313-2.25 8.25-5.814 10.501l-5.813 3.563C56.3 72.114 51.049 81.678 51.049 91.805v16.127c0 1.875.562 3.75 1.5 5.438-.938 1.5-1.5 3.376-1.5 5.251v3.188h5.25v-3.188c0-3 2.438-5.438 5.439-5.438-3 0-5.438-2.438-5.438-5.439v-15.94c0-8.438 4.313-16.127 11.439-20.627l5.438-3.376c5.063-3.188 8.251-9.001 8.439-15.002v-7.688h10.876v8.063c0 6.001 3 11.627 7.876 15.002l5.251 3.563c6.938 4.313 11.064 11.814 11.064 20.066v16.127c0 3-2.438 5.438-5.438 5.438 3 0 5.438 2.438 5.438 5.438v3.188h5.251v-3.188c0-1.875-.563-3.75-1.5-5.438.937-1.5 1.5-3.375 1.5-5.438V91.805z" fill="#CEE8FB"/><path d="M56.3 121.809h-5.251v46.881h5.25v-46.881z" fill="#FF4D54"/><path d="M121.934 121.809h-5.251v46.881h5.251v-46.881z" fill="#D40000"/><path d="M105.807 71.364l-5.251-3.563C95.493 64.426 92.68 58.8 92.68 52.8v-7.876H81.803v7.688a17.465 17.465 0 01-8.438 15.003l-5.439 3.375-2.25 1.688h42.193c-.75-.375-1.5-.75-2.062-1.313z" fill="#E1F1FD"/><path d="M107.682 107.932v-15.94c0-7.5-3.376-14.44-9.002-18.94H65.488c-5.626 4.688-9.001 11.627-9.001 18.94v15.94c0 3 2.438 5.438 5.438 5.438-3 0-5.438 2.438-5.438 5.438v3.188h51.382v-3.188c0-3-2.438-5.438-5.438-5.438 2.813-.187 5.251-2.625 5.251-5.438z" fill="#801600"/><path d="M63.238 94.43c-1.5 0-2.625-1.125-2.625-2.625 0-5.251 2.063-10.127 5.626-13.877.937-.938 2.625-1.125 3.563 0 .937.937 1.125 2.625 0 3.563-2.626 2.813-4.126 6.563-4.126 10.314.188 1.5-.938 2.625-2.438 2.625zM63.238 110.182c-1.5 0-2.625-1.125-2.625-2.625v-7.126c0-1.5 1.125-2.625 2.625-2.625s2.626 1.125 2.626 2.625v7.126c0 1.5-1.126 2.625-2.626 2.625zM63.238 211.072c-1.5 0-2.625-1.125-2.625-2.626v-22.878c0-1.5 1.125-2.625 2.625-2.625s2.626 1.125 2.626 2.625v23.066c0 1.313-1.126 2.438-2.626 2.438z" fill="#A43422"/><path d="M107.494 72.865h-9.001c5.626 4.688 9.001 11.626 9.001 18.94v16.127c0 3-2.438 5.438-5.438 5.438 3 0 5.438 2.438 5.438 5.438v3.188h9.001v-3.188c0-.75-.187-1.5-.375-2.062-.375-.938-1.125-1.876-1.875-2.438-.937-.563-1.875-.938-3-.938 1.125 0 2.063-.375 3-.937.938-.563 1.5-1.313 1.875-2.438.188-.563.375-1.313.375-2.063v-15.94c.188-7.5-3.188-14.627-9.001-19.127z" fill="#661204"/><path d="M98.868 29.17h-5.626c1.125 0 2.25 1.126 2.25 2.626v10.689c0 1.5-.938 2.625-2.25 2.625h5.626c1.125 0 2.25-1.125 2.25-2.625V31.796c0-1.5-.938-2.625-2.25-2.625z" fill="#D40000"/><path d="M95.492 42.485V31.796c0-1.5-.937-2.625-2.25-2.625H75.427c-1.125 0-2.25 1.125-2.25 2.625v10.689c0 1.5.937 2.625 2.25 2.625h17.815c1.125-.187 2.25-1.312 2.25-2.625z" fill="#EE1E1D"/><path d="M97.93 44.923H76.364v4.875H97.93v-4.875z" fill="#D40000"/><path d="M116.683 121.808h-12.564c-4.876-3.75-11.064-6-17.815-6-6.751 0-12.752 2.25-17.815 6H56.487v46.882h12.002c4.875 3.751 11.064 6.001 17.815 6.001 6.75 0 12.751-2.25 17.815-6.001h12.564v-46.882z" fill="#EE1E1D"/><path d="M83.49 107.557a3.564 3.564 0 100-7.127 3.564 3.564 0 000 7.127zM93.43 89.554c0 1.313-.938 2.25-2.25 2.25-1.314 0-2.251-.937-2.251-2.25 0-1.312.938-2.25 2.25-2.25 1.313 0 2.25.938 2.25 2.25zM87.992 204.883a3.563 3.563 0 100-7.126 3.563 3.563 0 000 7.126zM95.68 189.131a2.25 2.25 0 100-4.502 2.25 2.25 0 000 4.502zM77.678 186.88a2.25 2.25 0 100-4.5 2.25 2.25 0 000 4.5z" fill="#A43422"/><path d="M99.675 162.281c9.297-7.278 10.933-20.715 3.654-30.012s-20.716-10.932-30.013-3.654c-9.296 7.279-10.932 20.716-3.653 30.013s20.716 10.932 30.012 3.653z" fill="#D40000"/><path d="M197.882 176.941a5.442 5.442 0 015.438 5.439v38.255l-18.752.75 9.939-8.251V182.38a5.443 5.443 0 00-5.439-5.439 5.442 5.442 0 005.439-5.438v-2.625h9.001v2.625c-.188 3-2.625 5.438-5.626 5.438z" fill="#80C9F8"/><path d="M194.507 171.503v-2.625h-51.195v2.625c0 3 2.438 5.438 5.438 5.438-3 0-5.438 2.438-5.438 5.439v38.255l19.315.75-.937-.75h24.941c4.313 0 7.876-3.563 7.876-7.876V182.38a5.443 5.443 0 00-5.439-5.439 5.442 5.442 0 005.439-5.438z" fill="#A9DAFA"/><path d="M203.321 171.503c0 3-2.438 5.438-5.439 5.438a5.443 5.443 0 015.439 5.439V210.696c0 5.438-4.501 9.939-10.127 9.939h-39.943c-5.438 0-10.126-4.501-10.126-9.939V182.38a5.442 5.442 0 015.438-5.439 5.442 5.442 0 01-5.438-5.438v-2.625h-5.251v2.625c0 1.875.562 3.751 1.5 5.438-.938 1.501-1.5 3.376-1.5 5.439V210.696c.187 8.439 6.938 15.377 15.377 15.377h39.943c8.439 0 15.377-6.938 15.377-15.189v-28.317c0-1.875-.562-3.75-1.5-5.438.938-1.5 1.5-3.376 1.5-5.438v-2.626h-5.25v2.438zM208.759 91.805c0-9.94-4.876-19.128-13.127-24.754l-5.251-3.563c-3.563-2.438-5.626-6.376-5.626-10.501V39.673H163.377v12.939c0 4.313-2.25 8.25-5.813 10.501l-5.813 3.563c-8.626 5.438-13.877 15.002-13.877 25.129v16.127c0 1.875.562 3.75 1.5 5.438-.938 1.5-1.5 3.376-1.5 5.438v3.188h5.251v-3.188c0-3 2.437-5.438 5.438-5.438a5.442 5.442 0 01-5.438-5.438v-15.94c0-8.439 4.313-16.127 11.439-20.628l5.438-3.375c5.063-3.188 8.251-9.001 8.439-15.002v-7.689h10.876v8.064c0 6 3.001 11.626 7.876 15.002l5.251 3.563c6.751 4.5 10.877 12.19 10.877 20.253v15.752c0 3-2.438 5.438-5.439 5.438a5.442 5.442 0 015.439 5.438v3.188h5.25v-3.188c0-1.875-.562-3.75-1.5-5.438.938-1.5 1.5-3.375 1.5-5.438V91.805h.188z" fill="#CEE8FB"/><path d="M143.125 121.809h-5.251v46.881h5.251v-46.881z" fill="#61B6F2"/><path d="M208.571 121.809h-5.25v46.881h5.25v-46.881z" fill="#1379DA"/><path d="M192.631 71.364l-5.25-3.563c-5.064-3.375-7.876-9.001-7.876-15.002v-7.876h-10.877v7.688a17.464 17.464 0 01-8.439 15.003l-5.438 3.375-2.25 1.688h42.193c-.937-.375-1.5-.75-2.063-1.313z" fill="#E1F1FD"/><path d="M194.506 107.932v-15.94c0-7.5-3.375-14.44-9.001-18.94h-33.192c-5.626 4.688-9.001 11.627-9.001 18.94v15.94c0 3 2.438 5.438 5.438 5.438-3 0-5.438 2.438-5.438 5.438v3.188h51.382v-3.188c0-3-2.438-5.438-5.438-5.438 2.813-.187 5.25-2.625 5.25-5.438z" fill="#A9DAFA"/><path d="M150.062 94.43c-1.5 0-2.625-1.125-2.625-2.626 0-5.25 2.063-10.126 5.626-13.877.937-.937 2.625-1.125 3.563 0 .937.938 1.125 2.626 0 3.563-2.626 2.813-4.126 6.564-4.126 10.314.188 1.5-1.125 2.626-2.438 2.626zM150.062 110.182c-1.5 0-2.625-1.125-2.625-2.625v-7.126c0-1.5 1.125-2.626 2.625-2.626 1.501 0 2.626 1.126 2.626 2.626v7.126c0 1.5-1.313 2.625-2.626 2.625zM150.062 211.072c-1.5 0-2.625-1.126-2.625-2.626v-22.878c0-1.5 1.125-2.625 2.625-2.625 1.501 0 2.626 1.125 2.626 2.625v23.066c0 1.312-1.313 2.438-2.626 2.438z" fill="#E2F2FD"/><path d="M194.319 72.865h-9.001c5.626 4.688 9.001 11.626 9.001 18.94v16.127c0 3-2.438 5.438-5.438 5.438 3 0 5.438 2.438 5.438 5.438v3.188h9.001v-3.188c0-.75-.187-1.5-.375-2.062-.375-.938-1.125-1.876-1.875-2.438-.938-.563-1.875-.938-3-.938 1.125 0 2.062-.375 3-.937.938-.563 1.5-1.313 1.875-2.438.188-.563.375-1.313.375-2.063v-15.94c0-7.5-3.375-14.627-9.001-19.127z" fill="#80C9F8"/><path d="M185.693 29.17h-5.626c1.125 0 2.25 1.126 2.25 2.626v10.689c0 1.5-.937 2.625-2.25 2.625h5.626c1.125 0 2.25-1.125 2.25-2.625V31.796c-.188-1.5-1.125-2.625-2.25-2.625z" fill="#1379DA"/><path d="M182.13 42.485V31.796c0-1.5-.938-2.625-2.25-2.625h-17.815c-1.126 0-2.251 1.125-2.251 2.625v10.689c0 1.5.938 2.625 2.251 2.625h17.815c1.312-.187 2.25-1.312 2.25-2.625z" fill="#299AEA"/><path d="M184.567 44.923h-21.565v4.875h21.565v-4.875z" fill="#1379DA"/><path d="M203.32 121.808h-12.564c-4.876-3.75-11.064-6-17.815-6-6.751 0-12.752 2.25-17.815 6h-12.002v46.882h12.002c4.876 3.751 11.064 6.001 17.815 6.001 6.751 0 12.752-2.25 17.815-6.001h12.564v-46.882z" fill="#299AEA"/><path d="M170.316 107.557a3.563 3.563 0 100-7.127 3.563 3.563 0 000 7.127zM180.255 89.554c0 1.313-.938 2.25-2.251 2.25-1.312 0-2.25-.937-2.25-2.25 0-1.312.938-2.25 2.25-2.25 1.125 0 2.251.938 2.251 2.25zM174.817 204.883a3.563 3.563 0 100-7.127 3.563 3.563 0 000 7.127zM182.318 189.131a2.25 2.25 0 100-4.5 2.25 2.25 0 000 4.5zM164.315 186.88a2.25 2.25 0 100-4.5 2.25 2.25 0 000 4.5z" fill="#E2F2FD"/><path d="M194.084 150.287c2.699-11.494-4.43-22.999-15.924-25.698-11.494-2.7-23 4.43-25.699 15.924-2.699 11.494 4.431 22.999 15.925 25.698 11.494 2.699 22.999-4.43 25.698-15.924z" fill="#80C9F8"/><path d="M173.316 159.502c-5.438 0-9.938-4.501-9.938-9.939 0-3.563 3.188-8.814 6-12.752l3.938-5.626 3.939 5.626c2.625 3.751 6 9.189 6 12.752 0 5.438-4.5 9.939-9.939 9.939z" fill="#E5F3FD"/></svg>