<svg width="183" height="33" xmlns="http://www.w3.org/2000/svg"><g fill="none" fill-rule="evenodd"><g fill-rule="nonzero"><path d="M14.21 18.36a33.88 33.88 0 00.7 6.8 14.31 14.31 0 01-7.53 3.7 3 3 0 01-2.64-.91C-.44 22.308-.44 13.642 4.74 8a3 3 0 012.65-.91 14.23 14.23 0 017.67 3.83 33.14 33.14 0 00-.85 7.44z" fill="#00ABC9"/><path d="M28.25 23.42a23.21 23.21 0 01-.68 5.57 4.39 4.39 0 01-3.7 3.29 43.22 43.22 0 01-13.28-.38A30.1 30.1 0 0025.12 21a1.7 1.7 0 013.08.9c.03.47.05 1 .05 1.52z" fill="#0A1837"/><path d="M28.25 12.59c0 .53 0 1.05-.05 1.57a1.7 1.7 0 01-3.08.91 30.05 30.05 0 00-14.53-11 43.22 43.22 0 0113.28-.38 4.39 4.39 0 013.7 3.29c.454 1.835.683 3.72.68 5.61z" fill="#CD007B"/></g><g fill="#0A1837"><path d="M108.7 16.94a4.42 4.42 0 014.51-3.64 4.3 4.3 0 014.42 3.64h-8.93zm14.55 2.3c0-6-3.86-10.58-10-10.58a10.2 10.2 0 00-10.28 10.61c0 6.09 4.28 10.58 10.43 10.58 3.89 0 7.79-1.69 9.24-6.21l-5-1.17a4.52 4.52 0 01-4.35 2.41c-2.63 0-4.58-1.61-4.62-4.25h14.58v-1.39zM130.5.62v15.32h1.68l4.36-6.78h10.23V3.54h5.19v5.62h5.35v4.94H152v9c0 .88.35 1.26 1.26 1.26h3.86v5.52h-4.39c-4.06 0-6.31-2.34-6.31-6.74v-9h-6.61l-2.78 4v.43l6.47 11.28h-6.65l-4.51-8.77h-1.84v8.77h-5.58V.62h5.58zM168.8 24.49a4.87 4.87 0 01-4.85-5.22c0-3.18 2.14-5.21 4.81-5.21 2.67 0 4.85 1.88 4.85 5.21 0 2.84-1.91 5.22-4.81 5.22zm11.22.18a.78.78 0 01-.62-.22.82.82 0 01-.26-.62V9.39h-5.58V11h-.41a7.1 7.1 0 00-5.58-2.38c-5.16 0-9.25 4.49-9.25 10.58s4.1 10.61 9.26 10.61a6.15 6.15 0 005.57-2.65h.42c0 1.17.92 2.65 2.22 2.65H183v-5.18l-2.98.04zM49.82 14c-3 0-5 2.29-5 5.26a4.92 4.92 0 005 5.26 4.67 4.67 0 004.77-3.51l5.2 1.25c-1.26 5-5.25 7.6-10.12 7.6-6.34 0-10.46-4.76-10.46-10.58S43.33 8.67 49.67 8.67c4.89 0 8.82 2.61 10.12 7.67l-5.16 1.3A4.72 4.72 0 0049.82 14zM71.28 24.52a5.27 5.27 0 115-5.26 5 5 0 01-5 5.26zm0-15.86c-5.84.05-10.541 4.815-10.51 10.656.031 5.841 4.782 10.556 10.623 10.544 5.841-.013 10.571-4.749 10.577-10.59A10.37 10.37 0 0071.28 8.66zM94.5 8.66a6.88 6.88 0 017.06 7.16v14h-5.57V17.57a3.3 3.3 0 00-3.32-3.51 3.42 3.42 0 00-2.5 1 3.38 3.38 0 00-.94 2.53v12.22h-5.58V8.8h5.58V11h.38a5.77 5.77 0 014.89-2.34z"/></g></g></svg>