<svg xmlns="http://www.w3.org/2000/svg" width="505.517" height="131.708"><path d="M185.121 60.539C185.121 27.187 143.681 0 92.564 0 41.448 0 .011 27.187.011 60.539.01 61.4 0 63.78 0 64.083c0 35.381 36.219 64.038 92.552 64.038 56.683 0 92.57-28.649 92.57-64.032v-3.55" fill="#2a3980"/><path d="M181.576 60.51c0 31.442-39.843 56.931-88.996 56.931-49.15 0-88.993-25.489-88.993-56.932 0-31.446 39.842-56.936 88.993-56.936 49.153 0 88.996 25.49 88.996 56.936" fill="#469edd"/><path d="M63.03 42.547c-.046.089-.934 1.008-.358 1.746 1.404 1.794 5.741 2.823 10.128 1.839 2.612-.587 5.96-3.25 9.204-5.823 3.513-2.793 7.001-5.588 10.507-6.7 3.71-1.181 6.088-.674 7.66-.2 1.724.515 3.749 1.65 6.982 4.075 6.09 4.579 30.576 25.95 34.806 29.645 3.408-1.538 18.552-8.058 39.129-12.593-1.788-10.97-8.461-21.008-18.581-29.227-14.106 5.926-31.346 9.016-48.203.783-.085-.035-9.21-4.353-18.208-4.141-13.375.31-19.17 6.1-25.301 12.228l-7.764 8.368" fill="#fff"/><path d="M140.964 69.455c-.285-.256-28.79-25.198-35.248-30.051-3.737-2.803-5.815-3.517-7.997-3.796-1.138-.148-2.706.064-3.804.364-3.004.819-6.931 3.444-10.419 6.21-3.61 2.875-7.016 5.583-10.173 6.29-4.036.905-8.966-.163-11.214-1.683-.912-.612-1.552-1.321-1.861-2.041-.83-1.925.703-3.465.953-3.724l7.867-8.508c.913-.912 1.835-1.825 2.777-2.724-2.538.33-4.885.979-7.168 1.613-2.85.803-5.592 1.564-8.365 1.563-1.157 0-7.36-1.017-8.537-1.337-7.119-1.948-13.367-3.844-22.699-8.202-11.181 8.324-18.66 18.734-20.82 30.198 1.607.425 4.196 1.196 5.283 1.437 25.306 5.625 33.188 11.423 34.617 12.632a8.408 8.408 0 016.273-2.812c2.802.004 5.323 1.41 6.858 3.584 1.448-1.144 3.448-2.121 6.03-2.12 1.174 0 2.391.217 3.62.635 2.855.978 4.328 2.88 5.092 4.6a8.447 8.447 0 013.523-.747c1.361 0 2.78.31 4.208.928 4.665 2.003 5.392 6.585 4.97 10.04a8.677 8.677 0 011.005-.055c5.532.004 10.032 4.5 10.029 10.036a9.955 9.955 0 01-1.199 4.736c1.504.847 5.342 2.762 8.711 2.334 2.69-.339 3.713-1.259 4.079-1.776.25-.356.516-.772.269-1.07l-7.14-7.933s-1.176-1.112-.788-1.54c.404-.44 1.13.192 1.644.621 3.633 3.035 8.07 7.615 8.07 7.615.075.05.37.63 2.01.924 1.413.253 3.912.105 5.644-1.316a8.52 8.52 0 001.237-1.27c-.028.022-.052.054-.078.065 1.825-2.336-.203-4.702-.203-4.702l-8.336-9.36s-1.192-1.101-.787-1.545c.363-.385 1.13.196 1.652.63 2.639 2.206 6.368 5.949 9.943 9.45.697.51 3.84 2.455 7.999-.279 2.522-1.654 3.03-3.688 2.96-5.224-.176-2.03-1.762-3.477-1.762-3.477L118.301 67.22s-1.201-1.028-.777-1.547c.348-.437 1.13.192 1.641.62 3.628 3.036 13.448 12.039 13.448 12.039.139.099 3.532 2.515 7.726-.155 1.498-.958 2.456-2.404 2.538-4.081.143-2.913-1.913-4.641-1.913-4.641" fill="#fff"/><path d="M85.735 83.967c-1.767-.02-3.698 1.028-3.95.876-.14-.094.108-.803.274-1.212.169-.406 2.494-7.402-3.174-9.832-4.337-1.864-6.988.233-7.9 1.18-.24.248-.346.228-.373-.088-.088-1.26-.652-4.668-4.395-5.811-5.35-1.637-8.79 2.097-9.662 3.444-.391-3.05-2.97-5.416-6.127-5.419a6.212 6.212 0 00-6.217 6.206 6.21 6.21 0 006.209 6.21 6.168 6.168 0 004.295-1.732c.034.032.049.091.03.21-.26 1.534-.741 7.117 5.103 9.389 2.344.91 4.337.233 5.99-.927.493-.346.573-.2.503.263-.212 1.435.056 4.51 4.364 6.256 3.279 1.332 5.219-.03 6.49-1.205.553-.506.705-.424.733.356.156 4.154 3.607 7.452 7.797 7.456a7.804 7.804 0 007.818-7.802c.004-4.318-3.492-7.77-7.808-7.818" fill="#fff"/><path d="M85.735 99.03c-3.914-.003-7.095-3.043-7.238-6.918-.01-.332-.044-1.215-.792-1.215-.306 0-.574.184-.881.462-.86.797-1.956 1.608-3.556 1.608-.725 0-1.513-.17-2.344-.508-4.132-1.674-4.19-4.512-4.021-5.654.046-.304.061-.621-.148-.866l-.254-.228h-.258c-.21 0-.426.085-.719.292-1.195.84-2.341 1.246-3.507 1.246a5.42 5.42 0 01-1.957-.382c-5.44-2.118-5.01-7.251-4.745-8.796.038-.314-.038-.556-.238-.719l-.384-.316-.358.344a5.6 5.6 0 01-3.906 1.581c-3.116-.002-5.65-2.534-5.648-5.65a5.653 5.653 0 015.656-5.643c2.815 0 5.212 2.117 5.572 4.93l.194 1.517.833-1.284c.093-.15 2.376-3.602 6.573-3.598.798 0 1.623.128 2.452.386 3.346 1.02 3.912 4.054 4 5.317.06.737.583.772.686.772.289 0 .501-.184.653-.341a5.7 5.7 0 014.159-1.755c.984.004 2.032.237 3.114.701 5.316 2.282 2.904 9.038 2.876 9.108-.457 1.12-.476 1.615-.045 1.9l.21.1h.154c.24 0 .537-.104 1.03-.27.725-.25 1.817-.627 2.837-.624h.002c4.003.044 7.259 3.301 7.258 7.258-.004 3.998-3.26 7.246-7.26 7.246zm56.333-32.562c-8.78-7.663-29.073-25.304-34.57-29.43-3.14-2.36-5.28-3.609-7.16-4.169-.845-.254-2.014-.545-3.52-.546-1.397 0-2.898.252-4.466.75-3.552 1.124-7.09 3.938-10.512 6.656l-.176.14c-3.19 2.535-6.484 5.156-8.977 5.714a15.149 15.149 0 01-3.324.372c-2.794-.004-5.302-.811-6.242-2.01-.156-.198-.056-.52.307-.982l.048-.06 7.724-8.326c6.05-6.049 11.764-11.761 24.919-12.064.216-.005.438-.009.656-.009 8.186.004 16.372 3.67 17.29 4.095 7.676 3.745 15.6 5.648 23.566 5.653 8.302.003 16.868-2.052 25.873-6.199a70.805 70.805 0 00-3.13-2.477c-7.911 3.43-15.449 5.163-22.72 5.161-7.427-.008-14.85-1.79-22.054-5.306-.38-.182-9.419-4.443-18.821-4.447-.247 0-.496.004-.743.008-11.048.259-17.272 4.183-21.457 7.62-4.07.099-7.582 1.08-10.707 1.953-2.788.775-5.195 1.447-7.544 1.446-.968 0-2.708-.09-2.865-.095-2.7-.081-16.306-3.419-27.128-7.517a72.818 72.818 0 00-3.204 2.413c11.306 4.636 25.065 8.221 29.408 8.501 1.208.08 2.496.216 3.784.219 2.872 0 5.74-.805 8.514-1.581 1.638-.462 3.447-.962 5.348-1.326-.506.499-1.013 1.004-1.521 1.512l-7.85 8.49c-.617.624-1.958 2.288-1.074 4.337.352.828 1.065 1.617 2.064 2.29 1.87 1.26 5.219 2.111 8.33 2.114a15.144 15.144 0 003.323-.348c3.288-.737 6.739-3.487 10.395-6.393 2.913-2.314 7.05-5.252 10.219-6.115a11.644 11.644 0 012.846-.392c.263.004.508.01.738.044 2.093.265 4.117.977 7.73 3.69 6.442 4.838 34.95 29.777 35.228 30.023.019.016 1.838 1.583 1.711 4.191-.068 1.452-.875 2.744-2.277 3.639-1.216.772-2.474 1.165-3.743 1.165-1.904-.004-3.217-.896-3.301-.957-.106-.086-9.874-9.042-13.466-12.05-.573-.473-1.129-.901-1.69-.901a.929.929 0 00-.747.352c-.567.697.068 1.661.813 2.297l11.41 11.467c.016.012 1.421 1.33 1.576 3.09.089 1.9-.82 3.491-2.71 4.73-1.345.887-2.709 1.337-4.044 1.337a5.878 5.878 0 01-3.253-.988l-1.637-1.613c-2.991-2.943-6.079-5.985-8.34-7.872-.551-.459-1.14-.881-1.7-.881a.967.967 0 00-.719.304c-.259.286-.437.802.204 1.657.265.35.577.641.577.641l8.326 9.352c.069.083 1.716 2.04.188 3.99l-.295.373c-.25.275-.519.528-.773.747-1.422 1.165-3.319 1.29-4.07 1.29-.401 0-.789-.036-1.125-.097-.821-.147-1.373-.376-1.64-.69l-.1-.106c-.456-.47-4.653-4.755-8.125-7.653-.458-.384-1.028-.867-1.619-.867a.99.99 0 00-.752.336c-.687.752.344 1.877.781 2.29l7.103 7.831c-.008.068-.099.231-.27.478-.254.352-1.115 1.213-3.691 1.536-.31.042-.628.057-.943.057-2.656 0-5.49-1.288-6.95-2.063a10.553 10.553 0 001.01-4.5c.003-5.845-4.744-10.6-10.588-10.604-.124 0-.257.004-.383.008.192-2.668-.185-7.721-5.372-9.945-1.492-.645-2.981-.975-4.428-.975a9.006 9.006 0 00-3.246.587c-1.075-2.088-2.858-3.61-5.187-4.401-1.284-.446-2.564-.671-3.801-.671-2.158 0-4.147.635-5.92 1.896-1.699-2.113-4.266-3.364-6.968-3.364-2.366 0-4.64.947-6.326 2.616-2.21-1.688-10.978-7.257-34.444-12.587-1.137-.256-3.745-1.004-5.342-1.472a37.714 37.714 0 00-.6 3.851s4.328 1.036 5.178 1.228C32.88 63.28 40.8 68.816 42.137 69.863a9.038 9.038 0 00-.69 3.448c-.003 4.952 4.024 8.985 8.981 8.989.555 0 1.105-.048 1.647-.148.746 3.644 3.132 6.408 6.776 7.825 1.065.41 2.144.62 3.201.62a8.204 8.204 0 002.045-.256c.672 1.71 2.188 3.842 5.574 5.216 1.186.478 2.374.728 3.528.728.942 0 1.865-.165 2.744-.489a10.596 10.596 0 009.789 6.57 10.572 10.572 0 007.59-3.214c1.71.95 5.32 2.67 8.967 2.676.472 0 .915-.035 1.358-.087 3.622-.457 5.309-1.874 6.084-2.976.138-.192.265-.396.372-.608.854.247 1.796.447 2.872.45 1.98 0 3.877-.675 5.797-2.074 1.885-1.358 3.225-3.31 3.417-4.972l.011-.072a9.557 9.557 0 001.939.199c2.037 0 4.041-.635 5.954-1.89 3.694-2.42 4.335-5.582 4.274-7.653a9.552 9.552 0 001.962.204c1.912 0 3.79-.574 5.579-1.716 2.29-1.461 3.667-3.702 3.876-6.309a8.515 8.515 0 00-1.23-5.096c6.186-2.665 20.327-7.824 36.978-11.577a37.71 37.71 0 00-.517-3.836c-20.148 4.472-35.182 10.978-38.947 12.653M492.228 45.977c-1.623 2.152-3.94 3.228-6.97 3.228-3.027 0-5.358-1.076-6.991-3.228-1.635-2.149-2.45-5.21-2.45-9.176 0-3.961.815-7.014 2.45-9.154 1.633-2.139 3.964-3.21 6.99-3.21 3.031 0 5.348 1.071 6.971 3.21 1.62 2.14 2.432 5.193 2.432 9.154 0 3.966-.812 7.027-2.432 9.176zm8.279-24.012c-3.342-4.186-8.411-6.278-15.219-6.278-6.797 0-11.87 2.092-15.208 6.278-3.344 4.184-5.016 9.13-5.016 14.836 0 5.807 1.672 10.77 5.016 14.902 3.339 4.117 8.41 6.184 15.208 6.184 6.808 0 11.877-2.067 15.219-6.184 3.344-4.132 5.01-9.095 5.01-14.902 0-5.706-1.666-10.652-5.01-14.836M409.864 41.09c-.07 3.474-1.065 5.866-2.977 7.177-1.911 1.312-4 1.97-6.263 1.97-1.435 0-2.648-.398-3.648-1.186-.997-.79-1.495-2.072-1.495-3.846 0-1.989.815-3.457 2.448-4.406.974-.556 2.559-1.035 4.776-1.415l2.367-.439c1.177-.224 2.104-.462 2.781-.718.686-.25 1.347-.579 2.011-.998zm5.263-22.625c-3.388-1.718-7.266-2.585-11.631-2.585-6.705 0-11.44 1.752-14.195 5.245-1.734 2.238-2.705 5.09-2.932 8.562h10.02c.248-1.532.74-2.746 1.48-3.643 1.034-1.213 2.788-1.82 5.274-1.82 2.221 0 3.898.304 5.046.93 1.14.618 1.716 1.742 1.716 3.366 0 1.339-.742 2.319-2.24 2.953-.833.366-2.213.668-4.15.911l-3.552.437c-4.036.508-7.099 1.362-9.175 2.554-3.795 2.185-5.69 5.716-5.69 10.598 0 3.762 1.174 6.672 3.537 8.724 2.35 2.052 5.346 2.914 8.961 3.082 22.661 1.012 22.405-11.943 22.613-14.638V28.23c0-4.781-1.697-8.038-5.082-9.764M363.452 24.763c2.59 0 4.492.8 5.721 2.398a8.91 8.91 0 011.576 3.998h11.178c-.612-5.64-2.587-9.578-5.918-11.808-3.344-2.222-7.625-3.34-12.858-3.34-6.158 0-10.994 1.893-14.486 5.666-3.502 3.78-5.252 9.062-5.252 15.852 0 6.014 1.583 10.915 4.75 14.692 3.169 3.775 8.112 5.666 14.825 5.666 6.724 0 11.8-2.264 15.22-6.794 2.145-2.805 3.348-5.785 3.601-8.934h-11.141c-.227 2.081-.877 3.78-1.956 5.086-1.075 1.303-2.885 1.96-5.448 1.96-3.61 0-6.064-1.644-7.37-4.942-.713-1.759-1.075-4.088-1.075-6.987 0-3.041.362-5.479 1.076-7.32 1.357-3.459 3.877-5.193 7.557-5.193M340.416 16.01c-22.961 0-21.604 20.331-21.604 20.331v20.654h10.421V37.624c0-3.173.402-5.524 1.196-7.053 1.43-2.708 4.222-4.067 8.39-4.067a28.363 28.363 0 012.982.187V16.088c-.464-.03-.762-.044-.893-.057a6.096 6.096 0 00-.492-.02M288.132 26.801c1.465-1.505 3.523-2.26 6.18-2.26 2.443 0 4.487.708 6.14 2.134 1.645 1.421 2.568 3.509 2.753 6.252h-17.829c.373-2.578 1.295-4.616 2.756-6.126zm14.008 19.403c-.437.624-.91 1.159-1.428 1.576-1.47 1.212-3.47 1.58-5.825 1.58-2.227 0-3.968-.337-5.547-1.332-2.599-1.597-4.063-4.301-4.219-8.272h28.834c.038-3.416-.071-6.033-.347-7.855-.479-3.1-1.533-5.833-3.15-8.185-1.8-2.667-4.086-4.619-6.845-5.86-2.757-1.23-5.858-1.848-9.301-1.848-5.808 0-10.521 1.83-14.157 5.485-3.635 3.664-5.46 8.916-5.46 15.774 0 7.32 2.014 12.602 6.046 15.849 4.023 3.245 8.678 4.872 13.943 4.872 6.38 0 11.347-1.924 14.89-5.776 1.911-2.027 3.11-4.03 3.615-6.008H302.14M270.512 56.99h-9.519V33.024c0-2.19-.724-7.398-7.002-7.398-4.184 0-7.214 3.019-7.214 7.398V56.99h-9.528V33.023c0-2.19-.65-7.398-6.925-7.398-4.259 0-7.219 3.019-7.219 7.398V56.99h-9.524V33.25c0-9.896 6.566-17.379 16.743-17.379 5.052 0 9.161 2.123 11.835 5.521 2.812-3.398 6.996-5.521 11.832-5.521 10.39 0 16.521 7.18 16.521 17.379v23.74M449.465 46.064c-1.521 2.18-3.756 3.27-6.68 3.27-2.934 0-5.117-1.1-6.554-3.289-1.438-2.194-2.156-5.386-2.156-9.04 0-3.39.702-6.229 2.12-8.517 1.413-2.285 3.632-3.433 6.661-3.433 1.987 0 3.727.629 5.232 1.888 2.445 2.082 3.667 5.82 3.667 10.658 0 3.462-.764 6.283-2.29 8.463zm12.5-42.57s-10.497-1.12-10.497 7.31l-.008 11.164c-1.161-1.865-2.672-3.325-4.536-4.375-1.86-1.052-3.99-1.582-6.393-1.582-5.207 0-9.355 1.94-12.47 5.81-3.114 3.876-4.664 9.46-4.664 16.214 0 5.86 1.579 10.664 4.738 14.405 3.158 3.736 9.353 5.376 14.856 5.376 19.188 0 18.966-16.455 18.966-16.455l.008-37.866" fill="#2a3980"/><path d="M307.137 94.933c0-3.929-.765-6.949-2.302-9.069-1.531-2.108-3.727-3.176-6.586-3.176-2.756 0-4.901 1.068-6.44 3.176-1.425 1.917-2.136 4.948-2.136 9.07 0 3.84.763 6.7 2.298 8.617 1.528 2.12 3.726 3.176 6.585 3.176 2.652 0 4.748-1.056 6.279-3.176 1.537-2.116 2.302-4.98 2.302-8.618m-17.464 28.195c0 1.41-.513 2.621-1.538 3.627-1.016 1.009-2.243 1.513-3.675 1.513h-5.203v-36.21c0-7.042 2.372-11.451 6.279-14.431 2.58-1.971 6.427-3.851 13.632-3.851 4.865 0 10.563 1.888 13.641 5.64 3.454 4.22 4.894 8.923 4.894 15.064 0 6.353-1.532 11.479-4.595 15.419-3.063 3.833-6.997 5.741-11.796 5.741-2.552 0-4.797-.455-6.737-1.355-2.05-1.01-3.675-2.57-4.902-4.689v13.532M369.593 94.939c0 6.945 2.007 10.794 6.02 11.556 4.006.742 6.97-.188 8.875-2.802.904-1.1 1.553-2.844 1.953-5.204.399-2.364.431-4.706.079-7.021-.347-2.321-1.18-4.385-2.484-6.197-1.3-1.81-3.21-2.719-5.717-2.719-3.411 0-5.714 1.264-6.919 3.77-1.21 2.523-1.807 5.391-1.807 8.617m17.154 17.362v-2.558c-1.806 2.825-4.243 4.574-7.3 5.285-3.063.7-6.094.45-9.096-.761-3.014-1.203-5.599-3.446-7.758-6.714-2.152-3.282-3.229-7.586-3.229-12.924 0-6.233 1.43-11.298 4.284-15.173 2.861-3.875 7.452-5.643 13.77-5.816 6.227-.164 9.846 1.245 13.391 3.93 3.875 2.94 6.167 7.453 6.167 14.495v21.303c.015 6.779-4.712 19.341-19.557 18.276-9.199-.667-14.303-4.44-17.152-12.99h10.982c.802 1.406 2.028 2.489 3.692 3.238 1.647.765 3.311.96 4.954.608 1.653-.352 3.161-1.337 4.524-2.941 1.345-1.612 2.122-4.032 2.328-7.258M345.184 99.139c-.065 3.477-1.063 5.864-2.972 7.177-1.908 1.31-3.997 1.967-6.263 1.967-1.434 0-2.648-.398-3.645-1.184-1-.788-1.5-2.074-1.5-3.847 0-1.987.817-3.457 2.453-4.405.974-.556 2.558-1.035 4.774-1.414l2.364-.44c1.182-.224 2.109-.46 2.778-.717.688-.25 1.35-.58 2.011-.997zm5.268-22.624c-3.39-1.715-7.268-2.583-11.628-2.583-6.713 0-11.443 1.75-14.2 5.243-1.73 2.234-2.705 5.088-2.93 8.562h10.026c.245-1.533.735-2.746 1.477-3.642 1.034-1.214 2.791-1.822 5.271-1.822 2.227 0 3.901.306 5.047.93 1.14.62 1.716 1.742 1.716 3.369 0 1.336-.746 2.32-2.24 2.952-.831.364-2.211.667-4.151.91l-3.552.434c-4.033.51-7.099 1.367-9.17 2.555-3.8 2.185-5.691 5.716-5.691 10.596 0 3.762 1.17 6.673 3.536 8.724 2.349 2.05 5.344 2.916 8.958 3.082 22.656 1.014 22.403-11.944 22.61-14.637v-14.91c0-4.783-1.691-8.035-5.079-9.763M428.108 103.804c-1.617 2.155-3.94 3.23-6.965 3.23-3.03 0-5.363-1.075-6.991-3.23-1.64-2.147-2.452-5.207-2.452-9.17 0-3.962.812-7.015 2.452-9.153 1.628-2.142 3.961-3.208 6.99-3.208 3.026 0 5.349 1.066 6.966 3.208 1.625 2.138 2.433 5.191 2.433 9.152 0 3.964-.808 7.024-2.433 9.171m8.284-24.005c-3.347-4.19-8.419-6.279-15.224-6.279-6.792 0-11.867 2.09-15.208 6.279-3.344 4.182-5.013 9.125-5.013 14.834 0 5.807 1.669 10.768 5.013 14.899 3.341 4.115 8.416 6.181 15.208 6.181 6.805 0 11.877-2.066 15.224-6.181 3.339-4.13 5.003-9.092 5.003-14.899 0-5.709-1.664-10.652-5.003-14.834" fill="#469edd"/></svg>