<svg xmlns="http://www.w3.org/2000/svg" xmlns:xlink="http://www.w3.org/1999/xlink" width="203.293" height="47.213"><defs><path id="a" d="M5.12.096v5.157H0V.096z"/><path id="c" d="M5.173.019v5.157H.053V.019z"/><path id="e" d="M5.366.096V7.8H.09V.096z"/><path id="g" d="M203.293 47.213V0H0v47.213z"/></defs><g fill="none" fill-rule="evenodd"><g transform="translate(0 6.893)"><mask id="b" fill="#fff"><use xlink:href="#a" width="100%" height="100%"/></mask><path d="M2.558 5.253a2.57 2.57 0 002.563-2.577A2.572 2.572 0 002.558.096C1.148.096 0 1.252 0 2.676a2.57 2.57 0 002.558 2.577" fill="#009bdd" mask="url(#b)"/></g><g transform="translate(198.12 27.173)"><mask id="d" fill="#fff"><use xlink:href="#c" width="100%" height="100%"/></mask><path d="M2.61 5.176A2.57 2.57 0 005.173 2.6 2.572 2.572 0 002.61.019C1.2.019.053 1.175.053 2.599A2.568 2.568 0 002.61 5.177" fill="#6b1a6b" mask="url(#d)"/></g><path d="M79.506 16.73l-.002-.01c-.006-2.873-1.003-5.297-2.814-6.934l-.127-.114-.03-.026h-.005c-1.704-1.463-4.01-2.235-6.746-2.26a.626.626 0 00-.135.001l-.02-.002c-.083 0-.138.002-.178.004a2.37 2.37 0 00-.144-.004l-.04.001a.804.804 0 00-.081-.004h-.024c-.014 0-.033 0-.053.003-2.73.03-5.028.799-6.726 2.26h-.008l-.156.141c-1.804 1.63-2.801 4.043-2.814 6.902l-.001.003-.003.01-.014 14.798a.73.73 0 00.232.53c.147.14.354.221.561.221h2.634a.826.826 0 00.56-.221.722.722 0 00.233-.53l.006-14.298c.016-2.094.551-3.58 1.519-4.56.937-.95 2.366-1.487 4.335-1.526 1.95.039 3.377.575 4.314 1.525.966.982 1.502 2.467 1.519 4.565L75.294 31.5a.73.73 0 00.231.53c.149.14.355.221.562.221h2.638a.824.824 0 00.56-.221.719.719 0 00.233-.53zM171.333 16.73v-.01c-.007-2.873-1.004-5.297-2.815-6.934l-.127-.114-.03-.026h-.005c-1.704-1.463-4.01-2.235-6.746-2.26a.624.624 0 00-.135.001l-.02-.002c-.083 0-.138.002-.179.004a2.366 2.366 0 00-.143-.004l-.041.001a.805.805 0 00-.08-.004h-.025c-.014 0-.033 0-.053.003-2.728.03-5.027.799-6.726 2.26h-.008l-.155.141c-1.804 1.63-2.801 4.043-2.814 6.902l-.001.003-.003.01-.014 14.798a.73.73 0 00.232.53c.147.14.354.221.561.221h2.634a.826.826 0 00.56-.221.722.722 0 00.232-.53l.006-14.298c.017-2.094.552-3.58 1.52-4.56.937-.95 2.366-1.487 4.335-1.526 1.949.039 3.377.575 4.314 1.525.966.982 1.502 2.467 1.519 4.565l-.004 14.294c0 .198.084.392.231.53.149.14.355.221.562.221h2.638a.824.824 0 00.56-.221.719.719 0 00.233-.53zM122.874 9.909a.43.43 0 00-.048-.051c-1.5-1.384-3.898-2.24-6.677-2.244-.038-.005-.096-.005-.15-.005-2.285 0-4.54.477-6.5 2.155h-.001V8.294h.004V.836a.727.727 0 00-.232-.527.827.827 0 00-.562-.221h-2.595a.831.831 0 00-.56.22.72.72 0 00-.233.528v7.457h.002v15.83h-.002v7.416c0 .196.086.39.232.526.149.14.354.221.563.221h2.594c.208 0 .413-.08.561-.22a.712.712 0 00.233-.527v-1.533c1.732 1.936 4.217 2.603 6.496 2.602h.16c2.774-.009 5.173-.866 6.667-2.247 2.797-2.647 3.436-6.704 3.445-10.475-.008-3.752-.648-7.34-3.397-9.977zm-.78 9.976V19.997c-.006 2.357-.257 4.66-1.153 6.307-.88 1.586-2.297 2.644-5.048 2.686a.81.81 0 00-.103 0h-.046c-2.769-.028-4.204-1.088-5.09-2.689-.903-1.654-1.156-3.975-1.156-6.347v-.143c.002-2.355.253-4.246 1.157-5.893.885-1.6 2.32-2.663 5.09-2.688h.106c2.77.025 4.201 1.086 5.093 2.691.898 1.644 1.15 3.535 1.15 5.89zM56.45 15.633v-.017c.001-2.51-.834-4.66-2.583-6.098-1.763-1.448-4.292-2.128-7.549-2.13h-.162c-3.419-.01-6.135.735-8.202 2.935l-.008-.008-.119.142a9.663 9.663 0 00-.46.546l-.21.25a.719.719 0 00-.163.554c.022.205.125.4.282.536l.12.104c.046.055.096.106.152.153l.463.38 1.23 1.064c.157.137.365.21.567.2.2-.008.388-.099.513-.25l.791-.937h-.001c.492-.535.998-.914 1.61-1.181.862-.38 1.97-.556 3.569-.571h.019l.054-.003c2.276.006 3.691.468 4.502 1.18.808.7 1.219 1.757 1.225 3.402 0 .01 0 .04.003.077v1.551h-6.756c-2.726.006-5.006.622-6.65 1.905-1.635 1.255-2.546 3.188-2.547 5.438v.085c.005 1.875.709 3.714 1.99 4.992 1.729 1.704 4.032 2.323 7.513 2.323h1.803c3.187.003 5.474-.784 6.946-2.373 1.47-1.588 2.059-3.884 2.059-6.74v-7.466zm-4.357 7.628c-.006 1.98-.44 3.073-1.021 3.582-1.404 1.296-3.142 1.49-5.259 1.494h-.062c-2.038.003-3.378-.35-4.137-.9-.722-.522-1.094-1.268-1.112-2.55v-.06c.014-1.272.4-2.067 1.13-2.627.763-.58 2.048-.958 3.973-.958h6.487zM148.307 15.668v-.018c0-2.508-.834-4.657-2.585-6.093-1.76-1.447-4.291-2.127-7.547-2.128H138.013c-3.42-.01-6.135.734-8.202 2.932l-.009-.007-.118.142c-.156.171-.308.35-.457.538l-.003.006-.211.251a.719.719 0 00-.163.554c.022.204.125.4.283.536l.12.103c.046.054.096.106.152.153l.462.379 1.23 1.063c.158.137.366.211.566.2.201-.007.389-.098.515-.249l.79-.937v-.001c.492-.534.998-.913 1.609-1.18.863-.378 1.97-.556 3.57-.57h.018l.055-.003c2.275.005 3.69.469 4.501 1.18.809.698 1.218 1.756 1.225 3.4 0 .01 0 .04.003.077v1.55h-6.756c-2.726.006-5.005.62-6.65 1.904-1.635 1.254-2.546 3.185-2.547 5.435l.001.085c.004 1.874.709 3.711 1.989 4.987 1.73 1.704 4.033 2.323 7.513 2.323h1.803c3.187.003 5.474-.785 6.947-2.372 1.47-1.586 2.059-3.882 2.059-6.736v-7.461zm-15.949 9.247v-.058c.014-1.272.4-2.066 1.13-2.625.764-.582 2.049-.958 3.973-.958h6.488v2.016c-.006 1.979-.44 3.071-1.021 3.582-1.404 1.293-3.141 1.488-5.26 1.493h-.06c-2.04.002-3.378-.351-4.138-.902-.722-.52-1.093-1.265-1.112-2.548zM15.859 7.476h-4.45l-.003-4.51h-.002V.781c0-.391-.344-.711-.767-.711H7.96c-.202 0-.4.075-.54.207a.697.697 0 00-.228.504v4.022h.002V25.95c.002 1.718.496 3.264 1.584 4.436 1.036 1.133 2.716 1.84 4.656 1.84h1.297v-.015h1.127a.716.716 0 00.524-.234.833.833 0 00.218-.566v-2.614a.836.836 0 00-.218-.564.709.709 0 00-.524-.234H13.79c-.418-.016-.754-.067-1.047-.17a1.776 1.776 0 01-.41-.205c-.118-.084-.183-.124-.3-.245-.398-.417-.619-1.076-.625-2.058V11.688h4.45a.716.716 0 00.525-.233.837.837 0 00.218-.566V8.274a.838.838 0 00-.218-.564.709.709 0 00-.524-.234M35.049 10.564l-.247-.275a.231.231 0 00-.058-.093l-.15-.154.001-.001-.205-.212-.169-.187-.007.007C32.7 8.056 30.816 7.384 28.81 7.382l-.157.002c-1.425 0-3.106.64-4.116 1.855l-.695.826V8.22a.723.723 0 00-.232-.528.826.826 0 00-.562-.22h-2.594a.824.824 0 00-.562.22.716.716 0 00-.231.527V31.51c0 .198.084.39.231.528.148.14.353.22.562.22h.448c.014.002.029.005.043.005h1.634c.015 0 .03-.003.044-.004h.426c.207 0 .412-.08.561-.221a.718.718 0 00.232-.528v-.403l.001-.015V17.274 16.1c.077-1.283.485-2.44 1.153-3.28.716-.897 1.766-1.479 3.181-1.483.75 0 1.242.09 1.669.267.411.18.83.487 1.381 1.055l.125.128.564.628a.72.72 0 00.53.238.832.832 0 00.568-.219l1.944-1.77a.844.844 0 00.272-.548.723.723 0 00-.18-.553M100.418 19.517c-.01-.008-.023-.014-.032-.02h-.003c-1.514-1.058-3.433-1.426-5.498-1.603l-3.873-.326c-1.611-.135-2.61-.47-3.19-.926-.491-.375-.796-.98-.805-1.91v-.021h-.003l.003-.048c.009-1.1.436-1.9 1.196-2.443.81-.584 2.108-.956 3.944-.958h.018c2.342.004 4.28.55 5.896 1.589l-.002.003.982.689c.157.11.357.151.55.106a.81.81 0 00.49-.332l1.446-2.109a.832.832 0 00.139-.58.714.714 0 00-.118-.3.747.747 0 00-.23-.266l-.166-.12c-2.309-1.645-5.528-2.568-8.998-2.573-2.78 0-5.15.669-6.87 1.948-1.707 1.258-2.71 3.16-2.712 5.326l.001.03V14.745c0 1.914.709 3.606 2.125 4.758 1.431 1.171 3.446 1.795 5.983 2l3.98.322c1.459.133 2.37.458 2.907.907.469.38.768.983.77 1.944v.06c-.01 1.212-.498 2.048-1.409 2.628-.977.62-2.566 1-4.775 1h-.015a.438.438 0 00-.041.002h-.02c-2.915-.014-4.987-.669-6.6-2.001l-.839-.71a.707.707 0 00-.552-.161.83.83 0 00-.527.294l-1.667 2.014a.84.84 0 00-.193.578c.01.203.103.394.253.52l.79.67-.002.003.047.034.103.087.007-.008c2.447 1.772 5.501 2.62 9.24 2.62h.067c3.083-.004 5.684-.672 7.583-1.982 1.876-1.292 2.994-3.287 2.991-5.587v-.115c.004-2.32-.895-4.068-2.371-5.104M195.953 31.216l-3.247-4.582-6.505-9.5 5.056-5.369 2.943-3.11.179-.2c.34-.342.173-.698.026-.834a.823.823 0 00-.562-.222h-3.38c-.2 0-.461.156-.609.287-.003.001.003-.001 0 0l-11.35 12.106V.748a.73.73 0 00-.232-.527.827.827 0 00-.562-.221h-2.595a.824.824 0 00-.56.22.717.717 0 00-.234.528v30.758c0 .197.085.392.232.53a.83.83 0 00.563.22h2.595a.833.833 0 00.561-.22.722.722 0 00.232-.53v-6.208l4.917-5.33 3.309 4.952h-.014l4.652 6.953c.11.155.28.4.67.4h3.38a.823.823 0 00.561-.222c.147-.138.245-.493-.026-.835" fill="#d7006d"/><path d="M87.108 47.148l-.606-1.711h-3.31l-.606 1.711h-.863l2.79-7.575h.68l2.775 7.575zm-2.245-6.415l-1.426 4h2.83zM92.533 44.032h-2.01v3.116h-.81v-7.576h2.82c1.384 0 2.342.863 2.342 2.225s-.958 2.235-2.342 2.235m-.074-3.735h-1.937v3.01h1.937c.947 0 1.605-.51 1.605-1.51s-.658-1.5-1.605-1.5M101.236 46.426a2.68 2.68 0 01-1.935.786 2.686 2.686 0 01-1.939-.786c-.712-.715-.712-1.458-.712-3.065s0-2.352.712-3.064a2.692 2.692 0 011.939-.789c.754 0 1.424.279 1.935.789.712.712.712 1.457.712 3.064s0 2.35-.712 3.065m-.628-5.65a1.832 1.832 0 00-1.307-.543c-.501 0-.982.202-1.31.542-.48.49-.532 1-.532 2.586 0 1.586.053 2.097.531 2.584.33.343.81.545 1.31.545s.979-.202 1.308-.545c.48-.487.533-.998.533-2.584 0-1.585-.054-2.096-.533-2.586M105.513 47.148v-3.127l-2.256-4.448h.873l1.787 3.628 1.766-3.628h.873l-2.235 4.448v3.127zM114.247 47.148l-.607-1.711h-3.308l-.607 1.711h-.861l2.787-7.575h.68l2.778 7.575zm-2.245-6.415l-1.427 4h2.831zM117.66 47.148h-.808v-7.575h.765l4.024 6.054v-6.054h.808v7.575h-.766l-4.022-6.075zM129.672 46.447c-.457.457-1.127.701-1.914.701h-2.596v-7.575h2.596c.787 0 1.457.245 1.914.703.788.787.745 1.947.745 3 0 1.054.043 2.383-.745 3.171m-.562-5.597c-.395-.405-.904-.553-1.49-.553h-1.65v6.13h1.65c.586 0 1.095-.15 1.49-.556.521-.542.5-1.67.5-2.594 0-.925.021-1.885-.5-2.427M137.14 46.426c-.509.51-1.179.786-1.934.786a2.674 2.674 0 01-1.936-.786c-.714-.715-.714-1.458-.714-3.065s0-2.352.714-3.064a2.68 2.68 0 011.936-.789c.755 0 1.425.279 1.935.789.713.712.713 1.457.713 3.064s0 2.35-.713 3.065m-.628-5.65a1.828 1.828 0 00-1.307-.543c-.501 0-.98.202-1.31.542-.478.49-.53 1-.53 2.586 0 1.586.052 2.097.53 2.584.33.343.809.545 1.31.545.5 0 .978-.202 1.307-.545.48-.487.533-.998.533-2.584 0-1.585-.054-2.096-.533-2.586M144.258 47.148h-.808v-7.575h.766l4.023 6.054v-6.054h.807v7.575h-.764l-4.024-6.075zM156.462 39.573v.724h-3.895v2.67h3.321v.724h-3.32v2.735h3.894v.722h-4.704v-7.575zM163.048 46.34a2.705 2.705 0 01-2.022.872 2.695 2.695 0 01-1.936-.786c-.714-.715-.714-1.458-.714-3.065s0-2.352.714-3.064a2.682 2.682 0 011.936-.789c1.446 0 2.425.937 2.65 2.267h-.81c-.212-.957-.893-1.542-1.84-1.542-.501 0-.98.202-1.31.542-.478.49-.531 1-.531 2.586 0 1.586.053 2.107.531 2.596.33.341.809.533 1.31.533.553 0 1.085-.224 1.435-.651.31-.371.427-.786.427-1.372v-.574h-1.862v-.712h2.67v1.201c0 .873-.181 1.457-.648 1.958M170.399 46.426a2.68 2.68 0 01-1.937.786 2.685 2.685 0 01-1.937-.786c-.713-.715-.713-1.458-.713-3.065s0-2.352.713-3.064a2.691 2.691 0 011.937-.789c.757 0 1.426.279 1.937.789.712.712.712 1.457.712 3.064s0 2.35-.712 3.065m-.628-5.65a1.833 1.833 0 00-1.309-.543c-.5 0-.978.202-1.308.542-.48.49-.533 1-.533 2.586 0 1.586.053 2.097.533 2.584.33.343.808.545 1.308.545s.98-.202 1.309-.545c.48-.487.532-.998.532-2.584 0-1.585-.053-2.096-.532-2.586" fill="#807f80"/><g transform="translate(173.16 39.413)"><mask id="f" fill="#fff"><use xlink:href="#e" width="100%" height="100%"/></mask><path d="M2.739 7.8a2.704 2.704 0 01-1.936-.787C.089 6.3.089 5.556.089 3.948c0-1.607 0-2.351.714-3.064A2.702 2.702 0 012.739.096c1.361 0 2.373.83 2.627 2.255h-.83c-.2-.924-.85-1.53-1.797-1.53-.5 0-.98.19-1.308.53-.48.49-.533 1.011-.533 2.597 0 1.587.053 2.107.533 2.596.329.341.807.534 1.308.534.947 0 1.617-.608 1.82-1.533h.807C5.122 6.97 4.09 7.8 2.74 7.8" fill="#807f80" mask="url(#f)"/></g><mask id="h" fill="#fff"><use xlink:href="#g" width="100%" height="100%"/></mask><path fill="#807f80" mask="url(#h)" d="M181.643 39.572h-.808v7.576h.808zM188.656 46.426c-.512.51-1.181.786-1.937.786a2.678 2.678 0 01-1.936-.786c-.714-.715-.714-1.458-.714-3.065s0-2.352.714-3.064c.51-.51 1.18-.789 1.936-.789a2.69 2.69 0 011.937.789c.712.712.712 1.457.712 3.064s0 2.35-.712 3.065m-.63-5.65a1.83 1.83 0 00-1.307-.543c-.501 0-.979.202-1.309.542-.479.49-.533 1-.533 2.586 0 1.586.054 2.097.533 2.584.33.343.808.545 1.31.545.499 0 .978-.202 1.307-.545.48-.487.533-.998.533-2.584 0-1.585-.053-2.096-.533-2.586M193.74 47.213c-1.138 0-1.883-.288-2.597-1l.555-.553c.627.628 1.213.83 2.064.83 1.107 0 1.788-.522 1.788-1.405 0-.395-.119-.734-.362-.947-.246-.213-.437-.278-.99-.364l-.883-.137c-.597-.095-1.064-.287-1.393-.573-.385-.342-.575-.809-.575-1.417 0-1.287.925-2.139 2.425-2.139.969 0 1.608.246 2.255.831l-.52.522c-.468-.426-.97-.648-1.767-.648-1.01 0-1.595.563-1.595 1.403 0 .373.106.672.338.872.235.203.63.351 1.023.416l.83.127c.714.106 1.064.256 1.383.532.415.35.638.874.638 1.5 0 1.33-1.042 2.15-2.617 2.15"/><path d="M166.896.235h.458l.681 2.006.683-2.006h.452v2.373h-.305V1.204l.002-.24c0-.112.007-.226.007-.357l-.68 2.001h-.32l-.68-2.001V.94c.005.125.005.21.005.263v1.404h-.303zM170.543.235h1.084c.177 0 .327.025.437.08.221.097.328.284.328.557a.62.62 0 01-.085.35.7.7 0 01-.252.22c.093.04.17.087.216.148a.54.54 0 01.07.302l.017.313a1 1 0 00.021.205c.022.07.056.12.106.14v.058h-.394c-.01-.025-.016-.05-.027-.078a1.015 1.015 0 01-.013-.188l-.022-.397c-.011-.158-.062-.262-.167-.313a.716.716 0 00-.285-.042h-.714v1.018h-.32zm1.048 1.085a.61.61 0 00.35-.09c.08-.055.127-.164.127-.327 0-.165-.057-.283-.181-.346a.569.569 0 00-.255-.048h-.769v.81zM169.87 2.596c-.092 0-.155-.068-.155-.173 0-.104.065-.175.164-.175.094 0 .16.07.16.175 0 .105-.066.173-.17.173M173.118 2.596c-.095 0-.164-.068-.164-.173 0-.104.07-.175.167-.175.1 0 .164.07.164.175 0 .105-.064.173-.165.173z" fill="#d7006d" mask="url(#h)"/></g></svg>